<mxfile host="app.diagrams.net" modified="2023-09-09T18:43:22.287Z" agent="Mozilla/5.0 (Windows NT 10.0; Win64; x64) AppleWebKit/537.36 (KHTML, like Gecko) Chrome/116.0.0.0 Safari/537.36 Edg/116.0.1938.76" etag="jEiV4JseH3lScx5CPNwQ" version="21.6.9" type="github">
  <diagram name="第 1 页" id="qRfJTNIlf2vw88RVJpCF">
    <mxGraphModel dx="3033" dy="2048" grid="1" gridSize="10" guides="1" tooltips="1" connect="1" arrows="1" fold="1" page="1" pageScale="1" pageWidth="827" pageHeight="1169" math="0" shadow="0">
      <root>
        <mxCell id="0" />
        <mxCell id="1" parent="0" />
        <mxCell id="JddVZA8G2uNzgZXX8My_-156" value="" style="rounded=1;whiteSpace=wrap;html=1;fillColor=none;strokeWidth=2;dashed=1;dashPattern=8 8;" vertex="1" parent="1">
          <mxGeometry x="1143.75" y="690" width="280" height="180" as="geometry" />
        </mxCell>
        <mxCell id="JddVZA8G2uNzgZXX8My_-148" value="" style="rounded=1;whiteSpace=wrap;html=1;fillColor=none;strokeWidth=2;dashed=1;dashPattern=8 8;" vertex="1" parent="1">
          <mxGeometry x="93" y="690" width="990" height="180" as="geometry" />
        </mxCell>
        <mxCell id="JddVZA8G2uNzgZXX8My_-150" value="" style="rounded=1;whiteSpace=wrap;html=1;fillColor=#d5e8d4;strokeColor=#82b366;" vertex="1" parent="1">
          <mxGeometry x="830" y="790" width="226" height="60" as="geometry" />
        </mxCell>
        <mxCell id="JddVZA8G2uNzgZXX8My_-149" value="" style="rounded=1;whiteSpace=wrap;html=1;fillColor=#f8cecc;strokeColor=#b85450;" vertex="1" parent="1">
          <mxGeometry x="830" y="705" width="226" height="60" as="geometry" />
        </mxCell>
        <mxCell id="JddVZA8G2uNzgZXX8My_-95" value="" style="rounded=1;whiteSpace=wrap;html=1;fillColor=#ffe6cc;strokeColor=#d79b00;" vertex="1" parent="1">
          <mxGeometry x="589" y="790" width="226" height="60" as="geometry" />
        </mxCell>
        <mxCell id="JddVZA8G2uNzgZXX8My_-96" value="" style="rounded=1;whiteSpace=wrap;html=1;fillColor=#ffe6cc;strokeColor=#d79b00;" vertex="1" parent="1">
          <mxGeometry x="350" y="790" width="226" height="60" as="geometry" />
        </mxCell>
        <mxCell id="JddVZA8G2uNzgZXX8My_-97" value="" style="rounded=1;whiteSpace=wrap;html=1;fillColor=#ffe6cc;strokeColor=#d79b00;" vertex="1" parent="1">
          <mxGeometry x="111" y="790" width="226" height="60" as="geometry" />
        </mxCell>
        <mxCell id="JddVZA8G2uNzgZXX8My_-93" value="" style="rounded=1;whiteSpace=wrap;html=1;fillColor=#dae8fc;strokeColor=#6c8ebf;" vertex="1" parent="1">
          <mxGeometry x="589" y="704.89" width="226" height="60" as="geometry" />
        </mxCell>
        <mxCell id="JddVZA8G2uNzgZXX8My_-92" value="" style="rounded=1;whiteSpace=wrap;html=1;fillColor=#dae8fc;strokeColor=#6c8ebf;" vertex="1" parent="1">
          <mxGeometry x="350" y="704.89" width="226" height="60" as="geometry" />
        </mxCell>
        <mxCell id="JddVZA8G2uNzgZXX8My_-29" value="" style="rounded=0;whiteSpace=wrap;html=1;fillColor=#d5e8d4;strokeColor=#82b366;" vertex="1" parent="1">
          <mxGeometry x="680" y="60" width="180" height="80" as="geometry" />
        </mxCell>
        <mxCell id="JddVZA8G2uNzgZXX8My_-21" value="" style="rounded=0;whiteSpace=wrap;html=1;fillColor=#dae8fc;strokeColor=#6c8ebf;" vertex="1" parent="1">
          <mxGeometry x="260" y="460" width="420" height="80" as="geometry" />
        </mxCell>
        <mxCell id="JddVZA8G2uNzgZXX8My_-22" value="" style="rounded=0;whiteSpace=wrap;html=1;fillColor=#dae8fc;strokeColor=#6c8ebf;" vertex="1" parent="1">
          <mxGeometry x="260" y="300" width="420" height="80" as="geometry" />
        </mxCell>
        <mxCell id="JddVZA8G2uNzgZXX8My_-23" value="" style="rounded=0;whiteSpace=wrap;html=1;fillColor=#dae8fc;strokeColor=#6c8ebf;" vertex="1" parent="1">
          <mxGeometry x="260" y="380" width="420" height="80" as="geometry" />
        </mxCell>
        <mxCell id="JddVZA8G2uNzgZXX8My_-24" value="" style="rounded=0;whiteSpace=wrap;html=1;fillColor=#dae8fc;strokeColor=#6c8ebf;" vertex="1" parent="1">
          <mxGeometry x="260" y="220" width="420" height="80" as="geometry" />
        </mxCell>
        <mxCell id="JddVZA8G2uNzgZXX8My_-25" value="" style="rounded=0;whiteSpace=wrap;html=1;fillColor=#dae8fc;strokeColor=#6c8ebf;" vertex="1" parent="1">
          <mxGeometry x="260" y="60" width="420" height="80" as="geometry" />
        </mxCell>
        <mxCell id="JddVZA8G2uNzgZXX8My_-26" value="" style="rounded=0;whiteSpace=wrap;html=1;fillColor=#dae8fc;strokeColor=#6c8ebf;" vertex="1" parent="1">
          <mxGeometry x="260" y="140" width="420" height="80" as="geometry" />
        </mxCell>
        <mxCell id="JddVZA8G2uNzgZXX8My_-17" value="" style="shape=image;verticalLabelPosition=bottom;labelBackgroundColor=default;verticalAlign=top;aspect=fixed;imageAspect=0;image=data:image/png,iVBORw0KGgoAAAANSUhEUgAAAPwAAAA5CAYAAAASjkZgAAAAAXNSR0IArs4c6QAADtRJREFUeF7tXW2sHFUZft7ZS5HeaqBpvTOz13IbqyIxEYmSaAgUxUhI8A9GJQJtgSBVAkKlmDRQSkRJsUr4kA+BtiDiF0pigvDDcCEmJhoT9AdGU+OldmdmKWmLoaUld+c1Z3fm7uzszM7HnjM7e+/sv/aeOR/PvM95P8573iFUvwqBCoElgwAtmZVWC60QqBBARfhKCCoElhACFeGX0MuullohUBG+koEKgYIRqNfrnwbwTqPReLXgoRe9SV8zDONCIvqHZVn7iwa3Gq9CIAoBwzA+CtCTAP92cnJy1759+04UhdRi1fA1XZ/+AuBeR8QP2rb9YlGAVuNUCKRBwDTNrzBjF0C/dt35bc1m82ia54Zts+gIX6/Xz3Jd9y4Ab2qatq3RaBwYFqTq+QoBBQiQrptbiLAdwBOTk8u3FqHpFw3h16xZc9r8/Pw2ZlwE8G22bT8HgBW8qKrLCgEpCKxbt+7kY8eO/ZAZVzJjh+NYu1TL7KIgvGman2fG9wB+3XXdW5rN5n+kvJGqkwoBxQh4/vzTAAxm7WrHOfC8yiHHmvBTU1OTmjZxE8A3AvR0kb6QypdS9b20END1+m1EfCeAF1y3taHZbL6hCoGxJXy9Xp92XfdeZroQwHcdx/oRgJYqoKp+KwRUIRDQ8h9ipq2O03hI1VhjSfh6vf5x1+X7AHyYCNssy9qt2vdR9QKqfisEAJBpmg8w4xuqtfzYEV7X9XOItAcBTBNhi2VZz1Rkr0gz7giYpnkJM54A8B6AN9u2/VMVaxorwpumeS4zfgLgVCJ8y7KsX6gApeqzQqBoBAzDOB3ALwE6B8AzRLjGsqxjsucxNoQPkb3S7LIloepvpAiYprmcGY8BuAzAq0T4qmVZ/5Q9qbEgvGman2HmRwCaKeq8UjbQVX8VAkkI6Lp5PxGuF0ljzO6VjuP8PumZrH8vPeFXr55eNzHhiqDcuUT48fLly28uIiMpK5BV+wqBYRHQdfMWIuzs9EObbbvx8LB9hp8vNeE75+y1RwB8DcAf5+e1TQcPHtgnG4S4/nS9vhFg4VuJF/A60Jp1HGdu0PjdZ9K1L2otoxxHYKJpfL7rYg5wXwYwl4TjKOc7qrGDhGfGVsex7pE9l1IT3jDqNwO8A8BxItxoWdbPZAMQ7k/X9fVEmrAoZqLGIsIe13V3BAV20DNR7VWvoSz9e7i8FDGfOWba4TiNPVnmaprmbmasB3iOmTcttk3DNM0dzLhdYLLkCG+a5ieY+UmAPgbgaddtfV31jaJoAeVZETsIbQBzzO4FQuDCzwiCM/NM8Blm3OE4lti4lsxPaHUiFhun9+vHkdldm5a0Htk3BvuzbfuCxQSoYRgPAXSdZ1HebNsNkUwm9VdKDS8uFbz99rGHiLAJwH5No6sajcYfpK481JlhGC8BtL7z3zwb1iC6bm4nwh1BgWPW9naFmmeDAqjr+gyRtpDT720QsyrXUJa+g5tgcLPr31B7MYubfxhL0U5srJZlCflYFL9Vq1a996STTtoN0KWeDF5q2/ZvZC+ulISv1+ufc10WSQhrmLF7xYrlm1UG6oJkHkTMfi3T1V69ZA9rN2Gi0aasJqzsl11Ef0FyhknZr/UFLslaPvq5xWU1TU9P1+fn3V8RQVTD+Reze7njOH+R/c5KR/gzzzxz2eHDR0Qm3TXieIIIV1mW9TvZC/f7CwpokukdR/ig0EZpo7bNsETM+gBGc7ZtrQ2+t34rqU144RoNtHzyPqdKZlT0OzVV/6ymCRcWdWFhzs/PX3bw4EFH9lilI7xhGGeLm28AzgD4+VqtdsWBAwcOyV6431/XlE82L6MFr1fTRLVZKoTv3Tz7LZpet6nzBmzbSpRBwzDDdQ36NhNV8lFUv4ZRvw7g9qUZcfxsWZY4j5dezyER7KIW3NW4C1cFlUUqu2N1/fI0pmWUwIY1VJwVkEaww1gLAnX+r7YeaImjrFLHAAKbXYR2741peGtNJG60xZS8OQctuE7AtTZTVgyFVXvkyJFHmCGCkm8vmVz66enpla1W6ymALibCv4noikaj8SdVm84g8zNqzAhN06ehoo7o0pitvaZv+2gw6jhLNJtjxp6yRf2TXKM01lEU5jKf8zeZjsXlimO9Umygpml+hBk/B3AWwH8G8GXbtl9XIfel0vCifC8zP8WMDwJ47vjxdzYePnz4LRULF30ahimi6DNpAmoxvnmkhhKkB7TzvWSdTJo5ZEXMEUGcGIhjPu8EYQGNhaNBVfhk6TeIT5Q1E2MdJR7LZfXfO/MgEe328YrFUMRVAHdv2qPBLHhkaWua5vXMuN8z53dZlnWLCnO+3X+Wialuq+v1K4l4r7fwOy3LEgX+lP18kznNCy8iUhyMJ/QfC/YJsqftO/kAykDK0HEcnlk2y/Bwaayq4DM+hlHHdt48hOUUTKpKdCsyQJC5adCqFUfQXg69yEZU8isV4U3TvIcZ31Z5eSAvilk1TdZxuhtKvH8qBFbTtO2er+cNkd6fzTonWe3zm+XZ/H5/nEFn9BEWwEjP9A3DuBwgEaxbAeCx00479Zuvvfbau7KwD/dTGsKHEg+UXQ/MC6Rv/geel6oZuu7F4PPlKG2ZxiXJu24Zz8k15+Px8a2BJDyiMiqzxllk4DI1NfV+TasJi/aiImJWpTLpV69erU9MTDzj+V4vEuFyy7LelAHssH0MGylOM37IdB3on49Tmukw5nwWqyrC5Rq4IYc3oRHkSQTr0q9gxk7Hsb6jynf3ZbA0Gt40zQ8w07MAf6qIgF0aEvptVPvvWfuPIIJUayMLNklt85rzot8s/nuWzUH0PepNM1DQ5QwArzC7G4qIxZSU8Pywbdubk4SpqL9nFaas84o2MeNTcWNM0sSId9Z5yWif35zP6r9HpTPHZ/GNctMMmvJF3RUpuYanR227IW4NSc80yiPERWR69ZuY8Tnm40X4fFlyWS2DCNdhoNUTZVXlSY7KKk/iYtjRo8dEkYsbRJJN0RWcSqPhZ2ZmTj1+/N29RPhimUz64XxQkSnXzpJLUTjDb8unJyXVjEpYswp3dIAx3aWXPFZV51hQ2yDmmYxh7+3HIm7f9ZOddq5YccpOlRfDShulD9Xm/iuz+6UifBrhywlQvGosfUkYWTVNEOBu1DidkKclVNj/LEJY084t2G4YwkeciqTKu087zzCGSZH9tP3GteuQ/Z27ARaXwsTtycLJXqoofSdIs3AmKSDZaNv2s8MCHfd8dBJG/5l2VG58GuEIauE0efpZ1hkmQ5r5hPvvluJSl2kWHYxMviY8jFWVFsewmyb7HQXn4X0S7S6Ar/Zy5e+2bfuBUXwpqTQmvQBI3AlutVxRxuo81UkI8bfaen3nqEhxGuHobhRyE2OiKslkqfwSlXiiKsU05v57iuuwUQE4eVZS+N2rPJJbuXLl+04++ZR7AL5WnLUz861eYYuRxKdKRXhBel2vbyZiEdQ4pDLNMIrI4mJK8A533N32pOBOb8WXZI2WVit1rKBO/r//TJrNJ9h//J1+eYTyx8ur4dPcSsyCWYKboexI0//+oVfF5hVNoxsajcbf8s5dxnOlI3zwyEJltZtozd0r9FGC1/G/BkbQF0pbyfat+zVTcvGIsJDEbHTtZlk3jyQBjHKbktwPmdeLo+YXcRqSaHEkrTNmnE8CJL73fjbAj544cWLHoUOH/penL5nPlI7wHS0/fTGR+3g7yKDok1L9QaFwTbqeKK64nJKoVUPHZVI1R/goLk8qaJzF0rUW5Fojot8sCS5xblbY8spLgJDFIbIZVVyRrRmGsQmg2wF+i7l2q+McEB+UGIkJH8aqlIQXPNd1cwsRxG25V1XUow8KV7iUdG+NO9okjtW8++k+6dvCEqyvHhJW2WSXUhAz5rbYgkwkad88RIvW8r3XUjtEdDdEXAH2LI/h3Y3wZqyC7FNTU2s1beJOZr5E0/DYxMTEXfv37z+cBzdVz5SV8Og9s+Rna7XatbJLXUVdiOnV5F1B8wgtKpKE69X3aH9RjyxLEC3Niw2YoUNrpQHrUHZrLD12bTRCeKarezcIx5BlI3UzFuOKKDxRTcSeNhPRC61W6wfNZnOhYnGad1xUm9ISXgAQjHACuG9ycvlWmUkKURFrz43Y47r0crjKbEdL0PYYTTQ0GRN8Tmn9+wkqRCzWIz7q0C6wITvmEFyPwE7TtA2dD0n0f+TDt7JCxSvaXSQFSZPIkqVuYVJf4b8bhiF89e8D/HciuteyrP9m7aPI9qUmvACio+mPbgHoJma63XEa7UJ/sn+dKjXtumdpsuK8airp2ueda1CzhyvA+n16RSeE1ZH7802+O6LyeCpM/s6/O3Xm/LmrOH9PQ3Yfw6wlr1atWmUsW7bsvFar9VKz2Xwj73su8rnSE94DgwzDOJdZW+s4DVHKd9H/ujGBwS6CHxQbJsLuk6Iowse9vGGyGgdbR4Mx9Nc/rCUxDkI5LoQfByylzTFN9Rt/MD8OkVdYe4tPZj/miyevX9cv/ccjZV5SypL41BlXfuxFmkBI7KgivEQwZXTVjSanE0CPJLkDUcHodd5NI7zu/vyF5LVkrQkwCOs0pa66LlEnq09l/EKGXMjqoyK8LCQl9BMg38KxX0S3C6cEXhBs4zDCOqiWfJ4lpU1ZDvn0PceO3t9ybWLBDZO5/eXhqAKfCxj6QdhhMMyD06ieqQg/KuRD4yYlxQyaZl5h7TXnhz/rFnPMk50YnUqbPQlowOepE9+yihyExEFH0KAi/AhAHxxgyj6hvMIqW7t3CN+b65+krWUVlBxmwxRzzJO5mP1Njf6JivCjfwfiwlDoW+rZJpWH8Cq0ewzhY/MHZJFdjBv/Zd90WA5zypFuhHK0qghfgvfQTejJN5nwRyuSelGZeRYiXmz13bxXZ+PW1rFWOPx1niQoFv4uOzsy9cAFN6wIXzDgZRgu6DPLNmX7c+d5lplmAXE8JxJtxIUoFnckAinKog3vyJr4UgYsx20OFeHH7Y1JmG/3oxfyzt2D00q6pNNtWxFdwuvM1EVF+ExwLZ7Gwo1QrVEDdw8Cx2CYFfcUBJLhuwqLB93yruT/27/Mwc8bTwAAAAAASUVORK5CYII=;" vertex="1" parent="1">
          <mxGeometry x="337" y="231.5" width="252" height="57" as="geometry" />
        </mxCell>
        <mxCell id="JddVZA8G2uNzgZXX8My_-18" value="" style="shape=image;verticalLabelPosition=bottom;labelBackgroundColor=default;verticalAlign=top;aspect=fixed;imageAspect=0;image=data:image/png,iVBORw0KGgoAAAANSUhEUgAAAPwAAAA5CAYAAAASjkZgAAAAAXNSR0IArs4c6QAADyRJREFUeF7tXX2MHVUVP2feUmS3Gmhad2beWraxKhITkSiJhkBRjIRE/8GoRKAtEKRKQKgUkwZKiSgpVgkf8iHSFkT8QklMEP4wLMTERGOC/oHR1Lit+2bmUdIWQ0tL9s0x5828ffPuu/Pm4907O7tv3l9N9879+N1z7vm455yLUP0qBCoERgYBHJmVVgutEKgQgIrhKyKoEBghBCqGH6HNrpZaIVAxfEUDFQIFI1Cv1z8JAG83Go1XCx562av0NcuyLkbEfziOc7BocKvxKgRkCFiW9WEAfBKAfjsxMbF7//79J4tCarlK+JppTn0OwL8ekR5yXffFogCtxqkQSIOAbdtfJoLdAPhr35/f3mw2j6X5btg2y47h6/X6Ob7v3w0AbxiGsb3RaMwNC1L1fYWABgTQNO2tiLADAJ6YmBjfVoSkXzYMv3bt2jPm5+e3E8ElAHS767rPAQBp2KiqywoBJQisX7/+1OPHj/+ACK4igp2e5+zWTbPLguFt2/4sEXwXgA74vn9rs9n8j5IdqTqpENCMQGjPPw0AFpFxjefNPa9zyCXN8JOTkxOGMXYzAN0EgE8XaQvp3JSq79FCwDTrtyPSXQDwgu+3Njabzdd1IbBkGb5er0/5vn8fEV4MAN/xPOeHANDSBVTVb4WALgQiUv4DRLjN8xoP6xprSTJ8vV7/qO/T/QDwQUTY7jjOHt22j64NqPqtEAAAtG37QSL4um4pv+QY3jTN8xCNhwBgChG2Oo7zTMXsFdMsdQRs2/48ETwBAO8CoC2u6/5Ux5qWFMPbtn0+EfwYAE5HhG86jvMLHaBUfVYIFI2AZVlnAsAvAfA8AHgGEa51HOe46nksGYYXmL2S7KopoepvURGwbXucCB4HgMsB4FVE+IrjOP9UPaklwfC2bX+KiB4FwOmi7itVA131VyGQhIBp2g8gwg0cNEbkX+V53u+Tvsn699Iz/Jo1U+vHxnx2yp2PCD8aHx+/pYiIpKxAVu0rBIZFwDTtWxFhV9APbnHdxiPD9il+X2qGD+7Za48CwFcB4I/z88bmQ4fm9qsGIa4/06xvAiC2rXgDDgC0ZjzPmx00fvebdO2LWstijsOYGAZd6PswC+C/DACzSTgu5nwXa+wowxPBNs9z7lU9l1IzvGXVbwGgnQBwAhFuchznZ6oBEPszTXMDosEaxbRsLETY6/v+zijBDvpG1l73GsrSf4jLS5L5zBLhTs9r7M0yV9u29xDBBgCaJaLNy+3QsG17JxHcwZiMHMPbtv0xInoSAD8CAE/7futrujOK5ARKM+w7EA6AWSL/IiY48RtmcCKajn5DBHd6nsMH18j8WKojEh+c4a8fRyJ/XVqmDZl9U7Q/13UvWk6AWpb1MABeH2qUt7hug4PJlP5KKeE5qeCtt44/jAibAeCgYeDVjUbjD0pXLnRmWdZLALgh+G+aESWIado7EOHOKMERGfu6RE0zUQI0TXMa0ViI6Q8PiBmdayhL39FDMHrY9R+ovZjFzV/Ektvxweo4DtPHsvitXr363aeccsoeALwspMHLXNf9jerFlZLh6/X6Z3yfOAhhLRHsWblyfItOR12UmQcxZr+U6UqvXmYXpRuraLg5qwqrerOL6C/KnCJT9kt9xiVZysu/W15a09TUVH1+3v8VInA1nH8R+Vd4nvcX1XtWOoY/++yzVxw5cpQj6a7l6wlEuNpxnN+pXninvyiBJqnecQwfJVqZNGrrDCOi1kcwmnVdZ1103/q1pDbDs2k0UPPJ+50umtHR7+Rk/dOGwSYs1FnDnJ+fv/zQoUOe6rFKx/CWZZ3LmW8AcBYAPV+r1a6cm5s7rHrhnf66qnyyeiknvF5JI2szKgzfe3j2azS9ZlOwA67rJNKgZdliXYO+w0QXfRTVr2XVrwegdtIMXz87jsP38crrOSSCXdSCuxJ3IVVQm6eyO1bXLk+jWsoIVpRQcVpAGsIWsWYGCv6vFvoWWnydVVo/QOSwk0j3Xp9GuNZExpVrTMmHc1SDCxyutRDL5KvVommetdqjR48+SgTslHxrZGLpp6amVrVaracA8FJE+DciXtloNP6kawMGqZ+yMSWSpk9Cya7o0qitvapvmzn4Okt2NTiLCDPi1aAujNL2m2QapdGOZGPl/659vSq7EuRhZolgb1luTmzb/hAR/BwAzgGgPwPAl1zXPZAW+yztSiXhuXwvET1FBO8HgOdOnHh705EjR97MsqAsbS3LZi/6dBqHWoxtLpVQzPQAxoVhsE4mqdxL4HxbgHwteIADV4I76IVDINdddhZ8srSN4iPTZmK0o8RruTz2e2Ss8HDkgJ8FDCNXe8z4wfVqlrWqbmvb9g1E8ECozu92HOdWHep8u3/Vkx+mP9OsX4VI+8KF3+U4Dhf40/brqMxpNrwIT3F3jP5rQQYhZKqo5GeC5QCUUqj5cXhmOSzFzU6jVUW/6Whtcdd2krksKtNHtVq+gg5j6DkaUcuvVAxv2/a9RPAtnckDeVHMI2myjtUh7kHReZLgoEQ7OOs8VLcfQi3viWUI5xW73rj7f3E94nwW807fsqwrAJCddSsB4PEzzjj9G6+99to7qveg019pGF4IPNCWHpgXyI76H/leKaNJNIhYc0G0TbP6CPJikPc7tep8/P172mi8shyak5OT7zWMGmu0lxThsyqVSr9mzRpzbGzsmTDa7UVEuMJxnDfyEpnK74b1FKeZi8y7L2Nk2VzS+CDSzEFHm2HU+axalQxDmT9BFkK9CIdmtC79SiLY5XnOt3XZ7qWT8LZtv48InwWgTxThsMtC3MXY7/1e5Rhi7VNzy83wYkhy+iCkrPZ7ei1JFgmZHPGXhWaS2kYKupwFAK8Q+RvT+JKS+k36e2lU+l6Gp0dc192SNPmi/p5V0uSZF0tCwzB2hHexsR74vOGpeeak4pv86nz2e/tAm0COR+fbjFiHpgzDPHESefGJqvJF5YqUXMLjY67b4Kwh5ZFGeTapyEgvJtpBJ70sC63MWWN5scvr6Euzv6LqX6TTjhPDjh07zkUubuQgm6IrOJVGwk9PT59+4sQ7+xDhC2VS6YezQTlSjqPk1EV3ic7DRbA90/BUu43c35Au6UWnViUeQmmiLFMvekDDfmbHXStXnrZLZ2KYOJ3SMLxQm/uvRP4Xi7Bp+LRnUMJqLPvEMYeRNB3CUpU4I85FVb8qiFnWxzAML7kVSRV3n7QWUboXdWAGzP72PQDESWGcPVk4s5fKS8+TidxJMiSbXNd9NmkD8/5dEsTSzoMX1WO59zw51TWqeg8rQYKAFmNjNB9/WGbvluLy+w65vJiK38n9DWmwy26/J81Z8JG0mxfF7OGTaHcD0DVhrPw9rus+uBgvJZVJwgPnBLdaPpexukB3EEJ8Vluvt1bmKU7DwN2DIn2iR5Rog6sj3NFfbUcehZdE8J2/C46tkPC5sId6xo9xMKZIh5V50dOZAr0Ycj/+RhFDPix1rFe2B6tWrXrPqaeedi8AXcd37UR0W1jYYlH8U6Vi+MDuq29BJHZqHNYZZihjZPbsRnO443Lbkzy6vRFfyRJNrg73ECs36STSDJX4EZ/Tn52hkg6ZvBI+TVZi0tj892CtC+XGOhjOBjXxcEZ38kzn/cOwis0rhoE3NhqNv6WZu642pWP46JWFzmo3csndS/QywgtVwdikj0EVX4bZRIlanyuOPuag66i4icksWdYgM5uSYgZUphf3mxg913b8Z21x9JZlfRwA+b33cwHosZMnT+48fPjw/7Lgp6Nt6Rg+kPJTlyL6P+F/63pSqt8pJNak6wkY4WyqhVTVOJVeiOBSGnob4NJny2di+jiNpUNYScyYhwDThrsG6+sP0gnHVIalxKRRzfQ1y7I2A+AdAPQmUe02z5vjByUWRYUX96yUDM98bpr2VkTgbLlXddSjjxKXmKzSW+MON/O1mpCf3ma0aH11gViVEahcSnWLYw4KMIn5Ni7PXkvdPbmU77WhA9W/bWuHhT56Zz6sgzIlhkOnyU5OTq4zjLG7iOjzhgGPj42N3X3w4MEjeQ5KXd+UleGh986Snq3VatepLnUlS4jpleRdFT9kaM6lFotS9Eh/madf9eZJTI3UB8yAdWirBJseuzZSAp56vOn9pk0+5ypPmL3wiDX2PW1BxBdardb3m83mQsVi1fs/TH+lZXheVNTDCQD3T0yMb1MZpCDzWIdmxF7fx5fFKrMRz7lMEmVSr4fZtJhEm9T2d9c0IL4J4EcduI7+Bp0RZ4ydYRgbhSIeCzB0tKxIaOzC35KcpHmwHObQjI4X2urfA6C/I+J9juP8N898ivqm1AzPIASS/thWALyZCO/wvEa70J/qX1ClhuueJUfFBW35l6592rmGBSQ4tLbQKq4dc0S16hy3bgE/lujtp6eGiWrsjBXEFyTvYdrsxEF7t3r1amvFihUXtFqtl5rN5utp93kx25We4UNw0LKs84mMdZ7X4FK+y+4nmBcDVXTV2XsdaVcUw8cfBPkz62QvAA16qCJvQNVSJ7ylwvBLHeeB888aoCIP981739+NalMZedat65f+8ci8iTYMroSBB5pYw5pFS5UgK4Yvwc7JA02yVHZJ94KLbKlRyajKVu5fT7JDbFitRY5h/CGYt0Z+CchlqClUDD8UfGo+zpoZprLc1qBa8nlWlzZkOdq3GttdZg7EF7UQMdTpsMyDo65vKobXhWyGfgWCH1h+Wp6BlvxcU4x0X6ieo8p+zxOdmFU6J2kqSbEJaSvjZNjCJdO0YviSbFVU0g56JEFkjmEYVbV0Zyhlaa1ijoIg3fsejMjrS+jFUF6+W+WBWRLSyTSNiuEzwaW3sfgIBd+RczwAQGuWH7ZAbD9FFAnxzZ/wEiX8YQ4NERGZuRFXO191MUkxBTa42+/gxwE97RTjKIaFxU7opZz0vVcMnx6rQlrGBQP1Dq4iRXYhPDd1lF4aAATvd2ycetabiTRjd9qEfXNYtuyprnazUbHZRdwqhs9CSQW2DYJwuDwWnWkYMB1W5Hk5KSgnzRSjZkFe9TlunP7Y+c5zWXw9FzzoiEgCM7YPsJ0q1tZl+vZDnO1HJPmZrgA//vlKMEyDcxnbVAxfxl3RPKfum3r5nH1J05NXE5J9pZ7Rk+Y26n+vGH5EKYDtZ5USVQajULWno0rPBHY1gJirMKJbUeiy/w9ta0nQfsH3fAAAAABJRU5ErkJggg==;" vertex="1" parent="1">
          <mxGeometry x="337" y="311.5" width="252" height="57" as="geometry" />
        </mxCell>
        <mxCell id="JddVZA8G2uNzgZXX8My_-19" value="" style="shape=image;verticalLabelPosition=bottom;labelBackgroundColor=default;verticalAlign=top;aspect=fixed;imageAspect=0;image=data:image/png,iVBORw0KGgoAAAANSUhEUgAAARoAAAA5CAYAAADp/OSWAAAAAXNSR0IArs4c6QAAD25JREFUeF7tXX2sHFUVP2f2FVraaF/T55udXR6vsca/jCTGPwhEIPyhGDUmJMWA0JaYBgQUpRAFoS0NKtYPFAwfKqVIQDEkRhKNfxiKCSExihiUiKlxqW8+XiCtCqUF3s4xd2fm7Z3ZOx93du6+2X13/2vf/fzdc3/33HPPOYOgfxoBjYBGQDECqLh93bxGQCOgEQBNNFoINAIaAeUIaKJRDrHuQCOgEdBEo2VAI7BKEGg2mx9CxGnHcX4HADTKaU800WzduvX0118/eS5i90XP814dJbC6L41A3RDYvPlMa2qq+wgA/JGou39xcfHEqMY4qUTTsCxrGxFciggHHMd5dlSA6n40AnVGwLKs84jgR0Tw3NSUsXthYeHYKMY7cUTTarXO9n3/TgB4ec2aNfuPHj16fBRA6j40AuOCgGVZlxLB3QD0bKPR2DUKspkYopmbm5teWlq6lQguIjJu9byF34z6HjougqbHueoRQMuy9hDBHgD4wfr1Z9x85MiRt1SiMglEg6bZvhixexfTYgzDuMG27QWVoOm2NQLjjgCz15x2WvdRIvgAInzRcZzHVM5prIlmdnZ2PWLjNkTYRQQPjtrApXJhdNsaAdUImGbrGkT6FgA8T+Rv9zyvo6rPsSWaVqvV9n3/bgA8FxHudBznh/qqpEpMdLuTiEC73W51uz7TZD5ChLd7nr1f1TzHkmhardYHu126DxHaiHCz4zg/1ySjSkR0u5OMgGm2bkOkOwDgT4aBl9m2/Q8V8x07ojFN83xE434AWE+Euz3PfkIFMLpNjcBqQCDcT8y3Zg4Rrncc514V8x4rojFN82JE47uaZFSIgm5zNSJgWdZmIngUAD4KQL9uNBpXqHjuHhui4TSZjYhwQ3hdWo2yoeesEagUAdO07kGE6xDhn4h4hW3bz1XaAcB4RG9H3owA0CaCfZ7nfEfbZKoWBd3eakXANK2bEIG9PgERbvc8m12lKv3VXqOZmWlvnZryDwLAeaNyLqoUYd2YRqDmCDSbrasB6L6AaOBmz3MOVD3kWhNNu93e1O12HwTASwDg96rf+pPgmmZrh2HQ+b4PHQD/GQDoZPkayJavejEnsT2NqfpVNc3WNkRiL7eMau53XfeaqnutM9GgaVo3IvbcpN8AoOtc132yagAGycXagwg7AGB+sC86TGQc8jz7Yf5vlmUdJOrVSfxYedrned5h1eOetPZN07wA0Xi6CkxN05w3DIO53O8ggr0A/iGVzmnjthb81WnVEU2r1TqHiH5KBO8lgoMbNpxxjep4jGaz+TQAXtAXFAoJgv+/nnq51/OcfaxcgmQ6ABR6V/brEPlbtGAX337idUBG/MvkL4Npsj0i3Jk8LIqPbvJKWpb1FSL4BpsZItzhOA473Cv91VKjYaEFhtF4AAAuB4CjRP6Vnuexq4uSHzvxEPFgRDI8kbAOg9MV9/AkxMoYBsxHmgyRfyGvucQJiA67rnuhksFPWKPsqoRIzCYHPKZJrTG5RmkwiDQjTTRxtJrN5n0AeHXwv/hl17W/V7VY1ZJoLMv6JBE8BACbAeDH09Mbr33ppZfernryUXvcidch8neKrjoBGRn/Eo2B3xBJ0orKy5zAquZZ93Z5jAfJvnel3ctrm0XI2zST9XoEpjXMEMj5+fmNp069fQgRPgUAr4WHOst8UOmvdkTDtJlGo/EQEWxj2oxh4FW2bbPUg0p+vCAmtZJkh82mxYgmYbuJaysiwWbtuK5TO6yVADpEo33CH9QARXawIpgK1qzjus6WIYY5UVUty3o/EfwMAM4GgBcQ4TOO47xc9SRrJ/y8SzQA/PLUqZM7jh8//t+qJ87ai5+g8auPqL9m0xrIs5o8HUVlNNHkrx5/xRFpHAJccwlDrIXqayy/Gs1m8xIAZI8bGwDgcUT4nOM4b+avmFyJ2hGNZVn7iOB2Ng2VsResfe6ULCm0MFBPpPUUtSfILd1kleavr0mNoyxh8Pae/hW2b8ifLATLzcayrANEsJvVVuVD09vL5YanplY87gL+Zhh4uW3bf1HRW5Y9QNSf2Kg4KLSDKr4+QfPWL74Wgy9CYjtLPmGk2GdiRvu8sU3y32dmZsypqanHw0eOvwPQ5a7rPq9izrUiGv5JGxGe6Ha7V6nK1M6ddrnaTHDNEhoVhULLSAnAOB8AX9HPqPlim7cWZa5NrFeRdlnErpM/4skoMcpHl1oRzShcoXkRYScp+3cRH5dB3w5t4K1yu6WthejaVOQqmvJKWOhQqXJedW2LfYrojTfeZDmddrLXJkS4ynGcp1SNt1ZEE0WRqnxmKwtk2VO1bH+6XoCAWJPMd7jT9plsCWq1Whf5PjEXkjnVjy61stFMT0+/e+3adcz6/WmVz2xlNnDZU7VMX7pOHIGyBC9z1V1tmCccYl8jwmtVJ5CrjUbD8pcuLfm/QIRziOBXa9eetr3T6fynDkKghXZlVmEYgtf2mfQ1syzrMiL4PnOIHVV4T22IxrKsM4nwSQD6sMr3/DJbRttnyqA2fJ3y1yahF7e2z7CETu32+5aWfOYJfA4A/RURr3Qc58/Dr1Z2CzUlGjWh6mXBLKu+l+1P1wsQKOvVW/Y5fNJxT6Rd8UaZqVITTY50DaO+T7rgqpxfWSe9dANyvue3yvmsdNvslenEiTdZFr0vsLQriPDAxo0bb1EZQ8jPuTZEkwjuUhp6ILPoZdX3QOBbOwC6LFlWbj6a4HnX2B7kwqEOER6OUlFE443K9Kz4SBcA9FInMI/Oh5Nlg/4Df55+2aDdccjHMgzBl7nqKsI/XNNorVYMfz63Ews1GMlncGtJNGzvWJZ1LxF8HoD+AADbXNd9RYYUZMuyjWgYxnYimmcJrQC6h5M+NWWENnmq5jmJhZuql+QJEQ5zSbSW7QoJz+ROohyrGrNB8C79ghw5qVHqshiqKi9+ns7XSsr6z4R4zRfFP8A0lqeorvgnSAYffOutkzcdO3bsf6rWTtRubTSa4E7e/CwAstylp1Q7EIkFOe6fUVZoeftCEeeyiBSiYEKe3FhEeaCVwF5BnpxEHh3cycgyzK0zT4T7eM/kJFmVjWIONDU6S6VmVPalr2ioCL8ZorCRKHo/jj/DlM5i+CPCw77vs4yJveRmojxGDJM+/nFNsyr8JQiiYVnWbiL4WlAH71m/ft0+1Qnkak80/Cc6VeahSc8tk0z50E/C1AcvP3YpERWemfskEj4mxI7jMC/NZNa+XtdpyZriGhfLCMhOWfEYk/POS4uRFBhRrh1VqTHL5pEpQ1DM2J+Pvzi2KtEfIyB2nRW+cA2LvwTBQGCTObkHgK4PbTIr+tnoWmk0oV2j9+FxRFhU9Y2ZtHy0SY1BlAOFF8i0hc+KRE7W4U7TZUJKvrZkaUWCjZX5jMu/oMkSTVpu5CJam8wmSV49o7p5CavSDpCsq2uk2ZbN5pdyxUs9XOL453s4y+LGym/atOldp5++7gAA7WJP2ACw23Xd35Zpq6o6tSOa2dnZ9xhG4xAAfEyVM5FIOAKtoZ95LU1o84iG34xFNnJIKiwx1nIypvhzerYGNZjiMt2OkSTYvI2bFLK0XDtJ7KoQTvEVKNtGI7KnpWkX0RgjUufJKEH0mcSdJPq8NVdNNMxPptv17wm+PImPGgZ81bbthSrWZJg2akc0wWnW/jii/5NgYtV//SBPiNPScYbjSc3/K5OtjxP0mNqeJMECgruc9S+PBAVtF05pmZXKNOtqN4xwJjW7rPmlkEwskbxoLMlrEysjQwYyuaGHwb8Ajmia7YsRu3ch4jr29Q3XdR8DgG6BusqL1JJomNWK+9TKC0tLxs5XX104UiUavBDz9o9AGPzt4YtC73UmMsZG/Q8aBWN1coU7ax5JYcx7sSq/KeSiz7mXMcFnaNJtSMOsWZrjHW+EDvFiWftTxpX/UsWPsQT+y0Sfd4VMap95a1sUu7m5uel33nnnNgC8ggieIuruX1xcFOa3Ltpm1eXqSjShMStyMKInG43Grio/Pi6ybYTg8p/0WM43k2KfiIx/y+uSp4HkLSDfT9UaCk+ueW2LxhliJvzmVZn28rAItNvBPEBhvQHs2TUpSTiym1kO//i3p/LWflj8BXg1ms3mZQB4CyK8iIhft237hSK4jrpMbYmGARE3alXvZBReodinPWKnYaixsI+MxRzt8jYa//RZdiFlNJTkJsw2esptirTx9x3biH2CpsN8kJj2p4poArJZ/txN7NtOvIbJXuyqCBWRIYMS2s9yzulhP/kyOzu7pdFofJOITvl+49uLiwsvlpW5UdSrNdEwAIJnuhM3AuCXiPB2z7N73wiu8hcmXZoHaMwXyYgXeNw2QnIadPIrOzbZOzxvl8jb6DKkJDP+qN28a4NMm9kkxw6FQeyryj8jQ/Ry2k/cVULWEM9jMjMzs2HNmjWfAIBnHcf5dxXYqm6j9kQTAoDNZvM8ImOL59mPqAZlpdpXeULKnNQy84/aHfaElulTVFZ0tZXdzPJE3//8Th7RyxwKw2JRx/rjQjR1xK7yMak8IbNOarYJRN8Uz5tgwjGxsqTfnOcx+zopixULPzMsHtEwcVF8izIvSKyejPaTVZb16/v4TBFtOm9N6vp3TTQ1Wpm0lzDREGW0n6yyIoe1opDwbgKyRte0PpLP1HmaAmunrBdxcgwyWt8w+Mf9tYIr1UprhEXXvGw5TTRlkau4nqwznYz2k6W2ixzWik6N2+CVJJVKe2HKugJVpc3Iaigy+GeVjdamKqIuunajLqeJZtSIp/Qnc0LKboo0tT0itzKG3Pi1Kf8bS0VgTnO6y9qEojqytplAK5Iz1spoP3FNtY+VKM6tCE7jWEYTTU1WTeaElNV+ktHg7Nm+74BHHdd1L5SFoWptJkme/fGkh2CUCaBMm6cM/oNEn+0UGA9LCeKb+t7nzHFSHn/Z9Vrp8ppoVnoFwv5V2WeC05r3oaHDLPkVS3uQFweUBo0KbSbcvMtetmHfqXlz8sJIZJdVRkOR1T5T8GeOjyy+jhnRM43dsnOpY3lNNDVZFZmIb15w87xRo+kNnv756S5E0CRsIpXYZqJ+4id/+nWsSk1GgE/unOJEWywCW4Q/Ee1cDSTDMNZEUxOikR0GE/YyQlq2XjQ+nhBZHFiRNKVF5zYYTxVoXwD+M5GTHiLF4pqScWdF+0oj0aKYlsWxbL1h5lWHuppo6rAKYzSGvoOeXLBi0SnmBUnythsWoVwl0RUdoy4nj4AmGnnMVn0NdnVTvcG5KPow1IM6LLaKObaJcjuv+kWpOQD/B67HT9+MS23uAAAAAElFTkSuQmCC;" vertex="1" parent="1">
          <mxGeometry x="329" y="471.5" width="282" height="57" as="geometry" />
        </mxCell>
        <mxCell id="JddVZA8G2uNzgZXX8My_-20" value="" style="shape=image;verticalLabelPosition=bottom;labelBackgroundColor=default;verticalAlign=top;aspect=fixed;imageAspect=0;image=data:image/png,iVBORw0KGgoAAAANSUhEUgAAAPwAAAA5CAYAAAASjkZgAAAAAXNSR0IArs4c6QAADehJREFUeF7tXW2sHGUVfs7spci91UDTemdmr/U2VkViIhIl0RAoipGQ4B+MSgTaAkGqBIRKMWn4uESUFKuED/mwUgoifqEkJgg/DBdiYqIxQX9gNDVe6t2ZWUraYmhpyd055uzO3p2dO7s7Ozvv7Lv3zv68953343nPM+e85z3nDKH4FQgUCKwYBGjFrLRYaIFAgQAKwhdCUCCwghAoCL+CNrtYaoFAQfhCBgoEckagXC5/CsDblUrllZyHXvYmfcmyrAuI6B+O4xzIG9xivAKBOAQsy/oIQE8A/NuJiYnd+/fvP5EXUstVw5dMc+rzgH8tET/ouu4LeQFajFMgkAQB27a/zIzdAP3a9xd2VqvVo0meG7TNsiN8uVw+0/f9uwC8YRjGzkqlMj8oSMXzBQIKECDTtLcT4XYAj01MjO/IQ9MvG8KvX7/+tIWFhZ3MuBDgW13XfRYAK9ioossCgUwQ2Lhx48nHjh37ATOuYMaM5zm7VcvssiC8bdufY8Z3AX7N9/2bq9XqfzLZkaKTAgHFCATn+acAWMzGVZ43/5zKIUea8JOTkxOGMXYjwDcA9FSeZyGVm1L0vbIQMM3yrUR8J4Dnfb+2uVqtvq4KgZElfLlcnvJ9/15mugDAdzzP+SGAmiqgin4LBFQhENLyH2SmHZ5XeUjVWCNJ+HK5/DHf5/sAfIgIOx3H2av67KNqA4p+CwQAkG3bDzDj66q1/MgR3jTNs4mMBwFMEWG74zhPF2QvSDPqCNi2fTEzHgPwLoC3ua77UxVrGinC27Z9DjN+DOBUInzTcZxfqACl6LNAIG8ELMt6P4BfAnQ2gKeJcLXjOMeynsfIED5C9kKzZy0JRX9DRcC27XFm7AFwKYBXiPAVx3H+mfWkRoLwtm1/mpkfAWg6r/vKrIEu+isQ6IWAadr3E+E6CRpj9q/wPO/3vZ7p9//aE37duqmNY2O+OOXOIcKPxsfHb8ojIqlfIIv2BQKDImCa9s1E2NXoh7a5buXhQfuMPq814Rv37KVHAHwVwB8XFoytBw/O788ahE79mWZ5C8BytpINeA2ozXqeN9dt/NYzydrntZZhjiOYGAaf5/uYA/yXAMz1wnGY8x3W2GHCM2OH5zn3ZD0XrQlvWeWbAJ4BcJwINziO87OsAYj2Z5rmJiJDLIrpuLGI8Ljv+zNhge32TFx71WvQpf8Alxdj5jPHTDOeV3m8n7natr2XGZsAnmPmrcvtpWHb9gwzbhNMVhzhbdv+ODM/AdBHATzl+7Wvqc4oihdQnhXfQeQFMMfsny8CF31GCM7M0+FnmHGH5zny4loxP9HqRCwvzuC3FEdmf0NS0gZk3xLuz3Xd85cToJZlPQTQtYFFeZPrViSYLNOflhpekgreeuvYQ0TYCuCAYdCVlUrlD5muPNKZZVkvArSp8WeejWoQ07RvJ8IdYYFjNva1hJpnwwJomuY0kbEY0x+8IGZVrkGXvsMvwfDLbukLtR2zTvOPYint5MXqOI7Ix7L4rV279t0nnXTSXoAuCWTwEtd1f5P14rQkfLlc/qzvswQhrGfG3tWrx7epdNSFydyNmEu1TEt7tZM9qt3ERKOt/ZqwWW92Hv2FyRkl5VKtL7j01vLxzy0vq2lqaqq8sOD/ighSDedfzP5lnuf9Jes9047wZ5xxxqrDh49IJN3Vcj1BhCsdx/ld1gtv9hcW0F6mdyfCh4U2ThvVbYYVYtaHMJpzXWdDeN+WWkl1wsvRqKvlk/Y5VTKjot/JyfJnDEOOsCiLhbmwsHDpwYMHvazH0o7wlmWdJZlvAE4H+LlSqXT5/Pz8oawX3uyvZcr3Ni/jBa9d08S1WSmEb395LrVo2o9NjR1wXaenDFqWHa1rsORloko+8urXssrXAlxPmpHrZ8dx5D4+83oOPcHOa8EtjbuYKqjMU9kaq3UuT2JaxglsVEN1sgKSCHYvrOUMrPOVVuhlF6Pd230awVp7EjfeYur9co7DUvoS52svi6LXPmT9f7Fqjxw58ggzxCn51oqJpZ+amlpTq9WeBOgiIvybiC6vVCp/yhrgZn/dzM+4MWM0zRINFXdFl8Rs7bbGcJ9JXkyq8Ooxx0UnZdzxJYl1FE/SqLM03fEo5Afo+ZLJGz/btj/MjJ8DOBPgPwP4kuu6r6mYh1YaXsr3MvOTzPgAgGePH397y+HDh99UsXDp07Js8aJPJ3GodTibxwpPQxMb5wXBOhJk0rd3vqGNSpuI/M2t24NkTi5VeCUlfJw108E66nktN8j5vbEPpekIhjoS/jpm3B+Y87sdx7lZhTlf738YwtFpTNMsX0HE+4KF3+k4jhT4U/YLTDwkuQvOw1MckCJ659+2fl01vEyyE579vCyjm53Eqmod0eTYQHK11Q1DrQgftmrlCjqIoZdoRCU/rQhv2/Y9zPiWyuSBtCgOommSjhkV7lAQTxAfoK+G767905nl/b4o4gKnGhhKdN5i5KRWhLcs6zKAxFm3GsCe00479RuvvvrqO0llpt922hA+EnigLD2wX4Ca7Zvmf+j5zAUnzikXdQLqrOE7YZutOd/5/r3plIs6NiPjZ75vaWVqcnLyvYZREov2wjx8VlqZ9OvWrTPHxsaeDs6rLxDhMsdx3kgLZpbPZekp7ndeo074frV0GJ+srCpNCR+uS7+aGbs8z/m2qrN7E1dtNLxt2+9jpmcA/mQeDrt+iJfH+b3TfEaf8OnMecGjn/N7t/3UkfChgi6nA3iZ2d+cxJfUj9zGtdWU8Pyw67rbBl1cVs9npWnSzGfUCZ/enE93bx+HsW6ED5vyeeWKaK7h6VHXrUjWUOaRRmlIN8xIr9EnfLooubT39roTXhLDjh49JkUurpcgm7wrOGmj4aenp089fvydfUT4gk4m/WBn0MZdepLCGcvRpI/DLmlOQZZWlS4afinZadfq1afsUpkYFpUrbQgfqc39V2b/i3mcaUSDCihBNZZ90TEH0TRNyyCpkMeRfpQ1/CCEj7kVSRR3r6uGb5D97bsBlqQwyZ7MnexaeekbTprFO0mBZIvrus+kMcGTPBMIo1RjCVW2WRqjHRcbnywyr5UiO8hVmirCt0px+UtecknwS9Im3tnZO014EKtKR8IHn0S7C+Crglj5u13XfWAYX0rSScNDcoJrNV/KWJ2rOgihc1Zbe352nKc4CYFbRE2X6NEU3KwJ3yBTPRotFMwjhT2yJ36H/PcE6bBx9QTS578P06Rfs2bNe04++ZR7AL5G7tqZ+ZagsMVQ/FNaEV6E3DTL24hYnBqHVIYZxhFZAjbCOdydctt7Zb61V3zprdG6acusCd85pz89oTrNP62GT5KVmMTCaLYZFuGb3z8Mqti8bBh0faVS+Vs/c8+6rXaED19ZqKx2E6+524U+TvAa56/OVVq6VXxJs3lZE77Di64+tSSWSz9riDs29ToOqUgvHgbhLcv6BEDyvfezAH70xIkTM4cOHfpfP/ipaKsd4RtafuoiIv8ndSeDok9KLXUKRWvStQWMSGnqxbN+J2JEYrkzCeHMkvCdLJamYPUiYxoB7Kf4ZKdjVtTy6nce0Rd3Lwut3/4j7UuWZW0F6DaA32Qu3eJ58/JBiaGY8NG1aEl44blp2tuJINlyr6ioRx8Wrmgp6fYad7RVrtWIjLCDT6rWSgHFxfrqEWHNhOyyWQoIH3FUtkRCBeHjtXy7z6Bh+renAYcFdZBbjsAZHCpQmqzKThrST05ObjCMsTuZ+WLDwJ6xsbG7Dhw4cDhNX6qe0ZXwaL+z5GdKpdI1WZe6ikuIadfkLRM/ILRUJInWq2/T/lKPLMvyyVkSvmE91S2XuHUoqwSbHLu6mEfwTFb3rhtBVGt48cITlcT3tI2Inq/Vat+vVquLFYtVkTdNv9oSXhYT9nACuG9iYnxHlkEKcR7r4BjxuO/TS9Eqsw2TnW4Pe7hDoNe1fppiF902LmvCN0gvAUHGZiKW9chHHaSO/iaVpZ8FO8MwNkdSVReX3rSyojcI0mBQE1wl4YOz+vcA/jsR3es4zn/TEDGvZ7QmvIDQ0PRHtwN0IzPd5nmVeqG/rH/N6ihJouKCNFZINZUk7QeZqwrCR+fTPI4MajonXWcEP9Ho9aNR1vfvzfmoIvzatWutVatWnVur1V6sVquvJ13/MNtpT/gAHLIs6xxmY4PnVaSU74r55UH4JiHyInynzRskqnGYJv0oCeOoEH6UMM10rqoJ315auneN+KSLa9X1S/7xSFVJSqo0fFIsdGpXEF6n3YiZSw6El49n1j/4OOhZuZMJncSRqbLmQEH4lmAVhF/xhF+MN8jkKjFpyHIYdlVnd9VneM1FJ3Z6BeE13zWVGr6fz2wlhSlNdGJ8KO1gIcnh+RYavtDwSeU313ahIozBuFJTPfzJ5cZXU33fr5fyDv0WA4D6mXC3L8X00087uRq1/qPzi35nrvn/uEqzg3y4o3UD0BxBLYZpcRrWc4WGHxbyMePG5YAnmV4agqjQ7jLXuGCmTvEJWZM9GD9VCGvWeQRJ9m0YbQrCDwP1DmOK6SmBMP1MSYJmot+y7/V85Mycydm9OWbkCCLBSJIOu2RNaVNne62tWdCkV7vw/wXDLKMj+xk777YF4fNGXIPxwmfaNNZBtyUsjZ3nWWaaBeR6TgKV5FjCkiPRVniEmWeyjlLUAGrtplAQXrstUT+h1jf1srt3D886vppQ3LrkZVAQXf2Ot0YoCJ8n2hqNJedn1Ro1lHuwqM2JMCt5CgJFNFdBI3iW7VT+D94FPME3ZsDoAAAAAElFTkSuQmCC;" vertex="1" parent="1">
          <mxGeometry x="337" y="151.5" width="252" height="57" as="geometry" />
        </mxCell>
        <mxCell id="JddVZA8G2uNzgZXX8My_-27" value="&lt;font style=&quot;font-size: 36px;&quot;&gt;&lt;b&gt;Example&lt;/b&gt;&lt;/font&gt;" style="text;strokeColor=none;align=center;fillColor=none;html=1;verticalAlign=middle;whiteSpace=wrap;rounded=0;" vertex="1" parent="1">
          <mxGeometry x="320" y="60" width="286" height="80" as="geometry" />
        </mxCell>
        <mxCell id="JddVZA8G2uNzgZXX8My_-28" value="&lt;span style=&quot;font-size: 36px;&quot;&gt;&lt;b&gt;...&lt;/b&gt;&lt;/span&gt;" style="text;strokeColor=none;align=center;fillColor=none;html=1;verticalAlign=middle;whiteSpace=wrap;rounded=0;" vertex="1" parent="1">
          <mxGeometry x="320" y="380" width="286" height="80" as="geometry" />
        </mxCell>
        <mxCell id="JddVZA8G2uNzgZXX8My_-30" value="&lt;font style=&quot;font-size: 36px;&quot;&gt;&lt;b&gt;Dev Src&lt;/b&gt;&lt;/font&gt;" style="text;strokeColor=none;align=center;fillColor=none;html=1;verticalAlign=middle;whiteSpace=wrap;rounded=0;" vertex="1" parent="1">
          <mxGeometry x="627" y="60" width="286" height="80" as="geometry" />
        </mxCell>
        <mxCell id="JddVZA8G2uNzgZXX8My_-31" value="" style="rounded=0;whiteSpace=wrap;html=1;fillColor=#d5e8d4;strokeColor=#82b366;" vertex="1" parent="1">
          <mxGeometry x="680" y="140" width="180" height="400" as="geometry" />
        </mxCell>
        <mxCell id="JddVZA8G2uNzgZXX8My_-33" value="" style="shape=image;verticalLabelPosition=bottom;labelBackgroundColor=default;verticalAlign=top;aspect=fixed;imageAspect=0;image=data:image/png,iVBORw0KGgoAAAANSUhEUgAAAEsAAAFrCAYAAACZlXRoAAAAAXNSR0IArs4c6QAAEvVJREFUeF7tnb2rJUkZxqt6RjYzWIM93XdgzoD/gOhiOHdgXTFxYQUjYeZisImBiWsgcmfQyEUMBJENnDuBiMGKCoKgMGeyDfwAU4M9u8x0H1hMxETcOSVvV/fp6uqqrnr649xz7ryTiHvf/vr1U2+9VXX6KSn4XzQBGR3JgYJhASJgWAwLIACEsrIYFkAACGVlMSyAABDKymJYAAEglJXFsAACQCgri2EBBIBQVhbDAggAoaysOWAtFif3kkTdVkqcCqHWdA2lkkdCPF9tNpvy/5v/FovFUohrp1Ju79b/neI3m2cXwP0dVGhQWYtFdi6luN9z12ultndMYFmWPVRK3HMfo1ZKqTMX4IMi47iZXlhpmj4WQp7q49RKSrnebuWTRmFi2aimBLYyQSlFkOWHFKMVps9F/32zyR8cOhz7/rywTFCVclZ2M5MyeSzEDthaSrGqFWUfYytUqe2tY1OXE5ahjk4TM4H5mpupHMpdUsqHjUIrnSp5dmz5qwNrsVicVooRLkW11eXMZ+uiyG/Vcb6cp44dllZB8kFsXnEpy85H7bzXoD76ZmiqoCjyYE/pAmEf51LWFAmeXhShz/P8bF8dRQtI/fCxD5OmmbJutNUE6W9GzqKecxl7bh8AqvekVOe6Y1GroijuXAosUkGSiOV2u30Q6qnMJtuUD9OWBJQ/hbi2pFKlSg1W7XaJsJA35G5eutZCzhNQUNnU/P+OBFZMvhoDrR5e0Tm2W7Gm4pZKjXbTPxpY4Xw1Bpbv2KODtY98dYVgdYvRUAE7lcqOTllz56s+sEcI63LyFUE8OFjUE/VM6u3Gjmh91RS9w0uMg4Fl105Sigt7ODF0+FJV3mXdFDOUOugEb842mDdqD3jTNKOB9m7ST1fWYaXUg+6xw52plVU9N73E8pn0hOX2kWsEsxsb+mYHTBW4SoYYpVjTPqMm/aaE5XseV4ui5zRgdRUjhIiam+prVu0bGl9xTwvLv77gmkLqg0WzpLSwUI71fM20aoZOtVizpJ0ZiSG115Sw+hZWXOrawbISd2s6uQ2KVmfkylzxcbVzM6GTQu0VoCGgpi4dQqtQ9vSPNZ9lNkW9mqPXCeuE3jQj93Sx+xilFE35TDIbMaWyqhRhLrq03qGdXlqw7J7BPLKnjKA5plbviNZfiMqmhFWll2WSJOeNKNSqXlzphVXfdD3pJoS6WU+N9D2Qjk9u64lD+cRX0CJQLqvOMjqkTo4NzrNP8YBTnmNqZdn31qSXbs/NsCxaNaze3nDKtz/nueZWVn1+10iDlWW82fa6affnBQyrBWtX0TsL6IOGpX/jtftHv/daSqnMFZ9ylGHElL8TCy3judJEzGr8wcLyDXIj8uGgYZUxkeA9/sBhyYc0iogAVIYopegXO2t0Sd8cjfRNNx0srFhAY+Pa00f9K+oMS/8M9B79EC+kyBceVj0+jOkUGBbQjhkWwwIIAKGsLIYFEABCWVkMCyAAhLKyGBZAAAhlZTEsgAAQyspiWAABIJSVxbAAAkAoK4thAQSAUFYWwwIIAKGsLIYFEABCWVkMCyAAhLKyGBZAAAhlZTEsgAAQyspiWAABIJSVxbAAAkAoK4thAQSAUFYWwwIIAKGsLIYFEABCWVlzwNKWK+omfa1af8mw3ZZmEd5vnxs/Zv3lQygeuO9LCQ0qq8+iQN9x1ys59FX7C+CtTP7I4oK+ga58kkt3yPoV16YR7a/yCSQ5e6ub9BWDaWFyhb2Vu9+0OD7zJ1uDi9rv4YXxVo79Soq9ldlb2dt5dBJ83wfV9llivJX96jtyi/N9eSsPsfk1jTbopWmzDfrn3hZijtqipaz601eff5R9A6C38qBdBvosX6r7KTuWffSuHVhV8Ti5tzL1njHf9JkvxHBKKoHov9E2D+1SpIHW3ktjanUFi1LfBef3Vt6Z+DvtpPSX+cldazOSQR+Tx0IdDGtur9LaWzBksm/fR2wKiQVkxo2ANZ9Xqdn86NvlvjGlazgWY9i4N1hzeytbrm70XL3ObrbD5YHBmtdb2V2/+esyuymOtff0qW5QM5w7X7maVp9jpQ13rrw1ENZ8+YreqtXTrZWSD/r26LlUWLpaFmvfhmn1djPN9Ezc3hVakaUNymSGiXS+bs6aZwOklrJs+U/rrWzu6TPtuNAeSYTKjSE9YVkO1wfuy1t5yLiw7+HGNkH93PJcO0hqD9bB3srmWxrhrWzsFDVtE7FUBVXwY7yV7Q2HyvomZt+vfXormyrrlgxh9/D22HM6b+WWdfkQb2WdfHd7JEJvPZRX7PsZUogO9lZuH1iu2Ox6LNt5O85buRwIGz7r2Fvvg2U3nyGg6PyhVSivt3J3AaI2nFan5u6Z9Qlcsw7Ue+rSwPRjLocqO/fvkGJCf7edwMecOzBX1u+AexzeytM2a6M3rJb2Bnkrx3slk8pIEdpbWW9VNcd0b5P/xpvw++fpdvXg8Xorx4KiUmLM2NBIL8cJq0nE/Yqqe8gpYB2lt3IztxVuenXsmP1e+zbEHDTrEOqxpvo7ohSzlxwK62i9lcO/3vG/kqED6b581RpIT6WGKc4zwiq4vPyQHaOO1lu5v7IOvo5Bw6qYYdlB5qyqOVib1QYhlQExTrb2mWJ/NXSQsOKwTBNl5sZQycGwtLfy/ZhJyRceFumT1BWziRLDAlozw2JYAAEglJXFsAACQCgri2EBBIBQVhbDAggAoawshgUQAEJZWQwLIACEsrIYFkAACGVlMSyAABDKymJYAAEglJXFsAACQCgri2EBBIBQVhbDAggAoawshgUQAEJZWQwLIACEsrIYFkAACGVlMSyAABDKymJYAAEglJXFsAACQCgraw5Y2nLl2jJJ1G3yVu4zi6ivb3orx8QD930poUFlhQ0Ku97KDv+r3cORXZPPkeNSCAAX7YVlf2GvvZXFWkrzi/zyajszsDao2q6k/KbmhfZWbvk2aGCmt3Lb+chW29BvAgEhTB7qVFbsV1LsrQx4K3tgRfnXDP00d3K5ACfsKKuxvAwbiLm9StvHXWFv5ZN7UiryjyHTnlshx9oY7z83rPCX9PYL19Z218jjqtwagv5O/sp99naAaKJCW8oyHizq09l4b+WE7OuqXQkwUJb3jOuh1pWXadDiOIpIT1ALVtUESVVBox3Uq7TPR9B3f+ZXplV99oS+C6xVJqUiW5d6a4hJDYJc9xQsSv0P4vIqDec55O0alsF3XB9POl5YVItA7sGMHQwrJl8NvSk6zuo8vA64+zJ0pXsaAWter9Jux+DOdY4eeTZ1DYKF5qshCnMo1wnhCGDN662sm2FTxpRNQIqLPM/PbPCxChzywuxjBilr7nylYem6ijZEoukd37YLY31KEYgDYc2br5AH2Jf7rTfBz+WtrFVAE4eK6rg1AsUV253JmLZ06W2GXe9P17ZXw+qrkDcVCq5rGYWNDNDrtZTls2Gyx4iufBXjE4oOpUJjQ6XKyUT6N2orGXruJEnOtV2oWtNGcL7x5i5nxcwOXKa3sm1j3oAKD816hlM7z2czxrdTwQ6WY1BcvrUIb+VgERjjTRVqFlUeFbRoQrF64cRUFw7NNcVU34dr1sWE9YG5XyEdZDavPre0vumcKUD5ldHKn3BzvDRvZbsOavust8GHVIT83XpgCNhk3sr1So7eg7WRe90suzlEr+TUe7Y2fszTeis7Ej8tnJTbPaB5bKS3cjnEMOeIzHvr5KaQN1/I6QxREJKkka1kHMCo/ivzom202Kng651JdBIlr2TaGs+/LV69lR6tJdKmbHRc6JgpIJnniB10h66rn53GoQnl7+OwC25vJdP2pnc98JRj1aPzVnY0797yxFWDDfEqpRdRwzoab2VXzdc3SrBhjcmVR+et7BlSeZfmujMPwwbUofHroCmaUKIc+3fH/Lt3tcm1Y5056kDu5Zi9lcu1xr4ywD29PWxjkaP1VtaJttkuS88syAdCPKf9y4x1w+3ddvHbvwFbn8pCqipLCkSm+4717LvquI1xc1lmU+7rSA4aVk2lno+vf6KpB/m0p1dZAj8aM+tq7ylk77VjvpmjgDWnopvmF1bnCw+ryo/srTy1IllZAFGGxbAAAkAoK4thAQSAUFYWwwIIAKGsLIYFEABCWVkMCyAAhLKyGBZAAAhlZTEsgAAQyspiWAABIJSVxbAAAkAoK4thAQSAUFYWwwIIAKGsLIYFEABCWVkMCyAAhLKyGBZAAAhlZTEsgAAQyspiWAABIJSVxbAAAkAoK4thAQSAUFYWwwIIAKGsLIYFEABCWVkMCyAAhLKyGBZAAAhlZTEsgAAQyspiWAABIJSVxbAAAkAoK4thAQSAUFYWwwIIAKGsrLlhLRYn35dSvaGvI39bFM9+CFwzNjRJ05MfCKG+TAcoJX+12Tz7cezBsXEvv/zyp1966aVzIeRtfR3xi80m/5nreFhZaXrynhDqTetkfy6K/EuxNxgTl6bZn4QQr7Vj5W+K4tnXYo6PjKEX8r4Q6lXrOu8WxbO37HNAsLIs+6pS4nfuG1HfKIril5E32RuWZdkZvWHPdb5SFMUfp7jOYpF9R0rxI891Xi2K4i/m3yBYfcbNUop38jx/e6KH+KmU4lvOpiDFd/M89zwgdvUsy36tlPi65zrfzPO89cIgWGl68pYQ6ueukysl3t5s8new23VHp+nJ94RQzjwopeg8xNBrpunJT4RQ3/bAeiPP898PVtbJyclnlBKFUupTnfYsxc08zz8aeuPmcTdu3Pjs8+fbfzrO9e9PPvnfyccff/yfKa7zyis3vpgk2/cd5/qoKPKbo3IWHZxl2etKiT8IIa7XJ5NSdN7C2IdJ0/RNIeR7xnmeK5W8ttk8rRzZxl5BH+9wo/yXEOr1oij+NhpWfYIsyz6nlEqKovjrNLfta5Lp56WU2zzP/z7jdeRisfjC9evX//v06dN/+K4D5awZb/YoTs2wgNfEsBgWQAAIZWUxLIAAEMrKYlgAASCUlcWwAAJAKCuLYQEEgFBWFsMCCAChrCyGBRAAQllZDAsgAISyshgWQAAIZWUxLIAAEMrKYlgAASCUlcWwAAJAKCuLYQEEgFBWFsMCCAChrCyGBRAAQllZDAsgAISyshgWQAAIZWUxLIAAEMrKYlgAASCUlcWwAAJAKCuLYQEEgFBWFsMCCAChrCyGBRAAQllZhwJrsVicCnFtKYS6KcT2iRBivdls1n33R5/hIvHAs44OnVxZi8ViKaV8KIQ8dd2dlOJiu90+MKERVCmTh0KIpX2MUvJss3l2MfpJJzjBpLCqh37cvi+1EkISBBPEWqntHQJmH0MwlVJL8xilxP3NJn8wwfOOOsVksNpfsauVUorUs/tS3qEeAnYmZVLBVauiKO7UT6MVmnxQ/3+ltrdCTXgUiYiDJ4FlqqNPBVmWPVRK3Ovelw0qO5dS3DfjDqE5joZlKoCaUJ7nZ76X5PBQKENN1diKapR1+U1xNKw0TR9XyXxdFPmt/p7OpZg2BJ/fzdEry1RBzMO4mmGV6I3c1gVKJUfoRUSknNEho5RlqCDqYQwV7m68KPLWPfg6ArOzGP3UA08wClaaZtRbLWO6dk8u8kKuC9pDqbGI7yhYyAty1WAxkJFrzB27R1iu5F4WppO6Fs0JbG+wHPkqKs/N+fDoufcCy52v2oUoeuOXEb8vWDRQbo0Zjy1f7S3BuwpNu766DKWg19yLsuoSw7i5WfMVNfuYQTfF0T3FxO5FWWPyFZUbSZLctee/XIqg6yRJct4M1GnmI3lk1mlGDM21GVNG5SzJWQjaKGW1J/q6N0cP5W6C4UFxeygVLjGq3naplHwgpTqvYdSDdHMQrycg5ZMkUbeVEjtwoWmgwbD8swPteaeh+QoZStWxdR6059a0EuWpq1Npj1f7e+gRsJwDXppuaRWaaZopu9mE3iDF18fF9JpV7C4PuqaCfB2KPbKwx6rmvQ+G5RoU27MDvvmrvhvSoJBpn3L+/rEJ1VZzH/A9wdKDaJO8fVOOXrAM71OW+aAx5UUdb74A60X29rwW2N7Ywcqy56a6oBp1SClW5nSy702bDxnT/HQHQktn1P03K0Bm0w+dpw1rtpxVLihQVU7qWislLvTa4LWllNu79VJYrY6uyvSiBsV3e6Vwb+krKNGFDgTsYGUZZQG92c56X9XcWsnev2Cxe/RyxWfMTATSrBxge2dBRsHSwGjVObktpTqltT5qclTDCPF85SrydEKVtA1CCZji6X/pmCkm+symHF5AafXowVHFaFjo+GrueKRZmakhlNv2MtyZG455fiRfhZqga3x5pZSF5St/EzRGBK1V8CsFC8lXviZoKK6Tw64YrGZoFaja7d9R7HrBRlXd8uXKwLJzUHhI1YxA6tjqHOWMrmtR9wrBwsoAs+aj4RfVinVJ41v9vpKwYsoAQ0X278a8RfGVgVWPKISQH8YWt9W08pKK6pjjrhSsuWs6hgUQZlgMCyAAhLKyAFj/B4Q45S9lH47EAAAAAElFTkSuQmCC;" vertex="1" parent="1">
          <mxGeometry x="732.5" y="150" width="75" height="363" as="geometry" />
        </mxCell>
        <mxCell id="JddVZA8G2uNzgZXX8My_-34" value="" style="shape=flexArrow;endArrow=classic;html=1;rounded=0;fillColor=#b0e3e6;strokeColor=#0e8088;endWidth=31.666666666666668;endSize=8.775;width=18.333333333333336;" edge="1" parent="1">
          <mxGeometry width="50" height="50" relative="1" as="geometry">
            <mxPoint x="869.5" y="311.5" as="sourcePoint" />
            <mxPoint x="1016.5" y="313" as="targetPoint" />
          </mxGeometry>
        </mxCell>
        <mxCell id="JddVZA8G2uNzgZXX8My_-35" value="&lt;font style=&quot;font-size: 36px;&quot;&gt;&lt;b&gt;Prompt&lt;/b&gt;&lt;/font&gt;" style="text;strokeColor=none;align=center;fillColor=none;html=1;verticalAlign=middle;whiteSpace=wrap;rounded=0;" vertex="1" parent="1">
          <mxGeometry x="800" y="220" width="286" height="80" as="geometry" />
        </mxCell>
        <mxCell id="JddVZA8G2uNzgZXX8My_-36" value="" style="rounded=0;whiteSpace=wrap;html=1;fillColor=#fad9d5;strokeColor=#ae4132;" vertex="1" parent="1">
          <mxGeometry x="1023" y="60" width="180" height="80" as="geometry" />
        </mxCell>
        <mxCell id="JddVZA8G2uNzgZXX8My_-37" value="" style="rounded=0;whiteSpace=wrap;html=1;fillColor=#fad9d5;strokeColor=#ae4132;" vertex="1" parent="1">
          <mxGeometry x="1023" y="140" width="180" height="400" as="geometry" />
        </mxCell>
        <mxCell id="JddVZA8G2uNzgZXX8My_-39" value="&lt;font style=&quot;font-size: 36px;&quot;&gt;&lt;b&gt;Dev Hyp&lt;/b&gt;&lt;/font&gt;" style="text;strokeColor=none;align=center;fillColor=none;html=1;verticalAlign=middle;whiteSpace=wrap;rounded=0;" vertex="1" parent="1">
          <mxGeometry x="970" y="60" width="286" height="80" as="geometry" />
        </mxCell>
        <mxCell id="JddVZA8G2uNzgZXX8My_-40" value="" style="shape=image;verticalLabelPosition=bottom;labelBackgroundColor=default;verticalAlign=top;aspect=fixed;imageAspect=0;image=data:image/png,iVBORw0KGgoAAAANSUhEUgAAAEgAAAFrCAYAAAByos9rAAAAAXNSR0IArs4c6QAAEzJJREFUeF7tXU2oJUcVruoXE5WsxJh7+wXmzUbElVt/YN64cCUKbtz5ZhRFFHHhRgR58yBBEFciiCK8DG5cG0REJHcWuteFKyE36vS9JOMQBEN+Jl1y+ud2dfWp31P35yXnrt5M/1TVV985depU11dS8M+JgGR83AgwQB6GMEAMEM2JMIOYQcwgGgLMIBp+7IOYQcwgGgLMIBp+7IOYQcwgGgLMIBp+7IMoDJrNjm8VhbqhlDqB9yglF0LUd9fr9TKlX2az2akQYpn6fEqZ1GdQBs1msxMp5aUQEho0+Sklb6/X958PLRyAkbK4FEJ0QNfXrwpIE4C6xrzYNX6plGiAkFLc6hvYsimskS3YxUs6mFKK56uquh0K8D7vGwE0boxarFarm33lyrK8VKoBqfmFNtIAvHlWKXFnva4u9tnw0LJHAM3n8xc7s1quVtV1/SXate6/xwDaCpzNynMpxR39ulL1zfV6vQit5D7v2wCk9zTWgPm8VEZFJyBiDUGeE6tVdWVGz01F5/MS/MQJRn/MjwjhZxD+nAgCdp+sGflL+IfeEMz54mbi9yOpz2HgtO9Sp7pf3AWIDYO0hqC9m2ompmPvRr8o/9OavjzvQ45dm+cGoKIQJ3Ut75nxDTYKhZgXgBELLDBZiKMm9moDVAF/N7FT/9sLQC6q4iwIMa9p/ANRtDk69mXjHdFchah9A9JBAURxsrH+pzclKWUzjQE2C/HOwozoDwwgLIbxs6c1r01MtSFoSvxjvucKABQ2D4v1PzYzP2iAUoNDimmaQB0sQJjTDJ9/pZvmFQIovZG5/A/myw7GB2GjUGjlcvmfgwYIY0EIQDn9z4ED1E5eNZ8QNMmMjX9886ltOGlIJUupztv2qQWkkm35KWvaoZ/dx4b52HMp8U9fbm6AbBG7LYlnBcgy0XTmkrFnXNMLH3u2YWKY6+jrgWUyrADhqVJ7kIiZVluwP2/kAio3g7ABZABoOktwZvYQc1l25rJZ9vGvgIRNTXYVSbsAwuI8J0DdiAQrHKOUA7ACJpVIOmI08274E7j6sSuA7EzH2e7NDQNIRVGcY7mZvlGAfF3Xd6Us+uWi/lLQyLdLE4OytCQcdHwzktkWK7wA6ZVvV0aLG5Bc01ISsFK6wOKfHMs7uX0Q1hndsA8Lm5MOjQLI1dM50qvY+3cDUDutCvZB3Ro61DdoHT139KwDtQuA+jIwxiMrq+M1+ZB1+G0uDu4GoHbNzwsQHkS545jUNbOQIHEbgaJZrl5/bK6pr6xOPjLoXuYciSxTi2xfb2ybQS7zgvZrADUTOPDko59rJMptWu2yj/47OjXrBPURor7XrXZsbk75nMa33G4A1HzDY8QxdvPCpyK0jxJcUa7LJFMnwwP77e00vu4YPlDYJXP6xrd0h09r2qUf32/48k3djmWQbrquaN8YxUZp1u7jqYbOQogjiDivmR9SdVH0RWwFfY3f5nXdNfjYh3xh1oA0+poMq2w/vbgq3/nobegBCglhbN8oNlMK+JpCCLmZrwD1+xXPq8QYrINhQAhpQ7apxjZNYp/vZoA86DNADBDNQJlBzCBmEA0BZhANP/ZBzCBmEA0BZhANP/ZBzCBmEA0BZhANP/ZBzCBmEA0BZhANP/ZBzCBmEA0BZhANP/ZBzCBmEA0BZhANP/ZBzCBmEA0BZhANP/ZBzCBmEA0BZhANP/ZBzKAtMmiq5VrcBdGjkM9nadU6nKdt30m7tFyXSsmLSC1X2EnUbQ4GpYP4rQP7ggz50n6sPdZ+US+WqVqu0DBzk0qozM6+QNHLRXYcDj3NWq7afrG2p1nL1WStvuNws18ss5arqSJztbVcMf+Qui91m7uhd+WfOiXOwTFj7EnVBEp9Dhrfbs8szuBvTMhgxwBtNtJl1XJN2dPqE0sBYHa5ia9jUKu0q1RxF9FyxXZDB2lyxGqZaRIRgIO24/HopNN23Sii99e3rWzunYulmkms/9E2CYMED+xBnSiWpzCSaopegGJZ0FcoFthh/7p757TBso5pzTNBG4FjAfPpB022iocqusRoKersEUItMVMfgMdUhmkqVy7QPABhYpP5tVwtrEDNrB3hJvUK8omx7GkGBNdDu9JyxaV1ovTSdg9QanBo6WHnWRoWFQer/kfs/SnM6Z+xMijWyeqViPE/hlNvhnFfOgUxya1NXyIBCtPmSB35Qnva7Lxtpk+sAB2KlisGmlm30JE1tAOs+aCxmRyGlqvZqBz+Z3xaFWQ4pzMIrw86FC1XE6Ape8LMXoujEBkg+4FMVhNL0XK1iTiGyCyH0N9kT4rv2aOWK65gRdVytUXQKeDAu3au5doWOj0iom9YLgeql5EKjg+gYB1Fo9dMLdclzJcitFyjzvLxjVohmj8uc92Klmt3OkqnI4QV36x1XWxDy1X3hT61qBA/1kb64zMXs2i56ilQSK61Yktw7k59b1tarvqpVbYcUSgoblZt/OeutVzDZv5Y5XUBWhc4PcMossxDR0zTJo6pRviZqLHZQ1+v6/kh22lS/Tv6eI0SSlwpLdcBnLAkWD9s0wDauZZr2jmGMeD0h7WBUidl2N+BlmueY7IsZuqzxuY6BaDevGzv0Jae96flSgGnyx9FHa2Mzcts8RW6Nj902260XC3ncQSxhwIQScvVNYfKvT7VvU9fFAwGpwUoftknt5ZrdxzE0clwJk7bhqsoWTrWcnXHapM4KJzu7fTiKmq5DsGl/1AUq5ZrURRn3VkaQBSYh8FneAt9ehFlBwd2M2u5ZuoQ79p8pnKu7GsYIE/XMUAMEM26mUHMIGYQDQFmEA0/9kHMIGYQDQFmEA0/9kHMIGYQDQFmEA0/9kHMIGYQDQFmEA0/9kHMIGYQDQFmEA0/9kHMIGYQDQFmEA0/9kHMIGYQDQFmEA0/9kHMIGYQDQFmEA0/9kEUBvVarvCO9vNf+TJruXYKdN0+1VMEYJDQilJ86jarvKe0XKNAMlUcKNuXaB4l/umJDxo2eYxVe80tCqH74XGtDf8WgPimbOeJEUCs5ToFmbVcQ0cxzU9M9o6n7mpOfW47xpL2VkTLdbp/KlWuK/U5aEq/aVcIdY21XLXO7RUepBR3HH1uVetM44n9KU3LVdzCxNUoZhKrZTYuq1WGEuId2O24FOLo1NBzbbRe3zNartCHPrlSTCmYqgbjY5x3LhbLgr7AWP8zVQK2Cd42yi0Qlfe/rYlMQgHRWq6hilKxWorIXlm04ZjJ55LNwdiUoOUaFgXHMs8C6ESNEwcoXWWGZGK70nLthvWR6djma5gKJ0UaJxmgXWq56nEPjFSQWrGNTgcEECaVHGpeeQRPsN7dpQqn00lT5Cdi/Y+P5sPIuNsRzAnQoWm5IiYflZMK7QTzPofY7X61XNspByg+HJ3AfEyfelCPjdBU8EAaxSkRHwNQkGYzpgGbEqfYNERCE3U2xmAJPLjX9t4ouWTfcJpTy3VgEFR/wqLkeVhGLdepIpULIFvPwETTp2QX6h9MP5SS237XarlqI5l5UkxUB7gAyqblCmkGSGJ18jngTK2/FP/jY9S0kWGSgm1AOo3vhvIihCbHPSYvhZDYGtlmRg1qmdvQcg0JFmPNuIvGzztdJHDRi6596VKl4GOEKG60zFFwSGRzVExd13dtWq6xPiJU9IgSxOqAdwMB/Fd/SGU6QD7ax+Z/phUtzrpYx3sKJ6UsrB2pWq4noQcKUdKyUOHQXNBg9ulH6rhMFouFHCurTfgUJOSG92h4jiY2uEzR23dZQO/0vQBhQZTPj1DZAxUPTZb1jUydJ+LmNZw2hQnm6iur2El08E5nnBGbWnX7gPaqLxFvDvOUUMK13A512YKWa7hpGcFf83mMb65ldoiP4S7T0tkfoOWKit1aUwqWE1KSBf7H3xDp5xvCmljzg9DifByPhQeInnjKaiXG1x2t8HRH9IV+lPF4WMZGkbgTUmz+AI4O9ayqNmZP1bhP0nIdjw4wgskFiPq3K5vwOzqVsj4zezG3ZGm/Lt+upKpmKmMeMuAyHd+1sZarO438ntRy9Yls6wBbtVw7ex+dpQEOER7upxe+njrk6+BDQ4R6vUvP0MjQOdIhA5JatyCAUl/+bniOAfL0IgPEANEMnRnEDGIG0RBgBtHwYx/EDGIG0RBgBtHwYx/EDGIG0RBgBtHwYx/EDGIG0RBgBtHwYx/EDGIG0RBgBtHwYx/EDGIG0RBgBtHwYx/EDGIG0RBgBtHwYx/EDGIG0RBgBtHwYx/EDGIG0RBgBtHwYx/EDGIG0RBgBtHwYx/EDGIG0RBgBtHwYx/EDGIG0RBgBtHwYx/EDGIG0RBgBtHw8/qgsiy/IIT4hlLqmhDyH0rVv1yv17+nFYs/XZblhVLqS3BVSvmH119//NnXXlu+lrussiw/Vdfiu1Kqj3fv/vFqtfo1Vo5Hsv34TErVyFGMf+rrq9XqVzkrXpblC0qJzxvv/Pubb77xyYcPH/43V1mz2TMg0KIfGtC9Wj27Wq1+aJbjBMilWonJWaU2oizLLyslfoP2oBQXVVW5DiGJKnY2K/8kpfgs9tDbb79VPnjwYKVfswJ0fHz8TF2rf9lKl1Jcq6rqn1G1s9w8n5c/EkJ8H7uslPjtel19MUc58I75vPyfEOKDls74XFVVfwwCSAjxvvm8fMtWsSeeePwDy+XyjRwVL8vyO0qJn+Lvkr9Yre5/M0c5HUD/EUJ8CHtfUchP3L9//6+hAIG+4c+UEt+e2KUUP6+q6lu5Kl2W5YeVEsDW9yNlfbqqqr/kKms2O/6elOonyPv+vFpVn4nyQR3i4Iy/1j+olLhcr6uv5qpw/57Oeb4ghHhyeLf6im10oZQ/nx8/J4T6Qf8OKcXvhBC3qqp6EA0QPPD0009/pCiKZx49elS9+uqra0rlfM+WZfmxR4+Kx1955d9/891Luf7UU089+dhjj31UKfXQpTjqjYMolXg3PMsAeXqRAWKAaIbODGIGMYNoCDCDaPixD2IGMYNoCDCDaPixD2IGMYNoCDCDaPixD2IGMYNoCDCDaPixD2IGMYNoCDCDaPixD2IGMYNoCDCDaPixD2IGMYNoCDCDaPixD2IGMYNoCDCDaPixD2IGMYNoCDCDaPixD2IGMYNoCDCDaPixD2IGMYNoCDCDaPixD9o1g2az41tFoW7UtVgKUd8TQixdO/po/bv9p7MxaDabnUpZIBv2hVBK3l6v7yMCBfYGzmbluZTilhBqqVRxN/b5XNBlAahrzGbzv5TieaXEqRDipK+oUvXN9Xq9CKm4+T54JqeQQUgd+nvIAIFJSaku4YVKiTvrdXUBfyOMWq5W1fWQys3n5Us6uGCmoc+GvD/mHhJAs9nsRMoCGjMCpwVoAE5j0XWfP9LfOTRELVar1c2YhuW6lwTQfD5/UQh5KsS0AZiZhPgi/LmBmbkaHvqeZIDGplVPmDGAp/EgwA+lPhfa4Nj7kgHS/MTEP+BmEuZHEMWZvfkfADMJoLHvmQ7hqWZyaP6HANDGAaO9i4xCQqmpGZp0TwU21mxi7k9ikKsAmnn1Tj/Ob8U0OPbeLQDURMAjxSg9PnJV8ND8T7KJeRppBnmB5jXEVIcQ/2SLpHWwKOZ1iP4nO4MojTy0+GcrDMJGr5BJJoV5sU439v6sTjrVyeKpkvD5FwDsm+O188MZZBiW8HfI/VlNDGNB6OiVappDzqhJqyylFIu6ri/0xhv3bAgEKRnzXoxd2RiEsSAUoBT/U5blpVLiFpRRFOIE/m4bqBZKqdtN70t5CZPpFgxgjnxZyvpMCAmANqB2eaqGVVsGCIt//JnEFP/TP6N3gO7/uoQdAAYA3DYTdfq9vk7MyCAs/xMEEJKqdfuf3iT1AWDq/+zv6NnXM86Va9orQB0TII+9Sc02RqJlJk3aa4zbzAMRFjozAIbPc96bDSBoiDnMA9Wrqmr8AfbDfE8LkH1i2+ehXOldX2JuXK6brVkBwkejaWM7hw557BFzOhA9vT87EaI463Pf7fA98n/e/JFujjvzQT1D8FQHTF7ly7BeZq52mMzyVdjHRB9rTXP0sS0rgwaQmrRFP5Tiw6cUzTrZMDx3LtPhf7AXTRvszl/Hsm0rALW0h6i1uCGlOu3AAjiWUsplXdd3YehNnZroQJmrJ77EnBkOuHxkE0vZHOi2/z8l/sEZFO5/Ytm2Z4DSAksTpBhG+MwLWG8GlWQGtSOSPO/Xx0LW0fOxZ5xk8zl41+jVB49m9oEEkO2DBZ8fsIQDwWv3PYtM/+NKrbhGL2zq0pdBAsgR6FkbS01tjB10jP8Zm7QOZt9h2JBPBKhUiOO0Bmq5TAuLuXzmZbBNn6Z0c0E8oqYChCTo7RPUKePCk2KOOVlzyRfwwT2DQ+9TIken7Zcp9noQARqvY9m+AWqZ0+Zmhoamg9PHWdoHW97phTYlgTSINsXZ4lzMHDaVkhdCvLPwZfR804HQGKwNRo9OYr4+69KuAp4z64qVS2IQMlF0ti00zRkK0C7uIwPU070oijNsIgqgwD399GIXjcpZRhaAxkMvpCPafG/oykHOBuV+V3aAcldw3+9jgDw98H8EYeM+eDX8/wAAAABJRU5ErkJggg==;" vertex="1" parent="1">
          <mxGeometry x="1083" y="151.5" width="72" height="363" as="geometry" />
        </mxCell>
        <mxCell id="JddVZA8G2uNzgZXX8My_-42" value="&lt;font style=&quot;font-size: 36px;&quot;&gt;&lt;b&gt;Score&lt;/b&gt;&lt;/font&gt;" style="text;strokeColor=none;align=center;fillColor=none;html=1;verticalAlign=middle;whiteSpace=wrap;rounded=0;" vertex="1" parent="1">
          <mxGeometry x="1140" y="220" width="286" height="80" as="geometry" />
        </mxCell>
        <mxCell id="JddVZA8G2uNzgZXX8My_-43" value="" style="rounded=0;whiteSpace=wrap;html=1;fillColor=#b0e3e6;strokeColor=#0e8088;" vertex="1" parent="1">
          <mxGeometry x="1361" y="60" width="389" height="80" as="geometry" />
        </mxCell>
        <mxCell id="JddVZA8G2uNzgZXX8My_-44" value="&lt;font style=&quot;font-size: 36px;&quot;&gt;&lt;b&gt;Rank&lt;/b&gt;&lt;/font&gt;" style="text;strokeColor=none;align=center;fillColor=none;html=1;verticalAlign=middle;whiteSpace=wrap;rounded=0;" vertex="1" parent="1">
          <mxGeometry x="1412.5" y="60" width="286" height="80" as="geometry" />
        </mxCell>
        <mxCell id="JddVZA8G2uNzgZXX8My_-45" value="" style="rounded=0;whiteSpace=wrap;html=1;fillColor=#b0e3e6;strokeColor=#0e8088;" vertex="1" parent="1">
          <mxGeometry x="1361" y="140" width="94" height="80" as="geometry" />
        </mxCell>
        <mxCell id="JddVZA8G2uNzgZXX8My_-46" value="" style="rounded=0;whiteSpace=wrap;html=1;fillColor=#b0e3e6;strokeColor=#0e8088;" vertex="1" parent="1">
          <mxGeometry x="1361" y="220" width="94" height="80" as="geometry" />
        </mxCell>
        <mxCell id="JddVZA8G2uNzgZXX8My_-47" value="" style="rounded=0;whiteSpace=wrap;html=1;fillColor=#b0e3e6;strokeColor=#0e8088;" vertex="1" parent="1">
          <mxGeometry x="1361" y="300" width="94" height="80" as="geometry" />
        </mxCell>
        <mxCell id="JddVZA8G2uNzgZXX8My_-48" value="" style="rounded=0;whiteSpace=wrap;html=1;fillColor=#b0e3e6;strokeColor=#0e8088;" vertex="1" parent="1">
          <mxGeometry x="1361" y="380" width="94" height="80" as="geometry" />
        </mxCell>
        <mxCell id="JddVZA8G2uNzgZXX8My_-49" value="" style="rounded=0;whiteSpace=wrap;html=1;fillColor=#b0e3e6;strokeColor=#0e8088;" vertex="1" parent="1">
          <mxGeometry x="1361" y="460" width="94" height="80" as="geometry" />
        </mxCell>
        <mxCell id="JddVZA8G2uNzgZXX8My_-51" value="" style="rounded=0;whiteSpace=wrap;html=1;fillColor=#b0e3e6;strokeColor=#0e8088;" vertex="1" parent="1">
          <mxGeometry x="1455" y="140" width="295" height="80" as="geometry" />
        </mxCell>
        <mxCell id="JddVZA8G2uNzgZXX8My_-52" value="" style="rounded=0;whiteSpace=wrap;html=1;fillColor=#b0e3e6;strokeColor=#0e8088;" vertex="1" parent="1">
          <mxGeometry x="1455" y="220" width="295" height="80" as="geometry" />
        </mxCell>
        <mxCell id="JddVZA8G2uNzgZXX8My_-53" value="" style="rounded=0;whiteSpace=wrap;html=1;fillColor=#b0e3e6;strokeColor=#0e8088;" vertex="1" parent="1">
          <mxGeometry x="1455" y="300" width="295" height="80" as="geometry" />
        </mxCell>
        <mxCell id="JddVZA8G2uNzgZXX8My_-54" value="" style="rounded=0;whiteSpace=wrap;html=1;fillColor=#b0e3e6;strokeColor=#0e8088;" vertex="1" parent="1">
          <mxGeometry x="1455" y="380" width="295" height="80" as="geometry" />
        </mxCell>
        <mxCell id="JddVZA8G2uNzgZXX8My_-55" value="" style="rounded=0;whiteSpace=wrap;html=1;fillColor=#b0e3e6;strokeColor=#0e8088;" vertex="1" parent="1">
          <mxGeometry x="1455" y="460" width="295" height="80" as="geometry" />
        </mxCell>
        <mxCell id="JddVZA8G2uNzgZXX8My_-60" value="&lt;font style=&quot;font-size: 42px;&quot;&gt;1&lt;/font&gt;" style="text;strokeColor=none;align=center;fillColor=none;html=1;verticalAlign=middle;whiteSpace=wrap;rounded=0;" vertex="1" parent="1">
          <mxGeometry x="1363" y="150" width="90" height="60" as="geometry" />
        </mxCell>
        <mxCell id="JddVZA8G2uNzgZXX8My_-62" value="&lt;span style=&quot;font-size: 42px;&quot;&gt;m&lt;/span&gt;" style="text;strokeColor=none;align=center;fillColor=none;html=1;verticalAlign=middle;whiteSpace=wrap;rounded=0;" vertex="1" parent="1">
          <mxGeometry x="1363" y="470" width="90" height="60" as="geometry" />
        </mxCell>
        <mxCell id="JddVZA8G2uNzgZXX8My_-63" value="&lt;font style=&quot;font-size: 42px;&quot;&gt;3&lt;/font&gt;" style="text;strokeColor=none;align=center;fillColor=none;html=1;verticalAlign=middle;whiteSpace=wrap;rounded=0;" vertex="1" parent="1">
          <mxGeometry x="1363" y="310" width="90" height="60" as="geometry" />
        </mxCell>
        <mxCell id="JddVZA8G2uNzgZXX8My_-64" value="&lt;font style=&quot;font-size: 42px;&quot;&gt;...&lt;/font&gt;" style="text;strokeColor=none;align=center;fillColor=none;html=1;verticalAlign=middle;whiteSpace=wrap;rounded=0;" vertex="1" parent="1">
          <mxGeometry x="1363" y="390" width="90" height="60" as="geometry" />
        </mxCell>
        <mxCell id="JddVZA8G2uNzgZXX8My_-65" value="&lt;font style=&quot;font-size: 42px;&quot;&gt;2&lt;/font&gt;" style="text;strokeColor=none;align=center;fillColor=none;html=1;verticalAlign=middle;whiteSpace=wrap;rounded=0;" vertex="1" parent="1">
          <mxGeometry x="1363" y="230" width="90" height="60" as="geometry" />
        </mxCell>
        <mxCell id="JddVZA8G2uNzgZXX8My_-67" value="" style="shape=flexArrow;endArrow=classic;html=1;rounded=0;fillColor=#b0e3e6;strokeColor=#0e8088;endWidth=31.666666666666668;endSize=8.775;width=18.333333333333336;" edge="1" parent="1">
          <mxGeometry width="50" height="50" relative="1" as="geometry">
            <mxPoint x="1210" y="313" as="sourcePoint" />
            <mxPoint x="1357" y="313" as="targetPoint" />
          </mxGeometry>
        </mxCell>
        <mxCell id="JddVZA8G2uNzgZXX8My_-68" value="" style="shape=image;verticalLabelPosition=bottom;labelBackgroundColor=default;verticalAlign=top;aspect=fixed;imageAspect=0;image=data:image/png,iVBORw0KGgoAAAANSUhEUgAAASAAAAA5CAYAAACWLfZnAAAAAXNSR0IArs4c6QAAEDxJREFUeF7tXW+sHUUVP2fvK7S00b6mz7d37+XxGmv8ZCQxfiAQKeGDYtSYkBQDQltiGiqgKIUoCKU0qFD/oGD4458CElAMiZFE4wdDMSEkRhGDEjE1PurbvfsCaVUoLfDuHjN37947O3f27u7c2b1735v78b2Z2ZnfmfnNmXPOnEEwP4OAQcAgMCYEcEzfNZ81CBgEDAJgCMhMAoOAQWBsCBgCGhv05sMGAYOAISAzBwwCqxyBer3+IUSc9jzvdwBAZcKxoglo69atp7/++slzEdsv+r7/apnAmm8ZBCYFgc2bz3SmptqPAMAfidoHlpaWTpTV95VKQDXHcbYTwSWIcNDzvGfLAtR8xyAwiQg4jnMeEfyQCJ6bmrL2Li4uHitjHCuOgBqNxtlBENwBAC+vWbPmwNGjR4+XAaT5hkFg0hFwHOcSIrgbgJ6t1Wq7yyChFUNAc3Nz08vLyzcTwYVE1s2+v/ibss+zkz4BTf9XPQLoOM4+ItgHAN9fv/6MG48cOfJWkaisBAJC225ehNi+k2k9lmVd57ruYpGgmbYNAisVAWYPOu209qNE8AFE+KLneY8VOdaJJqDZ2dn1iLVbEGE3ETxYtgGtSMGYtg0C40LAtht7EOkuAHieKNjh+/5CUX2ZWAJqNBrNIAjuBsBzEeEOz/N+YI5cRU0T0+5qQqDZbDba7YBpPh8hwlt93z1Q1PgnkoAajcYH2226DxGaiHCj53k/N+RT1BQx7a5GBGy7cQsi3Q4Af7IsvNR13X8UgcPEEZBt2+cjWvcDwHoi3Ov77hNFAGPaNAisZgS664zFBs0hwrWe591bBB4TRUC2bV+EaH3HkE8RU8G0aRDoI+A4zmYieBQAPgpAv67VapcX4ZafGALiNJ+NiHBd99hl5oxBwCBQEAK27dyDCNcgwj8R8XLXdZ/T/amJIKAoShMAmkSw3/e9bxubj+6pYNozCMQRsG3nBkRg3jAgwh2+77IjmdZf5QloZqa5dWoqOAQA55UVHKUVYdOYQWBCEajXG1cB0H0hAcGNvu8d1D2UShNQs9nc1G63HwTAiwHg90XHJIjg2nZjp2XR+UEACwDBMwCwMCwmIm953cJc6e0ZfMuVsG03tiMS8zAzCrq/1Wrt0d2DKhMQ2rZzPWInLPwNALqm1Wo9qRuAQdJx9iHCTgCYH/wWHSayHvZ99yH+f47jHCLq1BF+rDztKjKQq2g8qtC+bdvbEK2nE/Dd7/v+4az9tG173rIsdt1gJxHcBhA8bOQjR48/gq06Amo0GucQ0U+J4L1EcGjDhjP2FH0vpV6vPw2A2/rioO7E5v/WUUdv831vPysnkM8CAHWjRvt1iIItZpJnpYh4OblMkG0OvQ0iD75ie0S4S9xQ1Hq68mo5jvMVIvgGGxki3O55HlMGtP4qqQGxKxaWVXsAAC4DgKNEwRW+77MjUCE/tisi4qGIfHiCYR8Md2Dcx5MTK2NZMB9pPkTBBfxOHCcmOtxqtS4opPMruFF25EIkZv8DHl9R4xTllQSJTJMyBJQ8ger1+n0AeFVYAr/carnf1T3dKklAjuN8kgh+AgCbAeBH09Mbr37ppZfe1j34qD1uV1wgCtiRaUClD0nK+pesD/ziEMksKt9qeZXEuihMR22Xx3twQ+gck2/jNdUsBG/bYj0AIxe5pObn5zeeOvX2w4jwKQB4rasEsAwTWn+VWxRM+6nVaj8hgu1M+7EsvNJ1XZYqspAfNykZ+TAtJvHiXb3uMAISbENx7UY2yVnHzUTPJ77+pjCoPQ4ey7LhK5HfQqvlbcnXs9VR2nGc9xPBzwDgbAB4ARE+43ney7pHXzkC4kPAAeCXp06d3Hn8+PH/6h54/2gVGjfFI5Tse/W6M5AvV7Q/yMow75mZ6NklyB+VZMQtwTgVX7kGa47GSVKp1+sXAyBztmwAgMcR4XOe572ZXYrZSlaOgBzH2U8Et3ZOnQXeQWHtc7YExQk8SCwyLSmrjSKbyPKXYosvrFXbBtBmoQSZvUb5vzZ6Df5ILBK3KpHINNNxySWUR7Vl4TjOQSLYG27OxcQAddb46NNFXwvx+yfwN8vCy1zX/Yu+L/RbGmZjkH1PbsDse8OiOoMu+fHtsjLjOTe2BSJ4KPLmFYGxSptxuQx6qOREku7JkteLOw5U+pu1Du/+l9SplCxmZmbsqampx7tOl78D0GWtVuv5rGPNU65SBMS73hHhiXa7fWVRGfo5D0uq9hMe1wYNmEnHNrbwAazzAfCVcbl4hf4uIAKLSZqPhxl0pkqq7SvPhBq1bJpcVI5frE+yo3FZdrmcspA6QUbFNU/9Mp1AlSKgMkK/eUFER5MsMTqqhs88gtdVtj/hBwMhwzFbO+JepKqRUHhkFOUiO35lOUYleDAzbTyjykRwcsTIZYgsxkZC7CmrN954k+Xa2sW8X4hwped5T42KQ1L9ShFQdPu2SLefKpCqO6/q91Tr9Y+KyUe/hONAKQtSdVzJWqjq8Wvw+DxK3xKO7VHoxlBsJdr12GTRaDQuDAJiITBzRTuBGGaVIaDp6el3r127jlndP12k209lkqnuvCrfGrVOZARHhIc8z2O7mPQnH1P6Yh61f6PUV90E8hyfR+mfWDeyB2aUBfPG9kI80uro7GfUlhAA/BoRXl10wr/KEBDLQ7u8HPwCEc4hgl+tXXvajoWFhf8UAXTeNsc1gfP2k5UXFmliYCUrWyWDedpYR9kExmX/ETyiQ2VRBS3IcZxLieB7LAC4rOtPlSEgx3HOJMInAejDRcYdpE102f8nxf6T10Ut8eyNTfVPk4u690sawV7KOAeJb+ixeODCbVlGcoZ9s9l83/JywCKfzwGgvyLiFZ7n/TlNLqP+v6IEVMzVf1WwVFV/1e+p1pMR0DBVXh5aUJ5rOs84VaOYxxX/oyCLgas+WYJj82CYVFZIe+OXmXHUEFCKBEdR/XVMjrxtDN72Tr6JLx9b9W7u59XseMzGeXyWyCJ2YVmUrbjRlXFRlnm9Tpx4k2U9/AJLe4MID2zcuPGmIu9e8uOuDAEJl98KvYKRZ1GPMoFZTEvWyGPOM7WNxewEAT7DxxD1Xba0DQDnwzIBy4UTu7vWj7Kls9KCDPnb5hEmZar9WeWQNQhUfnwevL+XNkbOPb6TpVchwsM8lnJZxOUV9aUfEzY875CMZNP6mRW/IeX4nFvsykUpzzFXkoCYR85xnHuJ4PMA9AcA2N5qtV7RAHJiE2xyWJa1gwXosURjAO3D4oJWtf/wxJU2kbjJ180n1Msl1LFVCAuQLzPUsJmGnUhA4/C8pPWR/V9GlFmOJ6rxP11NpBu82Us0t9JkIZAPPvjWWydvOHbs2P+yyERXmcpoQGxA9Xr9swDIctCeKjoASj6p425o1QkcjiXcebMEykUkF11s5UmPkUKYc6gfVBj2K8pfpH7VQ0dyrlDLo7OKzCyYoIWmJnlT0Zw4WXSOS3JZdAI3O8GCRcmi4M2g5jjOXiL4WkgkeM/69ev2F53wT0ZalSIg/knYIvMAJRALu3YXSxwmT62RvuDj95mG21SiRcJPOEmK157XRlxUqhN1cHGmjytuW4kncWP/KyrFqToBZb8+E2paoccsTRZ8zigx7EEl60GZ3sjQ5nNyHwBd27X5jPVZ80oRUFfd3oNIdyHCUlFvESXlGBa1FVmu5zwaTZY0HNE3+LQeosdHRzbAQYNnPP1sliMN30ZSHuws+ORV31UIKGmTGXYc5mTRMxYPk4WuI2xeY3Ve/KLymzZtetfpp687CEC7masdAPa2Wq3fqrano17lCGh2dvY9llV7GAA+VlQwlOz4Fe7gfW0laQKnaRz8wsyyqNkEZwZlPmqZ31XF74l9z/INcaLoaCMh71HnU3lyNGeZxCrhAjLbXdqGEJENT1LDZRFPlq8mC7GNYqLRWZxPux3cE750io9aFnzVdd3FLPgXWaZyBBRqQc2PIwY/Dgeu/zWMtAndJZ9YaHxfCMOCyfoqf9bJyCY4726VkEPM1sF7uVTsLuLYVVy9yUfYrsQKSPQuaiLDNoIE8ok9JiBbVEwWfLuDWMVjpDTIIhb7oyKLDOSAtt28CLF9JyKuI6L9rVbrMQBoZ6hbeJFKEhCzinFP8rywvGztevXVxSM60eAn9CABBDu6aSs6xkaWWoO/Pc4mKe8CD0mjVyd1og8bh3jcSPOg5cWEX5xZSXJQg+rYShIIuvOKpvaXJpICCnkS7pI3e7lB8qRStqyXcTtXPyk++3uxstCP2dzc3PQ777xzCwBeTgRPEbUPLC0tSfOa551HuspXlYAgHiBFT9Zqtd2Li4vHdA1cdvem23Y0eWMu7gSbB4vBiU121UUdjUv0ugy7UJoXCx3kE32zi5/0/bS0Y2refgvf5JLR91oakAM7bomyyUsgvMx1j0mnLCR41ur1+qUAeBMivIiIX3dd9wVV3IusV1kCYoOOG830B0l1VWz27EuMRLoaDnuwLpa6tIxFx9scdGoSWV7+yDvR+IA8RFyIEp7pXqxxraT3RFLsbbCoTGQE13F9Jq4l60vfwW9+o25YosxmZ2e31Gq1bxLRqSCofWtpafHFvHIts3ylCYgBEWpCJ64HwC8R4a2+73beqtb5CxcSI6HafJYMhmF0a61LWoPBi6p9S7P/qLfbs00NfXaoS8RDn58e1odoYRXhCZMdAyOZhf/ry0Ee45WfQOKbgZ47cnzGx6QnoNhowjk2/ClwEZOZmZkNa9as+QQAPOt53r9V50uZ9SpPQF0wsF6vn0dkbfF995EyASrzW+LCyXtkkPU1LcVpVKdPHup3waIFq1NzU8FfHj6Rb1zFyKLn8UpJzRHansaNowr2eetMCgHlHddEltdtc+C8OKnpJ6Jvq5KeEHw59NJlHuFwkdbsZdxU7UzX5eEiZTFM82HYyGLD8mA2SWUNAVVIWjrtP3nIh0Egi4HJA03aW1552orKiu70LLYllaBFWd902n/4u35ZIqVHlYUK1uOqYwhoXMgL35XEnKTedUrqOj/hwzCCzk988bVneA8v5Ib3zbI8cSw/6vXtTFkWWRrsSS/MDgty1KX9dAm59wjlKEchPqaMGZzTZMGFfKRqrWkYTsL/DQFVREq6bA7xy5H5BpdFw5CTTz/roC4DdFIw4bAjovxRyHy2HzY+XbIIiSx+5SWrRFRlkbX9qpQzBFQRSeiyOahOeAaDKnnwT8/o0X6kaVQHLgvzohslb5M4BaogC0NAFVmYq6UbSZHZecafdMk2axsqR4248Tm/qzupb7IUrN2YGfEo2XFZdyOze82NEl+jy/4z7L5cmkxUZJHWZhX/bzSgikilr7mMYoeJgvTUBkVELMfNwAJPak2wuWi1WcQv9SYTm07NJxqnDo2ufxQuRxZqXxl/LUNA45fBxPagiOjqPgmI981YQjY8DBA8EwWBIlLs3pd4R28UYBmB5CHjUb61musaAlrN0h9x7P2sj3qihMXupF0u7ZfvZItk+bFjV2dGHJ6pXgIChoBKAHklf4LZX4pe+Fy2gW7oAC2wu2cscb8sj/dKxnulje3/+IJ432OA41wAAAAASUVORK5CYII=;" vertex="1" parent="1">
          <mxGeometry x="1458.5" y="231.5" width="288" height="57" as="geometry" />
        </mxCell>
        <mxCell id="JddVZA8G2uNzgZXX8My_-69" value="" style="shape=image;verticalLabelPosition=bottom;labelBackgroundColor=default;verticalAlign=top;aspect=fixed;imageAspect=0;image=data:image/png,iVBORw0KGgoAAAANSUhEUgAAASAAAAA5CAYAAACWLfZnAAAAAXNSR0IArs4c6QAAEDJJREFUeF7tXW+sHUUVP2fvK7S00b6mz7d37+XxGmv8ZCQxfiAQW8IHxagxISkGhLbENFRAUQpREEppUKH+QcHwR6UUCCiGxEii8YOhNSEkRhGDEjE1Puq7e/cF0qpQWuDdPWbu7r47u3d2d/bP7N373txPTd/s/Pmdmd+cc+bMGQT90whoBDQCI0IAR9SublYjoBHQCIAmID0JNAIagZEhoAloZNDrhjUCGgFNQHoOaARWOALNZvMjiDhp2/bvAICqhGNZE9DmzZvPfOONU+cj9l5yHOe1KoHVbWkExgWBjRvPtiYmeo8CwB+JevsXFhZOVtX35UpADcuythHBpYhwwLbt56oCVLejERhHBCzLuoAIfkwEz09MGHvm5+ePVzGOZUdArVbrXNd17wSAV1atWrX/2LFjJ6oAUrehERh3BCzLupQI7gGg5xqNxq4qSGjZENDMzMzk4uLiLURwEZFxi+PM/6Zqe3bcJ6Du/4pHAC3L2ksEewHgh2vXnnXT0aNH31aJynIgIDTN9sWIvbuY1mMYxvWdTmdeJWi6bo3AckWA+YPOOKP3OBF8CBG+bNv2EyrHOtYEND09vRaxcSsi7CKCh6p2oKkUjK5bIzAqBEyztRuR7gaAF4jc7Y7jzKnqy9gSUKvVaruuew8Ano8Id9q2/SNtcqmaJrrelYRAu91u9Xou03w+RoS3OU5nv6rxjyUBtVqtD/d6dD8itBHhJtu2f67JR9UU0fWuRARMs3UrIt0BAH8yDLys0+n8QwUOY0dApmluQTQeAIC1RLjHcTpPqQBG16kRWMkI+OuMxQbNIMJ1tm3fpwKPsSIg0zQvRjS+p8lHxVTQdWoEBghYlrWRCB4HgI8D0K8bjcYVKo7lx4aAOM1nPSJc75tdes5oBDQCihAwTeteRLgWEf6JiFd0Op3ny25qLAgoiNIEgDYR7HMc+7va51P2VND1aQTCCJimdSMisNMwIMLtjtNhJlmpv9oT0NRUe/PEhHsQAC6oKjiqVIR1ZRqBMUWg2WxdDUD3ewQENzmOfaDsodSagNrt9oZer/cQAF4CAL9XHZMQBdc0WzsMg7a4LswBuEcAYC4pJiJr+bKFudzr0/hWK2HTbG1DJHbCzCjogW63u7vsHtSZgNA0rRsQ+2HhbwLQtd1u9+myARgmHWsvIuwAgNnhtugwkXHIcTqP8H+zLOsgUf+byI+Vp50qA7lU41GH+k3T3IpoPBuD7z7HcQ7L9tM0zVnDMNh1gx1EcDuAe0jLR4web4KtOAJqtVrnEdFjRPB+Iji4bt1Zu1XfS2k2m88C4NaBOMif2Pz/9dXR2x3H3sfKRchnDoD8qNHBN0TuJj3JZSkiXE4sE2Sbw9IGkQXfaH1EuDO6oeTr6fL7yrKsrxHBt9jIEOEO27aZMlDqr5YaELtiYRiNBwHgcgA4RuRe6TgOM4GU/NiuiIgHA/LhCYY16O3AuJcnJ1bGMGA20HyI3Av5nThMTHS42+1eqKTzy7hSZnIhEvP/AY9vVOOMyisOEpEmpQkofgI1m837AfBqrwR+tdvtfL/s6VZLArIs69NE8DAAbASAn0xOrr/m5ZdffqfswQf1cbviHJHLTKYhld4jKeNfoj7wiyNKZkH5bteuJdaqMC1aL4/38IbQN5Nv5zVVGYI3zeh3AFouYknNzs6uP336nUOI8BkAeN1XAliGiVJ/tVsUTPtpNBoPE8E2pv0YBl7V6XRYqkglP25SMvJhWkzsxbtm02IEFPENhbUb0SRnHdcTPZv4BpvCsPY4bJbJ4SuQ31y3a2/K1rOVUdqyrA8Swc8A4FwAeBERPmfb9itlj752BMSHgAPAL0+fPrXjxIkT/y174APTynNuRk0oUXvNpjWULzfqfxCVYadneqLLS5A3lUTELcA4FV+xBqtN4zipNJvNSwCQHbasA4AnEeELtm2/JS9FuZK1IyDLsvYRwW19q1PhHRRWP+dLyDmBh4lFpCXJ+ijkRJavFFuAAA3fwd5j4QTSJ0f5Wsz/FW8SR4k7L5GINNNRyWUcZGFZ1gEi2ONtzmpigPprPP80Kf/L8P0T+Jth4OWdTucv5bfUdywv+XRkJqLYgTk4DQv6OHwkP7pdlj9yFmA4hwiHXddlx9jK8r1klV1YLsMnVGIiST/JEn8XPjjI2tcs5cdJFlNTU+bExMST/qHL3wHo8m63+0KW8cqWrRUB8UfviPBUr9e7SlWGfu6EJVX78cy1YQdmnNnGyArA2AKAr47qiJc/QQJg8Uh42AumNLZE4pzmiOCRIKxAduKoKpcmlzzmF+uryDSuyi8nlgW+CkDnINJW7nS1FrKo8hCoVgRUReg3v3A8VRhARgPI6/hUtVCT6uW0NeGpnq9lMN9X4FCPPf0bUf+FchGZX5Laq+gEU2rjKTp+OVkMQkA8k6c6zSw6PvaU1ZtvvsVybe1kp1+IcJVt288UxSHu+1oRUHD7VuWxX14g8+68edsr8l3QV0R4JM7EEpiUlSzIIuMq1/waNp+L9C3u24FPsB8VL4zarpMsWq3WRa5LLARmRvUhUK18QJOTk+9dvXoN87p/VuWxX55JlnfnzdNW0W/C6n6/NmF4gXhMo9t5ZcaddxPIYj7L9CNLmUifkzTSUIzZKLSgSADw60R4jeqEf7XRgFge2sVF9xeIcB4R/Gr16jO2z83N/SeLsFWVHeUEzjomAQHFqvTRBS1jzmTtT1nli2wCo/L/yB5c+D6qUIzZKGRhWdZlRPADFgBc1fWn2hCQZVlnE+HTAPRRlXEHeRbEmPl/hvwdcXelhgko/TQpD35lfJPf/BJGsFdibmbRMkcti3a7/YHFRZdFPp8HQH9FxCtt2/5zGbJLqqOmBKTm6n9eMPOq/nnbK/pdOLob94lO4sS7c30vzeaNYh51/E9YFvGnjaMkoEjaG6fKjKOagFJWexHVvyiRFPme9Tstd1Fw0dNrZ3TxSmnjzBt8yOqtg/mcXRbVRc6zU6+TJ99iWQ+/xNLeIMKD69evv1nl3Ute3rUhoMjlN6VXMNImPP/3IhOY+WMA5KKOuUC1rV6AIB7hNRcvZMDY7seNzBYNIhxOS1FfB3QWX0pUtqLI9LT4nwHWLMcTzbEYKj5OSiyLsLyyzLERpgjhc26xKxeVPMdcSwJiUdmWZd1HBF8EoD8AwLZut/tqFkFmLcsmtmEY24loliUaA+gdjmoNef0/PHHJTHj/pr2fT2gpl1DfVxFZgHyZXPE70QXNjutt22ZxH7X8ZXGshzePfP4f3xzqR4pzieYqkUWFmmiEfPCht98+dePx48f/V+UkqI0G5J0END8PgCwH7WnVAVDiSR12wsak4JByYAY7r8xpRkBygbOYJz1GDt4iGGRXDKf8kDeduJ09cyqLuEnpaXl0jsrMgjFaaGqStzyaEyeLfn4nsSz6oQ39tC11kkUG4mhYlrWHCL7hfYP3rl27Zp/qhH+i/tWKgPgnYVXmAYrP7SOTWiN9wYfvMyU7doNFwmshghSvS6SXVXvhkqmFsgj68UHC3EcyE1mU90hVitP8BCR/fcbzF3kaU5os+JxR0TifpKwHHGalykJGXkEZz+dzai8AXef7fEb6rHmtCMibBK3diHQ3IiyoeosoLsdwVFsR5XrOotHIpOEI2uCPyqN+iyLZACMExCDmrl/kvwMWlwdbBp8sCybBkZyoAcVtMknmMCeLpeyWSbKIatFppmyaLFRqkQzHDRs2vOfMM9ccAKBd7KgdAPZ0u93fZpVHmeVrR0DT09PvM4zGIQD4hKpgKJH5xUDlSSBuAqdNMn5hykSzsgnOfA28D4bfVaPtRfsu00bUL+I5s5cyCua6ABmT96jfVJYczTKTOSZkIJQCN1qPyHeXtiEEZMOTVLIswsnyRyULGQxZnE+v597rvXSKjxsGfL3T6czLfKuyTO0IyNvx2p9EdH/qDbz81zDSJrTgsiYng3gTjDcVZCcjm+B8XmIBwYR2+kEumWJ+l4hZk4mE4k1YX2IKEr1HNZGkjSCGfEKPCYgWFZMFX290nkRlWgdZSJADmmb7YsTeXYi4ht1H63a7TwBAT+Jb5UVqSUDMK8Y9yfPi4qKx87XX5o+WiQY/oYcJwN3up0joOxv9FBZLjtvoJU+PNJa+SZ3oSeOI+jvSTtCKYBJZ1Oy4WRi0GG0jmaD7r2iW/tJEXEAhb7b45M1ebhA8qZT9lnl0M1Ari9CLLJk2hLg5MDMzM/nuu+/eCoBXEMEzRL39CwsLwrzmReZRkW/rSkAQDpCipxuNxq75+fnjRQYbNkWGHJRBUi5hiooYnwf7JjTZZTWfuHFET11UHo8LNAWpEz5PS41/Py3NTM0rw7h828y0EpDO0P9lJRBe5qrGFGBRRBYCPBvNZvMyALwZEV5CxG92Op0X8+Ku8rvaEhAbdNhpVn6QlK9is2dfQiTiazjswbpQ2tIqFh3vc1ChSaSQcKZcNHxAHiLOsXgqpjmqXKwJp3qewe6/2VbG9Zmwlqw2fUeRgFdeptPT05sajca3iei06za+s7Aw/5JKAilad60JiA3O04RO3gCAXyHC2xyn03+rusyfn5iM5Uyelclg6GU8bPikNRy8mLdvaf4f2XqD8aTlfRbHQuVfaMEiUnESJjIDvY1jWA5ljSu8GeSLFJeXxfDrr1lxnJqaWrdq1apPAcBztm3/W3a+jLJc7QnIBwebzeYFRMYmx+k8OkrAVLZdhs8hosonmlSihVpEewkWrGrNLU0G4vCJbBdtVcgi6dkn0cFIEVmkYVSXv48LAdUFL6X9KOpzkInuDptgg5dHg//PSx6R4MvEI/IsIHKR1uxlXPaaR2IC/bIuDxeXRTaNJqvssmBY57KagGoknaL+H5EfIWkXzRthLIIs7S2vPDBHHbMyGkFZYyrq/8kuC9FmkM/sy4P1qL7RBDQq5CPtCmJOUu86CfwiWxG9hxZlNJqkKx9ZYeHz3pTxCGPciVdSkGNZ2g8be/HNQKQBxYcniMzGrKd2WWVWh/KagOogBe8Kyg4+P0+eyRdZgImxJOLFmm/HDZtf+Z3YvCjiggmTcBE/CpnN98P6ULUsfMKLpGTNJ4uaTGfpbmgCkoZKbcGiPoegd/y7WknvfQ3noMlPHOVrP8I0GolJ08o6xmY4lieLJS0ocTPIY2qqnY3V1a4JqDqsE1uKi8zO073oNYsgwRlLjiZ4mLBg5Ha2F2ZlxyNKwRp3ipR2tUa2zaBcUf8P315Em/Jfo8UjKmSRdZx1KK8JqA5S8HIhPetd/0hP9yHTZS7D4o6E8sIne2Tq90yVkKYiHUUtU3/4Um+8dlam5jPQIpei5EsZkzgP0xAKuZLLyWBZ5zKagOosnRL6NrgwCWAYtMV12bUF90hakKJM05zpUPriGb5vxj8v7QUfIlLo3lfSQ4wy4wlrLsk5tbPWFxA2QGMr+zcvC5nwgjztjcM3moDGQUo17eMg66Mah2na5dIBLPGvjtYUOt0tHwFNQHoqFEKA+V/K0KaSOsFlG/Cvv9Acu3vGEveL8ngXGpD+uFIE/g8gUOTf1kkqTAAAAABJRU5ErkJggg==;" vertex="1" parent="1">
          <mxGeometry x="1458.5" y="311.5" width="288" height="57" as="geometry" />
        </mxCell>
        <mxCell id="JddVZA8G2uNzgZXX8My_-70" value="" style="shape=image;verticalLabelPosition=bottom;labelBackgroundColor=default;verticalAlign=top;aspect=fixed;imageAspect=0;image=data:image/png,iVBORw0KGgoAAAANSUhEUgAAAT4AAAA5CAYAAACvSkc8AAAAAXNSR0IArs4c6QAAER1JREFUeF7tXXuMHlUVP2e+hZZdAt2Fut/Mt0orNUH+Uf+QBEVb1PhKTCAaCA+BRYJUUIECGh+UhiAJ5RXkJa+2vogYEqKJBkjsNjGRkOAjUSCmxrX2m5mmmxbF1truzjH3m5mdO/e787jzzUzn2737Tx975z5+597fPffcc85F0D8aAY2ARmCZIYDLbLx6uBoBjYBGADTx6UmgEdAILDsENPEtO5HrAWsENAKa+PQc0AhoBI4LAp1O5zQi+tDo6OhLu3fv/l+dnVjSxDc5OTnWarU+cfTo0Vfn5uacOoHVbWkENALpCKxbt27FoUOH7wGgjmEYN3a73b11YbZUia9lmualAHihYeCWbrf7p7oA1e1oBDQC+RGYnJx8B2LraQA4rdXCjXWt1aVGfGhZ1seJYBMi/PnIkSN3Hjhw4N/5xaBLagQ0AnUjsHr11LqREW8bEbTqIr8lQ3ydTmfK87y7AOAsRPyObdsv1y1A3Z5GQCNQDAHLsi4mggcR4Y2jR1uXz8390y5WU76vlgLxoWmaFwDg3Yjwiud5t7quuz/f8HUpjYBGoAkIMHvf4cOH7yeCrwDgg+Pjp37j9ddfP1pV34aa+CYmJk5ZsWLFZgC8AoAeGBsbu6/u26GqBKPr1QgsNwQ6nc65RPQjIhgjMr7kunt/VRUGQ0t8U1NT71lY8L4PAO9DhG/btr0NAKgqoHS9GgGNQLUInH322ScePPjWIwBwDQC8cOTIf686ePDgv6podSiJr91un4NoPIII4wBwi23bL1QBjq5TI6ARqBcBy7I+RwTPsFYR4Wrbtn9ZRQ+Gjvja7fZnEI37GRhE3s2u6/66CmB0nRoBjUD9CKxevbo9MjLyLABuQITnFhYWrt63b9+hsnsyVMRnWdYFAHAvERzTpFf2VND1aQSagYBlWVuJ4BYAeBOALnMc5/dl92xoiI8jvTFEuNG27Z+VDYauTyOgETj+CLTbnYsQKVjfuNFxuo+X3auhID7Lss4jgicB4HRE+Lpt2z8tGwhdn0ZAI9AMBCzL+jAR/RAA3w2ATzhO97qyLy4bT3yhVzcAnAcAD42Njd6mXVaaMUF1LzQCVSDAubWcWdXtbqOJb2pqamJhYeEJAPw8Iuysw6M7FGS73bnK/zud4f/p7XBddzZN0Owbw6D1ngezecpXMWl0nXIEBNnscl13RmPVTAQE4nsRES63bXuuzN42mfhY3O1mItgMAG7VDo0hqKZp7mQ3SnKQaYaIpnkCbLfbaxBxm+wbRNjued6WLMIsU6C6rjgC7ba1GRHu6MelX5ZZ2LXb7Q2IyOYjEBk7XLe7Pesb/Xt1BOLERzPz8/OX7N+/31WvKfmLxhKfaZofYYRCBGciwqOjo6M3V3nElREYIy4iYCS4hoeQyFvLyEz8xi9PawCQle99Q8QWXba2WKZQdV0+AsImNgtAs7xsAGCWyDs/z8bky9r4uzAP2Ldacyx5wk1Odj5mGMzGB51lddRlefQMo/UDALgMEf6GiF/sdru/Kxnfxer8ndzYGfwHWwxMq1uc0MHvWWRISIC9Mv7u39MO+74xTYstkoD8cFprB1VJL+loG2l6Abn15GlZFttMAzOGvzG5rr0lq3cyzTHcALO+1b9XQyB+qwvPIsI1tm0fVqslvXQjNb5g4Cx05XQieHhiYtWmqgKW4zs5zTiOc74MMsnEZ/Y+RmyzjmOvDb+RkCTzQN9u2/Z0mYLTdSUjwG9kPOnJiA8gWeZ8CxITSEzuWh7lIWBZ1hYiuJ3ViAj32rZ9a3m1+zU1jviCrMnPEMFFALCHyLvCdd1dZQ88rC+a0OkLQNAKF7sjagymaUnihfMtrqrGuNzqDbVt2YZThMBkx9y8hLncsB90vJZljRLBUwBwCauLCC923e5zg9Yrft844mu32+sRDXa+f1eVISsMCE6Ly9y9E4hPpu2FR+ZEcixbiLq+CIE0mcoJLK6xy7X9mCmkVyTvEVnLRg0B0zSZF8VzAHgOAPzFMPCyKrIyN474uHAVppBW4rUdaXu+dpZnEsttPHH7EHOZQCRmC4z9aFuQ2uQfpHSo7clkmkeGcuLrvxkWj9CD9Fl/GyHAJSlgwQrLI1aXD1Cuku19bS8iKcexMzeABON2360ef6nhk2rv1lDf/NWwunmNTrbZiBcbgXx6N/Rp3ZO5OOWZMzUMeak1wVzYWJzuJjYwRPiqbdsPVzHIzAVfRaNJdQrX2JXc5oRth0SW9+JBxTbkOz8zx2dPO8rWOIG4zazPdDHAMbfPjUW80KpxiEu6KeGY+5ph4KXdbvevVQy6UcRnmp3rAOix4Ph5m+vaW6sYdER+7TVZu72vHfb7cGnjdpWSKV43kxX7WpRr8WOutu8Vl4bal+12ZyMi3QMAJyPCfcFtbiXJhRtGfOZjAMgCkrueh1fs29f9jRp01ZSWXWzksQtW0xtdaxEEZMfVPLbXvCaOIn3S30QIsGcmDaO1AwA+XYfvbmOIb3x8/NSVK09iIUAs595rRN4X8mhjdUwePfnrQLm6Nooec1mPtH2vOrnwNfPaHhHc47r2N8vOyMK31xjim5qa6szPez9HhHOJ4BcrV5545ezs7Fv1wJ7eiop9rwn91X2IIzDAMVfb92qYTKZpvhcAfwIAHwCAPwTJR9+osunGEJ9lWe8kwucB6IPswmHVqlVfripaQwVQbd9TQauZZYuGm2kTR/XyjD8rCf8hwhtct8uOvJX+NJL4AOhxx3E2VjrynJXryZ8TqAYXk0TTZDqss+EU1RQbDEXTuobttrUJsZeB6eQ6821q4suYCtq+17S1otYfeVaVfIkJtH1PDWvV0pZlXUwED7I9BoCeb7Va1+7du/eAaj1FyjeJ+FhCgh8DwKcYCMeOHZuem5t7u8igyvxmkMnPtEXm85Xnksb3QfOuZGmTEGFGzOPn12WsR6QNrAwRbE/KKuKTdXI53+XDuJLhFJZjf0+qMywflaVZIpwZhnRbsmiavDfyRTTFKGdfKEfcxWfmEbGUyTqcv7wck8qFPqO8HJPL8nL3M9QEZVmS3Vqd7LnnJM4CgN/OzxvT+/fv3V3m2k2rqzHEx2Rgmp3HAehaAHoVAC5yHOcfVQLBJqlh+ATgeb2ceTHhD3IbGEYJ5FlkvONtMN5e1hci3MIWTTzigGbCnHIpQfg98uTSLy0e7YIxsXjiXhtBjjo+8WrsGMgRf1C2t1zC8n3puKqUV5G6B7DvSfLvpWuKnFkkhms4BwQS5sv05QXkY47FdGhsngq5IDNlI84xYX7kCtssgr/sG5H02Jp3HKfSywyxH00iPuY6cDkAMgfmI1U+Jpxsv/ETjMZ33Hj23nxEFjk8E6Xn4ovI1c/gIuYGDImJb5cnQlmuufD/+EXvJ0Tt7fB3MOdrPpO0LKEq0ziDzNJ92qXYRz4tl8ri4CJcMtP6q9TLl5URX55wsyL2vWCTWBPiEdcYexvWBh57PoUZL98Q34gweSfqnuy2BPkjFzfHcMxCWF5vE0vahIWNvZZNLEhCwl5NY5rei0TedXlOREXln/Rdo4iPubQsLHjsBbWPAsBT4+Orrq/iZjdBk2MpcGIJQ4tMfoFUM43o0aTkszqLmX4jTaM/kWYUC8wWGq8FyvqfFKInlF0kfxmpifipxiPLsl1XlalaFp+bh/hUTRyhRsXPITFum4/2ES/NeLmEbYf9lGcGkqc6k5Tt5Y1MkhE/zjyb+iAExD0ReyYRbBsZMW6py6bXaI3PJw0/bAUR9lWVeTnpHQZ+0iaTY3rSgXigfLYRvZ+sxAwv8Qku2p2ixeF/x4+hf9GnJVrtzyyTFtnA9yNLqxUnnYyMAhtjrmzIKouvSGKCIiYOkaxYHwVZJZkQesMRCFPYwPpkk7ihqqbI5/HJG7eugn9QliUfmCaCu4jgJLa+x8bG7qvyKYmsPjZK42OdFUJXKnlrI2HhCbn15I/UpGk3ebM5R0fpfrISjfEi+fA7ND9RwzHx2oygcaRqn5J2U7PKxIlPLQONPFmrj0qeMLKsSR0/6qoRevKGl76J9W9g8RhfcXOQHUmDjT9zA8s/B3uIJmYVD8iZeyIhe6NWwT5Yz2OIre8iwvUA8CYifMu27ZdV6ym7fOOIzxf+1GcRvaeDpXCD4zjPlzlwWRp5/p2Nfjtb9NhQ0nFANDbnsXsF/biKf/Amawf2bwVbzFZ0Bn+rywgREWf5FPcqWpl4gZKUgp9fnKFMVMgqiViiusp/n6Q/VZh8gcuO4FG/kkkhsslFfRc3EvF4nSTHQA4b+PnD9z9LK8vaOMV1pDJHVNfg5OTkWsMwtgIg89R48oQTTrhzz549B1XrqaJ8I4mP2eA5x8Y/ln3VLbyLEbtRi08cf7fsXzg4DbAwExplVbWlNEGW9UhRgQWwuPNnLS5RY85jM4u03N7FT3ir3AeF6rE5z6KQ22ojGfquQq01siSyYf0qY2TfZG1gefodllEhp7o2sIz+t0zTvJQ9xkUEXQD6nuM4L1UZe6uCJyvbVOIDFspy6NBhlqLma1U4N6Y8HhRgGB0RBBcQHuPwwaHFb8R3d1UFIhwhM5NkJtWvSk4qi0tFA5H1L9R0xWc7exOyooeZkt/XZS49sedDxX+zbmVeUkk0qVKOkE3dwJLmXafTeb/n0d0AeBoiPWDbNnsvY0F1HVRdvrHExwY+MTFxyooVJ231ffvgobGx0dvKNIgmLUDZ4uOOQYtv5vLCKeNGLOt4pDIZVMipwOJazJFWVEPjHXnZET14j3hDGTgm4cQ5F0sfjGdjYZp8//u56ravQWygfP+bvIHx/fSfhB25iYjOR6RHHcd5oYmEF/a50cTHOulrfoc2AeBNRHi763Z7iUrL/AkiLHo7ex6fovBo5PchOvIO2qdhPB6pHgGTScm/TKqS+MK2g2SlzFYavJPMmy1k72uoEV+5G5i5M3QYz9KGj8cGFmJqWdYnEfHtbrf7SpOOtEnzrfHEF3QcTdM8j8hY67pd9gLbkvyJ2/fUFhsPSIEFkNu+l3SrPKhAQg2pqAY5aPvh9/2+d+rH3GZsYABpm1KZ5FwW9nXWMyzEVycmx62tITkeJR5zGSkSGTv42NQ8YMZ9H9VcY9LqV337ZJCEBnw/VMwMWf3nL1yybs9V2k0ry0xArF9JseB5ZNr0Mpr4GiKhMndglQWgoh2mlY0iF9SJi3cfKuvoLEZe5DlCl5VwVuWiKJ344sfuLGxU2k0qG8oi61jdkGVTuBua+ApDV+6Hw3A8SutjSLZZi1OGWnTjmu5smxfx5MiQeCx23DxQzqNCZW5gKnNikA2MlxkXQrmkn0XVxJd3NVVcbjjse5bURSNcdEW0hPgxtxzn5YTIEKUwryIuLGyKqJBV1pRS0eBUbn8zNjDKivbI6vcw/F4TX0OkVJZ9T1XjKLq4wkuIyMeRZtOiPZJg5tMv5Yl2yRJXkZCzso64rG8qZob0Y64Y8pasraq2y5sWZMkRVJNOZMmkib/XxNcAqaiSVVqXVTQO1XbjoXwsPRLOIPoJLYuQlmpCh7yiSsuKItYhc2QvMpaw3mHYwPrTUcH2QI6JWVzyYj8s5TTxNUBSZR73eA2KjwGW29b4vIH53Gf6iaKYXU5cfIOQjTi2vGaDMjU91od4hE8xXMKx8JtMHg0sGku+diVxybXk42vAcut1QRNfQyTBJmIe5+k83VWpS6Us33bR7yLNaNExt/QFF2iyzCUjcFD2tVMAbxdzWjYMWs9lp/YXQkmhcoPiUibGZc+VPPUNSxlNfMMiqSXWz1Ary6PNFBl6WjwwXx8jPPF9kyLt6W+GCwFNfMMlryXVW3acq/qRG1/78x9x8jVAmmGxwZ6Hu8oMN1xSglkGg/k/YzAA/RSB8lYAAAAASUVORK5CYII=;" vertex="1" parent="1">
          <mxGeometry x="1443.5" y="471.5" width="318" height="57" as="geometry" />
        </mxCell>
        <mxCell id="JddVZA8G2uNzgZXX8My_-71" value="" style="shape=image;verticalLabelPosition=bottom;labelBackgroundColor=default;verticalAlign=top;aspect=fixed;imageAspect=0;image=data:image/png,iVBORw0KGgoAAAANSUhEUgAAASAAAAA5CAYAAACWLfZnAAAAAXNSR0IArs4c6QAAD11JREFUeF7tXX2MXFUVP+fNFlraaLfpum/eDOs21viXkcT4B4FICX8oRo0JSTEgtCWmoQKKUoiCUJYGFeoHCoYPlVJsQDEkRhKNfxi2JoTEKGJQIqbGoe772EBaFUoL3XnH3Hnzdu57c9+8j7n3zZvdu3/u3Hc/fufc3z333HPPRdB/GgGNgEZgRAjgiNrVzWoENAIaAdAEpJVAI6ARGBkCmoBGBr1uWCOgEdAEpHVAI7DKEajX6x9GxEnHcX4HAFQmHCuagLZu3Xr2G2+cugCx/ZLnea+VCaxuSyMwLghs3nyuNTHRfhwA/kjU3r+4uHiyrL6vVAKqWZa1nQguR4QDjuM8Vxaguh2NwDgiYFnWhUTwIyJ4fmLC2LuwsHC8jHGsOAJqNBrn+b5/NwC8smbNmv3Hjh07UQaQug2NwLgjYFnW5URwHwA9V6vVdpdBQiuGgGZmZiaXlpZuI4JLiIzbPG/hN2XvZ8ddAXX/Vz0CaFnWPiLYBwA/WL/+nFuOHj36tkpUVgIBoWk2L0Vs38OsHsMwbrRte0ElaLpujcBKRYD5g846q32YCD6ICF9yHOcJlWMdawKanp5ej1i7HRF2E8EjZTvQVApG160RGBUCptnYg0j3AsALRP4Oz/NaqvoytgTUaDSavu/fB4AXIMLdjuP8UG+5VKmJrnc1IdBsNhvtts8sn48S4R2eZ+9XNf6xJKBGo/GhdpseRIQmItziOM7PNfmoUhFd72pEwDQbtyPSXQDwJ8PAK2zb/ocKHMaOgEzTvAjReAgA1hPhXs+zn1IBjK5TI7CaEejOMxYbNIMINziO84AKPMaKgEzTvBTR+K4mHxWqoOvUCPQQsCxrMxEcBoCPAdCva7XaVSqO5ceGgDjLZyMi3Njddmmd0QhoBBQhYJrW/YhwPSL8ExGvsm37edlNjQUBhVGaANAkgjnPc76jfT6yVUHXpxGIImCa1s2IwE7DgAh3eJ7NtmRS/ypPQFNTza0TE/5BALiwrOAoqQjryjQCY4pAvd64FoAeDAgIbvE854DsoVSagJrN5qZ2u/0IAF4GAL9XHZMQB9c0GzsNgy7yfWgB+EcAoDUoJiJvednCXOn1aXzLlbBpNrYjEjthZhT0kOu6e2T3oMoEhKZp3YTYCQt/E4Cud133adkA9JOOtQ8RdgLAbH9bNE9kHPI8+zH+N8uyDhJ1von9sfK0S2Ugl2o8qlC/aZrbEI1nE/Cd8zxvPms/TdOcNQyDXTfYSQR3AviHtHzE6PFbsFVHQI1G43wi+ikRvI8IDm7YcM4e1fdS6vX6swC4rScO6io2/7+OOXqn5zlzrFyMfFoA1I0a7X1D5G/RSp6VIqLlxDJBtjgsLxB58I3XR4S74gtKsZ6uvK8sy/oqEXyTjQwR7nIchxkDUv8qaQGxKxaGUXsYAK4EgGNE/tWe57EtkJI/tioi4sGQfHiCYQ0GKzDu48mJlTEMmA0tHyL/Yn4ljhITzbuue7GSzq/gStmWC5GY/w94fOMWZ1xeSZCILClNQMkKVK/XHwTAa4MS+BXXtb8nW90qSUCWZX2KCB4FgM0A8OPJyY3Xvfzyy+/IHnxYH7cqtoh8tmXqM+kDkjL+JeoDPzniZBaWd12nklirwnTYenm8+xeEzjb5Tt5SzULwphn/DkDLRSyp2dnZjadPv3MIET4NAK93jQCWYULqX+UmBbN+arXao0SwnVk/hoHX2LbNUkUq+eOUkpEPs2ISL97V6xYjoJhvKGrdiJScdVwrej7x9RaFfuuxf1uWDV+B/Fqu62zJ17PVUdqyrA8Qwc8A4DwAeBERPus4ziuyR185AuJDwAHgl6dPn9p54sSJ/8oeeG9rFTg341soUXv1utWXLzfufxCVYadnWtGzS5DfKomIW4BxKr5iC1ZvjZOkUq/XLwNAdtiyAQCeRITPO47zVnYpZitZOQKyLGuOCO7o7DoV3kFh9XO+hIIK3E8sIispq48im8iGL8UmeFpIwfCtFK+B3xLHibsokYgs0yrIpaqysCzrABHsDRZnNTFAnTleXE3kfxm9fwJ/Mwy80rbtv8hvqeNYXvbpZFFEsQOzdxoW9rH/SL46qyzvTM9i8anAPa3OqFz6T6jERJJ+kiX+LnpwkNY3mb/zvsKqyWJqasqcmJh4snvo8ncAutJ13Rdkjj+sq1IExB+9I8JT7Xb7GlUZ+rkTllTrJ9iu9TswkxQnWNWMiwDw1VEf8TJFB6htQ/R3RE/xRjf5BilymlyKbL9Ye6Kt8Sj8csH4qi2LMg+BKkVAZYR+88ofTE6ALDE6RR2fKlaNtDq7VhjbZgmCKYOvq7bqZpGLaPuV0XoVnWBmWnjSsE77vbtwJQS2Vk8W7CmrN998i+Xa2sVOvxDhGsdxnkkbZ9HfK0VA4e1blcd+RYEquvIWbW+Y7+J+KER4jIhmx8ECGmwdiazQotuv/u3zMJgnfRtfuJgsggWgFzlfpcWg0Whc4vvEQmBmVB8CMRwqQ0CTk5PvXrt2HRPOZ1Qe+xVRsqIrb5G2ZHwTOjZ56y6+hayS0mcdc9FFIM/2OWtfspYTy6IXYFklazQWAPw6EV6nOuFfZQiI5aFdWvJ/gQjnE8Gv1q49a0er1fpPVkGrLDdKBZY1rnEnoGEWgar4f0JZ8hHeVSIgy7KuIILvswDgsq4/VYaALMs6lwifBqCPqIw7KDKhx8n/kzS+8SegotsvYQR7Kf6fZFlUzwJqNpvvX1ryWeTz+QD0V0S82nGcPxeZL3m+qSgBqbn6nwcYvmxR079oeyq+G3cCKhrFXMX4n6pZQLG0N16ZGUc1AaXM9mFMfxVEUrTOcSagosGHDKsqbp+rREDs1OvkybdY1sMvsrQ3iPDwxo0bb1V595LX4coQUOzym9IrGHkm8TAKzBQNoM2SmKXmq+Hy1GxDhHnfxyN8DFEQMmDsQKRtADgblPFZLpxMj8aNOQH15QPKcvzO5CyKTE+L/+lhzU6qqEWE82H6lYDURLKIymuQjlWIgPicW+zKRSnPMVeSgNiJnGVZDxDBFwDoDwCw3XXdV/OQRd6y7ITCMIwd7IiaJRoDaM/HJ3RR/w8/4bMofPemfTef0HIuoY6vIhaFzZdJvL0fx2K8CSjqM8nquE3IYJDq/+luuVuM5LnjcomyqIQPKEY++Mjbb5+6+fjx4//LO4+GKV8ZCyhYreqfA0CWg/a06gCo+CoUKHU0pqSoAvMrb5aVOiS58GIrT3pBDE9nJV7OrhhN+ZHtqocqAgqsPHqvysyCCVZoapK3rNdnov6+ICldGKYglgUsE38xWYycgGqWZe0lgq8HY8f7169fN6c64Z+IqCpFQPyTsCrzACXn9smSWiN9wkfvMw3OhhhOEkY0juOw6NN4lkX2r+VVOz6p+O8Gm/3RU6Rh44BEeY9UpTgtTkDZr8+EWytmiabJgs8ZFTugSLWugnZGR0CBz+fUPgC6oevzGemz5pUioK5w9iDSvYiwqOotoqQcw3FrRZTrOY9FkyUNR9gGn9Yj7reQkw1QLgEl5cHOgk9ek70IASUtMoO2w5wslrNbDpJFnEiyLwajIaBNmza96+yz1x0AoN3sqB0A9rqu+9u88pBZvnIEND09/R7DqB0CgI+rCoYSbb+6foVlsz5JgdOUjJ+YWawMpuDM1xBaP93t23LeoXh7RVdP2VuwhLxHHd3Mk6M5izKLt1KDL9OKfHdpC0JINjxJ8ePsl0U0WX4WeY/KAmJxPu22f3/w0ikeNgz4mm3bC1nwV1mmcgQUCKj5CUT/J8HA5b+GkabQXfJhicqEL2Mkpf/kJ3lWZWQKzvueBAQT8XWEt9vz+l1kEtCg9LQiX5oMBRbdb+NJW+THibebZp0xWfAkE9eTuEyLy6JUCwhNs3kpYvseRFxHRHOu6z4BAG0Zchm2jkoSEPOKcU/yvLi0ZOx67bWFo8MONqqkvfSq/QSwnC6h42xkqTX4HMRMSfkj8HiKhTRFz+OrSTtBy4qJAgJKIOh+Z37WPubBJSC66LM6XfJmLzcIswBkXRTCfsQXA3myKIeAZmZmJs+cOXM7AF5FBM8QtfcvLi4K85rLkFGROqpKQBANkKKna7Xa7oWFheNFBin6RuBXCONpQuWNHHEn+DzYNxFlz6vk8b7FT12SVvm8OMgkoMBKTX4/LW2bmrfvPULodyp3f+uTA9tuxWWTl0B4mcscU9FtdA7cavV6/QoAvBURXkLEb9i2/WKO70srWlkCYghEnWbyg6S6JjZ79iVCIl0Lhz1YFwkgLGPS8T4HmU/GyCaggIR6AXmI2ApTfsicrPGZwGV1jLwNFpYLrU8Z12f4bd8wVm3/GNRZQNPT01tqtdq3iOi079e+vbi48FJpbFKgoUoTEBtPYAmdvAkAv0yEd3ie3XmrWuZfNzEZyxw4myWDYZBiodYlrf7gxaJ9S/P/FK2Xs1iWn7IZ1lIbZFXKnKxJY+ZlFpTpyUEc45U//090MZCXQVKVBTQ1NbVhzZo1nwSA5xzH+fcw+lLWt5UnoC4QWK/XLyQytnie/XhZ4JTdjiqfQ1kEFE5YmZZbERmIwyfyvU6rVhbqLKAieI3ym3EhoFFiVFrbqnwOZRBQLPgy8krsMABykdbsZVx2r27g3TdZl4fVykITUKgTmoCGmR2Sv1Xl/ymJgJYvjOZ19ibBKEpnmuaULxK0KGpflf8nkIUmIE1Akslj2OoEMSepd53ytKnCCc23z9Wf6TpCWt9FRMK+GRTkKMv6Ye2oXQw0AWkCSpsBJf+u0ueg2gKKbr/yO3vFFkhwKTT+2yDrSvwoZD7fj8hCkWXRhWPpt4DSE+uXrI6lNae3YKVBPbghmT6H3glR2GZtNv4WVRhqEOtVqo9FNAr51o8wjSqzf+azRKGHfSx60le2LLqZDuZkyKIi6py5G5qAMkOltmDU5zDciph0UTRtBEVOr1RYP90tEIvY5eOzWGAoc273OaHTrtakjTv+u0z/T3FZyLEk84697PKagMpGPKG9nsM1Pd1HWpeZRWIYyY8Sir4PkrIRy7CYmr2xt5WIWCpSfD9h3dFLvcmTcZiMlUk4yrToisvCOJQlJi1NF6r+uyagqkuowv3jTqkyZ2bMOpz+C8EsIRvOA/hHwiBQRIrc+4rf0cvalnhbac6mHfkPU7/+NkBAE5DWhMIIhFuVor6WtIbTLpf2vu9ki8xlvaW1rX8vBwFNQOXgvGJbYf6XPNu2IkBw2Qa6PiFqsbtnLHG/KI93kTb0N6NB4P/EnTHf/iqb8QAAAABJRU5ErkJggg==;" vertex="1" parent="1">
          <mxGeometry x="1458.5" y="151.5" width="288" height="57" as="geometry" />
        </mxCell>
        <mxCell id="JddVZA8G2uNzgZXX8My_-73" value="&lt;span style=&quot;font-size: 36px;&quot;&gt;&lt;b&gt;...&lt;/b&gt;&lt;/span&gt;" style="text;strokeColor=none;align=center;fillColor=none;html=1;verticalAlign=middle;whiteSpace=wrap;rounded=0;" vertex="1" parent="1">
          <mxGeometry x="1459.5" y="380" width="286" height="80" as="geometry" />
        </mxCell>
        <mxCell id="JddVZA8G2uNzgZXX8My_-74" value="" style="rounded=0;whiteSpace=wrap;html=1;fillColor=none;strokeColor=#D95A2B;strokeWidth=7;" vertex="1" parent="1">
          <mxGeometry x="1361" y="140" width="389" height="240" as="geometry" />
        </mxCell>
        <mxCell id="JddVZA8G2uNzgZXX8My_-75" value="" style="shape=flexArrow;endArrow=classic;html=1;rounded=0;fillColor=#b0e3e6;strokeColor=#0e8088;endWidth=31.666666666666668;endSize=8.775;width=18.333333333333336;" edge="1" parent="1">
          <mxGeometry width="50" height="50" relative="1" as="geometry">
            <mxPoint x="1761.5" y="179" as="sourcePoint" />
            <mxPoint x="1908.5" y="179" as="targetPoint" />
          </mxGeometry>
        </mxCell>
        <mxCell id="JddVZA8G2uNzgZXX8My_-76" value="" style="rounded=0;whiteSpace=wrap;html=1;fillColor=#d0cee2;strokeColor=#56517e;" vertex="1" parent="1">
          <mxGeometry x="1920" y="140" width="390" height="80" as="geometry" />
        </mxCell>
        <mxCell id="JddVZA8G2uNzgZXX8My_-77" value="&lt;font style=&quot;font-size: 36px;&quot;&gt;&lt;b&gt;Top-k demostrations&lt;/b&gt;&lt;/font&gt;" style="text;strokeColor=none;align=center;fillColor=none;html=1;verticalAlign=middle;whiteSpace=wrap;rounded=0;" vertex="1" parent="1">
          <mxGeometry x="1920" y="140" width="390" height="80" as="geometry" />
        </mxCell>
        <mxCell id="JddVZA8G2uNzgZXX8My_-78" value="" style="shape=flexArrow;endArrow=classic;html=1;rounded=0;fillColor=#b0e3e6;strokeColor=#0e8088;endWidth=31.666666666666668;endSize=8.775;width=18.333333333333336;" edge="1" parent="1">
          <mxGeometry width="50" height="50" relative="1" as="geometry">
            <mxPoint x="2110" y="230" as="sourcePoint" />
            <mxPoint x="2110" y="352" as="targetPoint" />
          </mxGeometry>
        </mxCell>
        <mxCell id="JddVZA8G2uNzgZXX8My_-79" value="" style="rounded=0;whiteSpace=wrap;html=1;fillColor=#f8cecc;strokeColor=#b85450;" vertex="1" parent="1">
          <mxGeometry x="1920" y="360" width="390" height="80" as="geometry" />
        </mxCell>
        <mxCell id="JddVZA8G2uNzgZXX8My_-81" value="&lt;font style=&quot;font-size: 36px;&quot;&gt;&lt;b&gt;Final score&lt;/b&gt;&lt;/font&gt;" style="text;strokeColor=#b85450;align=center;fillColor=#F8A186;html=1;verticalAlign=middle;whiteSpace=wrap;rounded=0;" vertex="1" parent="1">
          <mxGeometry x="1920" y="360" width="390" height="80" as="geometry" />
        </mxCell>
        <mxCell id="JddVZA8G2uNzgZXX8My_-82" value="" style="shape=flexArrow;endArrow=classic;html=1;rounded=0;fillColor=#d5e8d4;strokeColor=#82b366;endWidth=31.666666666666668;endSize=8.775;width=18.333333333333336;dashed=1;dashPattern=8 8;" edge="1" parent="1">
          <mxGeometry width="50" height="50" relative="1" as="geometry">
            <mxPoint x="1911.5" y="399.52" as="sourcePoint" />
            <mxPoint x="1761.5" y="399.52" as="targetPoint" />
          </mxGeometry>
        </mxCell>
        <mxCell id="JddVZA8G2uNzgZXX8My_-83" value="&lt;font style=&quot;font-size: 36px;&quot;&gt;&lt;b&gt;Optimize&lt;/b&gt;&lt;/font&gt;" style="text;strokeColor=none;align=center;fillColor=none;html=1;verticalAlign=middle;whiteSpace=wrap;rounded=0;" vertex="1" parent="1">
          <mxGeometry x="1698.5" y="311.5" width="286" height="80" as="geometry" />
        </mxCell>
        <mxCell id="JddVZA8G2uNzgZXX8My_-84" value="" style="rounded=1;whiteSpace=wrap;html=1;fillColor=#dae8fc;strokeColor=#6c8ebf;" vertex="1" parent="1">
          <mxGeometry x="111" y="704.89" width="226" height="60" as="geometry" />
        </mxCell>
        <mxCell id="JddVZA8G2uNzgZXX8My_-85" value="&lt;font style=&quot;font-size: 36px;&quot;&gt;&lt;b&gt;DEMO_SRC1&lt;/b&gt;&lt;/font&gt;" style="text;strokeColor=none;align=center;fillColor=none;html=1;verticalAlign=middle;whiteSpace=wrap;rounded=0;" vertex="1" parent="1">
          <mxGeometry x="2730" y="288.5" width="286" height="80" as="geometry" />
        </mxCell>
        <mxCell id="JddVZA8G2uNzgZXX8My_-86" value="" style="shape=image;verticalLabelPosition=bottom;labelBackgroundColor=default;verticalAlign=top;aspect=fixed;imageAspect=0;image=data:image/png,iVBORw0KGgoAAAANSUhEUgAAAZgAAAA8CAYAAABbwawZAAAAAXNSR0IArs4c6QAAEzlJREFUeF7tXU2W27gRBul91urOYnpO4p7F5L2cwuMj5ARtXyBXsH2PvBf5JOlZTEuXsJAHkhBBEFWoAgogJUMrt0URwFeF+uoHP51CPg8Pj/9TSj1Bj2h9+fV8Pr9i72jfNQQaAg2BhsBtInA4HJ66rjc8AH1eT6e3X6Evu0Ywtyn41uuGQEOgIVAagSoE03Xq6+XSffcHcz7/9bX0ANv7GwK1ETCTamrzGr2fz+dj7X609mQQcOSpUjIuh8Ph+WeW/+Hw9z98SXTd5YNS3bNSKj+C0br72MhERtnbW/aFwGh83j0rpX/pOvUJSwUopV+17o7n89vnfY2i9cYiMMqz/2D+7jr9PBlBF6BXI8eu616N0xyza4+Pj1+0Vn80G7jUscPh8WWaL/simIeHh/8GhJ46Q7z6jx7+1rr/ptSPY4q3EuuIYfORvbf7aK0/czwqO0moPTYR69vb20fq8ynPjTjqL/Tf6uPpdPqN/jz+pDFEfd+/GOOR8M5XrdXXWyIa44X3/Wh4t/5cLupVGrsMeb5qffktZCscI6qwevO9YxvSl10SDCGfJ6r7Y2rvYoyx2EKEh4dHLdrJhJdprT5RJ2gi5qhXktDlxU+27JP1cAPRyuDZmghFqe5PpX5MOvPuqe/1e62VSQf4C16McfrIIftc7FJ/H1uwk/re1N+dTm9o/Zf6XmPcu643jgq0GOm169TRkJp5Z9+Pz3nyXDkMvgOE9VfYaaYOHXxOClusIzsmmG7yWrtVnhsY0DDxl99df+v+N7LajW6QY9Ldw0TlhuvjBDCfBW4gXubJkkpKnJCTzG1UyovaIl6X+zUpGsGIae/RDD9ajM2C3O/zo9EIsQwyVeryDXIup7qMWSF1JSfruPl4xSL6PTidjkSKOoe2nV0SDKSWgNEGQ9ew8RhTAICnaTyWT5jCpU4ZLDTntmmVfvS0sLEMIX1W0dlLmxljviCcUkvQJ8NgCG/V5iiDfOPjy3KMmIxjMxQlr5+Y4eCR1H4jGSRFOhliN2JbjnrSw0AaUR9NqnaSow+VqWuBkV8K7m4DburKa9hEoJ9jdZXlu5a6Yfrmp00xhw4h7wxs1TAOk+YP6OAwTyH7kIst1Q7eGsEE0k7phmYavJkUntEsQzKQRz7ldiWJYJC/RHThkLqNDn2CySaxkLLads2kDdVgpInNITQvakknBOSdwVw+ddKWes534DipY4icqLodInduBO7iUmKuxVK2mE6uneOBeE3aNJqWh4iSik8oqm4E480iSLicOgMU0YRys7nvBYxmqC4jFqr6SpxLMC7mBg+Tl+Z4bamG0E6o0cApkxv3V22JYWb6WIJc7NjDhi7dKUrFNPY738Pm6j+UEubooD/HqQYUizSc70TqYEhUhDp0bnqMa9wR8iZvYJfANqZDkUh+X6vI/M7CLJ6fBkLeTRZgDHzY+5EzNt44so2wa3hhgpGrW03G3u4IHvofMtBc44fJBiAXsxpIJDKDHSOZ98f0jvq9a8S4BtC0EaovJL7neioIN0qFZCmZToXkiY11Sd78+Q7VbjjkPcpoXpmbQt5UXVoS/k6XKfuDAVg824jOnub6uBtZQ3YFejE02TaGlTJToZ6vyBipG2UO5ZFTjAimqHYSWFxCk0sKs9LkYscZ1t18+aRMeOg3bgTCNVxQfSFFTq4R5PSjBrlgUSlmsF1suY4LNK6UebckmDrHd91MDSbM4nKTFDE2IlFMiZzwmhDm84BSFNB/n9PngcjDGEnK4LrnxbYXPN+I69kCqVHo3SKRi5e2cYh//oZrbCQJZdm/ea9RCink1l/cvvg6RxkzUhsRc0AhvOz/R+ovQ2o8ZU7C5M3f1O7KiUPeFBlAz9wEwZSqv6wNarkoBghzxSeAbSfFUATwGCbGvCzTjZCuT4uMYVnvGdNHQOpSpL2SkVGA+AGCkU0vphoC1/CkkLdE/cXPJHCMcQ3nLeYwQAbbJYgUbCXqL+tIWs4pjOncjRAMlF6SzWOHJ0q+MGrUX4yg/aI8dZNlzMN3ySpsmPPDbauIy7bWpzlwDA+cDgqfElHKq6sl/9hkj6XHUrGVqr+Y/tk5SO1Lydos7JUvTw7G+jqTX5od2Zq8U3XK/u6WCUbEk3UBLFXngScB3YO1x0xgJw6EooBUBXH77BrekMKneGaeR7go7Dve7GrVXW5kJpnT5mBbK4Ll9Gl0Stz0GN9hk6y/TAQzRc3xFNBWsuSsyJozCvHxUCNfKvnGMhJcXUl5/iYIplRk4QMmGY4uDWh+BEZJfXkEk1U7gnLhAMFk1S38wr4fjblY5pIZ5BHmvjc2+SQ90VhbnO9z8/KS9ZflqkU8Ksb2pJSWpUuE5t9Qey75pkTHkvUXLnlzdAh7dvcEU6v+Mho1kAgyjXX4XDKq0lEjE3eCUt+NpE2ChcmQQclZ8jhjvkwhlKi/QPJN9Qg5k3ArYov1kZuSCnjFwcsGU/SPY5AhYqshS59goLHaPqb2SdLh5ZB3TGc4398AwYRP0y2xAkfSG7NCkFjhQhWSadOMgXK8OO51zDlmPyUVwih1AmERl/QGRXgZK+yBciZS7FloL0MJPY71ZR1d62fqrnIo7eL+f4Y+PHdd90K56gDBM8sZpGJn28f3vxiHdcCWdaq57YNk1GtPSjDXD5Q+AR3I3uxzoyXkdaZ4SDHlgVej8POnM8Hk7X9ZElRaoTA2bv977Phxyb0w8x0a61qU9CqvPXm8Lt410jlc+VOfl66/0NsNz6lUYqO26ziN11WBOdF7rF3JxROxtkp9T3WOSVcmlwAbMPriBf4x7A2vLsrxMnNXuSw3R9EXBeQoDLYXIWxU+MTnHmbp39VdYvc77PGmOw9UjLHoqYSjRO1X7nNwxF8WUzjdWLbdpWd+GA5EzT1MFpKBdP0lV9apv981wdSsv4wEE66V5HiZOcc8+BM4h+g4CoKF/9C5XT5JxNqbD7Ncr1ySrr9gx9DXMPDYSbpc3GK41vxeMoVD7ffWsqT2M/c5yfpLbl9yfr93gqm2AxpblZJqhLB3mnDeCG59wZF+mu5jWd3DktoPjoJQ9tLk7oWBCvtzCiKUAuFHSfZ9UGRaK6WydXqOI3/Os1ukcCBSqyVLDj45z25B3jn9hSOxHZ9FVrP+knpKKiYU4QuciqQF/f579Zfg8uOcvTAugUGEKV1/2TI9NkXGwZVWt2wUId0uOSZ8oUa99FgJQ+y/cwvyLjGuXUcwNesvCMEkG3aMtLjCzN1gSG2PohA5e2FCe17cvknXXzCSz0l9UvHEU6+3axTh2mK5Me1Blhy5pz57L/UXM36KPTHPVS/y76f+kl5YR/Y+/AYrX/9+undlcbd77foLdsR56l4YrLCPp8dUMskjtzSKXMgWMyK4USxnjGP9yv0eSjuWTOOWcAJzcSjx+y3qL+OlZOOHcgkaddx7Jphd1F9SDXvu/hffMJWcuLNxh/e/uAqVuhdmPo0APpIkbETS6y9b1z+2JjiqIeA+V/p081B/tpYlF6PU52vWX6b55t/q+6qUNtcxH3POM9x5BBNe617C0JbwjCT2CDiTONmD5yg5pf4yKs1682ss927fHXuuQP1l0/oHHMWmR8YcmZZ4dov6y5RqDMqyVvq4BJahd9aov0wOsLk7ykYu5urm1cIipZS5CTT5iu/dRjA16y/w/pd0I5C7/4WymstVzjHEffes1I9jaohLVQbuXhhnLChRStdftjZK91oz2KL+gssyL9U4zx07o34YY0v8vHvKmXN+IzXqL5htGbHoP3jXlCdfN021KVVrMDXrL6UOzcvNUVPPH7MKOqcP0tNJs7eNv4O7FyZW2J9TdPJR65YryO41pYNsSC56TEuJfWoYcREZxjyW5eXH0s/me8kFKfN8ZKWqk7IoeyWYivWXvKNcQkqYW3/xcpfRYjQ32on1mZJyoO6FoSqYP2anj0mKPb5veW+HO+4Sp074uO71/DGG4Qw+ukX9pZQjiL2Xg5NU6r50/WWOkKJO5FPXdV+U6oYTC8wnlt4O25Ud7oOpuf+lxCm38PXL9JQbVRE8w5xhjHn3glD2wnCjsPA76Zit0w0YweRfkoYZILi4nx5hcgxeqWe3qr9MkcbqfqBc736dHrPI6V+8NNECUuOETWb3T8kUWen6i6eXr1qrr1AhPyBrtn2hOphVU2S16i8SRBBhbU8peRc6GeWP1VMkohduxDRN9lXB1V9xZ5WLEhGVqL9EvN6sO2xiBvxeo5caNQII2xLOICbH2rWmGtgGMARJIzR/uKtqd0ow6zPBKEYqNukDKYzQqhQ2S6/fW+9KXm/lV3IO3FE80vhje2Eoe15c3KDJlZt62MLQw4YpPRrj6nap57fYo2HHUuIw2pQoVLIe4rZfA9sQhtgc8+cPN7W8O4KpVeDPXeUFKaZE/YVqHLy2SMQQjrho+19ik8HN0c6HWdJW+ADySB5T3CiVMfbwcSa3nRqb8cy7PI+q2yUzA9Q+lK6HEB3eaA2WOh4/U2H+jtVVfAy4jv4OCUZ+JZEvgJIkVirtFptwXM8Cih6oITC2F2ZWKrpRla6/2PHVjia2WmHFMTKpz25ZfxmN4wFY/FPGWShdDwkQzKrGFCMArixtzanrLh8oGynXEQw3zb+zIn/p+ktgg9EgIylBloqMIiSZ5em7faampKC9MOZmxK7rTeqRvLSyRP1lJhio0E8nP+okriV7an+kn6tRI8D6DM1ds0xY+tqD2mOt3R5VN3yCodqHgIO3/Y2WJSMLLGUiRS6mjdz9LwzBX+tH3LAVCc3JExXaC2OOmDBLGzl9KlV/wWQuuXdhC++aqieSz9WoEcT6Cxtinmcda6f2WGu3Fxv/qNPLEztS7OSuUmQlQ+CRvJbruiUjl8nIPFnv3RMg2XBTBO+TGNercNvIWYUGFdC5HmWp+osTxQRTKykTJiQfSG+l3k/RiRrP5FyeJ9U/OIqRjUhrj7V2vYcij3X9hU/iOyOYMvUXiXPBKAIpSZCwN543sZar0GgF+bkvj8DZUDxFLFV/cWUGpV5zzlnCIxcelhT92vKZresvS6dofRae+Z4TNWNYbnFBXe16T0yXfHmnYrsrgpGuv4wGv3txd6NOwCafrYMJpmRBeRL4i38gXV5xf1k05b4rRAxcr71GWhSLLrn99aK/UGRURLdiBqH097X3hMTGA0W92MbB2Dsxh2EksDJOw57I23EenQUH6U7sbghGCmTznr7X77VWi/tUZuVKBwsnl8FYfwmdSJq6bj4+lrTi5rySRJv+up/BOJoUV2yDp/lRIG/MTgXWzD3L6VjwQEADyZ2SC3YiQpkVXDEygFLe4+/00Sw2oejw0mEIZ1DsM6nzOGI3TFrdPdX4+niO8xPDjx7B5dnL6gRjFKPv+xetr3fP27GGjoq23wGnm5qCsvl05rfY763SfT6fz8cc8Ecvxyiifp7apfR/MD6T8iMntQ7joL6PlRKYDDlAuiFE9IATNlF9csDCaBNN9n3/gS93K+PBgxS4nyKcXqEW/UtGqbl6mfr72Vi7b7jqYmReXX8T1O8UQ08dx+gorU7+vdoME80odfmOzXnnHe6dKJOj1b93j4tJrXWOmZnbwHap33nkMtvK4VidOqvIoAlKVSruc8YLuFwu3ySIZQQM9ua4fct8nhwt5PQZ2xfjRQRof6C8NgeD1Dyw3wbi/Q5GsuvU8XLpvpszpkbHxRzJHj6bajyTatAvxhHvnFGXfxa7FC239RJev9unCMlcycbI1PxxuYyO3nhr7ODkXg9znBzA4+l0Gm6cdfUkNZrArmwQwFb0uKNlDTmfXLYkGP8GtVysr783ijAqkhyp+Ao9rUaznh3VwxMb4+htd5/P57+GscY+QP0GM4jXS4iw/QXuip6YIZnqNbGuhr6/4htrg/tyqK5FeY8U2VHaKv2M5/TlEqUzH2SMFGX8c2ZEGduS8gnOKUsyWvffqPNtaS8WEbMgtkp4h//sOKeSaQj06imyFMm33zQESiFg61Fj3S7k0Q4tX6+QNX/kXiNbaiztvWPUMabNhhS2F52sEBpOE771CDRX7q6jKEkupl+NYHKl035/dwiMRmqs6UmlVjGQHh4e/qV197faQN47UU5yNLD6WQbSIpba8tiqPZu+xsjFps+4kXsjmK2k2tptCEwIGIJRqvt3ZUD+czq9/V65zdbczhCYb7fEl2DbWhJ3qXYjmJ0JvHXn50NgIph/1B756fT2z9pttvb2gwCVXEyP7UIQbh20Ecx+5N160hBoCDQEqiBgDT8lIuEs5vE73wimijhbIw2BhkBDYB8I+NsLkF6tVshy9wI1gtmHzFsvGgINgYZAcQTgC/EoTfOXnTeCoeDanmkINAQaAneAAHRqM2VoKUuYG8FQkG3PNAQaAg2BO0AAuWIjOjpKvabVYKIwtgcaAg2BhkBDQAKBFsFIoNje0RBoCDQEGgIrBBrBNKVoCDQEGgINgSIIiBLMeHKxOYXW//w43vJps0WQby9tCDQEGgJ3goA9088fznQ3lzmANP+4fggr7u7PO8G8DaMh0BBoCPwUCBCuBGkE81NoQhtkQ6Ah0BAQRiCXYP4PLzdGaY/T8uYAAAAASUVORK5CYII=;" vertex="1" parent="1">
          <mxGeometry x="361" y="805" width="204" height="30" as="geometry" />
        </mxCell>
        <mxCell id="JddVZA8G2uNzgZXX8My_-87" value="" style="shape=image;verticalLabelPosition=bottom;labelBackgroundColor=default;verticalAlign=top;aspect=fixed;imageAspect=0;image=data:image/png,iVBORw0KGgoAAAANSUhEUgAAAaoAAAA8CAYAAAA3x/4cAAAAAXNSR0IArs4c6QAAFMZJREFUeF7tXU2W3LgNluRLdHc2nk2uYfsknlnnvVyh7SNkk63tk0z7IkllMd19CZfyIIkligJAkAAlVTV7M29cEkl9xD9AsG2Yv/v7h/82TfOeeqTvz7+9vr6euDHqbxWBikBFoCLwthG4u7t737Yd6BPq7/Ty8vwb9WNbFdXbJqD69RWBikBFoDQCmyiqtm2+n8/tz/BjXl//+l76A+v4FYGtEQCmCiMJr6+vT1uv42jzBbicpNGUu7u7jxU/fjcdtjk4ad7dksbu7v72ezhf254/N037sWkavUfV9+0fVSltuaV1rq0QGJm8+9x1zfu+b1aM5K3j1LbN0/ncnF5fn79utb6953H4tO2ADZYGmHA5f8UU1/39/Z8giKoMmXcSFHfTdB/gX9q2/zgJan+rT03Tn9q2PZ3POK7+ww7jl5dnNkK2Ny1h89/dPTy2bfPlcIrKgWoEWpAf64f/7/vuR9P8epJafClrAatgtAL2++v7/o+Ub0vFvO+bL6WF8Yhj/02KovWaQAB3XfcYUU7U8k5933wvjZEUmxLPeQoKhIjkb4WJJ4Sa1Hz2/f1DL5mUeIbImzvh3/7cw/Ce8KAUfhatzbzdP728vHxSYLbLq4dUVII4pSlYY8gybpGkTKpkoJSpyGdTrNM8zMsS/Z5rYhTUYMX2ffvUNO3/wNAZPYh377uu/0AotFPfnz+lGA0mBFB4EF/BeFMNimj8f8CnaSZcIGxz8bSA556fn/8Ar6Ftuz/d+ynWfqoRkwmH8wR/5ITbpHMKFb5He4DriGdAc0CbX30F6xugDnfpuo7y3IEVVTtZ0a0jbrKqcAJz2MQlsJd3/X9mqhPtPIRYJeQWBDAJR3HOZCToQcD4GLG4pwiW1G8WeniXfZ9CIGqBwgngmHfECBxQVuDhivcjFa8tn0f2hv2+EZd3H33vGISmL2RThehoyOTIiUG8e7JCJmOsvXW3XwS9uZ+jXjlCc5e9CPcpxXjdkp5icx1SUVGLJoR/krUKFlzXdZ/7vllYeG7OcsR4mXeV34A5m+YMAlZUwj8nqy9WPPEt+mMBAaHD+haKKzVUEyNIIfM2qUJNMu8s+Iak7eUvhyZoZXf9nlUo/FL2gvOSLYToND4YXCsDS2JUOYW6hXdM0dvkJSXJBHgnwHYy4EJa1ssECS9ZP3NtigqJR+eHn6hYcKrikG4K5SFYCPuHh4dvYdhJwpixtXshTKdEiysqn+FgL6Yk6mKpFt/mDxiGoJyXrvGCiNAUW7UU24+9f9coqdkIwfOOFnwAc2Bh9xRlOq9zGZb0sFfvIa1Q+6fU3PKSjvmcrjXfbEWPV6OoKEssx9pFBBSEGQMBbBcGdPMReSs10Xvj+wev1eOuFca68sjCCg6J3RHlaDBAxdP4X0tBIWBuI/wgNLW0anOE5lYCgZsHUbxZGFFC2kKIUnmrXDqlxxs846wwLmEUQa7JpDiJMoivle5Gb/GgVX+U8Ar/PTUPgzEiFSO2svBGoPET15bEE3xHlhBZCvALcUA11qcpZLoIXeYKAEogejgN68eYzoqhp31ZJPMtPCmBpzbgmSvo9lBaGP1qviHkOSs+wCILgFcuLzOhyiz+omWN3dEea2W9B70x8v/Y56gIAswiFgx4LP9lKxBnoe/PbzuH7/bnh0Td+nymAmsXYzIrARN6hSAE4cwE1k5FIyD3UCKYsrXGrbQwCflPu/5QmFoZPFQRk8Zbo8ZMpcMtlBRnFOcq69K0JRn/ajwqPGymF8azUC4dNx8PNJbwCOdvmGPqFgrQY9DBIMAsNa3Awj24cV+pEIlG6GBYLQ0He0+HKqzgepZJmHfLZ0L+0yqWcG+thKhVfsrHljpqkoJB6XBfSAuYcWTBN1vSHBHdOa5HVSo/td7c9eFBC4EP85TOT4WWlHbdYX4KyrJxZrMxFpbzjZVJpQQ8TU924Zc9PLdSQgQzULSKJdwDCyFaIuTFVynKckr0GDa8g+27tQdcirak416FR8XkkEzj/LiLryemrQh1Kex1QtdXSi7EQX2HhZCZW+jMzF8qP0Ulmy2+A2O8ra1pKfNLnytRUerTkpVXzhQ+ZN/ewB0qlnpUJat9qT0MZaZ0rVKa2Pq5a1ZUZvmpOT+ChecsFJU+P+XOf3EdNAKvRKXEw/zUjBHmderOZniC/LKntNejC82VsLpjTLuVoRJbR+7veP5Wuw9zcZGVEKUKKTQGCK+o4nTPKCkVf8b2cp0DjK81Nuaev1+Foirl6YTAlyD0Meynz0+50CEX0vMtdw1zBmteGASE0Mq2WKew6FBW7yenS+WnqHyDFq8YE1OH1a8hT1Ui7xN47Cr64YworbdGd0eJG7AUDTdN/N0YPcV+DxVVafqOrUf7++EV1Vb5qTHHQ3k+OmtEm5+SMrVPnBrCxPJTnNepsYhnzJfMWyI/RRsMujCphAn3UpCStcWe0dIvEQ4dmv1adZmnw6v5e0srmqHcPeoRWVULxvYHx3cuDtMq65z5rd+5AkVFVuNFCSUVLOYMRvZcFmEfb11suBPmGplf1/WZU1QYRrmKKjwz5e+XdX6KEzoapS6hMS4hX3puyfpizzANlpPal8Xm0fxeIj9FyQOJ4GdChuYpi5iiyuVPzX5Yv3sFigr1copstkWILtwg2ktLrxiSMIgFgVD5KcrrzF0XVkDBhXE0lYx7elN7KkkLeog0B96ku3jsO6zD9tqw3Z70FvKptkIzhv0Wvx9eUeEbXibGu62iiocOgAD8NWkEdQoxeXOuDALcUkzfD28cZA68i4fG+6DPwujCuhJc97auJWvknqGMLeQd7xqK888tO29gYbZcA0qrpI5gmIAXD3nfLfdAS2dCGjzeOaot81OjUsAvYdNYJLnx/ZHY20f/kLAkLm5BLFzhhsVZqlh1onV+iqvc0ig/KdaUoM8VpNJ5rZ7jQpeROSZvSxeKlnwHxmc5IS+LowS32GtPsgclnzm0R0UTjcwbSQGuRB6B6xMG15XD+iCZDP+dL0Hr30/3QYXXFBQJd65DlX7Z8Do8aXGWym86i93vZJ2fopLaWykKTa4jhYZLPpvgVVHLKJbP0uanRu+j+4x16U+9SYE/IJxf2FFyb69h7IMrKrwKr4QVzDFi7nwGzO3RUHp4LYcAufyUGw+3XmUhNK6Agh9fltNDFC/WdHZ4LMfizsHUogVPzryW73DCPGGeIsqKMwSwtfU9GIPub93WbPwl77oNjuc1kZkEjG/y0UMrKsKFLuJZMASWPZ+lojpCfspTJP51IpPQlykqroACBrLw2HxO3VtwWHQ2OIrkMVRWpjcdW96mnepBhXtDKU14LtfgPcr+77mOwyqq4+Sn8ix52FQqPwWX8dGb3n2AMGB4A/ER8lOzolofYJZ4JxJis85P7R1203Y22FM4UHPrFZZtdIBqWN22LXpj9uxRod6UyuvbO8x8RHqxWJNEdsA8LTeZ2xyJsJIu+ij5qVwFoT0/FQjsbK9OinfozXAeXM5ZqqCAguxEYH0lxt6JbU1ng5S92+PZqbIMMqyf23Z9qSa3ply+CsfU5KcYhZutrOhDvjU/paHRAyuqQ+SnshWE5fmpLVqujIpqxpwLU2CKKlaYECug8MKKfUjQmrAnLTjyPeUUhruF/JT0e0fB/+5j1/UfRq+Fyv8MtzZ/f35+ZiILslm156c4ZZXT3qpE5bAMidt+6rCKasv8FH1+Kl+Y0YpKVrHIdYfASNIJiab59QRXZOSQLXd+yh8v9SwV1nSW+gbiosTsXnB7Koq9y+JzaMDyHT5HaxP+szg/RacZ0rygI5yfsty/I411SEW1ZX6qRFk6bLC2CSl2zQYffnV5o3wB4IR6zNpNPUs1h4Z5JW2dn9q7VLiEAXQk4SFZS4kiJX9eq/NTFobxEQwTC4NVsq9bP3NURYWWFFvFtZfegf4KjnXcHO+skBLCk27MOreUZgW6tad4cCmVefN3xBWodReSSFPRbC9NwqR7zi1Z35bPlLr/S5OfWvOsvlXbETqQzEZhfjRoS9qQziWVh5sWU1BWWInyTqbDcbYgoxlITjzzGHEBL21ayxGFj7nkvIfkLJW0gMKtCx9TjhliMDBnqGTl9FJGCp/bu4gjd92j4fPwCJWn3N1nKeNbe8pubm1+yv8GpiG1WA5oWy+lYIo968sdCQ9r59vy/UMqKgs3XAKiRbsUnGDI60KSurCDoI/lm1I8IaGiEhWQSO6lip2ZWnq2uBeq8aL38mr4kKMsRymh31LPzC208rxzicEQCy9Lvs0iPzUbSfidcSnGMdeJJqcwQ4KB/8wsN+PGberYez9/UEWF3SKbb1lTIGvzSInjFjnwJ63UixHa7M3IiBxvczQLNmkBhVtXCat7L4VRorlxbP+sfi9hlWMGg5GiMqsQtbgvbE9Ftcxp2xgYVjRlMc7hFBVdSGFriTJVeWJXH/emqPxUI/JUUjbVx0rD+DleGXeWKgj5ibxI6/xUzFLWeGq8ZwrNhLs/18/IDICU/S/xrL+vKd4Ej8n6TjntmUsmPyWit6U3j9951zTpPFsqHxfb6xL7Fptzy98PqKjKn58qWVVYKpyIEYVPnBrGD/JTIkbnzlK58VKUp3V+KuKpNZqzWRyDlvLStxIK/vqtFBVGK9qxLfNTdBFEunGhPZaSs88ab8qdIxtzkniXe/cMrA0OdkPHD+5y1vlsWvxZ6fceTlGVzk9NSgos3kV38hShyluPNvmp2AYGClHlrUmJIG6Fjo08p7NQ4jWV9KIpw8Fqv31MrjnkN3ugc9hdq0y8MRe9IS2wt8xPWbbZ2pLeAN+Ad8Q8N757kVVw7tLJw0VXjgAb/zkYYjEflxOGZ6F1XO79WFIZtUnVX0lPhwsFWTBOLNRkxfQY82u9g9T81MQgSIirH64ugY4EKWsqkZ8SKJAkpo4bDnj4KAWH2Bylfw89C4vwKCa8LCrSMA88l4+t+/OVNrYp2k7ZL7cvDjOfB+HfoOKzbdtvcOVQ3zff3XU8IKO7rnvs++b30cMaO4z4x1D6vv8KCsmd6Wrb/tu05uzWVEdTVMT5KX0hxagEB+A/+hudS9yY0NgqmRoygkYJ5uSnEEsuhCNJCZTKT7lF0fkMm6TzluHeksoq9CwslGy4txZjWu8nVUjByYZRCOM36G5FD8vbv9Ny+O5dJzsCTJ3nhPJxGM2Bu/VAcVHpB98QSFGmywjO7P1xFZQbeVRl8lMW55okAmILArVm/Jz8FBYm8vFJJcZS+alZUeFGSk6yPKSDLZsnS2hQ8wziWSQZHGtsVvysGs+Nb5ufIouf2DxmrBE35VVpwl+E4M7KtwLP+YoYkZHkXmEGOZcjXyrUPKfjUB6VtcuMXefuuaDZ8VJKGJRMpE6E9Bjm1jRhlFDIpo6Fn6VKI8SS+aklY+PVeBqPmjCAVLF4jaLRvmtpMBAhP1GhTuw78FBdeuFDLDJAeX+SEn4qFz7lagCHrH6csOZlEVUav43fPIapfYNy7U3THtp6b3nslx5V+nrHNR/Eo6K8nlRBAuOM3ZsbCPGF17kPN3e+vLx8ijFD6u/T5kEsdjVnqgLwQ1b8t6SXzzrmhC7XXuzYTZkkZBHDItliZgoQVMcE8NCsTbusuaqp+bKcpwxtpdJizvP8vVlpwgUz2FK97FRjUMPXqT0ZZ8HL7zeXCvDzPtL9CtMXuZW+Tin5KQNfmcRkLpLLZHnVN4By17y5opqTccM1AL5QR5TKZQsJ66M/eWNw77urpYckn5QwqOfGjU5aPww1fQOsmfoT4zEMII33ewlQQnlj6xkLI6CKj7L+0qwwZ0AscIvsGWA249X33Y/X17++a/aP8nolli6toOR7oVl7yXfDvQRh5RLm07wnEK5Nc/5B0QOVB84RTnM0BGa/8IWAXgaqvfCYxCilaAIT2KmhcsazGmSCRGGFBQz6Crp1x5sUZeLTirVSExgorDFslqNiBEURPpwqWIC51ArKeSPYVRRFFs8PKvZeOGs5tm7OEl6OG3P/8RY1sfn936WKOTYmJVBHY6I/jedEzj8m4+J901xuXR4qnbw/kaCJrecIv2PhGU6pQwId1n0+jwZY24be5fBVSR66jwN3pXsKXpJCI4YeLsZgaKSkKF9E0YSf4DBcYDrd9B3QnL3XnuEhXY4bxBRVuI+S/cD2dwePagi/APgx6yiFHi/PAnAjAw2Wn4ly8hfiEbVbf5HviHz8qe/br1LvgshvcTHyy5kKrsLGC3dCe6jfuDV7gjA1Nn/BNzeEihM+VG3BzbRZtHgzCsphQx1R4IQ4s99qfCYBt6jQFQqEC73EhCjB19E5U5RUMAccln3kLpSkv3E8o6jJbVFjpyqTFO8rJaTI7e/mikpIbPWxisAmCLizHpFbaQdPq+/bwfBxZ0o2WeAGk8zJcdpa93K/oVfpr1CtoDb4XHaKiPdj8n2Ad9d1n2O3ILvQIBdutcArRZlkeF+Xfoy5Ch6+sSoqi52uY9wUAu6MzKiU7L3yECxgwj0A9BUuCE/pt/r4uHVL393jO3PnnL4TXodbDMyjM6MAHs5jDXN46zyV8JwoHFI8pLBTBR9xWR6Czw37VUWVS8H1vYqAIQL39w//aprmn4ZDRodq2+bfz8/P/4g+WB+4aQQyPCRxfsqvpgzDsDBv0/wChSwyAKpHddNkWD/uGhCYFNXft1xr2zb/qYpqS8SPOVfh/BQZ9gsPHMfQqYoqhlD9vSJQEagI3CgCpfJToafmh/2wA8cxeKuiiiFUf68IVAQqAjeKgCI/xV4Ey521mpRjtFLYh7wqqhslwPpZFYGKQEWAQ6Bkfirsxg4d1mEt7t9TO5VURVVpuSJQEagIvEEEuPAcBkeK97VsHzWeAZvOLX7JKVOviuoNEmj95IpARaAisGyuy/dzDPoWirri4D0f0/pGul2qiqrSa0WgIlAReIMIuMPu0jJx7/kn6Tmv+R04k5jfp7MqqjdIoPWTKwIVgYrANSFQFdU17VZda0WgIlAReIMImCqqsVN5+3ON4y+xq/gG96B+ckWgIlARqAhcWkq9WzUGnu7lgz6T+ms+KKQtu17X3awIVAQqAhWB20SAuWzSfXBVVLe59fWrKgIVgYrAdSCgVVT/B2Dy5ngDV7NmAAAAAElFTkSuQmCC;" vertex="1" parent="1">
          <mxGeometry x="595.53" y="719.78" width="212.93" height="30" as="geometry" />
        </mxCell>
        <mxCell id="JddVZA8G2uNzgZXX8My_-88" value="" style="shape=image;verticalLabelPosition=bottom;labelBackgroundColor=default;verticalAlign=top;aspect=fixed;imageAspect=0;image=data:image/png,iVBORw0KGgoAAAANSUhEUgAAAZsAAAA8CAYAAACw9hcaAAAAAXNSR0IArs4c6QAAFHxJREFUeF7tHUuW3DZOktezr/Ys0jmJO8s5hce3mJ3jkzg+Sdonmcoi3X2A2bo0D5JYoiiABAhQUpXZm7y4KH7w/xFsm8jfw8P7/zZN80gN6fvLr29vb+fYHPW3CoEKgQqBCoHbh8DpdHps2w50AvV3fn19+ZX6sa3K5vaJoJ6gQqBCoEKgNAQ2UTZt2/xxubTfw8O8vf39R+kD1vkrBLaGADDVtObVq397e3veeh9HXG+CjYPLmRPZcPDkjD3imbfakwZO8O0W8D2d/vnvEB5te/nYNO1T0zR6z6bv209VsWxFcnWdrSEwMnn3sW0bYCQqbDyEi/u++aNpLt+2YOyt4UCtdzq9/9y2/dMkUMJh57ZtnsEYxWTE6XR6atvuTzBYX15ePh3lTHvuY6S3d09N0/8ywRVozqe7gdZicPX3vzeMR/pofj+csnl4ePiTINoc/Af5on4SCN23pvnxXEIggGYfNfl+f33fPr+9vXzh7uD9+/df+34QpKy/LQSDYxDWhoZB/fPr6+tv/PHxkZ6CASaR/k0C9vKlBI1JN1Nq/Ejr/VfB/Oe+v/zmYOKHXfq++V1Cs54AEyy/GIrmkp0Ab5of4JVt6q0qaA7g+gnbr89HezkFh1Q2jJhfLmGh343hP1uBYKwss84rZdyHh/e9dKHX15doPk86Xzg+Y09RF527nwjDe54LzHaBsPEZLNCu6z/0ff+IGEln8HQkQpS7zz3HjXzafg3Oe26a/gyGzgibd4+eZQ4hFPc3KBz4H38OqSBMFScZwWcT/AE8u677HDH4PE8GaK5puq55DGkO+N73qkODba+CrQMrGyDigRRXcXGCgAYiX/52/db/50jVnMyqihHyRkwQ5SW5sgFv0v3x4F6ScJlW64Rz563KvDkMgJSlzoUntW/u90YCsug0GIxS50MU+MSzQxx/+JMaL6M3Dgr+KitI/p6WWNBLIGPgf2PfF1E6hNL2lDKEZNu/YikKZI7B6MIiA1IYWxHSIZUNdTjCW1i45CnAAPCbpvtAxd1DqyA1H/f3mNUiXdNPvnZd97HvG2DWFZNMoQpVCCAVWrNYAxf41/JJEA6IAOif+76HkIFpST1+Xvlak3cOynux95RA5tLTnuMQRUOGb8J9xkNE+hBois9S3uXMW4OMQEOnljiMhInBO/wizYEvDZ3+OfSytwh9U7R5Y8oGC/PkE+h0+FWyVyr8uYxPW7xD/FqlFLC5LRSBp+CH/EPo4kvDHlxYuXWBObCwgsXZ/L1Q1qVGsFDhYOu9c2FqMQ4RjuKwJQUXK0FIGUhSLzyiuLIUwVrxXhPmi5/0NLcKbV7nL8WvHNq6GWVDM64u9DUxD4TsilugVP7Byq0NQ3cW88577p/btoUwwqKAQMMYHAsIrDss+WxxNrc+ZV1aKAXCwBALaA4zlx6D8WAujPAwnE01Kx7CzjNKKQ81VVEVw0UkbMb2EBPzD5V92BipwrWkqRtSNpQVYOEV4NU0loiJFD2YCZ5QaGoFclglBHHjUPBbWaOe4L/ePgb4T6XGYTjDEmbobedcIYqFjSbGL27MWAoGbK4wjK0xNAjFZdJpBDPqNHRqGZEoobw4uHJjtDJBQ2O3rmzMhA5mDWmYaQuXGRFsvkWjho3PZGPl0LvHtZeRZzGmvBoH+5J4ofMqNhb2rEBRY0aNHw3jS7/FvD+tMRYqBQtBSBd35OOULlSR0f4WBmeM5jQKV0ov2PibUTZ4CEqG7BzXU8tQM/LLeWb+ufywl/a+ic9kIAiIcJOZ0PSY0VXSFPM6SuRoaAWK94qy8p4sBEFqDiQPosa77ylZCUKrfI0Pj0hVpAgGkQIn9G5MCifpUN2yP9me+RrY600om1L5mhBZJa1oqhTawprDlI0F83oK/spUmNK3UsgORk4IU7kUC5jhjG9nvCyFFdWYsMx6GiFFfRvi3Ya+5ovbVoLQMl/jYBGryOTSomUojoPfkmFKzvo369nQrrE+XxMIaqR7tV4gbOk+O6GgDQGG+RpXMoorZH1X75kZZ3iXSq5vzfhAY4SxIbKMc5lc+13OnRrOmr4QNzRYVheTtYqRvjPHkw2U0aTdVwrGJQqGUmvGva2DtqvhuLFcq4ILIMqC0a6jvSQ4uqCnJ7hTc7kM/bbIMulZ2eTHqAOXt/HDPYSyUZVuLxXbrLgw78NSifp0UZ7x8fZLVkKWS+M540opGx+/Wh4baZYq9NHxAlVFyqGZLQ3NdaRmpjnOXnNoQ/LNTYTRqFhn7E0ECRDc2IgHpaqSsbCk5xATXeodCG2lAphzTL4gwBSyNgTi8OsrklJ3VKg2QqXzJ5FcggpPOXQu/YbYu9orczRtJQgjfJbNv7G+bxya2YveRm/aPkwppR3CaThm1+et8jWhNe8DSWt9UgTHtea4SsQfx52bIh7Pg1kQBq5s8u86eSGGxTol8jWU4LASdjFG3FPoaAQEfFtKUYJyGPd2+a691BwKV//MGl6gexymQ2i0okp/q8XZWtnoQ93aPR3esyl54S4EHm0Z5bvhFm50WBUWQzoIhsulOafacsTmoPI1VKhCI6zDooDZy0Sr91TWNBUO4VioWkaj4v5ar1C7L873sWqsnJYqnDVzxtjfrxmfPcD2wqEZ2sDIlycSuPg0p1G4kjXjcuXgORuK0EsAj7bg8omDVpZ8bwCrCrMiAGyeZTvyZREGbq3lWWpYUYDbj3W+Zk+vZrQy8afTb1zZTOiC3nHdN2kfL0saLpGv0XijsfBbCdmFwdI6TKnF1+E9m63yNTE3nGPFUIjQekvLih2+gtIQRsyTsrprE96p8fdbIl+zt7CPeFXZ+QQNjiXfRrxzbBr3hk+0kEWyPmesdb5Vo2hiskQTBeDAIeQjaMNlEaKUro0bsQf2bLbM10zWJ/qei0bZaPI1oael2YeEWPzmm1gRhsVdG6wowO3ROl8Te4BNm4/jwDW2/lZWLmefsTGZ7zNd37bRhHU5e7eqJE30Lbs++BYPF+nCb5zz3uKYQ3s22+ZrqIt38MRvXnItZhGChQMEA/kV+C88ggT/nR5CCp9/HWhrC8EUy9c4AtfetfGsUDQHY32/xuJSnoa5jxBS0ewfvhV6N6jHU/IBOU2+Bs4GPfjGh8hWL9WK37DZm960uC71/cGVDd7ipYTQLSEQ5E8aR9GsSo5zCSiWr0koG1YJL6eyzjpfQ4XQtgpp0MInL9fFxaX1uIznn1db0N6TwsMzlCcxdirHvvEeXPNfD/WHipWMxx9ohGQrerPGu9V8h1Y2W+ZrrPof+YiJzCnGXwkmxRkXv1/jj8WVAa+IwsEkdh48TJeXr4rfk+DtWYys4IO9lZ12/0uaHiIAq0fhJGtY07KFEpz3D8UOutde6fzcNvQmwcWWYw+ubNaPpVkTasxah98068WSjDSSuw/wW/iSqGYfEoJK5WtgLsxS51htsaIAt0cqXJPrzSYu5W2SnKeFT54CleCzxNgx7PTuqW0vH8OXIJnrmbzb4taiPEcXqqY9m+Hp8/AV2GyPBtY5Ar0xcUAOG/E7/lm+hHtYZVOiIomCbiwenZuU196vCYk2V9hKCI+Tr6EYiqNsYkUBs7KxvV9TwmOVwRRvoTIaMnm5QMn6pcc6xdN1/QfsRVVqfQ69cPeOeY7c+a2LkEqE47lw0I6beCV8udisyOPAymbLfA2+FiAvV8gb3a9xjUG3ytf4D5eROZicuzaxOzU+k1jna/bOl1DeLVcYagXIlt/PFnH3sW37p5TXk8tb/ploPuOHrGiFw5+D42W9vLx82hIf3LWQ14ohzxV6fDAdeKSsijxs7cMqmy3zNXS4Kz/MYdQPbUg0ckJozsJsmh/n3Lp6bqcC6V0bqtEmRpCW+RqYf29hv2fXAq6wKTVuwjuZ38mNGiyVjc0ru1YVkLGQ3hGVzbIgaCnvXJVe2zb+S7nZIdADK5tt8jWJEFp2TF9zv2YMVc2l2Dxlw7swFRMsnHyN+15y18YxYOockdCpAg/4zf0tPIu9e2OVUiKSeWMKx0LZGN6vQVvTSPdIXx7ON1wl8HZhbvgvp6PDHNqmn2tBFHFWpOWQymbbfA0VQtOVpRIWLRtJvsWRCjdIFRNFvJK3cLh3bahGmwk32/+ZDTOupzR6i/IQiZTp9+5aIN1vqfEWoa4Iza7eoMoxJKxyN3vj3DdwUjnBeWxc1mEXXfNgzDOI27hFPFqPVgy8ZT80mjjyk7cWhJu6+LgMJaTLlVOCRKqwuO/aUI02ccWwfvMlh6j9ufcqQ73tRPHpqWmgKrL9i2MdS2jLH6uVF5a5ljHkqo+m7N98c+QhDt8EXuE51lQVoWexEXhIz2arfA1FrBxExRiMztfIXGmwCCEpFys/lCoJat/cfM0cRlsrhlB4cIsC4qE5GczC8+2VMzlCOCWlBKjfnRDS8sFS6WP0km/QuXBR2/Zfw3OkLHrcq6ZyPzL621PZLPMvac8doVFSgWCyUhpiPKiy0VsYHEYrpdS0+RrO3t0YX0nkMBmiPFgWS+qujU+cqTDgKDjwdkFSgl4rG+qFTJkQkeGEKnfWhWYle9CMlYRTuetgypdDF7H5rfI1I/3h4XSp92VlaHLh6o/z4cGBLSanYt+FhpsCNsd4PM0iBMVBlEW1GLWONl/D2T/iDbCURGrPqST+rOTWAtW3hDl3avy9WFUDheej8GxptSPe1CqPAB6q9cuyEjrhjl3G/NPWMXfekCcs4K+5XxPu2+p5EYsrD1yYInQ3VK9yYRvyRuq7EN53oGzK368pqdBKzh0TpFwlgYcQZJVvoyWIWe+j5c51l/294N6g3hOg+9Pp58ZgqW1NnytorL4roWzwEIxekeE5lrx5rcKtdHVrGXqbjc7Zg+d4NSMPz50gOC161p6NLAzKlQubFQiUCm2lBFtKq3OZeSs3OiBqldUszddMhIqVig6Xvtq2A8sebsizmnPCWIvkbEqRBr+rYEasRZTPlgvZcemSO67E+0mYYcIViNS+Ld+vsX6CImJwZJfwx/C3DKXnKdsUfWBKVIrDAyqbsvmaUhY0ZmH4CJQiJoV8/xwar2YU9FerSCSAqbbu0LZEsqdS+RoHQzpEwleGKXzsZdGm9iX93Q+VSHAYWyfkOYt5bfM1ti2FSpZ6r6Mbfsfrct5TqNxzjPNDKZuSISisVnxEnC2CtsjXII+qqSwmt2cpAVEVV9L8RKl8jWPM0oqAvrhoS1tSxSEdjwhJkfGBe3srQa6ec/KETe7XwFy578+MYSi8WSUVodG0e0EUzbW9lJTnpLSxztfIDbWDKRuqIkQWG1wjxaasMYWgUqXU/roIEauYN9auInVeq/Le0t5mTKBIQn24MIV8V/s17AMmVdwpWG/xOxaa0sDHolyWgLlpuDJH2aTuwVHejRVdBMZzdgsZDl2FdJHrmR5K2Vjna0aEt5+xhoAaJqIQVDJfMyJ83dI9F/FwhlAYSKtLCCYVK79S+RofTyW8D+tLhRzGLznGCp9uj2t+tvH0Ivkado4wYcBdf6bC387QiikPep+6HF6Yr+37y6fcfogcelryZz4OD6NsrPpIwTxTu3O4EIl0LoXHkXpADvqCHwf4tIWLPyqVq9jgLE3T/xLpoCsW7HNoCfX2BgspdZHUzYEJJ+ldn5Il6Imwg/+zuJstFforzfi59Mn5LhYWlYR/8JB1vpBaGw1rTxLG5OZFYwUC2JxBS5iogqPoG8L3OXIomE9Mtxw6oBWxDoebKxsgxK7rPo/Psg6PF7k/rKW1+41QDP307+gjSAFcB+R+sbAARqANLdS5+4e9THt1e8bQLpqP1Q06UAyEAsb20j/Dv8ZgJnGv8/E+w4tTnpliJjp/w2ufjrRjv9KoRCCn9rnH76EFO9G3o/Fz2zbPl8vlG8VDUw7DveTpHSFPSI3GDMgJ+LvyRkxOrPis77tvqZY7EZpYvTm0HMs7F61wGgdTkEuk8TvCFZ5taK5vzViF42J0ttw376zM+ba51BkBfBH+AqTEGES6aIwwpXNpx3O9CM2eY2G6wCKMEpAF3q0YzGNev3X6VVCNQrX9Ds81jDh69zh6mItW6xP68ixULe6tv18aDu6+FPkE9CAkYQ+Xy2hEUd63JsxL3X2RnJ27fqSX3dXbH895jV6IogqMp6uHR8ratj07mHYd9JscjHIwEn2jpmjYDBZa8rZe0YxzbtyIc1owfA1OQj/Rse4pWEsF4y/ohQichZWytMzO5k/EZaIRyUPI7HMQVoyFEa9nSoUmuI02PbxL4XHdizSnlFqIrlBMfTm+MdQ0g5VvGo5Nr1xmhBcSXQjRiGJObESnhP1u4Rkn9miGX1wkMIhEisbtPx+Wwwyq56olMPQVjZWBt4uykRy6jq0QKA0Bd4t6zPOtrMirNQlWJ4Txxn+4HyXjDpgyGmZBGX2BcxCItwyfxDlNzrekuSE0Rv259b5bhP85vORHQSwVTVU2HOjXMT8dBFzuAQ6+BZOfTqcPTdP5oZJNYP729vLFt7q5Xpq7XzJ6yhBiHMKN0e7kmxyowCIeLRQ5nwdL2P01P8bFhfWROT0Nnecjia5UZWONqTpfhUAGBEDZtG03eU0ZE+R98r/X15d/5H1av7pHCMyKJt7yxuWfpGHtzXM294ikeqYKAQ0EJmXzH80cOd++vr78K+e7+s39QYCraODk8zPv/HxY9Wzuj2bqiSoEKgQqBEQQmJVHuomnn9NJFQ+Fm6iejQgtdXCFQIVAhcD9QCAoyWZVqLrTV2VzP3RQT1IhUCFQIVAMArHOCelF5XdvqmeThmodUSFQIVAhcHcQiLQnSp41pyy6KpskWOuACoEKgQqB+4OApkODtBINoFeVzf3RUD1RhUCFQIXA4SBQlc3hUFI3VCFQIVAhcH8QqMrm/nBaT1QhUCFQIXA4CJgqm7HDMnTLDf9+PO/VfuFwEK8bqhCoEKgQuGMIuN5v4RGnd8agF5z+iQEKftxW+HcM/3q0CoEKgQqBnwICjCdNqrL5KSihHrJCoEKgQqAgBLTK5v+kYR14lBIKowAAAABJRU5ErkJggg==;" vertex="1" parent="1">
          <mxGeometry x="361" y="720" width="203.99" height="29.78" as="geometry" />
        </mxCell>
        <mxCell id="JddVZA8G2uNzgZXX8My_-90" value="" style="shape=image;verticalLabelPosition=bottom;labelBackgroundColor=default;verticalAlign=top;aspect=fixed;imageAspect=0;image=data:image/png,iVBORw0KGgoAAAANSUhEUgAAAaoAAAA8CAYAAAA3x/4cAAAAAXNSR0IArs4c6QAAE8RJREFUeF7tXU1uHTcSZrcuISmLKOeYhRVg7uEYc40BHJ9jFo5PYgXIPeYNBiNpkRs4eRxUd/M1m80qssgi2U+hdvZj86dYrK/+WBwU8Xd3d/9vpdQD1kTr8w+vr68nqo/+W6dAp0CnQKfAX5sCt7e3j8MwfsWpoJ9eXl5+xH4fOlD9tRmor75ToFOgU6A0BaoA1TCoX87n4Vd3Ma+v//ul9AJ7/50CLShwe3trPAkXj8Lr6+tTi7n0MWUosOzpQ+o+grBN/VZmBdfby0z7m0d3BcNwfq/U8KiUgEWltfr59fX50/WSqc+8U4CmAAghpcZ3w6B+ItzdJ6X0SevhSanzl+72Pi5XzYJxfA8zHAb9OAvDzd+0l8MwnM7naS9JJeTu7u4r9NHDHbJ7fnt7/3EY1M+HA6r7+/vPWk/CQOLPEx8rK0jgAAzD8Fli8jl9aK0/xArKec6TfxiNN7pz0Xr4UNpiXpk0jhJg2T8/P3+Iax1uBXQZx/FjIj+ehkE9nc/nT7H7EJ5R+RZA83GM54OSM4oBCO74C09Ryoa3S0oZNyAFH768PKPhElB2xnEGxyP8SZ6VUus5LFDd3d3rUove96uftNYgSMRcNlzhWmqt1IFxx7y9/e6nYdAscJUGhf2cJvCEZB3O3+nl5fkHzge+tkbbnjW5zd+k+GitFpf2GdzdJ3BZjKN+p7V+8Gnm0P4aPA4pfJBLa+p7KU8NsZ/28ItiAfuplAFrR0k5uXtpg1ToTISSz0rS0tf3NVh/BwYqMKHhb7C1+5CmP5np283YfA8/EX1MgBVtgVAMdZTDzgMqyLgZPjp0D9Cc9hnnHjpbABB9LXse76IJzQtTNGKEJiUQY74Pza3078cTpPlWe0BxBDftJ8oz4NtTs5cuj1JehqPIBZuHODKiNO9h/R8WqHwTxtyBHPeTCdYNgwaB7BPCJ63PP0q7aUyAFkm9ZI9p+pvjJV7fOpBQxLIIWLciY/gtGuOX9rNvSHNNOVSry9aNVfCVGMyVemSwIrKuJitipulkQXr/sNRiWPPyne+aCgTQH9aA+bbrHI0f38/JIoY5sWKIzp6atWzkyCI/vN4ZIqSx0Hf4j1J/eq/ygLsQcT9PQKvUn74xp7kt30L8zZF5ZRXNlDNIy4IrSKZAtOtkQbkcSnB1uYDFBo6YDVmY3OPGymcW/1pE+r243uBge9xgKkeQ4BrU6vLDxpXWBBEhDbwAVnaSWxjbc0qYxfBSqTYeQRq0Nuy5+JQajkLh24NU/sLPmyqyp4YOFF+61uqcKR0Xv8xV1H1WIWdvSvFcTL9XZVH5Nfs8YUwkEIiDVY47ibeZc2sJJrRdFQtg7ALQqYKEWpM5lLPWO61lFyeSiEOZOWCWhASgIPuerGDF8EJqm60g5Z0tzK3FtSBdgZyikOAuNt6aMDpiLmnqzLlz4tIFc8lyzp8L3tw5pPJV7ndXA1S4ZiqTEu9jAulNxJhbQhgaRrDXITF/W8iCwPDTaXKVJlkcfjP/cjt9Eual96YkSMH6rsUF6NKBCxC4xs/jD3seKcpWaYVw2VNvBQVqvjZ9UtaFueC5+2TLIU7YJBdscr6/IqDyxyukhDym9UrGqxBGE9Ws7cMgwYQWU0/z9AkjiXEc99FUkgtoD3E2X9af3L77S7ZI9b9abN6MStG9zxEE8G0u72AaP1eQ5gBVrnssloa48oEnftj04dPEn5GbAnjbfb6O8nZXA1TS8SkfQ5bU3EvGp+y1OEyYZenYczbWmU8QpBwWPDa1vdiHWTvcg45Ybt7Ud2mQojTwEmPFClu3ncX/SQCaG5/yuWE5ShCeCCLj7nPp5Vfa/IJ/60LnZzHiViK/L3veEucold84310RUPnuVckyIKKNJR1adxNquCNmgbhqXhzfdcAFN2VIwR0gn+9fCqhsYDQHqGR8R0qwxhy4WopKzFzCe80XflLxKRfUY4GqBX33vInLo1xwIMIG7ILfuXNJ5bGc764CqErHpwwBCR87mxn22upcWsX9f2mN2o0pyTDHetPeL5BkFIa1/Mwad/QdUInYm+TBj6Ux4hoTUYRi54C1y3UHScWnUpUtzOMi6brfK59bdxylsJm9T1XqpOJTsIbcueTyWsr3VwJUZeNTq8vB7weWAJPc+NRak2y6Z/GE3fOygCpbALrxKcKFlT2WBYCXvkqldmMuolQhEnvwWoBj/Nzmp3pSaSAVn5p5bD3vMa6pGklKISsUfsesP8fLwXbHY9Zq7l6lfh/LU5LtrhmosoXjXkPCAut8V4jdt4RbIvbwxm5oDBMZcHUtGB/o5rgZt7GwNUOsVHxKIs03hn5uG0mrI2V86pt1r3kZeqZPSTfqSqewpY5XnAh/m0vD2CzJXFcb7lZNk0vrXqd9n0u3lO9j5VrUe1QSLhnfIkrcn0I0JCS4npcCLxGfspidBGijXeZqS75ECkso7R7KzAOqWYN2+adEfArbi1x6xRy+Vpp/aG62IIyxYEIuMPN7qjzg8DDmEpPwgoTptiq2Jd1+kiEJG1xzzmyINtK/Hx6oasWnCLdW9sXZXAFFgYZPaEBh1NyK05QFJ3mXylrbDoCl41PUo2w1Di1uybXVbGegOr/XevySUglf2lKceU8/hgpFl77UGxK29vj0Rd/LepLqiErGp9aSUhB3xl/KDa299u9XAFR14lMzUGHVw/PcCLmMZoNGDU0RaOGLTxnmlLxL5UugWJQGcesWE6g1rKmZpnMcyD3ksZlttYVD7HiS8anYMY9AT8c6YceeYtYqHZ+KGfOIba4VqMTjU7Nw9INijiCj6o3FlAByv09xzaQwHhafgr6k7lJRiR8l4lO4m6iORUO4qbKzSlP2WOobyfhU7JyoKuS1zshaGFqdpItYGzpIx6di6Xu0docHqlrxKUwAw/+n+top8Ivp08OkRQB67z7cFoR131CSuEvlJFDsBLV0fIoSbDXcfq3djqUETyuNP6XWXikalOxXMj5Vcp6l+z40UNWMTy2uBO9jjTGggm0UlZUEz1vDd+ezOtmvqSIP72UBJoeRQhmGEnep7KKzvscEpeNTrQXbESwADg/Etq1VssieDw36dazjWPrktssNG+SOf5TvDw5UNeNT+EuyOTEEyZeKjxCfmq1Efxp/rMvF+t5rIZZQUFq7/TCBrlRe/LO1IGkRn8JpST8B35pW3PFbWavcedZof41AVcT9RWlpsQKYcqFJbGbqPLhjG6EeSLndWZ+xLjQj3DDgzQXC/T5gSTLg1q1TlBMT6DnxT+6+lmjfIj7VOimmBB19ffb41EqVQwOV/3CX0UBxF136K7lUcgakj+MMD6/2KvfdpyIATYEr5fJEUtSDSQExDCcdn2qtgRMJNdXcuSWEayuNH8+ezLvvWIJGOX32+NQVAFUJ9w/FNCWYH7/oG3f7X/ptqZhD46TCo8DjByo6PuArOuubk3R8qrXbrXUiR8y+p7RpEZ+CebZ246bQKuWbHp+6CqAqV3eP46LLiQvl1veTfLIj9qBQ96fsPvxgQgMVdmfKnZu/RFO6ttza7dZ6/Ni957ZrEZ+irdM6blwunVLat7JWU+Za45sYTwzMo3oJJcwaKRGnKeP2w5Iz4l2Xoew7D+Ca6uzJ9zpi4lMwLvcula/orN8v76dbTiyphLUcezgDgrXIJdHYueW2axGfKpk9CX1vafLnlJUb93fzQBWLjuvDtiAwRf1tZTXG0uWwQFXzSQS8xFG6Fl+zvh9s9vZeUhozc0s1DYP+bDMalhiAFZ31A5U30zMrPtfSVdTa7RgrCLjtWmn8BFBl8QiVTMWgTdYc7HF6fGpL9UMCVc34VG7lCIyJc+NT0C9VHWJvTV0EfPJh4ZRq4tylMv3G3EfzKQ05mXG0RZMG6AzB9WbLJrWKT1H3EnNq11GWWux+5/CpO0YLt2rsOlu0OyhQ1YxPYXe10q0pG2ScTWWBSCiN2/TNsYQoJqNKGu2BMe4uFVV01jcX6fhUy5hGSTdVC2Fhj9nqqZRS9Tjnckg3zsOm+nu4iK/1lIHr+ztprX6Zf6DfiePsV6v30jhzrN32oEDlBw/p+FQ5awq9PMwCqqWWmArVEYvN1Asx1woScXG0mHepYhMoYG4lHkpsGSNqGRsL7XXu7zVLm9lzxV10cTybsm7p6vChOfT7U3sKHRKoasWnJNxzPqaTiE+FmNlnTSmVc+eLru+HWD/ku1QcC20GKvn4FGHdwmXfYskMpTT/WL4o2a5VfIpSZnJ4P0Sr2m64Hp+6AqCqFZ8qOU4pAAyBYk6pJ058ysyDuksVKjrrB767r0oNrvvlKSf2MAOVr9+8YsMRws1XN5JlUYfGaPV7q/jUynfe/SxG29rZjbWBsRUfccY9nEWFm72y2q9feMm4D2oxmgO2WQeVa/0Ak1HvUnFcfhbwecoy5cUKCUst+0FM7KDlPpTJOcAt2raKTwWAqoiFXNsNVzs+NZ97/QgFss/n4Vffw5lzCGJ8D/SPawtvrkF1HbpfDu8eEKjKx6cQjTBL0COuOHsvRPq3O9xaQXkCnRufwoAKMp+gPNQwjF857pgS8anwnsgoJts98SeZxGQ8cg5uy7atKyZgwrwEjWu74WoCYyjDdn0N+OLlgHtll4c/XXo7nqRNW5AFWp/hheOnFN49HFCVjk+VBKlZe8cyFvOAxN1c97DmJJqkZg0ia70wKCcGVCo+FXIXLXNkXOzEj1mLQH/Koc/5pmV8yp43YrWKK4O1vCNmbbWAcX1m5/wjgMgwDJ+N2x3OxGw9zcqm1sMnY2ktsgL+fwIsE27wPdtjLLFhUD8v60ven0MBVcm4ERCqBnPXiE/tBWKeZZASn6JAeWZK3pxKumKpuUrdfcGzC3l0yAGRGt+2jk9ZVvLjIkg3y+YoRyF6tQDlWsAIVrHN+86+Lsqmn3e3Mk4vFtLw6KO9ey5S9+dgQFXm/alZsA8fSwTqXWYvzWg+rT0nicIFcI5lRtzmZ2tO0venfEIIU1RyXBIzCE4Zkxct04xdwhUVEq6lf28dn4qxqqSsZDzWWOaieK34lAFgGzT2CgiuYPkAnAKgbXHtNNpdBVBxhKfNyB4f6+XnEkKk1L2sgFuADQpbGm2VA25NPQmAKRmf2vPDCCn1m78cqwqPl8gm/5QGoNj+W8enPPu5UxCWeAhcPUh26VJPw3DPSCxta8WnDADbctVVQCiZ63qNQrLU5plUpfowQCWlnc+FJfX3nvecDL9kBfUopsPdImnxKaCJUjcP46jfYbfjQ0yCzRf6Hsfx/b5f/aS1hqBn1CH3aNhs4CSy5ILvW8UKgdVlhD2iyHfRYXG1XAuNu6Ya7SmlLzdQnjN/SjmEqhGvr8+fOP2HEgigr1TFmZoHZpXDNzmKlN+zsHX7QRsOmLhyjga1bXJRKsg3Aap5ofpBqeGSQWJnk3iIiwhNvfz/pR+7P7ebTVCQw7xuWwDDGTxS12Dm7ZtF1FouH8YeGjgI4zh+1FrBPSWKThdAV2qeJwVcLshQLgCEbqG5nMw85rmMX3wptJz9pAqbxriNlu8/7unIBzvOvEu3Xc+lGYnHiwBY6xxXHtd6eOICBmetlJB3kwEIxW1KwbYC/1OcFXjfTjRIBY0VAO0ZpNJ3Kz84iiWMDkqqnX3nnocQmNjKaYgebt+x8movc43nhz5jYs98SBR/5DDxnC7tvx/A6cdui1kAqf2lfsexpvBinuHRKebavplFW46Y2yg8A0v86TTrdM/4EFdaM52s3ydhOwzqCfgGnm6YAQmecZgsdZPBdPkE9kGp85dYK5Sz3lptqVJTuXMICbPc/hfhi+3nRvGa7wutgAp3fRaFeaMw2WdrmxWbFmOhXIm5609NUDDjbucWVrZSra8cPqhuUeHaaO52Xb4/2UKmhPBYNtauoBCyCsQWZwvUGO3ftPeAK+Xau6wnxFwLA/0ENH9+fv5ALXTRxFJoYd3dkH0cL4cf3wJAmc3wuN6jXL/IZjpCv168Lmc/YS3YnhqLiGu9+MHAtjxTjsPGI8J2tbsj5lhIEdbX5RJ/anxqVkQqW1RJ29I/6hQoSAFTOdty5zplnKbBJxckuLHgHyVdWQWX+pfoeinmDK7u94t73refG0tr3tfrtopTNzfVQoLx6PjUNh4cAjVq/h2oUne3f/emKWCE3QxKabfpOQS6v7//2/ms/s75RqLtH3/c/Ov33//7LNHXUftY9hKmt7hwp5d7J4uxhMflqHTwzatkfIqTdBGiWQeqEIX6750CFSgAQKW1+q3CUJshvn27+e6tA1Vtml7TeFww4Vhfdls3hADAw7FgO1BdE1f1ub5ZCixA9c/aC/z27eYfHahqU/0445WKT1GWmomHcmJWHaiOwzN9Jp0CnQKdAlUpwLGQONYX1daqMxh9T7IDVVW26IN1CnQKdAocgwIl41OUpebWGYyhRgeqGCr1Np0CnQKdAm+MAhwLCZbOsb7s6zC2i299p453ZaED1Rtjvr6cToFOgU6BGAqUik/B2Pa9vOWNuk/mgn3KBeUOVDE72tt0CnQKdAq8MQpsrR7awnGBJ3S53/MWFVAvuYxdB6o3xnx9OZ0CnQKdAjEUMBfdoUxYzH2yuUj2+I5z2d0a45RzH7EDVcyO9jadAp0CnQKdAs0o0IGqGen7wJ0CnQKdAp0CMRQQBaq5LP74ZT9wnGkZM+HeplOgU6BToFPgbVJgdRVu17e+ySfwzAdGupxihG9zO/qqOgU6BToFOgVcChAP6C5NO1B1rukU6BToFOgUaEiBXKD6P1f9cXg3BnQPAAAAAElFTkSuQmCC;" vertex="1" parent="1">
          <mxGeometry x="602" y="805" width="213" height="30" as="geometry" />
        </mxCell>
        <mxCell id="JddVZA8G2uNzgZXX8My_-91" value="" style="shape=image;verticalLabelPosition=bottom;labelBackgroundColor=default;verticalAlign=top;aspect=fixed;imageAspect=0;image=data:image/png,iVBORw0KGgoAAAANSUhEUgAAAZgAAAA8CAYAAABbwawZAAAAAXNSR0IArs4c6QAAEotJREFUeF7tXUuSG7kRBai9193txfScRD0LO8Kn0OgIPkGrL+ArSLqHI4Y6iTmLIXkJEQ4UCiwUCplIAAlUkQ2upK4qfB4S+fKDjxTI7/Hx6X9CiGfoFaUuv57P5wNWRn/WEegIdAQ6AreJwMPDw7OUO80D0O9wOh1/hR7KTjC3OfC91R2BjkBHoDYCTQhGSvHtcpE//M6cz399q93BXn5HoDUCelKNdV699/P5vG/djl4fDwLOeIqciMvDw8PLex7/h4e//+6PhJSXT0LIFyFEuQejlPzcyYRH2Hsp20LAKJ8PL0KoX6QUX7BQgBDqoJTcn8/Ht231orfGImDGc/dJ/19K9TIqQReggx5HKeVBG80xvfb09PRVKfF714FzGXt4eHod58u2CObx8fGPwKDnzhAv/6OG/yu1+y7Ez32OtRJriGZzw97r/ZRSbykWlZ0k1BZrj/V4PH6mvp/znsFRfaV/q/an0+k3+vv4m1oR7Xa7V608Mso8KCW+3RLRaCt8tzOKd+3f5SIO3NgVjOdBqctvIV3hKFGB5ZvvHduQvGySYAjxPFbZN6G9i1bGbAsRHh+fFGsjMwpTSnyhTtBMzFGrJKPJs0/WbJO1cAPeymDZag9FCPmnED9HmfnwvNupj0oJHQ7wF7xo5fQ5hexLscv9PrZgJ7fc3O9OpyOa/6WWq5W7lDttqECLkQ5Sir0mNV3mbmfe88ZzYTD4BhDWXmajmdp18D0ubLGGbJhg5Gi1ykWcG+jQMPHnz67fun9GVrvRFXJsdLcwUVPddTMB9G+GG4iXfrOmkBIn5Djm1itN89oiVpf7mOSNYMS0dW8m3VuMzYLS5+XeaIRYhjEV4vIdMi7HvIxeIXUlJ2u4+XjFPPotGJ3OiFQ1Dm09myQYSCwBpQ26rmHlYUIAgKWpLZYvmMDlThnMNU+t0wq9sbSwvgwufVHS2QubaWU+I5xaS9BHxaAJb1GnGYNy5eOPpfGYtGEzJCWvv5jiSCOp7XoySIh0VMSuxzbv9SiHgTCi2utQ7TiOPlQ6rwV6fjm4uxW4oSuvYu2BvsXyKvOy5rKh2+aHTTGDDiHvAmzF0A8d5g/I4DBPIf1Qii1VD94awQTCTvmKZuy8nhSe0qxDMpBFPsZ2OYlgGH8O78Ihdesd+gRTTGIhYbX16kkbysFwE5tDaJ7Xkk8ISJnBWD510tZ6zzfgUkLHEDlRZTtE7qkeuItLjbkWC9liMrk0jgfi1WHTaFgeIkoqPiGvuhOMN4ugwU3JM0AeTSg2W1ouoDRDeRk2V9UX4lKCcTHXeOi4dIrVlqsI7YQyCk7o2Li/aosNM93GGuRi+x5WdPlGUS6mse98CztV/qGQcIoM+nOcqkAxT8N5xpIHQ7wi1KBzw2Opyh0hb/IGdg5sYzIU8eS3tYrMbyzM4uVhIKRs8gDGwIetHz5l4/WjWAm7ihcmGL681ajs7Y7gof0hBZ2q/LCxAchFrwZi8cxgw4in/JjcUZ+7SixVAeo6QvmFzHKup4KkeqnQWHKGU6HxxPo6J+/0+Q7lblLI24zRtDI3h7ypsjQn/I0uU/Y7A7B4sRKdLM3lcTe8iuwK9KxrvHUMK2XGRH26IGOkroU5FEfOUSKYoNpJYHEJTS4uzGqTi+1nWHbLxydnwkPfuB5IquKC8gs54+QqwZR2tCAXzCvFFLaLbarhAvUrZ97NCabN8V03k4MJszjfJEWUDYsXUyMmvCSE6TygHAH0y3PaPBB5GCPOMbjuebH1Bc83SrVsgdAoVDaL5+KFbRzin56kKhtOQpm3b9prlEMKpfkXty2+zFH6jORG2AxQCC/790j+ZQiN58xJmLzTN7W745RC3pQxgN65CYKplX9ZKtR6Xgzg5rJPAFtPjqII4DFMjGlZpushXd9m6cM832PCR0DokqW+mp5RgPgBguENL+YqAlfx5JA3R/7FjySkKOMWxlvMYIAUtksQOdhy5F+WnjSfURiTuRshGCi8xBvHDk+U8sFokX/RA+0n5ambLGMWvktWYcVc7m5bQZzXtTzNIUXxwOGg8CkRtay6VuMfm+yx8Fgutlz5F90+OwepbamZm4Wt8vnJwVhbJ/LL0yNrk3euTNnvbplgWCxZF8BaeR54EtAtWHvMBHbiQMgLyBUQt82u4g0JfI5l5lmEs8S+Y80uVt2VemacMe0UbFt5sCltMkaJGx5LN9g48y8jwYxeczwEtNZYpqzImiIK8f5QPV8q+cYiEqmykvP+TRBMLc/CB4zTHZ0r0HIPjBL68gimKHcExcIBginKW/iJfd8bc7EsJTPIIiwtNzb5OC3RWF0pz0vj8pz5l/mqRdwrxvak1B5Llwj1v6H6XPLN8Y458y+p5J0iQ9i7myeYVvkXo9RAIihU1uFzyahCR/VM3AlKLRsJmwQTkyGFUrLkccJ8HkKokX+BxjfXIkyZhGsRW6yNqSGpgFUcvGwwR/5SFDJEbC3G0icYqK+2jblt4jR4U8g7JjMpz2+AYMKn6dZYgcNpjdlB4FjhQh0kXafuA+V4cdzqmGLMfkgqhFHuBMI8Lu4NivAyVtgCTZlIsXehvQw15DjWlqV3rV6ou8qhsIv79wJ5eJFSvlKuOkDwLDIGqdjZ+vH9L9pgHbBNOtXctoHT67UnJejrB2qfgA5Eb7a50RKyOnMspJjwwKtR0uOnE8GU7X+ZE1ReojDWb/85dvw4516Y6Q6NZS6Ke5XXlixeF+8W4ZzU8ae+z51/odcbnlO5xEat1zEar6sCS7z3WL2ciydiddV6TjWOSVcm1wAbUPrsCX7j9oZXF5VYmaWrXOabo+iLAkoEBtuLEFYq6cTnHmbp39VdY/c7bPHmGw9UjDHvqYahRG1X6Xuwx18XUzjcWLfeuWX+MByIWnqYLDQG3PmX0rHO/X7TBNMy/2IIJpwrKbEyS4558CdwCdGlCAjm/kPndvkkEatvOsxyuXKJO/+CHUPfQsFjJ+mm4hbDteVzzhAOtd1rjyW1naXvceZfSttS8v3WCabZDmhsVUquEsLK1O68HrjlBUfqebyPZXEPS247UgSEspemdC8MlNifQhChEEi6l2TLgzzTViGVtcNzKeOf8u4aIRyI1FqNZQo+Je+uQd4l7YU9sQ2fRdYy/5J7Sio2KMwXOFUJC/rt9/IvweXHJXthXAKDCJM7/7JmeGz0jIMrrW5ZKUKyXbNP+EKNduGxGorYL3MN8q7Rr017MC3zLwjBZCt2jLRSB7N0gyG1PopAlOyFCe15cdvGnX/BSL4k9EnFEw+93q5ShHOL9fq0hbFMGffcd+8l/6L7T9En+r3mSf7t5F/yE+vI3offYOHbfRzvXZnd7d46/4IdcZ67FwZL7OPhMZFN8sgtjSwXssWUCK4U6ynjWLtKn0Nhx5ph3BpGYCkONb5fO/9iLigbFjBEL0OL9X/LBLOJ/EuuYi/d/+IrppoTd1Lu8P4XV5By98JMpxHAR5KElUh+/mXt/MfaBBdTALnPa59uHmrX2mOZi1Xqd2vmX+z844qYbJhgwmvdayjaGpYRxx4BZxJnW/Apwk3Jvxi3d7n5NRZ7t2XH3quQf1k1/wF7sfmeccqY1nh3jfzLGGoMjiWXMqyBVU6Za+Rfxvl5vT6eC9PNEkzL/Au8/yVfCZTuf6Gs5vJzF0J8eBHi5z7XtaUKQ+peGKcvKFFy51/WVkr3mjNYI/+Cj2VZqNGEhPTcsb+fCaGhD88lc84noBb5F3twrlLC9nmxYvWuCaZl/qXWoXmlMWrq+WNWQKfwQX44abK28TJS98LEEvuR/EtRrmTNFWT3GtJBNiRXPaalxj41jLgSvI/DGEpPIKZw6S3yL9ANq0LIK8neO8E0zL+UHeUSEpPS/IsJQ03tioUFU72dWJspwkXdC0P1ivw+O23MDg/ixkOZ1UtRPls9f4zSduydNfIvtQxBrNwUnGJzlFpWi/yLNhCFGDwvTYgHHfHwjUaKDqD0iTr/m64ia7n/pcYpt/D1y/SQ2+Qqxz0S6iBiApF6LwhlL0yqFxYuk47ZMtwwvxjKfV57iTKc3I+PJ2XirvXOWvmX0dNY3A+k/14ylsvwmEVW/SKl+ALhrBWweSb/5AyRrZF/Mcbd/LbauyaYVvkXDiIIewPl97+Mg/4cy6dweC+pHhMUVvBX3KWsSKmRf4lYvUV32MQU/L16Ly1yBBC2NYxB3OiC5nEd73dNbN8ZwSzPBONiVFegAIHNDsnYskvzLzHl5T73Vn5lx8AdLEj9j+2Foex5mfcjfC1DaehhDUUPJ8HzvbEUmaj5boscAUww/IfRYli17mvr+ubz7514MK0S/KWrvCDB5Mi/UBWEVxeJGMIeF23/i/ttbC/MdJglzdoDxiO7TzGyr2GwhEINE2a3HRqb8Cy7PI8q2zUjA9Q2tMiHEAzeokUu1L6+Gw+mRf6lJonVCrvFJlzJVQmp+RejSOG9MNMY0pUqd/7F4tXam1hrhRVVkZS8t2b+BSPvWsZC63xI6/repQdTO/8ykssfQojZ2u/YBkDqxKzlGfn1c3kvZuLSV6xNijsU0lJ7fTOilDu9IY6cfK2Rf5naCSX66eS3tbGntof7vTVzBCPBPEu5W8xdvRKK+9qD1n1tXV9An8xW7nKRNnUBUpNVZDU9CyxkwkUuuo5W+RfX4i8VhtT8C2JNHoRQB72ePqVN0OQqzb9EwmRsexfWsK65yYNS3po5AtywGYwZ1kUbrfvaur73SjDA/pfy5KghL/nV3UykQeYkl1b5F5/EShRxySo0KIGealHWyr84XkxQrrjGHgqLcpVPUf4t3im5PI+rfVAEAjucNafu1n1tne95pwRT5/wxjnPBKELaIv+y9JDKQj3zVWi0hPzkGTwBZ0OlWZO18i/umEGh19Id2PCYp2FJka8131k7/+L2vfZ8XuOCujXzLyEPPCUCgcnlpkJk3PkXM/nlq++1aAtbqctn7vu0ayaUx0n16ueOypL7/tLENKUYIoZUq71FWNSJ3w+5IfeX2t65opvjNz6rIltrkovBr+2ekFh/Ia9XKfHtfD6+xb6Hnq9xqdkWyPvuV5FxgazL2e3Ux/Egt8UhbtyutBeG+eoTgH6eu9M43pe85KbdvSyl0u11f4NytMdHxCZpIG6cnGxtGXvmkzF9OOLuU2Cn952SC3YiQnn4OiZnoedQyNu8axabxDYp++Uip6qbUtUle58ZQmjQwgXW8H0M47shGC0Yu93uVanr3fO27wEyuMICHCKnE8r6J/W32PdW6N44vBYjiOplrJfSfv3O2Fbb5tCQD/2glidS3NhRkc8uMcOFTu3NpIInqk8OWHumE1xTx33CSym5L7FOdX+QE45JSf+aXmpMCdR6Pilrt4arLEbmlT9H5/Kdo+ip/TSGUpDoh/mmvRkhLj+wOe+UcT2q3kY4hNh9dI2I3FynicxsG9s7Ipiwq00VqtT3dAjkcrl85yAWo6Bgay61bYXvk72FkjZjq3M8ZY22B4prp2CQQqhYuYj1OxgBUor95SJ/6DOmjOGiDwYMn01lzqQa5Kv4JN0ULDjfxS5FK62nhtXvtilCMvbVgx5T/Z/LxRh65tbYwdhxjukfTKr96XQabpx15SQ3lIpd2cCALdvKuXsjGNdaKMV5bhtIbbVoQeIjFV+gx9Vo1rKjWnic/TwoJd/O57+GvsZ+QP4GU4i2T5T7W4Z9CTFFMuZrYk0NPb/iG6sjtXAor0Uph4vsKHXVfsfzykqJ0pkPZQtQUvo9RUaE1i05v+CcsiSj1O47db7N9cVsvxgjtoJ1h//dEEzOyPdvOgK1ELD5KJO3C1m0Q83D/h4dotP/KQ3T1epLL9d4HSZsNoSwPe9kgZANo920B8ox7p1gOFDsZXQECAgYJWVyelyhVazax8fHfysl/0ZoGusr906U4zhqzPwow3AHCiuYN15YJ5gbH8De/I4AhIAmGCHkfxoj9N/T6fiPxnX26jaKQCeYjQ5Mb1ZHoBSBkWD+WVpO6ven0/Ffqd/09+8TgU4w9zmuvVcdgY5AR2B1BDrBrD4EvQEdgY5AR+A+EegEc5/j2nvVEegIdARWR8DfQDzuH9Qb04sWQ2zqLLLVUe4N6Ah0BDoCd45A7ubPnM2mnWDuXJh69zoCHYGOgIuAfwIHFR19GsLxeNRnFZJ/nWDIUPUXOwIdgY5ARyAFgU4wKWj1dzsCHYGOQEeAjEAnGDJU/cWOQEegI9ARSEGAlWDMygN9Cq3/+7kvXY2Q0qn+bkegI9AR6Ai0Q8Ce6efXON7NpQ8gRQ/OlVhTofuk7Tfcp+C2g63X1BHoCHQEOgIxBAhXgnSCiYHYn3cEOgIdgY7AEoFSgvk//NEIaW0oAyYAAAAASUVORK5CYII=;" vertex="1" parent="1">
          <mxGeometry x="125" y="805" width="204" height="30" as="geometry" />
        </mxCell>
        <mxCell id="JddVZA8G2uNzgZXX8My_-101" value="" style="shape=image;verticalLabelPosition=bottom;labelBackgroundColor=default;verticalAlign=top;aspect=fixed;imageAspect=0;image=data:image/png,iVBORw0KGgoAAAANSUhEUgAAAKIAAAA8CAYAAADlnmEoAAAAAXNSR0IArs4c6QAACM9JREFUeF7tXVF6GykMhskl7OzDpidJepI2J2l7kqQnqXuS9T6s7UvU7AdjPBqMQAIN49jjp8RmQIgf6UeARqvls2jgCjSgr0CGRYRFA2oBYgCC1Wr15L86HA5bLkZWq9XL4XDYcJ+79/J3DcQedN0XCwKtzYtS+iUAxFYps9Vab49H/ftw+O89BZjHx8c3Y9RXY/Rrruy9Ay/sfxSIdoC6rvt2Dco6HtX2cNj9kJTF98+Chlnv1pjj55ilXK0ev2mtvtv6jDl+wqyptZhd14N/7s8Uui3tUxSIfmaXVir93H6/E7HcFoBa67eI5fMib7VWGztA9ouuU85NG6OspfQue2uMeoeTY7X666vW5s1XkpJ3vV7/SrQvrbpcfdv9fvcpV6jF79EBXq8fTYvGqW3UAtFaIa07C5Qz/wNtO2ApdfyZ4oQ9iLtfvg5j1HcLxhCEWqv33W73GuvbSQ5bx1V8UrK2FvACiKFiLwdM/6vUH4TEd8/ePQUd2Rqjfyj1J0biT+Bwz1pXOQJLrbKgy4zJxOFyoUW1soXuPcUPE57mNBlw3Vp3HqcSZmOMsdQlNiZPSj08dZ15Dqy6U0WtbiXBegHES2W5jr5SVpAYiKnk3S8eIJhrlIW5QW/NShQZWsawjhQ/XK8f/xlPNLpuMRCfOGt2lR6jJdRxKdET95kLII7dstns9/vP1EoTykLJe1j3aaDtgLlPibISXNAuNuykyg5cqs8JK6swGhG6Ze5kuARxLyGHtkjolooFbrkREMcWjQdC27CEsvp6BkLPBSLOw/j9wZQZDqgvl7LecJKWWPkYby+s52yVU9abC6Ta8iMgQmVRTT4UQEpZgRzF1nSQTQ6Evs6Y209NGjhJuQDAKU+/YOKAAMrNsaacNkrKjoA4AIk/cLX8EAoPgchRFsIJ0dhficL8M7H+Zvihi0RwXbJ9ppYfjo2F9zb8Ma7RV+7ZMxChYkusoQQ/9MKCushxLnxh4gLQVZwwpsQYBcD54RBn5FpDScoD6ypx6zkw1fx+BmKpFRpcVbgi5JPpsC6qsrDFA5dfchQZ8sSUrN4tU/sTyiFFeU5ALLbMHP1wy56BeGXKcoSa4sZaLE4Qi2gD3KTVvQdSycTAKE8tqEtk4YKLU94BMXDL5MVBii/1fKhs858zcNguUAm94CgOWpe+r/H9ZahbDt8ddDvsYUP5SnQLJ20JReDqh1PeAXFwy2UEVpIfcpSFueRSa8FRXAhEDGReN6UyYdy3DNQDVy15nqsfTnlgEY9f7FZRCbGXih/21tkfTLDB2nQwHWu3hTWEQEzvL1uLZl4qdHux718K6t4623HWG27YhwOqkrIip1okyTS1E6k98RYnSsaWu4yC5PoqzQ9z7c35ezUQJeOHHEXg1nAaUCALFneQtsSLUPo6l24pskmXqQaiJD+kdi5hDZOHUqn1X0u5OXQ7V9+rgSjJD6lKwAh8KXeittu6XDwiULagbC07tz0JIIqRaarweMimnVumylpa7p74odVRFRAlN+OpA5Y65XxtsTFqn+L8c3z9wJcpiR/WyNHq2SogSm7GUzuc4ofXFhuj9ilW7p74YbVFnIMf4odSb4s7IfSDfAikZhLM8WyVRZwjfohZiltaqGD045b6GIK9GIhz8EMr/FTxw/6+zAO4YI9dEIvZi4cnezGMcq+HYm3uKX7o9VEMRJzDTLtynQqIWL0U4JzKiB3AvTd+WMUR5+CHJ4sYvXNdu78scZdbarE0l24Zk068aLFFnIMfpl0znuaDojXrDi/Lmb+Re9quqD0v2T/j7iOLuOZ75IfFFnHOYGv7KwFt43n3yA8rgCh3WJNirWCZ1kBszddat8fV/1Tli1xzAgzs093cjmGui3KtgNtWigpI8cFQpnvkh8UWcc7NeOxyu1LTBLRbc+FW7Q3pXcxLn//xaA9Fj/LnnJKW2hySz33+SHf9Y4MlrIL5Jn0mtePRJbfK3qJkW8Q5+aG3Htj9ZekDsa35Wqv2kPw9o3R7mcxlYdkw3Z8F9DmZFsVbiQGx5WY87p5l7zC35mut2vMT2R4ScW5xuI3othCHbdQ+05i1aD7gD/JAurjp6XmXag/mjQzzD+XwwQZiK2Xl+FzcKsq659Z8rUV73upCYMTaxYATJunqk47G9T4+F5AeGzYQscDvVOQdA+TUi5Y5bgi24IdDnu8h7hoCMZ3DJ8x4iwMsoBrJAxssIF4DP4TARMBykVo4Z13D39NnHqfZwmzFDy3Yw8MTnFSEl6DF6VAwPjJATOWfnutUSCYpe9Hebyr3Yc+D6nZwYpMilfyTQvSpE81PMGjxwgmQ6x8EbU42Tiq+SFo6A1IHa/93LPd0rP9g+W/Of5fe6aUoOJZlFjzn82P/ToUQQB0wdbJL6tmHLvxWHi8x5mUgHn5TqttBr/3EoGXztWV9OAbqggOWAtCeczHmjFU0GxgFAJwyuRUTpy6cM8Z3eyAo7RsD7P/wrQHG2IkXvl9l4D3QE+SUWSFbsQpyFixXMXS1uf6FQMytC8bWM01pABBd5n2Y8Z791iXQ6ZEFzQmcUxb194x1pFTjks6HCd49GI3pfnKSv/sGQ9JOESRRBui2PkrAAUuN9cxhgLVYqVRgs8eHmNfxC+GdJqTXWzQTvmFDNa42xw9heC1naW2XbxKIcCxPvMh+FfLcrdSJ6obYEW0qjAmnrNZlIvj05gHH0t4FEEVH7sYqm4ofpiyt91Yhxbl5i3hj2BHtDsdqcfhhyi3730LruwBRdGg/TmXT8sPhFXphxCQWUF9c88fBjbikHH5oGx9bz9Ruyjj6AsNLfrMgdr9osYjiQ/wxKpyOH7qXZ55zi3sXPCx24iGnBYgfAzfiUk7FD3vreT4YEexO4XHPBYjiQ3z9FQahmGwak/Er6fJnPuN758LHwK5fzYuEFA0MmS3y12A5ZX3bwzUDlwXDxmyT1wUWi0gZtaXM5BpYgDi5ipcGKBpYgEjR0lJmcg0sQJxcxUsDFA0sQKRoaSkzuQb+B2UWyKZTeWKYAAAAAElFTkSuQmCC;" vertex="1" parent="1">
          <mxGeometry x="3107" y="763" width="162" height="60" as="geometry" />
        </mxCell>
        <mxCell id="JddVZA8G2uNzgZXX8My_-102" value="" style="shape=image;verticalLabelPosition=bottom;labelBackgroundColor=default;verticalAlign=top;aspect=fixed;imageAspect=0;image=data:image/png,iVBORw0KGgoAAAANSUhEUgAAAJMAAAA8CAYAAABir4guAAAAAXNSR0IArs4c6QAAB3hJREFUeF7tXFt22zgMJZVN2O7HuCtpupI0K8lkJU1WEncl45+xvYmIcyCZNiUTJECCkplRftpzTEl4XACX4EOr5W+xgJAFtNB7ltcsFlALmDwgWK1WW6XU9nQ67bgYgWdPp9Oe+9xXGP+/BlMPmodHpcxfWptHpXQHIsexHSi0Vru2VfvT6fAacvpqtXrUuvnQWr0dDofnrwAQjg4omDabzW/Oi0qOlXZMD6LmSWv1N1PuvTHqzQcqCyR4nzH6+XT69w1792q1eWmaAWiZYsgNb9v2VSqTesEEQDJG/ZITOe9NxrTfJRQmgGivlNkboy/lDZxujNkqpR+tFpB5XCe4QOrBhMu7Wn37pbW5m0CNAZ/jOS+Y1uuN4byk9Njj8ZBVjgFETdO8IAHSZRul2j8hjuQB4v54PHwfAwlsEZJ3vd78Myqlpc0XfL9UoHZ0YPylQOScjQ5PtH/8Ej5skaiDaH9V6tNHaM8cpflx5i2XDGC/kQMmn7PP70VLVpgXbV6u5dHs3Ix15ldBvoQEKsG2wN2aD59sxkC5bt89v0VtWxRMtyXO7IwxUFejMxsMiFRC6i9DZnc8Hn+mhC9wEx8vosqDfTNEA8CxGFH32KcLshC/cmXwAZGji88eOYE6ts9NZhoKzHMkZmROXQZAaa1/24jnGGto+PXHOGtQyDEFtIFsFyTfoxLXlUnK92AMFqgc28J71mvXLjz/xmQdgGkkMEvZXlA/H+Ci3wUl11hjMDoG2BvTPlMybMxot065PhHhSxcuyi0veKDyJidudkoNVMw+AzANndj+5Bo+Nw1bIV2FuWAaRt5FbQAS6CPWTPRlipBz3PGhUog5SipQhy0MvCRTAipY5q5g4Ke/XL7kCjYEEz3yECDBVJ0dGDFj9hmwgZnZ5S8EJhcM3Ex9zvo3M+yUzDIEdbgfFrMBCqbcj0jwJV9mohoeI9spWYBqxHEmDmVRO5abaSX50vhd3FIbs8ulzLlgoDqQQnhT3uXIQuJtOCHmZ9iYwYY6DzkipuswUOmZ1n5Lii/1YLrOcFN8E7LPBUw2DaekTsk07BJ5iiy+cmMVljbW2JBuWQ2XuH4GRdHH5ywpvgTv5gYqJ7g6MOVGjiRfcsFEKVE4T5LlAz6juhkjwpc6vpNS4uQDNQ/Y0cx0TX1pZQHnK2kOpfKL0DpX6azUO/nas8GA4sqYIpNUf8mCwGY5SqByshKMdTJT+0TtdIfSvftbCsG79okgkg30hdDp/JxZaQymMF8C2zbv1E63a0NJvnQtcwYWr0mrGhxAZS2gOmj3LAynZTmq8OEuNJ/kUr/rI+CpXIjyTUm+RPlezphsMEnzJaoyWMSWdOxYtpwdmVQ9pRrB1O/ljBMAk38xNZVsUpQJzeBKNCgpMpUYI82XSsjovjMbTIGus8iGttgsavx7CsktbeTU90vzpVQ5qM8JgMm3ka4sX8J4xJQljmrgnHE18aXLbC5V4bn4ErYTtGRpTbVRznM18aViYCrp1HuYxeUAhPoszpdkV/pD8nCPbWWVuTlq+tyNSioYcscFbCu+A8IzS+2ObCmlSGuj9vksMGHlpiQJxrrtSpXlabng4D4/B1/qA7V9cnaoTgOmufhSqf7S9UCmdfsncyPdwzalw42BrDRfsvvt+6NcCg5xuIdPrVjzgqkkXwINsYjNXWuSOCsopfsUfMnHPWE2PALWNGCagy/1YCpzUEDiPFvKWiSnjyYFVvjmMBN/7uwaaM6hh2TONAdfKgkmiFSlHkapHu4g6E42+0qA6s+r2b/wIU4OZ5qDL1n5JgcTNj2fommIZ8QyU2Zs6aakrqX5UgjYM4DJf15eMg1jCk+913vq9bG5JjazZaa5+NK51tseyAhvZVoDU+sqeTCDU1pnA9OcNf08o/NdrMGaeVANPbWu+Gx12j1aZ/uwbMom4HPyJQuAKbvDU/MX/8SmTNb1BdSknGlqDuFTeCpSPLWuc/MlTx+vbGaamkPgHWJvv4mlfKzUTa2r9MGMmH6zZ6apOQQ+q7s9ng1jpabsod0JpdYe59hoOLbvZGXuHtKwq3ypZYfQtmApsCJZwXtjXynwzpaZAlfViGWDlLSM7yJQSVfoxO6cLNFLi1+TKHcVUMzGYpmp5whwGaj9664yhj/vcoJHMGel3Vz+X+KM1jBD+Q81wH6c/trl9p14X+Vg6QSAo9Tn3r3+L3X9rZxt9S52pXQMQO7vImCKRSRHoPHYEtE8/gZB/g5Y8Bzc6Q3/+m7SPb93kNUkLnsodemsdNkVAlN/IbrjJOZ+noF7B5ksNZq5ACZczRx7pffSVHfvT8qd5B4yL2lb0Z2XImCKWbmm3+32iqYxPwj3mV9uupUsFzXZS7zM1ao8Re7zydsx99tLXktIkaOGMUtmqsFLlci4gKkSR9Ug5gKmGrxUiYwLmCpxVA1iLmCqwUsVyOjr1UFbB0SnTFbY+5kqsMkiItECqY1UbK1wARPR8F9xmAMmThN1u4DpK6LhznRaMtOdOaRmcRYw1ey9O5N9AdOdOaRmcRYw1ey9O5N9AdOdOaRmcf4DFJhjl5Dqfu4AAAAASUVORK5CYII=;" vertex="1" parent="1">
          <mxGeometry x="3269" y="833" width="147" height="60" as="geometry" />
        </mxCell>
        <mxCell id="JddVZA8G2uNzgZXX8My_-103" value="" style="shape=image;verticalLabelPosition=bottom;labelBackgroundColor=default;verticalAlign=top;aspect=fixed;imageAspect=0;image=data:image/png,iVBORw0KGgoAAAANSUhEUgAAAJMAAAA8CAYAAABir4guAAAAAXNSR0IArs4c6QAACAVJREFUeF7tXVF22yoQBWUTtvvRdCVNV9JmJXlZSdOV1F3J88+zvYmId5CMhPAMzMAguY782SAJLndmLsNAtVp/KwJCCGih96yvWRFQK5kAEmw2m0el1OP5fN5zOWKfPZ/PB+5z99D+Q5OpJ83Dk1Lms9bmSSndkcib2I4UWqt926rD+Xx8jU36ZrN50rr5rbV6Ox6Pz/dAEM4YUDLtdrufnBfVbCs9MT2Jmu9aq3+Y/T4Yo94gUjki2fcZo5/P5//esHdvNruXppmQltkNueZt275KeVKQTJZIxqgfcl0ue5Mx7ReJARNIdFDKHIzRQ3izk26MeVRKP7lRWM/jT4JPpJ5MeH83m08/tDY3Y6gp4nNmDiTTdrsznJfUbns6HYvCsSVR0zQviIF03kap9k9MIwFEPJxOxy8hkSwWsf5ut7t/g1BaG77o+6UMtZMD4ZcilnMB3T7R/oF7+PCIWJ219lel3iFBe9EozdeLbhk8gPtGCZmgyb68Fw1ZcV20exnDo9n7Huuir6J6CTFUArZWuzW/ob4ZY8N1+wv4WxLbqmS6DnFmb4yxcTW5ssGISBWkcBgy+9Pp9C3HfK02gXQRtT/YN2MywE4sJtQBfDoji+krvw8QETljgfAoMdQQnyvPNO0wbyIxkDlx2RJKa/3TWTwHrCnw29+h16CIYwppI94uKr6DENeFScr3bBvMUDnY2vdstz4uvPlN9XVCpqDDrMH2HYX1AJf9Pim5YIVk9AA4GNM+UzxsCrTrSRmfSOilQYtywwtuqLzFie+dcg0Vw2dCpukktt+4wJe6YddJf8BcMk0tbxi2JZIdj1gyEfIUscnx28dCITZRUoY6TWHgIZliUNEwN5KB7/5K9ZLfsSmZ6JaHEMku1dmGkQKz94CNXZkNvxiZfDJwPfXF61+tsHM8y5TU8XxYCgOUTKUfkdBLkGeiAo+J7RwvQAUx9MQxL+racj2tpF4K38UNtSlchjDnk4E6gRTBm/Mury8k3YYLYr6HTQE2HfNUI2JjnRoq3dO6b0nppZ5M4wo3Z25i+Axkcm44x3VKumFfyFP6AoUbN2BpsEIg/bAaD3H9CooyHmiypPSSfTfXUDnG1ZGp1HIk9ZJPJkqIwnWSrB6AQPU9RkIvdXonJ8TJG2oZsZOeaXR9eWEB1yt5E0rVF7F9rtpeqZ/kMWeDEcXvY06fpPJLjgTOy1EMleOVbFvPM7XfqZnumLv3/5Yj8MY8kbVkY/NC6HJ+Sa8Ukimulyy2zS9qptvHUFIvjWHO2M1r0q4Gh1BFG6ge24GN4TwvR+18PAvNF7nU70ICPFcLUb4pqZco3ytpU0wmab1EHQxmsTUnNuxbSUUmdZxSiWDq90raCZAJ3kzNFZuUwcRWcDUSlJQ+1WgjrZdq9NF/ZzGZIllnkYK21Coq/HuOyK0Ncu77pfVSbj+ozwmQCSqkq6uXMB0xZ4ijAlzS7m/SS8NqLnfAS+klrBK0ZmjNxajkub9JL1UjU81JvYVVXAlBqM/iekl2p19yUVEU5paI6UsnKqlkKG0XwbZGBcST1volKCb0jnnRTrAUkQkLNzVFMJZtV6quTislB/f5OfQSUEjYnc4BKlRJ9fLZZFpKL9XKL40HMt20vzML6R4eczLcGMnm0EvjSnxa548dCUstcMTJVFMvWeAxiy3da5I4Kyg19jn0kvPw8erQ6wLAWB4vm0xL6KWeTHUOCkicZ8vZi+Tk0aTIejHKSyVDfOsJPlEDl0Bnk2kJvVSTTHaVqNSDf8+ALRr5rHV3sjn4954C/Xk194sf4uRoptp6KSSIlHfKIhO2PE/FVA6gWFvcI9ZZMmNbNzXHWlsvQYuYWPgKowEmKTLJBJ+Xl3TDGJnmrvWee39sjoUNl0zQwVzoYGwWmZbSS5Zgc9d7zz1WyYMZuEFeC+tYOgcgH1ibn0Wm2jE9FQ6x8/qcE7Kpb7i/zz1WfLUqW6PlLvOw907ZewpiRYghwbEQzybTknrJTfCc2eHa+iUkNWwoyyZkQ4JjciaDTMvpJQf8XKL4HvUS1SP77a7PB8Jekk2muTUEniEG802kc3ZUQOceq/TBDOo4Y+3CPsWSw2wyza0hOCLStpVasseqE2rtPS5RaJgiXOCVosbKItMcy9bU4Py/19p2iJUFS5EVGudSiWCq90+VRJPJFLmqRswbcIg06ie4Bl0plXWFTurOyRq5tPQ1iXJXAVExBu7pTJa+AFfq2MtA3a+7ytj+wO0EoGPeTrstZeh/Nc5oTT0UTqj+2uVu6YvefOftkk+2TixxlHo/+Nf/5e6/9fqrBrZ6n7pSmkogbIGT8kgDW8YX1LsFtoY1hwClPIr1VJZY9rk+t6IUdJPu5b0TryZx2UOtS2drhF1Pu7G8++CZAMHJrOeZTO/Ek+Vac45FZd7v7T4FFoE5z2XJl3MneWVsk+GHg2NAJNYFaWTNxOnQ0m1doVvTmK+E+8yHm26lw8XSOHC/7xMpZzfhLsl0HQK7/wsl1H4HyWsJuRN3a+3HnFo8235JDdm7zq8ud/0QZLq1ibu1/ox6M71tY7Wf2N7crQGx9qcMgVHPpYnkSLeSqQzzu3yaQyQLgAuFYhu9d4nqBxxUkOWPrdyvcowrmT4gYWJDxvYBKTBhqZ5VgFPQu7M2pce6sI3ulUx3RhTKcMrIhAv1lUwU9Nc2JARWMpFgWhtREFjJREFpbUNCYCUTCaa1EQWBlUwUlNY2JARWMpFgWhtREPgfYGjsl4g+kZ8AAAAASUVORK5CYII=;" vertex="1" parent="1">
          <mxGeometry x="3287" y="703" width="147" height="60" as="geometry" />
        </mxCell>
        <mxCell id="JddVZA8G2uNzgZXX8My_-104" value="" style="shape=image;verticalLabelPosition=bottom;labelBackgroundColor=default;verticalAlign=top;aspect=fixed;imageAspect=0;image=data:image/png,iVBORw0KGgoAAAANSUhEUgAAAKUAAAA8CAYAAAAHQnpRAAAAAXNSR0IArs4c6QAACcxJREFUeF7tXWGW2ygMxu4lkumPnZ6ksydpe5J2TjLtSZqeZPNnJ7lEQ59sEwOWQALZjTOe9/bt2w0YIT4+CVnIjdn+Ng3cmAaaG5NnE2fTgJkVlLvd7tEYA//A3/F8Ph9zOh/6GE7b3LPu9XenI5hfiZ52u93T+Xw+3Kp+1EG52z18bRr7ZEzzhEz62DTmcLk0v87n/7/Hv4Oymqb92TTm++vr65dbVdqScvUAbD/BmIReu42e0qsvb78+5pu1zRdsDZacGzWWGigdoASTOlp7+dftdFB+07T/QX+pwh4eHl6sNZ8FY/tNSfZ2C23Mb2D5RZkF9NG27deCeQV6DQH5/nPT2Jdex5cPJSxbqGNRt2pQ9mBqXiJmPBpjj9Y2B2Muv4x592iM/QfZ6Z0C+50+PmMAKxsE+/0DgNm5CSIFCBofrTXfz+fXZ0EfcVNCn9EmssemaY6Xizm2bT9vaw1YpqurFMu6242AhPan02v12osnx+xQJRjGjtaab6mFc+YITMggYwdgH9RShfVMaYcFaXw/llLDwI4wrvvr+rm/FMBhI33RZs5Bl8Bi2NjdhoANnhp3sDY/3TOcGxQD8tbdo2JQxhOFgwx3sRBgeniwh9Pp1LFn6V/K9HFcg/GA1n70Nk/AVpqs6fw8ZL5gbZ4lvl/MtADA2AXg6KBU9xr9ikCJM6TMR/F9SH8iWruY8jOlLJwwp+xNmFooQs4qVyFmzHh8qXukATTJM4pAGftwpZNE2FZ8yKEmi/mZpYCnNpAx5ayeAfv1AChZTL8tplv3u3RjlspQ2k8Myv1+/9P3/3I+ZEowbLG1ToX7/YOdMkTa303JGs/btS3ZkHSkohzksexzW6JSwHH6iUCpYbZjoWLwaOxiiiVKAOTkpfw+KfvOwbq0tQgJBNpJ5eWASLuNCJSY/1MLIp+BtBSm5U/6yqZjoTJ2Ixj3eDq9ftBeXJxEbjdo7uYvAmXMahog8hdJ61So6U86RVHmG6IOXEBpugAcAGOgrCURzri1bdigxA8l5T6aE9xnoFv1J0FWKkDP3ZiU+dfaiBgQYleBK2stqGr7V4Gy5vSJMZDGLqb9yTqzhR2cuD7aEgcb2q8cD3x3CMr+RX40ebbpSiite0WopbA5/MlUeIXD7hSgaw5eXDbyGX5OVubKw2nHZkpqsWtCQiAgmLVe0PQrNM5kKDNbC/ga0611aufOP27nbwgNS1Qqh6QfG5Sar8IkAkrbYqxUA8oES5LZOL7MFKCXYMlhk3bx2hodSNegtr0AlGGWCTKw+D1trfBx/zn8yZoTMw1oWRipVE/+QedOQTnmOzKUNCTzXn5oZ9OkxqbYvNRsUTFFbuIJzZJ1hy6G/q9N4JAF/7HkOkjkw9qymbI3BdM3BAwBrrmVc+ci4vLJWYl+L81/Vu3hiKHXu20iAiX9ioytn6rsl9woNf7kmE6HXuUQuyb0BuYDOzffe/1dBEpQQooBuEqqPbFj46T8N8jSxvp4icHYfSLoUryJauKaXD3eazsxKHtgdv7lNcO5RDnawExEBwrEswdr2x+S5Fp/kNR9JU5cs0Dgu+pSBEoHTGPePTXN5RNxczGnKJUkWTcIFUeFUyclSM+U6PWJYobMWZPSQ1dOmff0ezEoI2Z4BIC2rf0ouX2nGaao8yfxcFcpm6diutzkjXsCmXQuKqCcAhT+T/spcf/72kWDOTTik8QhrojNU6y93WfPQ1QdlPGQOf9T481GIqlXdLeZYDjx+/1biE/ml/52W8wOytzBSAOUWkkY1AFFKiOdgLFk0Px9V5yh9LD2NyG7CCgHYHYlWeLJamSu1PiTsevhqnT4/18PlF1FEHaRhVJgeIwvZvnSMTX7kaDsX0+1H/vdVl8Vggq814JSw590CqWZUpbMnEjCELkTpQvtxtc8SJbKUtKPBKUziZoTw95y1MbttPzJVChHunFqkjhKFjFk+3XUC0rNkwTlHLsNY5Da07eWPwlKonNGZb7g3wSlp+NVmm5YhxQouzy80lgdthPmuXg2LW5Vyu5auY/0fRyZGyBlTd9qSP1g6VhztkdBGU5OxhKUsHjhgbpn0z5g2XMT1xZEvuCSd7t9fY8MLUv68JNR+mpul+e4TGBYX8k+uapvxnTpiZPcAr+upqsMd7nwUhlRUIY3DHV2N+b71ZruJfzJ3lrI6iRBnyXvd8fjSViSfmkwFtbK1B4NMqiQtD8ALFmiECMxFJShGZPtOoopNcu9uDE0/clUQkfJ5pmjSgdthcZLfVJ3a1iXR3j9GQG080nHyr9wabBnRaycY9Q/CdTcwZECpV+Hp9phxsoGarwD1opPpg458FsKlENm96See6qAlcbc8TCWjEDcuvggifzqjuUw5o0ZFjZDf9sVlyHc9Gk5J6DEiw7UBX1j8EjMC80OVBJFqT9JZtWTm3JUNLUQuokesS4wZpMcQJz18jedZK2mB0MabBGukkQ3ASVdL3GsT14y8bGPbDfLQSn3/xI+IPxEKtAtYOq0P9dJPPTzynQK8vuyTwkp/VykJCR5IIz0IANlon4460qpZ1aQWuhlysMZYlJnvWtW4v9Bv9RVWszccsvNJMx4F26jTq+pKEafgeUKQ5TpFDPd0rroPqvm/ERfX7mQ3YQpQ/q2hygJlnVLET+tlSkPqWcO65Uruh/UNOdkkafuH8Wnb+nVVeRg4GPO1TNHQyv+Jg/BWBdDdiEe/128BDgxgHMRCp/sRKDE7H4i9awDKCgNvlIA/6byJ6UnwjD2Ni1+KnEf+pAOz89MVbOAGBuY8j7bvv/sh7SWUubKxnUjjTFAYyDGF335oXMpuNd8JbqSlHiJ3bzcYdBPxsmdKQKm9AaafOMm3qW8ycJdFwtfUsh+aQx7nse4Jf2vbJrbxf7Y/Ls+ZcyfYc2cWquuaaQeHlu3nM4kdUWlbkEASrdTKCRnrqG6ObPMUU77f/P3/HXb+u/p9GOw7jixPldSqy8pcCT+pMR0dxY3ZIndI5fVBp9k8O/g402/gc1Y31+sVeCS/cN5zjO/aIzr5uauhYY+ZvYnr3Fvjiu1WJKvhuK2Z8yngdCfzH2gi//1shQDO2sRZ8dvoJxvnVf15NAcp1+WSFg15XtiwfuJ+V6VFjdh1TQwsz9Jmu44eO8mtDGl2tKu90ES5pPEJ1Ntx0SPKStvoFwvltQkn8+fDMtHulime/lAxa83UKot7XofNJc/CRrxfMou4A+XEVPZRJtPuV4cqUkevl7NvxAIv3uUzx7DPxktTF1Tm+32oNVogArNYBNwbY35feDGUcerFF08O9tvM9+rgc7bEXQD5dtZ69XMdAPlapbq7Qi6gfLtrPVqZrqBcjVL9XYE/QNltLO1Cnp9PQAAAABJRU5ErkJggg==;" vertex="1" parent="1">
          <mxGeometry x="2869.0499999999997" y="823" width="82.5" height="30" as="geometry" />
        </mxCell>
        <mxCell id="JddVZA8G2uNzgZXX8My_-105" value="" style="shape=image;verticalLabelPosition=bottom;labelBackgroundColor=default;verticalAlign=top;aspect=fixed;imageAspect=0;image=data:image/png,iVBORw0KGgoAAAANSUhEUgAAAJYAAAA8CAYAAACEhkNqAAAAAXNSR0IArs4c6QAACVhJREFUeF7tXd2R2zgMJrVN2JuHcyrJppJkK9mkkiSVZFPJ+eXWbiLiDSXRoigABEhISjzyzM3NRBJ/gA/ABxLkWrP/dgksIAG7QJt7k7sEzKLAOhwOJ2OM/8//ztfr9ZyT+fCN4byba+uenwfZXq/XV+k815CxOrAOh8cXa92TMfYJmPDZGHd2rvlxvf73PX3uJ2xt868H4eXy9l4qsHt9/3A4PBnTfGgac3LOnQDZdnK11p7btv1KGWUvY/vNGHtaUsZqwPKTt7b5FnmonJ7PzrXPweKiCT9Za76/vb095xoIz3swmy/c92HAp//qOu/qnH01pv3F9bgVY5h82nuV5lPBvM7Ome/X69tX2HA7UIllLJ1XNbBiQESdD54pKOXhZIz7B/BkN3Adj8efwRKds8+QR8MmF38rFYDg/U5hxrQ/lgzTTEBF8jUG8WReth/DWFM9SWUskFP3ahWwBi/1M+7UOfMFspbRu8wssRNS7N6da99LlDeG325KgdOF/2MyGfoNj2/fhX9Av19CKQxAoZ6Ikm0AV2p8UhmvBiwAVJPQlhsIFb4ul7cqwPu+D4d3n611PjRPftww2/Oah5O17gUK7zkDys0/fj5wS2+gKZizYIL6SXQzM1z/jYaMqTkWKRD2VFIvcyORE5LPVXxOcRhwBwsWZVJ4W7R3zo2xN4COm068vv/3WuBShqslY3VgHY+PPnO7WVeJsjCvohVmMN5VaqnpnINQa0IKDlgZx0S8VsiwZ4//SGDNFeZeL5fLR451pu9Eywu3RzWKits/Hh8dMKbiZQwstJZ6Fgz4pUYKyf/x8fGbc+Zz+kzLeNU81hJASAVc6lEAzuK96uRXCgIqZJXwlTVANYwZ9FpaxqsGLMgCaoEQC1nLRWvyqyA8jAv1fIjPL5cYG6VgzQgjiUoi8p6GFw0gxILWctGY8mqMgCLD3PC1FFGXAEtDZxyAsYFVsmbFGUDsBSWWTwtTl1/1YQVf3ecAFqIR/RzKOapUvr13rU8MOP0KgDVfF9JAfwwsjoJyk8IUWMOvfJ/E6j4rIViLV6XySQ1Cy3hzehAAC7RYllCpQQRgaYC09yzwwig3XEFjxb0Nb70JA5XWnCn5xvJYo78wFjaw8NS1bpHQh9imaT61bbcHJ1q4hEEAh6wab0iEwaxh0aDkk/6ch8Cex2P/I4FFCRfbTS8VRs13iHfIAgBXzK2UZ/YKxwtiBrmWkpdIjjj6YXssKt0eOjo7Z78a89sX9FV7Hs7g53wCBkENv6rdzkEWav0Sha88WFxO2hyWqxcJsNAtAqCzs7XmtW3tL0n5C3fQhHdB9t3KlFgb/nEvv2wmGMunptK0Rh9sYGUyI2oMQ8HcGrVMevwKAZWoggPfX6zjpTUKX+tbEbAoIsoccFEZCLNtbEmAza98BtU07gO8vyYDA5ad+rmslfJz5bbEeyJg9ek8XOYhGdwSxJUAfReWofH19eP+1xX5gYV9pfyMqmqtyVAlct7yXTGwBnB5vgUVprHnog0uDcBHg+8SkRp+iIVB7XmzBb7yi0XACuAy5uHJ2vYTciInOxXNzAgjyl6R2ECGEy+gt/Keqqa+Hc8G19lSyQqf8UIN8S8G1jzzeHjC+Ak+B73sqGb9Cjth5EGZO04FzW3rRVEGZtBXem44cxZdAtZn+vTxstCwCrDSUfZI53kzDSKrsT+I1Z2XcCyKuP+p/Ao4bQXWyvtjcJwF8UWAlXozio9phEO8HEW2fkXsMxacGgLPObIz1BqvU/Jt8PiDl75tr2Gnh3JccXFg5ch+iUeYe0i99SuIG0nHiC2sLl0ikxh0d8qIk4AEfkqBBakeRncPVgEWtUwhVRpkjTX8Km0PyuZy1pm2sfX+oB9PMBBO/dX4Lr0pDnj0yaHYWA4osMJ9Af5l6gAq1+3iPKguS9LgV/Ec4GxOlmRQGark6gCubOcefCwdynHYBCwkf5J4LRRY2nVSvRWNx+iDMDgWRQlYs9xXq8pza2AFr8vxtNBYKd47P1EN70igwJIMjmtZUIjIWVSubc36dgykHAWl/AY6hLoGx4o9EMdoEWChycpch7A3p4DVncvT4EBB6AB/qc6SNPlVbYlMmKeW58sZVYZvsmQLjZVaEgFkBPYDAkuKeq4AUv7CsahMGETOzck2jEfgz0N1qXFpAp4r39jjSpZxPLiapnlpW3853vz6o7j/1GNh3hwE1vTkTJmSKEI58qu60lxNfhVnUunYSwxg7fODU1nIkg0ucAcZJdcrwMkXCKxpyNIZZGrBUt4CTV6ZX6GFjBLr3yIcJrsGrBAoAROVNWMcGQNWfO9B9UAhz6KxtaEZbjL1U+hC4LBRC96ZilegynYEciCYXlqn2zYVBin+PQMWJOASi01QznKfOQEmmRfoYUo9YclJ55j4QoZC3Xuldf/nlLbUrQnK+CwdyWbAIkpyb9cOSgCw1N0B2vyqxGNFskK9OlWAGF/lKJGpf3d+9eNynqrnVtPEJudsZsDCCtT6Xe3xTsucIIDdcv9JdViFhBqPJTdhbNyZSz9moTAGTG5JhgCtqIY+4m+Ti4RL55zTYdLf7XI4Tn8QsCJ+5V6Tst3h9A19uBRWUlkSENUHxaXDovtF/c3HuTQaynjG7HUeYiILZhlLpsKVBbC+DfsSFVaKjJ0LpIRyxCefWOP030+Ale4beR5A8YRQS+7XP7rGkPvdcxZNTRirxJQIicu7iCvFO4F6j+tr42Plcqw3yRSpku7ovvZepphca2TKlV2abcbXp+famAAr5gzpVc7ld46Pd7nnBgM9H0JzyadFV1lK7quXgCoG1yBLf9NezvPO5r0GoEKnUq8cD3YCrMCvMIGNRV/oX57oeNQa96GXIE3yzeC9/Y3J/jcBQFoMJ2l3CjBWOfftTndOOC8ZC2zQgayXUZgkFB5O3PvVw/pNL3T/BwJ+d657jWPjWsLjthMOFSz51ymm8uxHtpUsx8hFgypEE2jpZLVCP64S9/e2lcC4npf3VJ7/ivYKt53a3vtWEhgz1zyoQqK3A2srbf0l/UpA5acUwiW2Qb+Hwr9E8UsOM9kdoP6m5CyL3YG1pGb+4raJdUrWrETVDawW95fuQgL4UTXe9LAqlT0U8uR3t2/VAQsn+Tuw7hYy205sB9a28r/b3ndg3a1qt53YDqxt5X+3ve/AulvVbjuxHVjbyv9ue/8ftcfqpo8/AsEAAAAASUVORK5CYII=;" vertex="1" parent="1">
          <mxGeometry x="2742.7999999999997" y="823" width="75" height="30" as="geometry" />
        </mxCell>
        <mxCell id="JddVZA8G2uNzgZXX8My_-106" value="" style="shape=image;verticalLabelPosition=bottom;labelBackgroundColor=default;verticalAlign=top;aspect=fixed;imageAspect=0;image=data:image/png,iVBORw0KGgoAAAANSUhEUgAAAJYAAAA8CAYAAACEhkNqAAAAAXNSR0IArs4c6QAACLdJREFUeF7tXV1y2zgMJpVL2OnDuidpepI2J0lzkqQnqXuS9cvGvkTEHYqiTVEACZCgYrfKTKczkUSBHz78USCj1fqzItAAAd1gzHXIFQHVlFibzWanlLL/7M/hdDodcpiPzyjKvbmx/uTrHtvT6bTnznMJjMWJtdncP2ltHpTSD8CED0qZgzHdz9Ppv9f4up2w1t2/loTH49tnLmB/6v2bzeZBqe5L16mdMWYHYDvgqrU+9H3/nDJKh7F+UUrvWmIsRiw7ea27l8BD5fR8MKZ/9BYXTPhBa/X69vb2mBvAX3dkVj+o98OEj39rBu9qjN4r1f+metwKGSaPOq/SfSuY18EY9Xo6vT3DhjuQio0xd17VxAoJEbx89ExeKXc7pcw/gCc7k2u73f7ylmiMfoQ8Gja58FkuAIz7B4Up1f9sGaaJhArwVQrxZBbbr17WWE9cjBk4DbdWEWv0Ur/ClxqjfkDWcvEuM0scQArduzH9Z47yLuF3mJLP6fz/GCbje/3l83P+F+jzLZRCIBTqiVLYenLFxsfFeDFiAaSahLacIKnwdTy+VRHevnuz+fRda2ND8+SHGmZdXnO309o8QeE9Z0C5+YfXx9zSGmhM5iyZoPdEupkZrn1GAuPUHIsUCHsqrpc5J5GTJJ+q+JziMOKOFsyqpPCx0t45J6MzgCE3nXh9+/ta4qYMVwpjcWJtt/e2cjtbV4myMK8iFWawvKvUUuM5e1BrQgpOWF6OiXgtX2HPLl8lseYKM/vj8fiVYp3xPcHywvlSjaLC8bfbewPIVLyMgYXWUs+CEb/USCH87+/vX4xR3+NrUsYr5rFaECEGuNSjADmL9aqTn1ISpEJWSb6yBKlGmUGvJWW8YsSCLKCWCCHIUi5aMr/y4GG5kMuH6PllC9lSCpaMMJyoxEre4/AiQYQQaCkXjSmvxghSyTA1fLVK1DnEktAZhWBkYpWsWVEECL0gx/LTYMrmVy6s4Kv7FMJCaYSbQ3mOysXXedf6woDyXgax5utCEuwPiUVRUG5SmAJr8iv7zsTqPqkgWCqvivGJDULKeHN6YBALtFgSqCkhPLEkSOo8C7wwSg1XkKy4t6GtN2GkkppzCt8QjyXe52UhEwsvXesWCW2I7bruW98P3+BYC5cwCeCQVeMNE2Ewa1hpUtKT/pyHwK6Hsl8lsVLgYl/TS8GoeQ7xDlkC4Io5t/LMbqF4Qcwgl1Jyi+KIoh+yx0qV2+OLDsboZ6XebUNfteehCD/PJ2AS1ORXtZ9zkIVau0RhOw+a4ySdw1L1wiEW+okAeNlBa7Xve/2b0/5CFTrhXZDvbmVKrA3/uJdvWwmG+NR0mtbog0ysTGWUkmFsmFuil0kuv0JIxergwL8v1uWlNQpf6lkWsVKJKFHgojYQ4tjYkgA5v7IVVNeZL/D3NR4ZsOrUzmWpkp+KW4v7WMRy5Tzc5sERrkXimiD9EJYh+Vz/uP0ZmvzAxr7S/CzV1VpToXJw/sh72cQayWXzLagxjTwXaXJJED4QfihEavJDLAxKz5sM+MI3FhHLk0upuwet+2/IjpzsVCQrIyxRtorEBBl3vIDeynqqmv52vBpc5pNKFnzmDTYicNrFi4k1rzzuHrD8BJ+DXHVUs36F7TCypMxtp4Lm9tGLokzOJG+/RAKerkSIFUvmSlyaN5NIZCW+D2J95yU5Vipxv5X8ys0hjEZXQKzYm6XyMYlwiLej8NavEt8ZC3YNgfscyRWqpNfJjWWNqus6u2nE9trbPQhAIXNlxMol+yUeYe4h5davoNyIKyO2sNq6RSYy6GGXEaUAgQzTpgFTkl0hsVLLFFylQdZXk1/F40HVHLeS++jvg3ZO3kAo/Vc+dXFYvO99kj7FQohY/rwA+6rUBtScm/XX8TyorkqSyK/COcDVHA/UVIXKOTqAiu3cg19ah2py2CbEku6TclZ02UbvwaBYVApgyXZfqS7PjyaWJwTX06a9N8+40KpQSrhQWChE1FiUC7Fy+RVGUq6C8MVannJKPFZYgNQabROPdYnRvG9kKTCA/KW6SpLMr2pbZHJhf4nkPcBDANtwYzLPKECPJcn6VP5Sa1Hy+dU8VI8lePKgk9YFBdVzhZ5SYhlH3GNNd87IeCxojag+DMqeeyD5GWbp/YPT8MvzLhhxxYlVMyAu5NQbcPMWaFzh/AptZCyxfqlCgOKtoq8G1SHQv7OGB2AojCy3WlAomZX4tCGbX8G7e1woxFfwU+d54h2ovC8COXJND62TG1uUWEjIqurPnp9OU7d25apBuL+91BOW7HQOZYAMJXXuldT5n9O0pR7XKCcOThXihdeZx0q05J6PHcxZ0FS4OCHmCYi9S3L9yhGV77ECrFCvnmpADI9y5GB6MSx3nmjOq3LHbhIKsQY1e7grBwjsbFIJS0XGHvAoyYdGRYEbMbAxQ8LkPkslSMvqoQ+WMyYHCZfOOUc40VA4za/MPmrbHXffpDeXwt6kzFMF7RvhF3fW+aL25GPKZyl888M8xHDXizIdriSCuTH0U9BYyTL2HJHi62LEiixrcO+pPMH3kve9GnbiYOe75yw6NWFsCYADEjXvShwpPijeem3bUhIql+MtElj66QTntTtMMVxrMKViJ0asMGeIj3IuP3P8cpY7dUJAAlnyaNFRlpzz6jmkCsKYP7/dnrSX87yzeS9BKPEcyzMUA8yV1vZQe/QvT1iZFjkPvYRpnGdG7z00v8UEGFuWq86a8K0qhHbu85nulHDOmWPu3ig1YC07TapCTsO8X79xoNs/EPA+uO4lto3nAJG+7ncTt/zrFFM83Qw+GksxYkkrZB3vthFYiXXb+rta6VdiXa1qbluwlVi3rb+rlX4l1tWq5nYFw9qcxqIi+wdNm2xYvV04/07Ja04RwrpUVmL9nVyazDoiVtYbBQ/bv9IKcmgl1kqsJgisxGoC6zroSqyVA00QWInVBNZ10JVYKweaILASqwms66D/A+t+c6YIOd/yAAAAAElFTkSuQmCC;" vertex="1" parent="1">
          <mxGeometry x="2622.7999999999997" y="823" width="75" height="30" as="geometry" />
        </mxCell>
        <mxCell id="JddVZA8G2uNzgZXX8My_-107" value="" style="shape=image;verticalLabelPosition=bottom;labelBackgroundColor=default;verticalAlign=top;aspect=fixed;imageAspect=0;image=data:image/png,iVBORw0KGgoAAAANSUhEUgAAAMkAAAA8CAYAAADMmZ6vAAAAAXNSR0IArs4c6QAACulJREFUeF7tXVuW2zYMpZRNeKYfTVeSyUqSrCTpSpqspJOV1D+d8SZi9lCULIoCCIAA1ZyY89OT2uYDxAVwAT4G1/+6BLoEihIYuny6BLoEyhLoIOka8ktK4HQ6vZ0ntvzXXS6X55rJdpDUSK3/5qeTQATF+GEY3Efn3A0Y2UDP4d/eu6/OXb9dLpfp39SfCCRhIMMw/l0YBNVf/nk2SD9PYvzm3I9n7iQkncY5DH9JfmP93WEYzi8vL5+47c5y/4f7/agIw6fL5d+vkt9Iv3s6PX4eBveF+7thcF8l86baTYDBHkPS5nkY3PP1ev2T0jMhSGRCoSZJfR6EypkE1U76+ePj41/eT9bm//w7v76+/MEdgFQZQ7vWCpmPtQa4zjnRvDH5EOA4R08R/q7fQ5/OvXkaR//Oe//WueEpa3f6/uXy8ifWnxAkv30chuuH2Niwi/mQTs7ORQ+x/t1+m/5PzEUG9/ilNAmusoXvPTw8BouM9iVpS/FdkbJEkPh5cXlybw2Sh4eHvwGFy0Uyr7s/B+95vU4hThUvWBo+nYIO+l0kwNURzOCUfi8CCaQUp9PpaQ7BdgLy/vqecmXr5E9P4zh+8N4FZdgpcZiEJI7kKjBtlfhzCH0GecS+x3dYfGyhwAW5z1P3z6+vr++5cpB8L1G0AILdWlnMLx/PGibnnsA/e+8/cfVsXiOQNmBAsQBJ6HAXL3ORDQNvCut2BKwdUOAwUjOHFPzDMAbLd1Mmw3YDPwwM5Bmy6q+vL+r1hZU1rncAAxS6WveLcWEN78LCRahNtRBx9zVZ4GrXOlvKjXJN6mAYei0KgIUOsyesnsMKlC0ILeaQyj2ME/Lm3l//kFhYjjdZZBUN1gSUnDSLQkmqT8xjWqwNErqd8wioGUgsrEkBgKaL//Dw6IHFMl3slAtZLHAC7GmcENeyBkmisEufO7lZGIDMC8/ecl0hC/mtYVfIdO5DuDRUVYOktYLBi29H5PEsjW1Mbw+SBdhxnLCcbNPAy1oHJQ1ZIzjM1kUQCUCQMN6mfQKIG2+iAgke15kqMZgYsLKSNdkOKkSAPk9Tz1ovm8p9sdxQalsTs++5yBIyRlBiWSbt3BJiDfBcW9CX+1p1WAkSLB1ni/aW3qQ1H1mULVFidRiX85HA/SCQWGWZElDexo4YF/XcgrygNbGaC2TA4GhojSSUIIGzQhbWJJ0MXNuwCYdah4utQbLIGrLsVoqVkvWlXtXKcGHFXqvIAQYJWPO5AV4FEsQKm1iTdDKY4LRgtOAjoY1xHD9fr8P30jaQVVZ6cCfATiw7VK/S95XWRJZdAniYrYsgsEyWFdixMJmKJqpBcgQfAazwZp5a62LBRyAlKlkrbfYH4iNzbA1yN40h2fa1AgBTZk1fWJgV0/72qex0jXA9iBxIAxKMUKvqI5CCtUoFUxaEQ9DXjE85WbGEJ3qQrCFungqFQkeNgi1yz8fcgo9ga9zai4Q1xkO8uKYKkBzDR8qT0GU7ED7iuBYx5QFU7j58N2yy027YTJUpH6dlrSSviWw54j6G14C/tMVGA3KOkWsKkqP4SNkN14OksIuVzaks07rcBYX4yPJby1rJ6vm2PKMFH8Es+RFeJOoXvOl1AX6VJzmSjxCxanVop+UjWTaJDSwuGOCwczrPM9UPIMttVStZZbMn/i34CK6k9UZQImeq/1qQHMZHZqRD20YCoasGiYaP5OlWTaghWUwqvLOolWRkfbf9x5qPYEXJIwh74oEx/ZrmXwmS4/hI6XCPJl7F+Ehw8UF412s4rOPcOG5276Lb+K3Ou5RAU+IjMcMFFXdlaWCoJtKSjxTOpRzkneGCeArSKpAcyUdKp/K4BDtXvMpTdaj+1o5D4kWy2BlUIDgU4oOkRNYjCNdwLx27xpOWjJXlUV9M1qWTqsu6ikHSQlBc65l9r9rS1ByHLYyxehwSkGD1kbQNDV/AaiJW7cMcq2jFq0NpiVzxk6qKbSn4/n67TY1b9w5uY1edKymR9vlcNCDnN2+d87/nh8E0VlSymKncS1ystlayyKSUUbLmIxwrLpFRzXc5nqzCk/w0fKTa0mj2a+Wn5I4DySr3UniH1EqKsoI2MEIKB4XZmvnjIOGHiDXAWH5DJA1uMhOD5NflI/yFSWVwHB+5FfCK4V1NrYQi6w35CHgpx1H1ES5IK0CyD3801qRkCfA0bX1op62PRALNU9jUYjn341x7nJnDR5a+pLUS7t4zDd/B1hjjA0eBBAu18nM4IpAcSdpbpX4tzuRz92vNFvhWU6pNWXP5SOhPUiuhaiJb0g6G2aqkBa6k9UaQG36VQq08OhCC5Eg+0uYGEw0fycMOjgeVeh04C8TjI3F8/FrJAijhPG5D5PwOU9qyEWxfaceiFMiLiUByJB/BtwrUb5s2Oj9y8wwUH5GEScywk7Tc3FoJVRPJUr8Nro2Cay6hX81OCo4nkVb5hSA5ho+0OnxjwUeWECpchEBd12NxZFcKNC53wDYwwp4MvoCwNnwsJQKOAInEi4TxsEFyJB9BvAhpRSkrYsFHqD5Wsl7ejChoJ+U0rLQ3VSspbWCkwr3kc/V6cIkzV1ac7+Hb8vHspgAkx/CRloqsPT/CWYQVJJvDUdX3hFH7taAxlWolqbGjwsWl7VYXM7TIXlJrVAjjUQPEBskRfKSlt7I4P0ItAORFtDep1xD/Uq2EUxNpzUcgQ7KVLb9mxV2TGOJhyaDybnIWSDAFs8xnt+7Dio9wFmV7EV19pkbKR5axYbWSeVtNuJaUHSq1vWYUI+/2INHwXC5IkPMjNvnsqAz76yZtQVhnRTig2FreTT9sZaQIsyTdCleS10u1Jdkj6/1a+TyxCMX7a7gpXn0PczlJwAMjEySoglXH2kloEgC4uxjbEiChryP4SG6tJIpNEWYuf4hKUdpdKzNssBLzlItjYDQWntk+aIDDTfzcpylYIGnFR7QPsnCEVLYk/LCD6gtabIliEwRc5JFKb8bIXtiyPz8CzxO+HE7rTawiFBIkLbjCDI7PwAMw4aJiMzdLEUStpZ8B+DQMw+f8ZnKtJ8wMkwlIpHcDt+QjnOSARoaWSSASJNSdRJSFXRU1XqmDvWQlcX/cPlcvAl2vX1/ZDSAPbcen8XZv8E3Dk8T9W4VZntzbtit9wGgfXvLDC4bc1GF2voaFEFFkIDRZLEyvbiBZ7oWaH19Mn/gqvS+IPPEb3kjkv+1n8ZbeEosnQFzmTL2PeHvXrww+3nzmNtgLG6315InCOKmxhuanNyipF3zzNHCpOr6u/fQUn0Bu61uY3o/ftK/9loDCeVoQe/gpyEwTodxAUjiQLzHc7O/OL+uqH5pcPRW+F4g9KKMvSsI4hdyJcyVrnE+NB0tqSMRB9cFtK4RJ4W5l4Jm5yZjFZ6WH7+HoQWzzdmIUeKZa/p4iNM4EJG1fpY2gCFaQ/8g8V7BZeMB9FVjSvOC7srAGKPwh3nkaAvvdxTl1+zEoFXWhwjwGwRz33kazjwvquOAVyHFKQ1OqQZKTUA30z7sEWkkgeBXiDfZb+On9MNdU7I1wB0mrFe7tNpFABE70qFbFRmqgHSSUhPrndy+BDpK7V4EuAEoCHSSUhPrndy+BDpK7V4EuAEoCHSSUhPrndy+BDpK7V4EuAEoCHSSUhPrndy+BDpK7V4EuAEoCHSSUhPrndy+BDpK7V4EuAEoCHSSUhPrndy+BDpK7V4EuAEoCHSSUhPrndy+B/wCb2EXTXPj+ugAAAABJRU5ErkJggg==;" vertex="1" parent="1">
          <mxGeometry x="2610" y="793" width="100.6" height="30" as="geometry" />
        </mxCell>
        <mxCell id="JddVZA8G2uNzgZXX8My_-108" value="" style="shape=image;verticalLabelPosition=bottom;labelBackgroundColor=default;verticalAlign=top;aspect=fixed;imageAspect=0;image=data:image/png,iVBORw0KGgoAAAANSUhEUgAAAO0AAAA8CAYAAACKLz0FAAAAAXNSR0IArs4c6QAADJtJREFUeF7tXX9yG7cO5iqXkP3+qHuSuCdJc5I0J0l6kjonqfvHs3WJim+4u9SCIEACJLV+iuGZznSiFcn9iA+/SECTsz9DwBC4KQSmm1qtLdYQMATcVUl7PB4fnHPhv/D3fDqdnmuYr99xkmdrY9nnhsDPiMBw0h6P918OB/fgvfudAOzZOf/s/eHP0+m/3/HngbDTdPg7EPz19eXXnxFweydDoBeBYaQ9Ho+P03T4BixrbW3P3p8/n06np/jg3d3dX85Nj9Pkvr+8vHyuDWCfGwLvEYFu0i7WcfoWyAYAXC3q9OTc+YdzHx6c878QFvhC3EjYMIb302fKEr/HDbJ3NgQwAl2kXa3rX3DQmpVcYtbDp2lyf8RYN7jMkPTen3+1mNaE1RCgEWgmLUHYzN0tgR5iX0Dc5NHX15fmdb23jQ774NzhY/BoYKjx3nB4T+/bRA7Kwnp//k0rNNAljqDXLPV72pzau+J98N79cTq9fK19zz6/bQSaSIvJ1kLYANvx+J/fp8mH5NXlzwRPLlB3d/ch0x6P1EI24On19fU3+Qj25C0ioCbt/f39t/Q4p11QwBEPIK3eYt8i8L1rprEzS9uL6y18X03au7t7n1rGvqQRttoWz8rEhsoJmJciw+7Wn1KRNreyzvWSDJLW4lm5OFH5gN69kM9uT74lAirSYis7gmTQYowY7y3B3HNuvBd2i2xP9N92LjFp6YxxfwwFSdua0HpbCPefnYpnTeHtvw9vNaOCtHmmd0S2Errc5t7JxMDiWRlOP+tTCtKSlyG6L/ZH0pqlkIsYFc/aLTI5frf+ZC9pXW/GMrjdh8Ph0/l8/lN7OePWwW9dv8Wzrcj9HN/rJm1IgHjvvv8/3cTZ6njD9b7pn2Wr/g31vJeKIsn2xXvSYIwnyZ3ofH793Nz69j6fjfXNzn14DEUfCxb/hrpoUX00fI8UTzkm18SzJAfLvPC92+SoPkd4Qo6vgrRz6V1SHIAW8+z99LWFHBIC1Z4hChGor8xrlFQQUbe1agpqiTX9I6p4iuuYlZtzs0dRbQawhg2wcgq+D7gFdfnnbMweZSootXyeJvd0Pp+/St6HculLeAr28yrGQjBvALx77jUvEWrOqb2c5+Dw1ZA2FqjX+AMmnH5ICCIZsGx5stLAC1FwBZEEcJQpD2RIgMXx92r9gkKDz83liQSBQ2FFuKfNEpfK1Ldg1BK6FIRpfZ+wkrQMs/Y+iLAZnnidnMLk8BzRMKFCVnYvtXMXCmXE+IpJG7aKulwhEKZZODVWRjDm/Ai1niAAuOKFKgfEBfhxTkiYeARFu6RLzS8SsMySh+8eDocvqJNHMYG3jvmFwUFkZRfMy8oBu65UXfS6b0kFEYUnJ7zUkV6pQgzuKbeXq8d3waFFOaF3p7xI0jPC+ylNoHJ15xQvCJlJ5EVFWkp4pQRbn+t2K8I4PABpJwy8tlQg6DvOXPeM3L3za3y8WJ1S4f6oO9bXimdpy16+U473gMtex6QZxIc7Z/beP6xWvFjmSVir5lMMbdEK8Xx17ta687X10uy5QqWoIu1GmLmPU/OfVDtRE7QIGG1F84shlJWN32VisvljyaWQ/M62/mLKNc5ne8asXYyBAo7P4IkM+CWkqbmco0pDaU+NL1jhwpbS/tP4yjqzpN1ctnWpSQuIi2M4FYlbiMuAVtV0G2m3CyKUS1U6M87L4JZRJYQNz+VCqq+OogWgvWCDjq/k60KeS9ZtJGKWx6yXBn6ZzEgu2Iy4ndeirAoyQHZaoebQyD0i7WWOJtJG4oY09TSdPzHZ0iqJpQK/WTtcPyonTRgjFbJc221CRn6WVDeF8XQbkFZHab4L3h+vQayw8Gb0KkCsiDDZoJXFrjOTaBIrQNqllVmvVXaJGLaurGjvgP7eNfFtJi0UgniedTj4j0zrVI7AYqGjXBmN4GMQBwiZeO2UkGnWzoUl2jHgJlBWQ9NQL92PXHBL11N791Lr1mLho8gnMSDMTTSyY8tIfPE+DyEtocXnQ2mJFZaARbuXciuLSUMJZyn+ooVEo9mpDh3y7y+kza+RtmZNOUsncU2XvVha3cZ9p5JQ2lBDOjf2mEproCxFj8IAWd3H0mnItfG9CmmxFcYpevi5hLTcUVNpo8GxRHKAzQl69Baoc2Vaa8pjyV7S86Rt6/JBvU/Jam+3opIumsWYfmk458IvRWS30HpLPKn1S0jPJ5J0CrQW9zXiG7qUfkTNDsks+tVJC1w7MnElsRZMAmC+MZIqgPnIAP4UCfxY1S0SuZIolqzHPzVXVCJk5TW0/QoDZwVCxdY0TZcLH8vxyxy5l/AsXhKhhLs3VOj5fovyrxE09zKparjwFIsvc+uNl7FdSLsSl7wGWYvLOs+G4wF5c3vRHiFZ3jvfxNo7U+EGOLNbP9YpjjgmT1qReKquYkrdU00s3XeEkiYDZ5U0+NcsGi8gRahE+LKk3frpBhenvy0nR77ahnFCFsCOb3o+O3AlcLnQri0O4ES2R0jCmNdzjfXnvNx6ovDugWeraxvX1hqq8Bnr67vG8R7xKHxZ0m7C1qbRKRLQ2bcyaHu4NCUb01u72ipkcE3M+ay6z3QYUxtvieyv4qHe8+rWeJi78zu6DnkPfFnSxslHug9Mqr74EyA92T6FLLGPUscDmni0VcjggnrXUBur5u2MwHFEqNBzPruX8qePk8Za8xJp5+SLJFEk3dQW1+gtf4WgNx7tEbItBiVvD4nPiPHe7CFUnDz0hgo9Xs8ecsSHgG1Zfg5HkrTpbZZxWqLF6tAb1RbPSZXLRhjqbFSOh9Q1jkcqVLme9kI7JHv4fzwmc7Fglx88k+LB7ZPUtQ545u+dni3HOH7kT6oWSDsUX5K0uDxqUCIqyx5L4oneRJCWqPD5Fne+5IpyocZWCZOf/WrjWSg41Bl4j7XqwXKNp7OroNJQQ+q1gOcSb6Qln9Lyvi3epHYekrTpxGMSURg0aaw8qqIjTezkmphOnOVHBFcUMrLxu1YIAMlJF/oaTc4py4bx7A01pMqGK63cS/kT62wOZVTuMXJDuidliCdyGUoF6FoNtSRDlrY5NaXx1kK2rpXqFsLuR2pl6RBifKXQfA79pdbGp5c0UtcYeC1Jdp2WQXmokyuhy4+pP8BSQuo9pYqekufYSQTim1la2g3pC6SxtdBkK6mC99bkGG4jU6rblLpj0viLUhKofjdTYtri6ZqV5RSB5CppQaDmHwevKcGeUEMa10PC5AUheUKvQ44eYJcPGOaNangQMOXC1Iy0TGq82tdInjHUu9tUe5JaoTShGWFMXb3S2CdkeRM8Sqg3V4ot78osbeHu9OX9aiTE71YjHLW3tSof/J2etq/SuH6zsmIvQ+1FEh07svPya+ObkZYr9F0aovX3HNKSLW5+XlkiyyATlrpK2DVpgn77Vf5jYxKXvtb1YXvvtIaYIm1qseu4EOsT723epbGuhLUeQ0Xhzh/jJCaQj0r4kDYB1FhbrDw45diHLz6xyPGlSAsyfKEPUnJhPLZ1LDYWH1EATMcQcwvX2NCL7TcVK3xWt2123yQuHJyz5Xgq/T4uX9vIlBJWeyMs3cRUkOoEimukeh1xSllbMSVJQulDpLTFUdp0byNizcugm8rxfbuZd68qOaqPlRJftt1vQlq0kbPGWrUGVaEzt3wMlSHx7i/X87fF/aJjqDkuIVuVhnWAyhRcOSGyrgWBLjZuY9aKj7hmhQebBEhwofFfKka8d+E9ZyWmsRjbe9J4xuqptdEaUeXjn7z3nyX9jnFsFufWJmcoEmA8a4SVvveC56XJHNxeVWNCznjV8K3tZUJa1PPn4qsDbXOxWlwMi/5dRRbJmJq1rC04Rc3B4dw52HILlo5D/v5ReESFS+6SpkhJhZVXhGzf6GaBTXFIK51qQsmt07m8nnd9tmr5cusffj2AHS95PCjX87mthzeVSGXkXKwQEtJuPZLobPFGGLaL/iqQcyf95nI4OXnDkx8eQ5ubrdLn/CP8a2+VT/A64rg9l0tgK55ljdM/rQ3cY2H58ttHfWPRQhys9ocHAk/1T4AgJQh+XqOvaizHs0/OtgL/68gRtO6LV9SPL3KPg/bJr77xmm/+ZF7I+vsu3WSRENaeMQTeMwK7FcG/Z5Dt3Q2BkQgYaUeiaWMZAjsgYKTdAWSbwhAYiYCRdiSaNpYhsAMCRtodQLYpDIGRCBhpR6JpYxkCOyBgpN0BZJvCEBiJgJF2JJo2liGwAwJG2h1AtikMgZEIGGlHomljGQI7IGCk3QFkm8IQGImAkXYkmjaWIbADAkbaHUC2KQyBkQj8D3RlfPEtqG8/AAAAAElFTkSuQmCC;" vertex="1" parent="1">
          <mxGeometry x="2750" y="603" width="237" height="60" as="geometry" />
        </mxCell>
        <mxCell id="JddVZA8G2uNzgZXX8My_-109" value="" style="shape=image;verticalLabelPosition=bottom;labelBackgroundColor=default;verticalAlign=top;aspect=fixed;imageAspect=0;image=data:image/png,iVBORw0KGgoAAAANSUhEUgAAAIEAAAA8CAYAAABB9Nn7AAAAAXNSR0IArs4c6QAABtFJREFUeF7tnG163CYQx0G+hHb7oZuTxDmJ45OkPknsk8Q+SbcfuqtLVPQZIXYRYhDDe2v5S/LYAoaZH39GCOBs//n0HuCf3gO7A9gOgQWCvu9PjLHTMAzvVEZiylLbSvX8p4eg7/tHxrqvXcdOQogTY/zRcO6ZMXHmnJ/HcXwZhuHscv7hcPgFdVyvl/+Mb1FDj8fjz1Skxdbj43xKG3K0dk+csz8o5RhjZyHY6zBcXmzlFACcs9fL5fKM1d33v33vOvGV2HaWx8eRna0QAABCsO9ZWg2oVAj+PAx/vwYUXRTxDP6Zc/YOzoHCoBDwr+GPsxDjsz5dKADg2S0IDoejiO1LwvJ2CBozkgkxftmS4S2n9P3xBzbyhQBFGD9cOYAFoBsIOgASGBxaUAHORTMqC8CulMBh5CSF0tnjB+Z0zrtftr/Njn6z/G0aaTAvcy4eLXNyFAQQPM75T3u9U/DfKIDJ+ro/535M+YJZtwtaExjlDwiGVB/ct13XPdkUWpYdwbe2fOXE2MMJph+s7AoCy1Swkj7XXGejfEse9fpsIzY0yYKkzw6leL9er9+21IPaT/W8y15TZWFwYDmG2T42Tfsq5QwwDNJ54EnVWkGwNJLmLExFqHP6crTQbFCOw+Sf4nQcAlxdXMCb/hFi/EZ5DT0cjqBAtwD6QGf2wVCyNQSGkefr9fKFMlpiSbUFkKIiqjwmuVSnu/oeArxuF3VgYKoW5p87TKAiCyXQgxjiMCyhpMq53mGqs0oAAHCYI0oB484Hbm8F5AEWAh0Gse4jiM0CgnsQ6RKcklS9wxQIck4BNofagMOAX/aJNg1A26lUFurS7J5gvEEQ6vi7hNtffShBtNVFSHqyJIGuKcGEwCXN5uijTLMycPH5wH26lHUpe28Q6KRR5Ts1qfqI9rEFk2Z4ZaLmNZTgmMrjAl6pbMigmCFYLTCF5AN6XSpJvkGgSIuoODpzVQHQgPQKYqk8YJ1pLxegMNUypgLywlfKfGAJgVzUmiCIN9L+Ph4LlE95bK70KUsZ9bZnzeBgqqVsDLUpZT6wTLrlSuwMgSKanhCaEOnOipC+SVW23ukd00DUKqMvHDoE7nxAvhXE+sO0y2eqXKvXPXdT5TUlGJ+EEPCplPwNPSWp9/xCwKddpz01VWCtoPbvBWrZGj5Fu74suhPQ9QenUFWR4EKs+btaqUzyzTtl5uo7CrFkSY44+isYpV1L7pJNeVLnA7Z+RkOQcn2AEgjXh66cbwS6jSV2EaVW2UwQpFsfoECAqU/ovEtpu+SzJVQ2WglKkOpKbsy/+S4ulQxkTFu2pfjQfACzIxqCEqSaxrt2PoVkzDFBylm2RD4A9kdBUCsfwMBLPUJyBtin7lIqGwlBtXzAukdvzwd80Fo/EwVBKVLNjFzb3rXo0Z4PVICgRj7g2qi55wN1IEj2ZcvX/JzrA1D30o5/nAdNls8+nFJsi7ctROnt5FC74OmgVObq+2YQmxSm2Aoea4Pe15IqGwxBjXwAnJTre0GKAzeJISimssEQlCR1mRjaD5HEBkAuAT8Y5xDF7/KMInYaS7zDhxhpH/8r1XRQWmVjIChG6hIC+2tpLASunARfoo4/GWVrt7TKBkFQmlTjFbHCXsJ0n3J9EuDSKhsEQWlSPdcJvLai+QShAeUpqrJBEJQm1QwctqcwxzoBDnyak9Jm33CV9T+uRgU9FIKipPo7Kv1mktLAO1SWdGSNAgIZgpr5gOoYvrcwbI/kRlJYFPjS0E3vNRRiXO/pOVayXLbhMKZTgxrSXGL/gOlXMgQ1SLXBYDtmPT+XJEHc2MmcRZox6HK+/pKVoNb+AUwRXCeP5s2mhLX/ZStY8glP5UhA3SqbJwlVPfZWAteNH4zBylnYdnXqdOSbJG5dMrUB1uIiB/3ZHKNSbVjFb3kpCIHMTOEatxsj6v+rixEQJ2ojD65xkT9CdG+pllSRqQFZQJKXSI0j/9hq33ap1XwNzMscHHWBlffNIrqtUkX5j6X9PNC/d99KZQq/dWUxHaT4ioaNrhyjZ60I011C6AgGZYBbyaCcuplscgB6T9J99BlHt4LyAdf0EquGsUm5djR9dZ4weD41r1SJNdLXSdpohn0Bvuq1qB47+qZO7oSOOgOCZL5NMcC8cwLfQLTwnPoiiN3YZdh4u7fQ9wKpFvqY0ob/JQS2qWL+na4OZ8rVdSmd3lpdnwKC1pzemj07BK1FpII9OwQVnN5akzsErUWkgj07BBWc3lqTOwStRaSCPTsEFZzeWpM7BK1FpII9OwQVnN5akzsErUWkgj07BBWc3lqTOwStRaSCPTsEFZzeWpP/AhLpthTPb+PbAAAAAElFTkSuQmCC;" vertex="1" parent="1">
          <mxGeometry x="3251" y="603" width="129" height="60" as="geometry" />
        </mxCell>
        <mxCell id="JddVZA8G2uNzgZXX8My_-110" value="" style="shape=image;verticalLabelPosition=bottom;labelBackgroundColor=default;verticalAlign=top;aspect=fixed;imageAspect=0;image=data:image/png,iVBORw0KGgoAAAANSUhEUgAAAO0AAAA8CAYAAACKLz0FAAAAAXNSR0IArs4c6QAADJtJREFUeF7tXX9yG7cO5iqXkP3+qHuSuCdJc5I0J0l6kjonqfvHs3WJim+4u9SCIEACJLV+iuGZznSiFcn9iA+/SECTsz9DwBC4KQSmm1qtLdYQMATcVUl7PB4fnHPhv/D3fDqdnmuYr99xkmdrY9nnhsDPiMBw0h6P918OB/fgvfudAOzZOf/s/eHP0+m/3/HngbDTdPg7EPz19eXXnxFweydDoBeBYaQ9Ho+P03T4BixrbW3P3p8/n06np/jg3d3dX85Nj9Pkvr+8vHyuDWCfGwLvEYFu0i7WcfoWyAYAXC3q9OTc+YdzHx6c878QFvhC3EjYMIb302fKEr/HDbJ3NgQwAl2kXa3rX3DQmpVcYtbDp2lyf8RYN7jMkPTen3+1mNaE1RCgEWgmLUHYzN0tgR5iX0Dc5NHX15fmdb23jQ774NzhY/BoYKjx3nB4T+/bRA7Kwnp//k0rNNAljqDXLPV72pzau+J98N79cTq9fK19zz6/bQSaSIvJ1kLYANvx+J/fp8mH5NXlzwRPLlB3d/ch0x6P1EI24On19fU3+Qj25C0ioCbt/f39t/Q4p11QwBEPIK3eYt8i8L1rprEzS9uL6y18X03au7t7n1rGvqQRttoWz8rEhsoJmJciw+7Wn1KRNreyzvWSDJLW4lm5OFH5gN69kM9uT74lAirSYis7gmTQYowY7y3B3HNuvBd2i2xP9N92LjFp6YxxfwwFSdua0HpbCPefnYpnTeHtvw9vNaOCtHmmd0S2Errc5t7JxMDiWRlOP+tTCtKSlyG6L/ZH0pqlkIsYFc/aLTI5frf+ZC9pXW/GMrjdh8Ph0/l8/lN7OePWwW9dv8Wzrcj9HN/rJm1IgHjvvv8/3cTZ6njD9b7pn2Wr/g31vJeKIsn2xXvSYIwnyZ3ofH793Nz69j6fjfXNzn14DEUfCxb/hrpoUX00fI8UTzkm18SzJAfLvPC92+SoPkd4Qo6vgrRz6V1SHIAW8+z99LWFHBIC1Z4hChGor8xrlFQQUbe1agpqiTX9I6p4iuuYlZtzs0dRbQawhg2wcgq+D7gFdfnnbMweZSootXyeJvd0Pp+/St6HculLeAr28yrGQjBvALx77jUvEWrOqb2c5+Dw1ZA2FqjX+AMmnH5ICCIZsGx5stLAC1FwBZEEcJQpD2RIgMXx92r9gkKDz83liQSBQ2FFuKfNEpfK1Ldg1BK6FIRpfZ+wkrQMs/Y+iLAZnnidnMLk8BzRMKFCVnYvtXMXCmXE+IpJG7aKulwhEKZZODVWRjDm/Ai1niAAuOKFKgfEBfhxTkiYeARFu6RLzS8SsMySh+8eDocvqJNHMYG3jvmFwUFkZRfMy8oBu65UXfS6b0kFEYUnJ7zUkV6pQgzuKbeXq8d3waFFOaF3p7xI0jPC+ylNoHJ15xQvCJlJ5EVFWkp4pQRbn+t2K8I4PABpJwy8tlQg6DvOXPeM3L3za3y8WJ1S4f6oO9bXimdpy16+U473gMtex6QZxIc7Z/beP6xWvFjmSVir5lMMbdEK8Xx17ta687X10uy5QqWoIu1GmLmPU/OfVDtRE7QIGG1F84shlJWN32VisvljyaWQ/M62/mLKNc5ne8asXYyBAo7P4IkM+CWkqbmco0pDaU+NL1jhwpbS/tP4yjqzpN1ctnWpSQuIi2M4FYlbiMuAVtV0G2m3CyKUS1U6M87L4JZRJYQNz+VCqq+OogWgvWCDjq/k60KeS9ZtJGKWx6yXBn6ZzEgu2Iy4ndeirAoyQHZaoebQyD0i7WWOJtJG4oY09TSdPzHZ0iqJpQK/WTtcPyonTRgjFbJc221CRn6WVDeF8XQbkFZHab4L3h+vQayw8Gb0KkCsiDDZoJXFrjOTaBIrQNqllVmvVXaJGLaurGjvgP7eNfFtJi0UgniedTj4j0zrVI7AYqGjXBmN4GMQBwiZeO2UkGnWzoUl2jHgJlBWQ9NQL92PXHBL11N791Lr1mLho8gnMSDMTTSyY8tIfPE+DyEtocXnQ2mJFZaARbuXciuLSUMJZyn+ooVEo9mpDh3y7y+kza+RtmZNOUsncU2XvVha3cZ9p5JQ2lBDOjf2mEproCxFj8IAWd3H0mnItfG9CmmxFcYpevi5hLTcUVNpo8GxRHKAzQl69Baoc2Vaa8pjyV7S86Rt6/JBvU/Jam+3opIumsWYfmk458IvRWS30HpLPKn1S0jPJ5J0CrQW9zXiG7qUfkTNDsks+tVJC1w7MnElsRZMAmC+MZIqgPnIAP4UCfxY1S0SuZIolqzHPzVXVCJk5TW0/QoDZwVCxdY0TZcLH8vxyxy5l/AsXhKhhLs3VOj5fovyrxE09zKparjwFIsvc+uNl7FdSLsSl7wGWYvLOs+G4wF5c3vRHiFZ3jvfxNo7U+EGOLNbP9YpjjgmT1qReKquYkrdU00s3XeEkiYDZ5U0+NcsGi8gRahE+LKk3frpBhenvy0nR77ahnFCFsCOb3o+O3AlcLnQri0O4ES2R0jCmNdzjfXnvNx6ovDugWeraxvX1hqq8Bnr67vG8R7xKHxZ0m7C1qbRKRLQ2bcyaHu4NCUb01u72ipkcE3M+ay6z3QYUxtvieyv4qHe8+rWeJi78zu6DnkPfFnSxslHug9Mqr74EyA92T6FLLGPUscDmni0VcjggnrXUBur5u2MwHFEqNBzPruX8qePk8Za8xJp5+SLJFEk3dQW1+gtf4WgNx7tEbItBiVvD4nPiPHe7CFUnDz0hgo9Xs8ecsSHgG1Zfg5HkrTpbZZxWqLF6tAb1RbPSZXLRhjqbFSOh9Q1jkcqVLme9kI7JHv4fzwmc7Fglx88k+LB7ZPUtQ545u+dni3HOH7kT6oWSDsUX5K0uDxqUCIqyx5L4oneRJCWqPD5Fne+5IpyocZWCZOf/WrjWSg41Bl4j7XqwXKNp7OroNJQQ+q1gOcSb6Qln9Lyvi3epHYekrTpxGMSURg0aaw8qqIjTezkmphOnOVHBFcUMrLxu1YIAMlJF/oaTc4py4bx7A01pMqGK63cS/kT62wOZVTuMXJDuidliCdyGUoF6FoNtSRDlrY5NaXx1kK2rpXqFsLuR2pl6RBifKXQfA79pdbGp5c0UtcYeC1Jdp2WQXmokyuhy4+pP8BSQuo9pYqekufYSQTim1la2g3pC6SxtdBkK6mC99bkGG4jU6rblLpj0viLUhKofjdTYtri6ZqV5RSB5CppQaDmHwevKcGeUEMa10PC5AUheUKvQ44eYJcPGOaNangQMOXC1Iy0TGq82tdInjHUu9tUe5JaoTShGWFMXb3S2CdkeRM8Sqg3V4ot78osbeHu9OX9aiTE71YjHLW3tSof/J2etq/SuH6zsmIvQ+1FEh07svPya+ObkZYr9F0aovX3HNKSLW5+XlkiyyATlrpK2DVpgn77Vf5jYxKXvtb1YXvvtIaYIm1qseu4EOsT723epbGuhLUeQ0Xhzh/jJCaQj0r4kDYB1FhbrDw45diHLz6xyPGlSAsyfKEPUnJhPLZ1LDYWH1EATMcQcwvX2NCL7TcVK3xWt2123yQuHJyz5Xgq/T4uX9vIlBJWeyMs3cRUkOoEimukeh1xSllbMSVJQulDpLTFUdp0byNizcugm8rxfbuZd68qOaqPlRJftt1vQlq0kbPGWrUGVaEzt3wMlSHx7i/X87fF/aJjqDkuIVuVhnWAyhRcOSGyrgWBLjZuY9aKj7hmhQebBEhwofFfKka8d+E9ZyWmsRjbe9J4xuqptdEaUeXjn7z3nyX9jnFsFufWJmcoEmA8a4SVvveC56XJHNxeVWNCznjV8K3tZUJa1PPn4qsDbXOxWlwMi/5dRRbJmJq1rC04Rc3B4dw52HILlo5D/v5ReESFS+6SpkhJhZVXhGzf6GaBTXFIK51qQsmt07m8nnd9tmr5cusffj2AHS95PCjX87mthzeVSGXkXKwQEtJuPZLobPFGGLaL/iqQcyf95nI4OXnDkx8eQ5ubrdLn/CP8a2+VT/A64rg9l0tgK55ljdM/rQ3cY2H58ttHfWPRQhys9ocHAk/1T4AgJQh+XqOvaizHs0/OtgL/68gRtO6LV9SPL3KPg/bJr77xmm/+ZF7I+vsu3WSRENaeMQTeMwK7FcG/Z5Dt3Q2BkQgYaUeiaWMZAjsgYKTdAWSbwhAYiYCRdiSaNpYhsAMCRtodQLYpDIGRCBhpR6JpYxkCOyBgpN0BZJvCEBiJgJF2JJo2liGwAwJG2h1AtikMgZEIGGlHomljGQI7IGCk3QFkm8IQGImAkXYkmjaWIbADAkbaHUC2KQyBkQj8D3RlfPEtqG8/AAAAAElFTkSuQmCC;" vertex="1" parent="1">
          <mxGeometry x="3070" y="513" width="237" height="60" as="geometry" />
        </mxCell>
        <mxCell id="JddVZA8G2uNzgZXX8My_-111" value="" style="shape=image;verticalLabelPosition=bottom;labelBackgroundColor=default;verticalAlign=top;aspect=fixed;imageAspect=0;image=data:image/png,iVBORw0KGgoAAAANSUhEUgAAAH4AAAA8CAYAAACgsw7vAAAAAXNSR0IArs4c6QAACBxJREFUeF7tXEt62zgMJpVL2J7FpCdJepI2J2lzkqQniXuS8Swm9iUqzkdKtCgKIAA+HH2tssnCFAjix5MEqdX290dKQP+Rq94WrZoBv9vt7kf5+v+ny+VyomRuv+OMo+j8zr+PsrVyOkrX6XGpCvxAtPuitXlUSj8CTJ20Vse+1z8vl/9e4993u92j1t2bMer75fL+LF3U7zjeykSp7sGuDZHrSSlz0lqf+r5/ThmNxUdr/aKUvq8G/G53+Ka1+s4VvtbqNWTUg26/N0Y/QYqB0d7v92+IonHYQbyQFyaspBzCJWNGeX5VSnmPySF3Mka9QkYTgP5oZV8MfEgw4MxpoTH6qFT/U6m7+64zD8aY+wig0/n8/mmg0f3jvzem/8R19/G3HOlkjBk9Vf8jx71y55s8ZtKAAtkq1XWDYhijrJL4v5Mx/Wcvwxgja1hFwO92f33V2ryEC6Pc9AjUW6DJ1uJmWn0+v7P5mhbludCWFmUlo5WbwNrdd/Yv+W3sqbigUuMIj4lasqcLKI0F/8kqauwRrWGxBbyMxwvQrxPRi7zGmkUeYAX7/v7+RNFI/Y54IfcJx5sMQrx7VMr8jYSvmUW149VavvMyZFIcKkDgPZ13iMOgNaws4MN4PE7oXLZEAJiLlsZ3bM79/mBDx8x6c5QK8FBXdypd89J4XIgLvd84xByNMdZa2YCHtCFPfPWHo2GJgYcAG+OJuLSAkjKORXIUbL8/mHgcFYYwupggS5QUMJ7RI5VXNAlltbmAq5jEwC/jRT6j0OIl8V0OlEt4xAqaSCDFns7yjMXzEkVaehO4yvJziICvDVQs0BxXDIF/OBxeoizXDStRKqxklHq7W4A+KNe8UvJy8h5VBHy8+BpAhS65lsbXiu+hUkE0h2SR7/FaunfIAJbKao7n8/mzHSsEfh436wA/bb6sMb57gUI5gwR4PFxMYHByF8mYlKGygYdrdtkOG6yVU/Zd4oqncma5tzAAlM8rZqkSuolQwd6skoAO5RKhDATAQ8lCubZ6F1rDe9jFtojvqfKI46Vq5QflwE87omzgEYFmZbVR7HRlV4lFUrG4VKnwswBa8XFvQX8rBXqZ2Yfebz4fG/hWWmuz3IFh2Q4VJhQoFpcAnzoL4GT0eFKYV1pKlCH0VLEM2MBjLlQpZQ9jniWnaRLmJWNbbLTg66YtNhEiij0lRy5h6Rh7VDbw1LHrcHjxMUeYU2IHb1rkJo2lmTjuJfMTTQ7gfkyotHEuIgAe3hBAGLnJMWY8N2ydtGVCaygFPV0J8I+dJUAvY7zrggI7ddjAW6KZDQ/j+XH3o3U4qBXfa2y0YCGiJN8oUYL4WxHwFZoeyHPl3MWVxvfgPBvoepGfluEbPrdx85QcRcBDmwLUBNDvkm1OLn0MeGthGI2hI8j+gf2BtsjMOh4trfu5ay4ZJwZ+AN81RdrOG6rTBeWtVt0OJTIlArHfWsUsKS8TFVDRQVHpusLvs4Afwac6aik+q5Y0SL3sksy0xcPdwGHPGrUQXpJpu2TLu4ukvGDjs4EPCfpWJa37L5Ju11qCwJMxOp4mGhzZrWSxcPFNG5qfWsBSdKoAv1QCGwK6h0R/vf+kitXjiR2/bEL2KbJ669ae2LmshtKM0t9TiY6lnbu5EvJV62AGbgXjn7f7EBi2iod8cg50SuXN/b458IEwgKZC1/Wa1Q4VLrBW4wWyTyHySilFr6HkHGCH2zd390r9OmINmzcBfgAf6wErA74kvsdCxECTAJbasZPQ4QCMjfGhJlU5ocD7pEcp/W+NHTccIH4chhZaI757ujVoJYAXeY5c4MM1pEILCrx3exUz79k1Kb+wUiuoFd8tPxgtSWyu3ZErVQBuY0sC+KG/ruYuGxCLi62gVny3a8XKMIlyfiTwc2tPl44g8BICEo2My5wa3gS+OJFXL2NlmAT4QYHg27tSOhLZRvOSBnUz4OFmzdLEDmuslOcNNZsmWiWyKUWYXzOn5QoCPz/Az7OeZca8yOpJraQ0/hbx3R7U+F50ip8pSRweeIjH1/BwcIIb9krw+AWBD2NdrRgPXNVdTf2eiu+5YNXYE+AqWjgXNxFdAF/jJixt7TytpBZeOb4vbtfa+VPAj+/JgB0uNZo5qPXH+YRkMwwAHnrsgI4ZGJOQACQM4nTrxffR4he3ayngvaVhGyVYS7p/sIADbGpMSUheAF+zfx56oKBW6KgZ31OdRZjFczZKUnfrS459l5Yuz8MWwGO17NBGPb2rQmkrLMw6Lr7FJQWsBMOAn+SUXlOqrsceKiKyd/9ylXtNJLehBQI+cHnmaJ/GCt+rGZ4rwx8Bws63c5OkwbKvLVKC922cWNyLEsYY+wxY8l48Xs4tgY2snUxSUw8VDAYFv1QVKoCl0XXdt+D6d3a/gAthc+LLKzcpd+W7W/peOQFj5++5Wkkd6VJex//OyXQTDRnX3ct4jCRspeiPfI4yHDqGvEztq1bxXX/JvJiMZsAHcXNWYzOYBumX9q6NwI9XrLgwu3FBLyA/vABWhU6a68GgvIe7slJ5hvPMgPdxC8u6JwVAX660tJ3rKmlW5Aqi1ThCAViumeLNv1hJdynZTl/3XqDo9Stq/sjV89+RHWvYyLoU671aiqk1/R6uk8oTcvn+CFnerBEjVyjbd20ksAHfRq6rp7oBv3qI2jC4Ad9GrqunugG/eojaMLgB30auq6e6Ab96iNowuAHfRq6rp7oBv3qI2jC4Ad9GrqunugG/eojaMLgB30auq6e6Ab96iNow+D8cF7kq6yrovwAAAABJRU5ErkJggg==;" vertex="1" parent="1">
          <mxGeometry x="3071" y="602.78" width="126" height="60" as="geometry" />
        </mxCell>
        <mxCell id="JddVZA8G2uNzgZXX8My_-118" value="" style="shape=image;verticalLabelPosition=bottom;labelBackgroundColor=default;verticalAlign=top;aspect=fixed;imageAspect=0;image=data:image/png,iVBORw0KGgoAAAANSUhEUgAAAMkAAAA8CAYAAADMmZ6vAAAAAXNSR0IArs4c6QAACulJREFUeF7tXVuW2zYMpZRNeKYfTVeSyUqSrCTpSpqspJOV1D+d8SZi9lCULIoCCIAA1ZyY89OT2uYDxAVwAT4G1/+6BLoEihIYuny6BLoEyhLoIOka8ktK4HQ6vZ0ntvzXXS6X55rJdpDUSK3/5qeTQATF+GEY3Efn3A0Y2UDP4d/eu6/OXb9dLpfp39SfCCRhIMMw/l0YBNVf/nk2SD9PYvzm3I9n7iQkncY5DH9JfmP93WEYzi8vL5+47c5y/4f7/agIw6fL5d+vkt9Iv3s6PX4eBveF+7thcF8l86baTYDBHkPS5nkY3PP1ev2T0jMhSGRCoSZJfR6EypkE1U76+ePj41/eT9bm//w7v76+/MEdgFQZQ7vWCpmPtQa4zjnRvDH5EOA4R08R/q7fQ5/OvXkaR//Oe//WueEpa3f6/uXy8ifWnxAkv30chuuH2Niwi/mQTs7ORQ+x/t1+m/5PzEUG9/ilNAmusoXvPTw8BouM9iVpS/FdkbJEkPh5cXlybw2Sh4eHvwGFy0Uyr7s/B+95vU4hThUvWBo+nYIO+l0kwNURzOCUfi8CCaQUp9PpaQ7BdgLy/vqecmXr5E9P4zh+8N4FZdgpcZiEJI7kKjBtlfhzCH0GecS+x3dYfGyhwAW5z1P3z6+vr++5cpB8L1G0AILdWlnMLx/PGibnnsA/e+8/cfVsXiOQNmBAsQBJ6HAXL3ORDQNvCut2BKwdUOAwUjOHFPzDMAbLd1Mmw3YDPwwM5Bmy6q+vL+r1hZU1rncAAxS6WveLcWEN78LCRahNtRBx9zVZ4GrXOlvKjXJN6mAYei0KgIUOsyesnsMKlC0ILeaQyj2ME/Lm3l//kFhYjjdZZBUN1gSUnDSLQkmqT8xjWqwNErqd8wioGUgsrEkBgKaL//Dw6IHFMl3slAtZLHAC7GmcENeyBkmisEufO7lZGIDMC8/ecl0hC/mtYVfIdO5DuDRUVYOktYLBi29H5PEsjW1Mbw+SBdhxnLCcbNPAy1oHJQ1ZIzjM1kUQCUCQMN6mfQKIG2+iAgke15kqMZgYsLKSNdkOKkSAPk9Tz1ovm8p9sdxQalsTs++5yBIyRlBiWSbt3BJiDfBcW9CX+1p1WAkSLB1ni/aW3qQ1H1mULVFidRiX85HA/SCQWGWZElDexo4YF/XcgrygNbGaC2TA4GhojSSUIIGzQhbWJJ0MXNuwCYdah4utQbLIGrLsVoqVkvWlXtXKcGHFXqvIAQYJWPO5AV4FEsQKm1iTdDKY4LRgtOAjoY1xHD9fr8P30jaQVVZ6cCfATiw7VK/S95XWRJZdAniYrYsgsEyWFdixMJmKJqpBcgQfAazwZp5a62LBRyAlKlkrbfYH4iNzbA1yN40h2fa1AgBTZk1fWJgV0/72qex0jXA9iBxIAxKMUKvqI5CCtUoFUxaEQ9DXjE85WbGEJ3qQrCFungqFQkeNgi1yz8fcgo9ga9zai4Q1xkO8uKYKkBzDR8qT0GU7ED7iuBYx5QFU7j58N2yy027YTJUpH6dlrSSviWw54j6G14C/tMVGA3KOkWsKkqP4SNkN14OksIuVzaks07rcBYX4yPJby1rJ6vm2PKMFH8Es+RFeJOoXvOl1AX6VJzmSjxCxanVop+UjWTaJDSwuGOCwczrPM9UPIMttVStZZbMn/i34CK6k9UZQImeq/1qQHMZHZqRD20YCoasGiYaP5OlWTaghWUwqvLOolWRkfbf9x5qPYEXJIwh74oEx/ZrmXwmS4/hI6XCPJl7F+Ehw8UF412s4rOPcOG5276Lb+K3Ou5RAU+IjMcMFFXdlaWCoJtKSjxTOpRzkneGCeArSKpAcyUdKp/K4BDtXvMpTdaj+1o5D4kWy2BlUIDgU4oOkRNYjCNdwLx27xpOWjJXlUV9M1qWTqsu6ikHSQlBc65l9r9rS1ByHLYyxehwSkGD1kbQNDV/AaiJW7cMcq2jFq0NpiVzxk6qKbSn4/n67TY1b9w5uY1edKymR9vlcNCDnN2+d87/nh8E0VlSymKncS1ystlayyKSUUbLmIxwrLpFRzXc5nqzCk/w0fKTa0mj2a+Wn5I4DySr3UniH1EqKsoI2MEIKB4XZmvnjIOGHiDXAWH5DJA1uMhOD5NflI/yFSWVwHB+5FfCK4V1NrYQi6w35CHgpx1H1ES5IK0CyD3801qRkCfA0bX1op62PRALNU9jUYjn341x7nJnDR5a+pLUS7t4zDd/B1hjjA0eBBAu18nM4IpAcSdpbpX4tzuRz92vNFvhWU6pNWXP5SOhPUiuhaiJb0g6G2aqkBa6k9UaQG36VQq08OhCC5Eg+0uYGEw0fycMOjgeVeh04C8TjI3F8/FrJAijhPG5D5PwOU9qyEWxfaceiFMiLiUByJB/BtwrUb5s2Oj9y8wwUH5GEScywk7Tc3FoJVRPJUr8Nro2Cay6hX81OCo4nkVb5hSA5ho+0OnxjwUeWECpchEBd12NxZFcKNC53wDYwwp4MvoCwNnwsJQKOAInEi4TxsEFyJB9BvAhpRSkrYsFHqD5Wsl7ejChoJ+U0rLQ3VSspbWCkwr3kc/V6cIkzV1ac7+Hb8vHspgAkx/CRloqsPT/CWYQVJJvDUdX3hFH7taAxlWolqbGjwsWl7VYXM7TIXlJrVAjjUQPEBskRfKSlt7I4P0ItAORFtDep1xD/Uq2EUxNpzUcgQ7KVLb9mxV2TGOJhyaDybnIWSDAFs8xnt+7Dio9wFmV7EV19pkbKR5axYbWSeVtNuJaUHSq1vWYUI+/2INHwXC5IkPMjNvnsqAz76yZtQVhnRTig2FreTT9sZaQIsyTdCleS10u1Jdkj6/1a+TyxCMX7a7gpXn0PczlJwAMjEySoglXH2kloEgC4uxjbEiChryP4SG6tJIpNEWYuf4hKUdpdKzNssBLzlItjYDQWntk+aIDDTfzcpylYIGnFR7QPsnCEVLYk/LCD6gtabIliEwRc5JFKb8bIXtiyPz8CzxO+HE7rTawiFBIkLbjCDI7PwAMw4aJiMzdLEUStpZ8B+DQMw+f8ZnKtJ8wMkwlIpHcDt+QjnOSARoaWSSASJNSdRJSFXRU1XqmDvWQlcX/cPlcvAl2vX1/ZDSAPbcen8XZv8E3Dk8T9W4VZntzbtit9wGgfXvLDC4bc1GF2voaFEFFkIDRZLEyvbiBZ7oWaH19Mn/gqvS+IPPEb3kjkv+1n8ZbeEosnQFzmTL2PeHvXrww+3nzmNtgLG6315InCOKmxhuanNyipF3zzNHCpOr6u/fQUn0Bu61uY3o/ftK/9loDCeVoQe/gpyEwTodxAUjiQLzHc7O/OL+uqH5pcPRW+F4g9KKMvSsI4hdyJcyVrnE+NB0tqSMRB9cFtK4RJ4W5l4Jm5yZjFZ6WH7+HoQWzzdmIUeKZa/p4iNM4EJG1fpY2gCFaQ/8g8V7BZeMB9FVjSvOC7srAGKPwh3nkaAvvdxTl1+zEoFXWhwjwGwRz33kazjwvquOAVyHFKQ1OqQZKTUA30z7sEWkkgeBXiDfZb+On9MNdU7I1wB0mrFe7tNpFABE70qFbFRmqgHSSUhPrndy+BDpK7V4EuAEoCHSSUhPrndy+BDpK7V4EuAEoCHSSUhPrndy+BDpK7V4EuAEoCHSSUhPrndy+BDpK7V4EuAEoCHSSUhPrndy+BDpK7V4EuAEoCHSSUhPrndy+BDpK7V4EuAEoCHSSUhPrndy+B/wCb2EXTXPj+ugAAAABJRU5ErkJggg==;" vertex="1" parent="1">
          <mxGeometry x="2730" y="793" width="100.6" height="30" as="geometry" />
        </mxCell>
        <mxCell id="JddVZA8G2uNzgZXX8My_-120" value="" style="shape=image;verticalLabelPosition=bottom;labelBackgroundColor=default;verticalAlign=top;aspect=fixed;imageAspect=0;image=data:image/png,iVBORw0KGgoAAAANSUhEUgAAAMkAAAA8CAYAAADMmZ6vAAAAAXNSR0IArs4c6QAACulJREFUeF7tXVuW2zYMpZRNeKYfTVeSyUqSrCTpSpqspJOV1D+d8SZi9lCULIoCCIAA1ZyY89OT2uYDxAVwAT4G1/+6BLoEihIYuny6BLoEyhLoIOka8ktK4HQ6vZ0ntvzXXS6X55rJdpDUSK3/5qeTQATF+GEY3Efn3A0Y2UDP4d/eu6/OXb9dLpfp39SfCCRhIMMw/l0YBNVf/nk2SD9PYvzm3I9n7iQkncY5DH9JfmP93WEYzi8vL5+47c5y/4f7/agIw6fL5d+vkt9Iv3s6PX4eBveF+7thcF8l86baTYDBHkPS5nkY3PP1ev2T0jMhSGRCoSZJfR6EypkE1U76+ePj41/eT9bm//w7v76+/MEdgFQZQ7vWCpmPtQa4zjnRvDH5EOA4R08R/q7fQ5/OvXkaR//Oe//WueEpa3f6/uXy8ifWnxAkv30chuuH2Niwi/mQTs7ORQ+x/t1+m/5PzEUG9/ilNAmusoXvPTw8BouM9iVpS/FdkbJEkPh5cXlybw2Sh4eHvwGFy0Uyr7s/B+95vU4hThUvWBo+nYIO+l0kwNURzOCUfi8CCaQUp9PpaQ7BdgLy/vqecmXr5E9P4zh+8N4FZdgpcZiEJI7kKjBtlfhzCH0GecS+x3dYfGyhwAW5z1P3z6+vr++5cpB8L1G0AILdWlnMLx/PGibnnsA/e+8/cfVsXiOQNmBAsQBJ6HAXL3ORDQNvCut2BKwdUOAwUjOHFPzDMAbLd1Mmw3YDPwwM5Bmy6q+vL+r1hZU1rncAAxS6WveLcWEN78LCRahNtRBx9zVZ4GrXOlvKjXJN6mAYei0KgIUOsyesnsMKlC0ILeaQyj2ME/Lm3l//kFhYjjdZZBUN1gSUnDSLQkmqT8xjWqwNErqd8wioGUgsrEkBgKaL//Dw6IHFMl3slAtZLHAC7GmcENeyBkmisEufO7lZGIDMC8/ecl0hC/mtYVfIdO5DuDRUVYOktYLBi29H5PEsjW1Mbw+SBdhxnLCcbNPAy1oHJQ1ZIzjM1kUQCUCQMN6mfQKIG2+iAgke15kqMZgYsLKSNdkOKkSAPk9Tz1ovm8p9sdxQalsTs++5yBIyRlBiWSbt3BJiDfBcW9CX+1p1WAkSLB1ni/aW3qQ1H1mULVFidRiX85HA/SCQWGWZElDexo4YF/XcgrygNbGaC2TA4GhojSSUIIGzQhbWJJ0MXNuwCYdah4utQbLIGrLsVoqVkvWlXtXKcGHFXqvIAQYJWPO5AV4FEsQKm1iTdDKY4LRgtOAjoY1xHD9fr8P30jaQVVZ6cCfATiw7VK/S95XWRJZdAniYrYsgsEyWFdixMJmKJqpBcgQfAazwZp5a62LBRyAlKlkrbfYH4iNzbA1yN40h2fa1AgBTZk1fWJgV0/72qex0jXA9iBxIAxKMUKvqI5CCtUoFUxaEQ9DXjE85WbGEJ3qQrCFungqFQkeNgi1yz8fcgo9ga9zai4Q1xkO8uKYKkBzDR8qT0GU7ED7iuBYx5QFU7j58N2yy027YTJUpH6dlrSSviWw54j6G14C/tMVGA3KOkWsKkqP4SNkN14OksIuVzaks07rcBYX4yPJby1rJ6vm2PKMFH8Es+RFeJOoXvOl1AX6VJzmSjxCxanVop+UjWTaJDSwuGOCwczrPM9UPIMttVStZZbMn/i34CK6k9UZQImeq/1qQHMZHZqRD20YCoasGiYaP5OlWTaghWUwqvLOolWRkfbf9x5qPYEXJIwh74oEx/ZrmXwmS4/hI6XCPJl7F+Ehw8UF412s4rOPcOG5276Lb+K3Ou5RAU+IjMcMFFXdlaWCoJtKSjxTOpRzkneGCeArSKpAcyUdKp/K4BDtXvMpTdaj+1o5D4kWy2BlUIDgU4oOkRNYjCNdwLx27xpOWjJXlUV9M1qWTqsu6ikHSQlBc65l9r9rS1ByHLYyxehwSkGD1kbQNDV/AaiJW7cMcq2jFq0NpiVzxk6qKbSn4/n67TY1b9w5uY1edKymR9vlcNCDnN2+d87/nh8E0VlSymKncS1ystlayyKSUUbLmIxwrLpFRzXc5nqzCk/w0fKTa0mj2a+Wn5I4DySr3UniH1EqKsoI2MEIKB4XZmvnjIOGHiDXAWH5DJA1uMhOD5NflI/yFSWVwHB+5FfCK4V1NrYQi6w35CHgpx1H1ES5IK0CyD3801qRkCfA0bX1op62PRALNU9jUYjn341x7nJnDR5a+pLUS7t4zDd/B1hjjA0eBBAu18nM4IpAcSdpbpX4tzuRz92vNFvhWU6pNWXP5SOhPUiuhaiJb0g6G2aqkBa6k9UaQG36VQq08OhCC5Eg+0uYGEw0fycMOjgeVeh04C8TjI3F8/FrJAijhPG5D5PwOU9qyEWxfaceiFMiLiUByJB/BtwrUb5s2Oj9y8wwUH5GEScywk7Tc3FoJVRPJUr8Nro2Cay6hX81OCo4nkVb5hSA5ho+0OnxjwUeWECpchEBd12NxZFcKNC53wDYwwp4MvoCwNnwsJQKOAInEi4TxsEFyJB9BvAhpRSkrYsFHqD5Wsl7ejChoJ+U0rLQ3VSspbWCkwr3kc/V6cIkzV1ac7+Hb8vHspgAkx/CRloqsPT/CWYQVJJvDUdX3hFH7taAxlWolqbGjwsWl7VYXM7TIXlJrVAjjUQPEBskRfKSlt7I4P0ItAORFtDep1xD/Uq2EUxNpzUcgQ7KVLb9mxV2TGOJhyaDybnIWSDAFs8xnt+7Dio9wFmV7EV19pkbKR5axYbWSeVtNuJaUHSq1vWYUI+/2INHwXC5IkPMjNvnsqAz76yZtQVhnRTig2FreTT9sZaQIsyTdCleS10u1Jdkj6/1a+TyxCMX7a7gpXn0PczlJwAMjEySoglXH2kloEgC4uxjbEiChryP4SG6tJIpNEWYuf4hKUdpdKzNssBLzlItjYDQWntk+aIDDTfzcpylYIGnFR7QPsnCEVLYk/LCD6gtabIliEwRc5JFKb8bIXtiyPz8CzxO+HE7rTawiFBIkLbjCDI7PwAMw4aJiMzdLEUStpZ8B+DQMw+f8ZnKtJ8wMkwlIpHcDt+QjnOSARoaWSSASJNSdRJSFXRU1XqmDvWQlcX/cPlcvAl2vX1/ZDSAPbcen8XZv8E3Dk8T9W4VZntzbtit9wGgfXvLDC4bc1GF2voaFEFFkIDRZLEyvbiBZ7oWaH19Mn/gqvS+IPPEb3kjkv+1n8ZbeEosnQFzmTL2PeHvXrww+3nzmNtgLG6315InCOKmxhuanNyipF3zzNHCpOr6u/fQUn0Bu61uY3o/ftK/9loDCeVoQe/gpyEwTodxAUjiQLzHc7O/OL+uqH5pcPRW+F4g9KKMvSsI4hdyJcyVrnE+NB0tqSMRB9cFtK4RJ4W5l4Jm5yZjFZ6WH7+HoQWzzdmIUeKZa/p4iNM4EJG1fpY2gCFaQ/8g8V7BZeMB9FVjSvOC7srAGKPwh3nkaAvvdxTl1+zEoFXWhwjwGwRz33kazjwvquOAVyHFKQ1OqQZKTUA30z7sEWkkgeBXiDfZb+On9MNdU7I1wB0mrFe7tNpFABE70qFbFRmqgHSSUhPrndy+BDpK7V4EuAEoCHSSUhPrndy+BDpK7V4EuAEoCHSSUhPrndy+BDpK7V4EuAEoCHSSUhPrndy+BDpK7V4EuAEoCHSSUhPrndy+BDpK7V4EuAEoCHSSUhPrndy+BDpK7V4EuAEoCHSSUhPrndy+B/wCb2EXTXPj+ugAAAABJRU5ErkJggg==;" vertex="1" parent="1">
          <mxGeometry x="2860" y="793" width="100.6" height="30" as="geometry" />
        </mxCell>
        <mxCell id="JddVZA8G2uNzgZXX8My_-145" value="" style="shape=image;verticalLabelPosition=bottom;labelBackgroundColor=default;verticalAlign=top;aspect=fixed;imageAspect=0;image=data:image/png,iVBORw0KGgoAAAANSUhEUgAAAZsAAAA8CAYAAACw9hcaAAAAAXNSR0IArs4c6QAAE+ZJREFUeF7tXUua3DYOluT17Ks9izgncWc5p/D4FrNzfBLHJ0n7JFNZpLoPMFuX5oMoVlEsgAQIUFJ1szf54qL4AAH8eJBg3yX+Hh7e/7frug9Uk3E8//ry8nJM9dF+axRoFGgUaBS4fwocDocPfT8AJlB/x+fn06/Uj30Dm/tngraCRoFGgUaB2hRYBWz6vvvjfO5/xIt5efn7j9oLbP03CqxNARCqecyLV//y8vK09jz2ON5MG0+XIyey4enJabvHNa81Jw2d4Ns16Hs4/PPfMT36/vyp6/rHruv0ns049p8bsKzFcm2ctSnghHz41PcdCBIVNp7CxePY/dF15+9rCPbadKDGOxzef+n78XFWKHGzY993T2CMYjricDg89v3wJxisp9Pp817WtOU8HL+9e+y68ZeZrsBzId9NvJaiazj/rWns+KP7fXdg8/Dw8CfBtCX7H+WLxlkhDN+77udTDYUAyO6QfLu/ceyfXl5OX7kzeP/+/bdxnBQp628NxeAFhDWhqdH49Pz8/Bu/fbplADAgJNK/WcGev9bgMelkarV3vD5+E/R/HMfzb54mYdhlHLvfJTwbKDDB8IumaC7ZK/Cu+wle2areqoLngK6fsfmGcrSVU7BLsGHE/EoZC/3Ohf9sFYIxWBatVyq4Dw/vR+lAz8+nZD5P2l/cvmBOSRedO5+EwAeeC/R2hrDxESzQYRg/juP4ATGSjuDpSJQod55btnNy2n+L1nvsuvEIho6jzbsPgWUOIRT/NwEO/E/Yh1QR5g4nGdFnlf0Deg7D8CVh8AWeDPBc1w1D9yHmOZD70KuODbatDmztGGyAiSdWvImLEww0Mfnyt8u34T8nTs3JrKoUI68kBElZkoMNeJP+j0f3mozLtFrnPffeqsybwwhIWepcelLz5n5vpCCrdoPRKLc+BMBnmZ3i+NOf1Hhx3jgA/EVXkPI9D7Hgl0jHwP+mvq8COgRoB6AMIdn+r1SKAuljMrqwyICUxlaMtEuwoRZHeAsLlzxHGCB+1w0fqbh7bBXk+uP+nrJapGOGyddhGD6NYwfCeiMkc6hCFQLIhdYsxsAV/uX4JCgHRAGMT+M4QsjA9Eg9vl75WLN3DuC9mHtOIXP5act2CNCQ4Zt4nukQkT4EmpOznHd5la1JR6ChU8s9TISJwTv8Ks2BLw2d8Sn2stcIfVO8eWdgg4V5yhl0XvxNsleq/LmCT1u8U/xaBQpY3xZAEAD8lH+IXXxp2INLKz8uCAcWVrBYWzgXyrrUKBYqHGw9dy5NLdohylEctqToYqUIKQNJ6oUngKsICG6B95IwX/yk57mb0Oal/1ryyuGtuwEbWnB1oa9ZeCBkV90CpfIPVm5tHLqz6Pc65/Gp73sIIywOEGgEg2MBgXWHJZ8t1ubHp6xLC1AgDAyxguYIc+02mAyW0ggPw9mcZsVD2GVGKeWh5k5UpfYiETZje4iZ/qeTfVgbKeBa8tQdgQ1lBVh4BfhpGsuNSRx6MFM8sdLUKuT4lBDEjWPFb2WNBor/cvsY6D8fNY7DGZY0Q287lypRLGw0C351Y8ZSMWB9xWFsjaFBAJdJpRHMqNPwqWVEogZ4cfbKt9HqBA2P3TvYmCkdzBrSCNMaLjOi2EKLRk2bUMjcyaF3H269jDKLMefVeNrX3Bc6r2JjYV8BFDVm1PujEXzpt5j3pzXGYlCwUIT04Y7yPaUPqsh4fw2DM8VzGsCV8gvW/m7ABg9ByTa7xPXUCtR18+t5ZuG6wrCX9r5JKGSgCIhwk5nSDITRn6Sp5nXUyNHQAIrXirLyniwUQa4PJA+i3vfQU7JShFb5mpAeiVORIhokDjihd2Nye5IP1S3rk22Zr4G53gXY1MrXxJtV04qmjkJbWHMY2FgIbwDwF6HCQN8KkD2NvBKmcikWNMMF3854WSorqjBhnfE0Sor6Nt53G/66Xty2UoSW+RpPi9SJTC4vWobiOPtbM0zJGf9uPRvaNdbnayJFjVSv1iuENd1nrxS0IcA4X+OPjOKArK/qfRXGK71rJdfXFnzgMcLYEFnGpUKu/a7kTg1nzFCJGxosNxeTtcBI35nj6QbKaNLOK0fjGgeGcmOmva2dlqvhuLFcq4JLIMqC0Y6jvSToXNDDI9ypOZ+nelvkMekr2JTHqCOXtwvDPQTYqI5uL4HtClyY92EJoiFf1Bd8vPySlZLl8nhJu1pgE+6vVsYcz1IHfXSyQJ0i5fDMmobmbaTmynOcuZbwhuSbuwijUbHO1JsIEiL4tgkPSnVKxsKSvoaY6KPekdJWAsA1xxQqAgyQtSEQv78hkNS6o0KVEaqdP0nkElT7VMLn0m+Iuau9Ms/TVoowIWfF8puq+8bhma34zXnT9mFKKe8QTsM+qz6vla+JrfmQSFrrk2I4rjXHBZGwHbdvinkCD2bBGDjYlN91CkIMi3Fq5GsoxWGl7FKCuKXS0SgI+LYWUAI4uLmdf2gvNcfKNVyzRhboGof5EBoNVPlvtXt2Czb6ULd2Trv3bGpeuIuJR1tG5W64hRsdnwpLbToohvO5O+bKcqT6oPI1VKhCo6zjQwFXLxM9vaeypqlwCMdC1QoaFffXeoXaeXG+T53GKimpwhmzpI39/Rr37AE2Fw7P0AZGuT6R0CXkOQ3gSsZM65Wd52woRq9BPNqCK2cOGiz53gB2KsyKAbB+luXIl4cwcGutzFLDDgX4+Vjna7b0apyViT+dfudgM28X1I4bvkvreFnycI18jcYbTYXfaugujJbWYUrtfu3es1krX5NywzlWDLURWm9peWKHD1Aaxkh5UlZ3beI7NeF8a+Rrtlb2Ca+qOJ+g2WPJtwnvHOvGv+GTPMgiGZ/T1jrfqgGalC7RRAE4dIjlCMpwWYQopWPjRuyOPZs18zWz9Ym+56IBG02+Jva0NPOQMEtYfBM7hGFx1wY7FODnaJ2vST3Aps3HceiaGn8tK5czz1SbwveZLm/baMK6nLlbnSTN1C27PPiWDhfpwm+c9d5jm117Nuvma6iLd/DEb1lyLWURgoUDDAP5FfgvPIIE/50fQoqff514aw3FlMrXeAbX3rUJrFA0B2N9v8biUp5GuPcQUtHMH74Vejeox1PzATlNvgbWBjX43ENkNy/Vit+w2ZrftHtd6/udgw1e4qWG0q2hEORPGie3WZUc5zJQKl+TARvWEV7OyTrrfA0VQlsrpEErn7JcF3cvrdsVPP98MwXtPSk8PEN5Eq5SOfZN8OBa+Hpo2FQMMoF8oBGStfjNet+t+ts12KyZr7GqfxRuTKJP8f7VEFJccPH7NWFbHAx4hyg8TVLrwcN0Zfmq9D0J3pzFmxV9sDXYaee/5OkpAnDzKJxkDGtetgDB6/zhsIPutVc6P7cOv0n2Ys22Oweb28fSrBk1Za3Db5rxUklGepOHj/Bb/JKoZh4Shsrla6AvzFLnWG2pQwF+jlS4ptSbzVzKWyU5TyufMgCV7GeNti7s9O6x78+f4pcgmeOZvNvix6I8Rx+qpj2b6enz+BXYYo8GxtkDvzH3gNXM7XXXWbyIu1uwqXEiiaJuKh5dmpTX3q+JmbZU2bI4am7EyddQAsUBm9ShgCvY2N6vqeGxymiKl1BxhkxZLlAyfu22HniGYfyIvahKjc/hF+7cMc+R27/1IaQa4XguHazbcaIQkjF3DDZr5mvwsYCQpUre6H6NLwy6Vr4mfLiMzMGU3LVJ3akJGdY6X7N1voTybrnKUCLMW7f1VrB78G58zHk9pbIVrpOWM37IigYcfh8cL+t0On3eeo8448+yCi/yzoeWbDzw3YLNmvkaOtxVTmSjemhTopETQvMWZtf9PJaeq+dWKpDetaEKbWKMb5mvgf63VvZbVi3gKJaabeZ9J/M7pVGDJdjYvLJrdQIyFdLbI9j4Ar/j2PmDEnFYkaV/OHy0Y7BZJ1+TCaEVx/Q192tcqOp6FJsHNrwLUymm4ORr/PeSuzZeAHPrSIROFfuA39xfw7PYujYWRwHUbpMCHAuwMbxfg5amkc6RvjxcbrhK9wj4Dr7hVHTA6Tc+hV5pTm6589sl2Kybr6FCaLpjqYRFyw6Hhd5DLtwgBSaKOSRv4XDv2lCFNrE5WFmXy7DcrdHivEV5iIQrVAEgI+8jrTO2dK4121uEuhI8e0PjEkPCKnezdaWK0MDh5ARhb+C5d4iIdB3UVHw5xvv1ysFmvXwNzRzlyVsLxs1dfFyGEvLHlXPKRApY3HdtqEKbeAjt9s2XEsWxB7C550SxU0BwKrL/i2MdS3grbKsFfMtciwu56qMp2xffdDKkkZs3BTZr5WsoZtVslAuB4WAptRCc0DtrgxJoKUjQ/cgAi3PXhnsoIB2a04UftsqZ7CGckgMB6ncfWtHKwRL0bw0JjuWdWoNlPTSLBw4dYFGP5NX3pJcXssvHe2Ngo7cwOIJWC9S0+RrO3H2bENg0wivJ18DYubs2IQjmwoAOoPFyQdKYeUy7Goc/cvtz77kaSTg1R4tUSJHDF6n+rfI1aQNRprStDE0uXcN2IT00tH0zYGMRguJslMVpsUQcGStXwc7XcOaPeAOq/qUKBlOooSXMuVMTrrNGvialRCyt9luAQw8lqPZHwhOatsuYv0zRpsaNPUwL+mvu18RztXpexOLKQ+n+eRprafuGwKZ+vqYmoNXsO2bCpVdTHm4qCcWl7tpwT53kwixdpzukMXtMxANY+r4xpaAtTV+qaKy+qwE2mExo8zUuZIVFQMoA0ircSp9urcNvV6PzGr7TeDWYzEjD/xQvcvVCn7FaphMhNgyExjxNrUJMIWitAU+ftdzoiKlV9OHer1l6ImjxQyhD8lvfD8APcEOeVZyTVhzlAHrdD7Kat4pmmDxsadVagU2N95Mww0SvEG3u16QNkrIqDwmDo/gIf2p/l0ZnGdimZPsVg03dfA3OCHZWx1r5mnAcLTNI8zVICO/CqwDaULZEMqda+Ro/KTpEwgfDnDLfyqLNzUv6exiakuxh2hhdGpAW/drma2xLCtU86n0b3QiNPhs99ibCaDVDUK7v/tttCQ2bDUopYDhRhj1CJlUElPLUHAwIvQqpd0eduJKut1a+Ju/d2Ow9fXHRpv9SPpF+hyhJNd8iXo26z5lnTe7XQF+l78/48jzYaVHq8NHs7ZOnSyV7ZhndeHOeTSJpr3I/rY415hih1lHqcFyEiVXCuzwuKQtbWR3vre1tphSKJNRHhM5QI0YK3DneWuN3TE409MFzNXpv0jpcWQI2uXtw1Byt+CIynk2raL8Jz8b6KLIjWv8FKwioESJK8Gvmaxxz35Z014QkYmUgzbkRQioGP4vLdDllXMP7sL5UmFtD7d+t9vPq5cf5VxtPL3G/hp0jzBhwl5+p3JI3tFLgUcvIjT2acTx/Lq2HSBhQi0M1Gh2z9Jh4JbWqHxCwupsA/czlzuFC5E1ROTjhNI4jbI6JKxuFatCig6XA5mocjb8kKuiKFft1vmicerKQchdJqXAe/Ls0pFfzCDoS375UtY5+mw42SHiCCv1ZC35tgFkqXbyOHPCDhD54yNoKaKhwuH2FdqANBjZRSZgkwNFPXJTpoag/0b5weenVeDbAiMMwfHHPsk6PF/k/BBguvxHAMM7/jj6CFNF22tyvFhaA2/CphDp3/jCXea5+ztjWi/oTVWOdrVYCgLG5QDE+AA+aZrGBkLKAyvf9Si/tC4qwHjqRz1OosyB+wx/dkgEWV/jXarf0MKdijOHjYse+757O5/N3SobmHIZ/yTOYdhnQOJ4FPQF/F9lI6YkbORvH4Xuu5E6CJ26Mp2Vb3rpSbyrNNAW9lKwS4p5t6C5l/63Cca/as0kQvopMwaakBEQ6aIoxpX1p23O9CM2cMwASuttJL8ti360EzCnFSXh/jz2cSa1NSrX/MRcn7FyhQvAwb9oDHFfxlLW8If1+aTg4JUqHHrsJeGCM89kZUZT3rQnBUHdfJGvjjp+oZXfx9t06L09ii6IKqVp583qOXTce+74/epoOA1wnmYxyX/5/AtPa3vMr8mymuN0FoSWMw2nrn4K1BJhw3CBE4C2snKXFmba4DVeInDU/hcy+RNZ4Kox4WVPuPgS30GbwIJN0rZe5SHNKuYHoE4q5L90bQ103Wfmm4dj8yHVaBPmahRJNAHNmIjoQDquFF6w44Bl+QV2BQSQCGj//clpOPaieq5bQ8NWAjWTRrW2jQG0KOAXw7tHl+W6sSD/8ZHVCGM/9w+sBGb/AnNFwVZTJFzgnhXjP9Mms02R9S56bDG/qz4/3wyL8z5WlBjZcSrV2jQJKCvjcA3SzhpAfDoePXTeEoRLlCnifv7ycvoZWN9dL8/dLnKe8fAuFN/L9tAp4IVl9vXRFAS2hC++RVRmLO8cGNlxKtXaNAndGAQCbvh9mr2m1yf/v+fn0j9VGawPdDQUa2NzNVrWJNgrIKDCDzX9kX+lbPz+f/qXvpfXw2ijQwOa17WhbT6NAo0CjwA4p0MBmh5vSptQo0CjQKPDaKNDA5rXtaFtPo0CjQKPADikQHwGf7yomL55ylrG792w4k25tGgUaBRoFGgX0FGBcNkUHKblg3cBGv1+th0aBRoFGgbukQAQ27AvKUEHidDpBHUX2XwMbNqlaw0aBRoFGgUaBUgo0sCmlXPuuUaBRoFGgUYBNgQY2bFK1ho0CjQKNAo0CpRQwBRt3agGq5cZ/P5+4pTBKF9K+axRoFGgUaBTYngK+9ls8k/mdMagFlyxkyno8jVomtxT+9mRqM2gUaBRoFGgU0FCA8aRJAxsNgdu3jQKNAo0CjQLJBwo9eZJg838w099ph7Nk9wAAAABJRU5ErkJggg==;" vertex="1" parent="1">
          <mxGeometry x="121.25" y="720" width="205.5" height="30" as="geometry" />
        </mxCell>
        <mxCell id="JddVZA8G2uNzgZXX8My_-146" value="" style="shape=image;verticalLabelPosition=bottom;labelBackgroundColor=default;verticalAlign=top;aspect=fixed;imageAspect=0;image=data:image/png,iVBORw0KGgoAAAANSUhEUgAAAZsAAAA8CAYAAACw9hcaAAAAAXNSR0IArs4c6QAAFFJJREFUeF7tXV123LYOliabsH0f6q6kvitps5I0K2m6kjgr6dyH2t5ERvdQFEckCJAAQf3N0A/tORmJIj6C+ACQBPsu8ff4+PRP13XP1CPDcPn14+PjnGqj/dYQaAg0BBoCx0fg4eHhue9PhhOov/P7+9uv1I99I5vjK0GToCHQEGgILI3AKmTT9923y6X/AYX5+Pj325ICGuG8yOrMjaIeHh5ePj4+Xpfs29HbdtiW4rRnjEv0xrzD1a+jj33rf0OgFIGHh//8Ad/t+8vvXde/dF2nj2yGof+8NLE4AayhOP3e992fBCDnYei+dd3lb8w4PD4+fjeCtxTfjJ7D1PxL3w8vk2L48J67bjj3fX82TkVurPeG8awzqGxGznPfd6+UbIY4+/703ThVb29vn0snYnuvIXCPCDw8PH2Z7PUxyMYYjNPp9GUYuog5U6Tz8fH21f3+9PT0l3v//f0tmSKEbT4+Pg0KRSHWrfgGXPFt8tXJiP6VWnfDXraR7OUrRuYajJeR8aro3ObPw3D5r5PNTw2s6VRxO9ueawjsHYFDkY3X2cDbthHM6I//z/z3dBp+g2Q0DN2fhnBMeNf3gzGsndRD9d9dcGAn73qMyBZN8U14GtKmNnd4kUx3Pp3scwDbMYKkyFyKcW1cLUn0f4EobZRrGPrXrrv86LpPz1Znhmf4nCEcqyun7w6niYQWHZvaOLT2GgJbI3AIsqEMxjBcPlMG2aZMPr04YnHk4htKqSG0EUD/ZSI2Z6DJXXjT4E7RzOBFNT3r3VTkoFEcgrRdk8n0o3nIw9Zg4QhoJHM/oikhdI1c8F3MOXBOB/UdJHIeicknIWk0XFOm1lZD4KgI7J5sMKLJGQx/MFI7I2qkQ6b2r16v/22OUXKGG4vGHFn56Rytorl1lLid4XUYBkPe7C3qQPbIKNsoaL11vHDc5wjWw5F0TmKdiaKh8RGpg6Idr6O/bxeKh1+otdOjy9f6z0dg92QDjaOEaBwMVPqr1uYAbB2nxCgliDG5oMYZbiI6NK+atQmWEca+k9vmWAtjjozzeNuFfO8dMX6UXCXjKun7LT0LI+gtdOGW8Dy6LLsmmzjdM7y+v7+POXTJH2E4xAYIN7aRBz0+VurR08RYHiG4XVRYNFOCJ2yHjpa6jhPdScYy9yw21qVrLFi6sXRcc/2+td/xcbDrprcma5OHh8BuyQYzkBrDBQ1iLQ8VrlE42Eu9uNrRDbU+UxIhUipFkVktjHmqbJ+qEQl7EVJ0Erp0XCUy3MKzOFGPu/vaxopbGOACGXZLNrXJIQ7pyyMFH2eqVI+OGPHyP1IPnY6S6nuYWHSzdhSAyasZB0tewVb3KtFwwTw93CuYPmjH4nAgtA4HCOySbDBPWWu4YJu1PNRa6zUcApNEI0unzuA8IjzZVWvi1XZQYKS0RaR2RHu1ZNr6iHi0PlsEdkk2WGpKSw5wAtTwspZYX0G86auuSowdHnGVrXlxJssSUQXnu4CkgwO3Eryob/kEpnV4pPIc9XncWawfTR8Vn3vt9y7JBjOUWnLwyaaGEQJMHeiPhhhTB0e5xo5asJem4SSTAhqYWhhz+4CfqdGnSn3HRzOuXDlu4Tk8ym1kcwtjq5Fhr2QTlYSpQDbX7bBco50DltocoOlrmmzyVzWssSEAwwVGjrUwzo2B+30pA+cTt2ZcuXLcwnNtveYWRrG+DIchG61X7hvxWh7qMus1tkBoPNT5FBi9TpOuslpDrWKyyRNjje+6NnDiz2OW64OLsteO1HL92vPvyLxoGyv2PGAr9W13ZLPUwrYrQ8KpVszBfon1mgRZdByypdNn+nRSDpMl1sRy3/R/Xyp1aCaI/c7lR9u2mx+Rdr4mj9G9PrFHsiFveduTd7lEVQIqLdd1eQ89RVRrpH/8728xTjR2pkJC/zV3HcJaBsCWJzJ/n15sGRdbPLbrfr5KSgWZN+YrIWwbXBmnPpgrOn6z3/9p7oCqcv5lqXQmNT6hLOapcnnm0jqyNuA41MQzL/enZ6BH1cZy1jFT/9DoihbfHV4xkCnj7wpFbupp1l6voQ9z5onGqADt2a+zMOuTzdrrNXZSpK8QcBf7cQ1ybfJBCnzCT7hq3+iVDfDhVAV07JS+M4i5+584J/y90kdUEVrs36Oae6VOAEMWA1dUjTxluP2q3t5zwTUT/vvW2bxeBoY1rSoDRff16Yupvp65YkXlYNXG18myu8gmZTiRAbhedrWGN+F/H9sxV+rRa1OH6WKj66ydzB5mx74ptaZBz9VoA9/awzUOU+HS0Vv01+hIA+dkAI6FMeKBcYfnsQj9Qgun5m5R5BA7d1ylTknGCDp5/Ft7TeGoZImruJjs2Hsfz4g0EEfTJ9LkWHCxiZ0Lc1XGfM0F1GdYmdz8LjmXN0cx5IWUKL6Sb+ySbFIpocxgrWJEqP5JJ880wLBo5CiiZBATKaTVa5OVTqYa76VqtCXav95tw/Hquf0kCp+iUTliRMkFdT+icet4iD5eDWQYAY2VvU3kdE2ZAWM7ipdzmqY2scsLE/ciQeSGs6QuHz7njDz9Kxw3KFNqLs06Y0mJGrf397dfwW9o5IREnOoIh0pNGkR92Z3D1/cndxEi+9vUdRzYWmXpztNdko0BMWVAORN+qbtgLEFQxTd5UYRnXKKLy0r6TaUdc0aDg+ORnhFGN5ho7NRLChe8HxwPe77WgNoQ4sbad2yoRXnvau+k0cENDU+XfRyWWq8paTfEBMee2qFKfW9OQabHMnZ6eKlwTKcQByo5liVVNIhD9Mk6diH58+TbLdkQHobU9mVTEtIGU0RojDvWnr0B0v1h25rHWEZ8n0yK+Gx0dH+FD3NrN5zxlkSVsD3McHNJH4taQmM+Ozlw00dinTPr3eIn/uW6g2Gv3ZyC19zj9c17F40U3e9wfNI38uYNK5ZmM5ERR/fcM6kIi2qHiOwTUTJ+iy3nyhHg4LC2tu+WbKwhNTt3yBwid+yqEw5VfJPbIf85Y9g0F0u1FFqM+mQsrreIlo6LNK1GpXq46aKwWkG8XT115ociG86ZslrlZWqfr9EQjRlzvz+Q9MINLWEUR5NNnmgoZ5QzDr6elsguPfdX8o2wj65ILQ+XXZONz/Kn0+lLZgcGaVO4niXXKOETe3jt+x695XKObNCoRkWGFNnUlpmLzV6emx2V4QU/JJvtqWhcqBSexMj4Tgz23pxCCz37RFqXVdK/RqkfTH6NDuIRKs+owYgf64c/byARaXeaams74iSQ3lVKryPj75V8g4qyueN8CLLxScfuFDn95uWjs1ZDexslBXIYoeRz3IlITWTYgHfxD9yNZH7nKgAHvKM/Y3H/9JK4ehsVUYJhzcmL7aDyCSH20rFt3xLDHL8v3exSsq5C6VUd4p4rcWCyZKLEaE5JUtKa2o6l0bFknZByTrgpT5ji42JzKLKByikxIpo8vP9drdeTIhxpXhemCkLyW75qwBFJaN6izXJYmLno6BrqERpuVAN1Cpu87hmMAIl0CPt6B60nbiMJjLDyDhimQ1h/uMQfr3XgpItttHB9iTMXfOLG5yT/fYyouMTvnf0x53C+UWlgTF9k+J4MGU9/fNkOTTZhxJFb3+GDkjKitc7XYKk4rlKByCYqWioxdEckjJp9zu1g4xBGyeSldiRSOuBIEjvpr10r0XjitIEur8cnnRuhA2HWQK9/5OYIWy0grtqgTSnW2iDi6zg34uDMi5KdtLRTL7OpN0M2Dmh6N5IMGGrgpBOBbgctuMnypGdZ8S3Ya5KNU8SSciucybHGM/BcRhgh5nc+cdfw7NpdDw4d5g1jCgONcaOIguvlzno4Hjj0vN1RA5OHKSmZKGMId3pm1kFF59T8vmijPPx9XpZBusBfMjdSa7yh3rsdtNQ6Mx050WO7w3I1JSCG3r7ekGN9KPEKGMAHj0i8mK3roZmOU9tHtWO49vulB3XT22SzUrhDnn9L66KlHA5JhKz15E0/aq7XFB7MNd0YN+ek0kfZ0bA72KL1GsmcxNNg+XTiEoV9MXkVO2nV+O4isjGdMPV+3t7ePnMUIvcMrrBlnlbO6zG/S5TRtUd5GJy0TdqjtL+W9CmHK/zdT0FJDJz0OzjxP7ycTqff61Xxxrzz/Fkljqd4uVhDaP9kRR5zWGk9ce16D002+YiQMIZYWnisDGKeD7Ec/+WHIZpSsoZ9gNGFNMorfV+7FpzTE/c7sUWewLeurm5ONkvcM4N5qVKl4XoFpe0uTDaidBxXUeFzqe2jpW1y31vinpkSr7RkvYYrI+c5zHhIHA3t+6aP2jWjnPO0liNDlWzhnrfSRIlrXONeMzPD0c3YOd04jbaEwdIqDQVkrfUaYoKOn5UYitTitqSdEsXxZSgl3NLv+t+uaYhKUii1NoyUYKFdr9G+b6Oamus1ul19JRj675SUbfHf10SJa6zXaLc8a/HdPLLJlZQoEZDYhsk64EZ9T3twzm+35lpL4tIw9tbXMoznzQncffYl38HeCaNh3uIr59slKRDNVlVOn1LPaDxp067WuFqyiTeplB4z2NoYljgbIdm4E/Xzv3KdvpqOrNCGrZIFsbqycWQzg6xfU3EgY5OIO+jUQNXMqSYWlcUDT+2+W5IAfG92i6gmLOtStjYQh/ixV82JmrYkG/16Dc84TluLO2xdpNSxM23C9ignTDt3uaRe4my4tiWkC2WvcYiVIyNud+rZ3VwfNiUbILzY0FLCQQNQwyDWTJfQ9czkA0+n0uRt5ZTF/e5HU5INDdz2c8+FZV3qRDbYROQYOU3qJCdn7neNJ85NoXnPEcUsZbu3fH1F6pVV20Kdwy52NuIITWI3uHpA7d7EI5v8LjaJnEutZXP7sDHZhKeOOZM7JxgGaI12cWUouwWT2n4oUe4wfF9mqzeGNSAaVWoyN5YJZ+K6Y6k0ZQPbhsaC227Nk/Ozlxx7/ZxITKI/3KgoVbmAcHSSTiO8PyYeB0heeqcJi6LgdzXnY0xb3KoDVOUCjKy0dosTQXH1vHSu+u9tSjbxBNenRKAh56RCckDWXK/BFdP2IGUsUifIqehGYnxyGJjfwxL4ZUTL+U7qGWQs1BGxps1a5fk9ohkv08sZAe16DXcXWqqsiyR1ZPVn3kxARcTY/S0lZZwcnlN7z1NaGS2UO83J4vM1XBz85zjFPzVk4/QS6lHs6JaTuVca6JkzRhuTDcwZlwsOjaFVNl17TmHrrtfg5zlyZOMmIWWEll67KbksSUss2PulawRUXzCilqx3ad8PPb85lZNzFLiRCY4hL2XkY40ZPulhzlxUY+dw1LdiZ0IShWvWa7hjkToAjRNWmfOdmqvImBXhW1KMczOyoaOFMo+5tofpT9Ka6zWp7co0keR3fsUFCK8SnIeh//rx8S96sRuHEEIFrUPgnO9izxC776pMmBzh04QFDaQcI2AEsvLUXq8hKiOP6UqK+CQG0jPISdkwPZaQ/xxBzbee5oibu35FjT8nBQbOE0bpZ1xuuS0EdjDCuoZzFBMNb910d2RjrwOQ1d2p7e36SlVzMR+E9i9QealJMRsWztXCp+/IlQNiTEsmbSmBSN4jTkCbJkTXNOD10OQk4aWHAty5BnIyDu7OeHY0rvHECccs2CrPOZLAJZsw/Zr31pH+ZcnX6RC0BZw0utZ+xGQT6hF39yZCBNlbVme5o1s3Ezd0ljlHNpUfXmbJ1XOQeUqOZ58yCM4YcgaWSk0ZQwsuR8saSMqblwDgDdZL3/fmdkfjy7lrnL3rnFEEphzwcM0Fc25llBQLzXlEsFepopJcIkeUiq30EuKQPhsbt+EVFLYcy25cLhdTa2wsb4Lhg9/+WkY0s/7E6R/KafLw/cN3DHLrNIlvdZK5l/JupemR3BppmMriecDAMDmxSWcCM4KSO6y0RyVSqT+AdZY0sTRXKjNhiNne7zVXu87pEWY38+vF0Y3JIuduU7IBtxKOYSVhhM9dN5zdLZimNpKpo0bc2ikGgCI/qSF0z3MW9RIpr2u1WjiBpMYkc532SI6w3hSO6/A6DMPnWrWnSnG1yuobdEsOCXKN6j1RF+7lJie3z0Rfrv1IVCoWkTl3jSDVb8xAGn3w5xXHacPnrHECRg27Ru+ctmLHILojJ9DbqYo2zBBknVT4He1RCcp4g/5liWZ2JrDL8LrJkTL/N7fPhvhO77L1iCJo39bWwheRa73IJrz/O/R24rQCa6qLFQy2Ok3gKLXF+Po1+snlhv22zGBzr7qWtAu/0fdz7pohi/8IW3GF7RY/TuX9iYnD+E59IhWMa3HFZ0gUJWSZwUw09hPhBFHaDP6I8Vcq0swNUiZSB/oqS7+7l2vsiuU4kDlZC+dusR5ZBw4lNqyrNdd+1yQb66HSC4/sa3zVJCNRgCWezRinKvLNhsV4ROj9FE40leIugY/f5uSBmhswTaQVpcmYcq4io+2L+bPXUc/ViutUKTaE03XDL+YL3EKR2PjYfvp9vPxQEMOY0jERspW3vC3Y1wlP09fnGc86VYmd3thvjilYcot0Ssf9Prqx0bRnyWDUIyD32M/icUrpgen3PH518HXf22SDgAOQq9Qz4DNM3HeXNoA1258NVGdKeaBrDtrv+d/w2qpWol3bv9xk5hqCI8u5JIat7YbAVghsQjZbCdu+2xBoCDQEGgLbINDIZhvc21cbAg2BhsBdIdDI5q6GuwnbEGgINAS2QaCRzTa4t682BBoCDYG7QqCRzV0NdxO2IdAQaAhsg0Ajm21wb19tCDQEGgJ3hUAjm7sa7iZsQ6Ah0BDYBoFGNtvg3r7aEGgINATuCoFGNnc13E3YhkBDoCGwDQKNbLbBvX21IdAQaAjcFQJVycbUOrtc+h8xgj9fuWVG7gr9JmxDoCHQELgxBFy9PSiWqWk3VRXXF+KkMKPuG78xjJs4DYGGQEPg7hHA7ksCoDSyuXstaQA0BBoCDQElAlqy+T/2uel4ixyY5wAAAABJRU5ErkJggg==;" vertex="1" parent="1">
          <mxGeometry x="840.25" y="720" width="205.5" height="30" as="geometry" />
        </mxCell>
        <mxCell id="JddVZA8G2uNzgZXX8My_-147" value="" style="shape=image;verticalLabelPosition=bottom;labelBackgroundColor=default;verticalAlign=top;aspect=fixed;imageAspect=0;image=data:image/png,iVBORw0KGgoAAAANSUhEUgAAAZ4AAAA8CAYAAABW39xeAAAAAXNSR0IArs4c6QAAEylJREFUeF7tXV123KgSlpRN2J6HOCuJZyVJVuJkJeOsJM5Kbt+H6/YmprkHIVoIVUEVIJA65Yc5c9KIn4+ifqGq7wJ/9/cP/+m67hFrotTl0/v7+ynUh/wmCAgCgoAgcFsI3N3dPfX98CuwqtP5/PYJ+70XwXNbBCGrEQQEAUFgawSqCJ6+714ul/63v5j39/+9bL3AI/Z/d3d3tRJTLEL9fcp3R8RqyzlP+2D34kTB1H7z/v7+uuXcpG9B4MgImHPy4clfQ99fvnRdr/893+JRqvv+/v7248hAbTV3swHDF91/36unCXR3uNEV2ffdqxbeMWFtNQnBPG3HNH5dN3zu++470sNJqe4Fo+f7+/tfeg/P57egNyBtdvKVIHDbCNzdPTxPZ6+N4Lm7++vrMKjPe4D5culOpQWnFjjDMDwr1X1lrvGk1OUbpFG75qtS/beQkHp4ePiHOe5mzS+Xyw+KNbHZBLqu0/vR9/0/gODHhl0JICt0uk69ns/nv7ecr/QtCNwiAs0Fz/39g9oRsEHpy5mnEQ79c4DBnYx1010vXQxD96iUenS+WTE932caurjhbC5n6pu1jQnJzQaeBI62OAELZ8TYjN3/V/9XK0K+omAty1nojNbpy9vb27ct5y19CwK3iEBTwaOtnb5Xu9HISzCSSTDoNUG3/CYmd/kZ0vyNVj7eBBn7sPMCAnVBQRm7bViboFsJHjjAGbZWrGvUEVSnrlMnV5FotZ7a+ybjCQKlEWgqeDDGqLVLs9DL6qKCBQCzJswFh8tPHbQCwNKBrkdIo3UZfCrIAQsjGC+AxvNddHpdvhYeEpQBoe5o+CF84SuQZm9GfP2/SdB+eHQCh4s2La7VQ0KHExcLWY0t1pNKm3v4TmNprMp/X1u7XPeAx588h2aCJ5ch4EKL9mbItyo0EeRosK4LxiUoDpPzCTEWjwjNV8d2PEF1Uqr/Ebu0oOeAXYHkWIQQw64diJ/2WL8xu/4pdfmbexMN29va6zkqo1rvg8TGjrqXpebdTPD4jJHLELDYEIcZAPESNlMKCAf0cgBn80LuyJDGvRTMvIOOjckVzB7DLhY/o+LnC4xUJQASYBwhTJ3vrbbbgxJyq9gedV3NBI/LGLlCB2OMKczAFWBc1wn+OIrH6EPEAzE92x4Tsj4+HGGs+waspXFIPj5zDC9lb3IO1ZrZ5e3JWoiFbxPmzP3WvgWUxOpKyK1hevT1NBE8S2bKZwilNHK9ea4A5DDoGkLHEhckCEKM3G3PtVJ8TFwC5+Dju+xqCx6f2aXg4K59LXhoLt2jM4jc+cOKE//M585Dvt8XAo0Ez6wJc62dkhr5ksnSD0PACtlEk4PjYbjGPQtT+pqWTHZ9xT1FcHDeG5U8FpBiwrXW/Pn4FhRXCJdc35H6gtxsqS7PI61b5hpGoIng2YIx6mWmMAM7Fw5jxS8S8APXFAJFguRg4lWX6aZo+SWtyeVc6lkI0MWTFNpw98ZdC4dWKPt7y22gs5KibN4yRn/i2loJnvHRaEnGmMoMrEuGqoVh12u3PEyQ4MEYqetmS2G2peI7xtW2sGyrZShfxxTSLD9M8KTQ7Z/IXCaPgv9AfBOvwJ+K71HXXV3wuMwohTGW1cjHh5rjdVsKMylxzTiVUFwtPiRkUyw4z80GlrhI2atcIZiCVcpjUco4rYQoZW57bSPxnb3uTPt5VRc81vROtVBaaeSh22W58QMKGSxvAcLxnWVMJc3tB11Tz92r1O8puKxjMWA2DH21XV+VT64J5Vq6KUI4ZS1H/0biO0ffwe3m30DwmMB1qmuqxPsdCyfH+sIEXi2m6l0/j8Z3UphjSWtycrOM1lMtjIx775r1dnFqcudgM0lQModvd1yP1TMseNIUomOtXGYbQ6Cq4LGPLZXqX1OyQJd8vzPHIC5flBp+xl70YwKvhrXjMnH9/+H3O3o9SmeBZteJKWlN6nma/pROfJo0nxjxQr+HCk9R43gp46Z8M9cBGqbs7GM6GV0PiLV3c80T9XFKSUPuYy7XYcbW6+COj6299vudJZ4m4Ws6nqaECTfFD4Anqb5TCv3MCvRY12tMB9Z1Mw2U3EvDL+04efTqKYhtyiJwAC+tkVPHxhhyzbT49hDnau6hNWNpiFKsJyq2pdtRKh6abNSX36UYLGcNQPJR6HNybr9Q3BErQ2G0TbAmlJ0LOevGdCafEQzARLnrtuqklNIlQNiuUDqe1HRRsKtWZ5LHMpHH8JzyRxYvCRIbdxSbU+7KVFqn44vXroIVxMb1eDiHtrRGTh0bt3bqvV43hcvKaaPQ2kvGd6jYlm4H5eALjDGVpogX3sudZ+QA28zXk+ZqRotZaJ7QsUzbZfaL2BaS3mmVdduulXLhplBZE/ZNNz+Jrrc/4JoS8PQF52KeTDzJwjxGaxHlCqEDmuBdWlFgGRHdJIle3XVVdbXFAI393kIjD+VKO5IlEMO2lTUZm1fK7xnlNiZBVLZgHRZkh6wuf+5YLBTK/gExQqSkBmhRAfOMXsqYziS0TZC1MzGtZXNq8tqZKa7jeFPW9IUVCwh7YnFFU0kZfj93/e1pKl0yrsmvVosoGlE8Q/SO5YXE1/7hySk7QxZ8W9Crv67DCJ5WV5kxYbelyyuF2eZ+08qazJ039D3T6oG6ILu6YvMHHlBGGcDy6jZcTt7Zr4UWDo/X/7AMKFxKY1kHSq8tlc6Bc8O2atbMCqweG8VzmUIqhufyzReMZ/di6zSFrKiQ4IrRTe7aISEVs/j0mFvR64EFD1w0juIO4G6yY266Ws2imy3HTZ1vznctrMmc+ca+LSB8Rk32fH77FBsLF36rEtuk/iBrxh9jfvi8dPeG6wfBTNfte814+I9vt3i/k9On+y0mSGc8l7fu8Pgu7e3f+lzVwRN2geJjw9YUba4Uej2s4GmhkaeWJEhhVK2/uYX4DlFL5EJNEhZupzCTpD8hiDHK0DMA/JzEhY5eA1THiSt84Vx5tPEDFuyirpJuR71RGkt3FHqjhafHosV3cy0/TIEKufm5t38L0OtVQadayIdxtbXQyAPaI5sZcbldzfa3FN+BhE/XaV/35YtbtpqDL9e6hfOT0RlvjFGGHmEj54RMryXy3JV+v5Ob7y2WrT2U7QPGk2YJGNfVKuEueS8Q11f0DSQ3rdfW9AorEwe41dYqvtP60SiHOea0bWFN5sw39VsT8P3wNJU+17cEsQC4PwSZWWBCnHoRxddwocsFmJsNYXRRRrV0teUxymkOftolMn4+8DBt0hk/UOxx9fgad1vOKbXceVEtLWg/qBYBYn2SYm6ctFEIvZL3y7eWqIkBDmHxtNLI8fLadO01lUnW/K6FNVlzfdhYniD6GpoT9UBBWFItJp9hQEzKS4u0YKLQOeEwOsjlwvle45cTi4Hwh1zAqXhCwXUXT185gF2GNBebwWIdl6biGXB/kZLtzm98xlgU+mB/a3rFz94BLJ5WGvlW73csw5s3xbwYp/99eIxlWqD3BboDSJoVZ4y9t41dRqDcCMIVJLwkhL12Owzdo1KdI/xgrd7SDrT/0DmhMulcRmn3t2R8B3MZheMb2qrV70+WD2Qxhs/Hk17eI0dwIbElsiVCOW816PXQgqeVRr5VmhxsPRRisW2oGnisT5z4bsuqi+FgtXXDtLrvfnuKpooxC/3qfemqUY9d1y8eizq/J1/lhrVXOqPMFVwGQ+iNTVp+NixexceT93jS7kVuvAuJTUUtFiy0wFEiKPTekl5372prFd/BTF29oRwfL9V9QCEUtw01ZhDrN2BN6mzOrJxhsbGO8Du27zTBs67cSlzz+BKckjMw1F9uHaJcRqvnBjGzVFrNyIpQJCOFPz6FBtz9geZPwSJwOSAqtIj0NjbLwTeXXg8geOq/33E0Hr+I1fhTruDRVsaaQNTHvh9dLWDA27xO1n9piSQxgmxlTXIOSKitdVXpNimJZ2HF4P6XfwMuxnQCV+9HJqjHuVx0qhH7V3Yfc+IJeka535s+wGB8knsodCXYIlgbT47FkYNnjTOJ06t67ft+pNNt8d15jKdVfGfSCMCiaLmCB2Ok3Pv3JZj30d/vbFFsLqWOTIq/vMT+2T7gOdMD4WXcbHerB9eU2BiEQ0p8pySeMB65bkuay7HGmdwRve4zO3UN6Y9bA2vNd7J4NnFD4UKWzkA4h+8W4ju5FVepTC+m7bZmlKnxBMe6XylZXAWrZHwn9xo15xzAVu/DCg+Km8zBc+UtoXyP32YrywNa0+vuXW01pD9ugcBFxUoF9v1xawvZW4jvbFEuAsIlxjR2wCiTGN3kIltZKjHXItVFGcMNO3sQnilzShVAOfGdHDdbLUukNb3uWvC0er8zuy/WrgNj8Wxz46u2kK0t6FKZAMU1WXJPfFwoDA/SICnflcAkh9Hp8aluNhNPG0tzrK7/p8Z3sD5zX9Pn4Jp7JRxx0628JNDasctUqQKco1TXolej7Ow4xtMyvjNpgo99P6xyROUkj6QwUbfNlsRQW9DlMIO4S4z+mj02Dx+XmJsNsxpKCsPQnHPjO9TbbKFUPRDDjK3fnm/4YSd0Lbusu4ljbXG8HNTbbFDGBMzVVl7wlIvHxc5T5OzuL8azB408YPoWjfPUdnu1uMiQQqChb5ZacRnBs2bitH4hhhFjvKXwyInvULMVeBkTAO0drpGD3TR0x4UEOyzI8gSPHpNS5ZQqiGGGSstW4J4/N5ZWOvOD471ZrL0lve7e4tmDRo6/56ExJCpzqS1ka19koOLAaefRR1aRLczCpWq6VAZOXZ/pbyyr8BjLDk3VsKmMEhIEWP0f2ydX+MX6K80Y5/7i5zYnvkN1s9l2kEcDqokTo4GwRWyEoasIbYMvjV53LXhax3fcjdz69hd2w2RjN1vVq+JUhkttlxvXgMbxDzwX/zXTiTM5WBgsC56Fbpfl4kAVGFYxwtyOnPT/MesJE2bc/XC1fddlzi0pwLFcKdZSzNorUZpiXvtsgfn4lai95Chsv+wbRMptyN3GePA6GPS79FQmRmmHCIfk9CbOoQgUm9vmEkMtK46Ca2obfD8u31IyLpQ47ACubCvM7yNmceXkA9PYUwqVuVhjTIXSj29VxgQJ4G5jP0YFslMHXeRUiwWjW4q1FHt7BlsjtDdAS4XZdX+ulaAW9DrzvZ1dLrBJ+5xa4Ys9pgR6U5lZ2FwFy+5On6hXpZRmeKxkn6FqkbrjGNNJWafjwtFlAby/cR0/Uhh3ylxyvsFchfrih1I84ZNS7hebuz+vGHN1tXIvTxxpHbkPHWNW3tI6wRUhivbs0R5JiPj9Uq0PPdYwDM9O4lUSnhSLJUS3/vf+fKnWHqBQkPCahbtb/Ra3vGvTa1PBY8Dvn5cbOCZN1H/kGimmuVow+/P5/HcOQ4sJHyyJpGF43UvXXX6HGLdN8eKlxxkPRdcNn90Elak3WQwx6USU9i8V2yW+ofTqW2GO9evHdwwd9Fdhqhn+5dL/DmXxnjS+q4tgGovEoLB5QX2GmKU+C/6+dx3dRcdxcUFzXjO4eeylRhyeE/J49JpbzLM8yBgDeKJehul6ss5OvThHTDwX76GoioPFNsTIlxjE9xhRiLTFBl5n17zJz3IeE9S16bWp4CmRnRk7+KnMmso4HcGxymDs9LHKz2UIYsxK7Fka/kE3mgqX4B3NGXXdUdeItUudU+64/vces5yEts6DBmaWHhNw6vxTNveUnzJ/7j/ODChrQWjkOo9RnIO0YJQXTs45imsnpkz1/eAK35F2leqcQnk0XCAhmNqXO2fAetE/X/GclSz/bPGs3xI36SD3VSoGOB11umzJmP+vxNpr0uueBA/LPeUdooV1VJMxIoeBwpdsm5NS63Ttlgh0MtCUmjuQX5wzqRC+W7j+UubmXUW9+uyJSgE0JLgXKXNbMkw48wXQb9L4EJNLuf2EWH7jNGMas7+WSUsHSz7knE/O3pqEumHPA2z9+UlOaQJ3rRiN/fiWdBKe+qPQ/nhjsxWXmvSKjLW/dzy5B7/G9/OBWBaeQsYmueNqzPvIY8wPD+GAK3FPpr0ol9Uaw9TGLXXJbd3GWF5lslPPisrY809unHHWQMesBLo0+GPXqY/m37P6G12I2tLXLs+u+/c1dW4QY7clzOcMysXwfBqG4Yvul2N5YnM0/56PpxVAdo80Lc1r5wvZ0Pnfkl5netvZ5YIjM8TJx6yX4MepTqUO3ZHxKTV3izMFU2xPjnCBohRe0o8gsDcEdnudem9AyXwEAUFAEBAEyiAggqcMjtKLICAICAKCABEBETxEoKSZICAICAKCQBkERPCUwVF6EQQEAUFAECAiIIKHCJQ0EwQEAUFAECiDgAieMjhKL4KAICAICAJEBETwEIGSZoKAICAICAJlEBDBUwZH6UUQEAQEAUGAiIAIHiJQ0kwQEAQEAUGgDAIieMrgKL0IAoKAICAIEBEoKnh0+nGlhp/rscvlaSKuS5oJAoKAICAINEbA5n3zp6FzzU21kvKThGJrpJRCbYyPDC8ICAKCgCBQGAGo1IQ3hAiewphLd4KAICAI/NEI5Aqe/wPfddpp8ftmfAAAAABJRU5ErkJggg==;" vertex="1" parent="1">
          <mxGeometry x="840.25" y="805" width="207" height="30" as="geometry" />
        </mxCell>
        <mxCell id="JddVZA8G2uNzgZXX8My_-152" value="" style="rounded=1;whiteSpace=wrap;html=1;fillColor=#d5e8d4;strokeColor=#82b366;" vertex="1" parent="1">
          <mxGeometry x="1170" y="789.89" width="226" height="60" as="geometry" />
        </mxCell>
        <mxCell id="JddVZA8G2uNzgZXX8My_-153" value="" style="rounded=1;whiteSpace=wrap;html=1;fillColor=#f8cecc;strokeColor=#b85450;" vertex="1" parent="1">
          <mxGeometry x="1170" y="704.89" width="226" height="60" as="geometry" />
        </mxCell>
        <mxCell id="JddVZA8G2uNzgZXX8My_-154" value="" style="shape=image;verticalLabelPosition=bottom;labelBackgroundColor=default;verticalAlign=top;aspect=fixed;imageAspect=0;image=data:image/png,iVBORw0KGgoAAAANSUhEUgAAAZsAAAA8CAYAAACw9hcaAAAAAXNSR0IArs4c6QAAFFJJREFUeF7tXV123LYOliabsH0f6q6kvitps5I0K2m6kjgr6dyH2t5ERvdQFEckCJAAQf3N0A/tORmJIj6C+ACQBPsu8ff4+PRP13XP1CPDcPn14+PjnGqj/dYQaAg0BBoCx0fg4eHhue9PhhOov/P7+9uv1I99I5vjK0GToCHQEGgILI3AKmTT9923y6X/AYX5+Pj325ICGuG8yOrMjaIeHh5ePj4+Xpfs29HbdtiW4rRnjEv0xrzD1a+jj33rf0OgFIGHh//8Ad/t+8vvXde/dF2nj2yGof+8NLE4AayhOP3e992fBCDnYei+dd3lb8w4PD4+fjeCtxTfjJ7D1PxL3w8vk2L48J67bjj3fX82TkVurPeG8awzqGxGznPfd6+UbIY4+/703ThVb29vn0snYnuvIXCPCDw8PH2Z7PUxyMYYjNPp9GUYuog5U6Tz8fH21f3+9PT0l3v//f0tmSKEbT4+Pg0KRSHWrfgGXPFt8tXJiP6VWnfDXraR7OUrRuYajJeR8aro3ObPw3D5r5PNTw2s6VRxO9ueawjsHYFDkY3X2cDbthHM6I//z/z3dBp+g2Q0DN2fhnBMeNf3gzGsndRD9d9dcGAn73qMyBZN8U14GtKmNnd4kUx3Pp3scwDbMYKkyFyKcW1cLUn0f4EobZRrGPrXrrv86LpPz1Znhmf4nCEcqyun7w6niYQWHZvaOLT2GgJbI3AIsqEMxjBcPlMG2aZMPr04YnHk4htKqSG0EUD/ZSI2Z6DJXXjT4E7RzOBFNT3r3VTkoFEcgrRdk8n0o3nIw9Zg4QhoJHM/oikhdI1c8F3MOXBOB/UdJHIeicknIWk0XFOm1lZD4KgI7J5sMKLJGQx/MFI7I2qkQ6b2r16v/22OUXKGG4vGHFn56Rytorl1lLid4XUYBkPe7C3qQPbIKNsoaL11vHDc5wjWw5F0TmKdiaKh8RGpg6Idr6O/bxeKh1+otdOjy9f6z0dg92QDjaOEaBwMVPqr1uYAbB2nxCgliDG5oMYZbiI6NK+atQmWEca+k9vmWAtjjozzeNuFfO8dMX6UXCXjKun7LT0LI+gtdOGW8Dy6LLsmmzjdM7y+v7+POXTJH2E4xAYIN7aRBz0+VurR08RYHiG4XVRYNFOCJ2yHjpa6jhPdScYy9yw21qVrLFi6sXRcc/2+td/xcbDrprcma5OHh8BuyQYzkBrDBQ1iLQ8VrlE42Eu9uNrRDbU+UxIhUipFkVktjHmqbJ+qEQl7EVJ0Erp0XCUy3MKzOFGPu/vaxopbGOACGXZLNrXJIQ7pyyMFH2eqVI+OGPHyP1IPnY6S6nuYWHSzdhSAyasZB0tewVb3KtFwwTw93CuYPmjH4nAgtA4HCOySbDBPWWu4YJu1PNRa6zUcApNEI0unzuA8IjzZVWvi1XZQYKS0RaR2RHu1ZNr6iHi0PlsEdkk2WGpKSw5wAtTwspZYX0G86auuSowdHnGVrXlxJssSUQXnu4CkgwO3Eryob/kEpnV4pPIc9XncWawfTR8Vn3vt9y7JBjOUWnLwyaaGEQJMHeiPhhhTB0e5xo5asJem4SSTAhqYWhhz+4CfqdGnSn3HRzOuXDlu4Tk8ym1kcwtjq5Fhr2QTlYSpQDbX7bBco50DltocoOlrmmzyVzWssSEAwwVGjrUwzo2B+30pA+cTt2ZcuXLcwnNtveYWRrG+DIchG61X7hvxWh7qMus1tkBoPNT5FBi9TpOuslpDrWKyyRNjje+6NnDiz2OW64OLsteO1HL92vPvyLxoGyv2PGAr9W13ZLPUwrYrQ8KpVszBfon1mgRZdByypdNn+nRSDpMl1sRy3/R/Xyp1aCaI/c7lR9u2mx+Rdr4mj9G9PrFHsiFveduTd7lEVQIqLdd1eQ89RVRrpH/8728xTjR2pkJC/zV3HcJaBsCWJzJ/n15sGRdbPLbrfr5KSgWZN+YrIWwbXBmnPpgrOn6z3/9p7oCqcv5lqXQmNT6hLOapcnnm0jqyNuA41MQzL/enZ6BH1cZy1jFT/9DoihbfHV4xkCnj7wpFbupp1l6voQ9z5onGqADt2a+zMOuTzdrrNXZSpK8QcBf7cQ1ybfJBCnzCT7hq3+iVDfDhVAV07JS+M4i5+584J/y90kdUEVrs36Oae6VOAEMWA1dUjTxluP2q3t5zwTUT/vvW2bxeBoY1rSoDRff16Yupvp65YkXlYNXG18myu8gmZTiRAbhedrWGN+F/H9sxV+rRa1OH6WKj66ydzB5mx74ptaZBz9VoA9/awzUOU+HS0Vv01+hIA+dkAI6FMeKBcYfnsQj9Qgun5m5R5BA7d1ylTknGCDp5/Ft7TeGoZImruJjs2Hsfz4g0EEfTJ9LkWHCxiZ0Lc1XGfM0F1GdYmdz8LjmXN0cx5IWUKL6Sb+ySbFIpocxgrWJEqP5JJ880wLBo5CiiZBATKaTVa5OVTqYa76VqtCXav95tw/Hquf0kCp+iUTliRMkFdT+icet4iD5eDWQYAY2VvU3kdE2ZAWM7ipdzmqY2scsLE/ciQeSGs6QuHz7njDz9Kxw3KFNqLs06Y0mJGrf397dfwW9o5IREnOoIh0pNGkR92Z3D1/cndxEi+9vUdRzYWmXpztNdko0BMWVAORN+qbtgLEFQxTd5UYRnXKKLy0r6TaUdc0aDg+ORnhFGN5ho7NRLChe8HxwPe77WgNoQ4sbad2yoRXnvau+k0cENDU+XfRyWWq8paTfEBMee2qFKfW9OQabHMnZ6eKlwTKcQByo5liVVNIhD9Mk6diH58+TbLdkQHobU9mVTEtIGU0RojDvWnr0B0v1h25rHWEZ8n0yK+Gx0dH+FD3NrN5zxlkSVsD3McHNJH4taQmM+Ozlw00dinTPr3eIn/uW6g2Gv3ZyC19zj9c17F40U3e9wfNI38uYNK5ZmM5ERR/fcM6kIi2qHiOwTUTJ+iy3nyhHg4LC2tu+WbKwhNTt3yBwid+yqEw5VfJPbIf85Y9g0F0u1FFqM+mQsrreIlo6LNK1GpXq46aKwWkG8XT115ociG86ZslrlZWqfr9EQjRlzvz+Q9MINLWEUR5NNnmgoZ5QzDr6elsguPfdX8o2wj65ILQ+XXZONz/Kn0+lLZgcGaVO4niXXKOETe3jt+x695XKObNCoRkWGFNnUlpmLzV6emx2V4QU/JJvtqWhcqBSexMj4Tgz23pxCCz37RFqXVdK/RqkfTH6NDuIRKs+owYgf64c/byARaXeaams74iSQ3lVKryPj75V8g4qyueN8CLLxScfuFDn95uWjs1ZDexslBXIYoeRz3IlITWTYgHfxD9yNZH7nKgAHvKM/Y3H/9JK4ehsVUYJhzcmL7aDyCSH20rFt3xLDHL8v3exSsq5C6VUd4p4rcWCyZKLEaE5JUtKa2o6l0bFknZByTrgpT5ji42JzKLKByikxIpo8vP9drdeTIhxpXhemCkLyW75qwBFJaN6izXJYmLno6BrqERpuVAN1Cpu87hmMAIl0CPt6B60nbiMJjLDyDhimQ1h/uMQfr3XgpItttHB9iTMXfOLG5yT/fYyouMTvnf0x53C+UWlgTF9k+J4MGU9/fNkOTTZhxJFb3+GDkjKitc7XYKk4rlKByCYqWioxdEckjJp9zu1g4xBGyeSldiRSOuBIEjvpr10r0XjitIEur8cnnRuhA2HWQK9/5OYIWy0grtqgTSnW2iDi6zg34uDMi5KdtLRTL7OpN0M2Dmh6N5IMGGrgpBOBbgctuMnypGdZ8S3Ya5KNU8SSciucybHGM/BcRhgh5nc+cdfw7NpdDw4d5g1jCgONcaOIguvlzno4Hjj0vN1RA5OHKSmZKGMId3pm1kFF59T8vmijPPx9XpZBusBfMjdSa7yh3rsdtNQ6Mx050WO7w3I1JSCG3r7ekGN9KPEKGMAHj0i8mK3roZmOU9tHtWO49vulB3XT22SzUrhDnn9L66KlHA5JhKz15E0/aq7XFB7MNd0YN+ek0kfZ0bA72KL1GsmcxNNg+XTiEoV9MXkVO2nV+O4isjGdMPV+3t7ePnMUIvcMrrBlnlbO6zG/S5TRtUd5GJy0TdqjtL+W9CmHK/zdT0FJDJz0OzjxP7ycTqff61Xxxrzz/Fkljqd4uVhDaP9kRR5zWGk9ce16D002+YiQMIZYWnisDGKeD7Ec/+WHIZpSsoZ9gNGFNMorfV+7FpzTE/c7sUWewLeurm5ONkvcM4N5qVKl4XoFpe0uTDaidBxXUeFzqe2jpW1y31vinpkSr7RkvYYrI+c5zHhIHA3t+6aP2jWjnPO0liNDlWzhnrfSRIlrXONeMzPD0c3YOd04jbaEwdIqDQVkrfUaYoKOn5UYitTitqSdEsXxZSgl3NLv+t+uaYhKUii1NoyUYKFdr9G+b6Oamus1ul19JRj675SUbfHf10SJa6zXaLc8a/HdPLLJlZQoEZDYhsk64EZ9T3twzm+35lpL4tIw9tbXMoznzQncffYl38HeCaNh3uIr59slKRDNVlVOn1LPaDxp067WuFqyiTeplB4z2NoYljgbIdm4E/Xzv3KdvpqOrNCGrZIFsbqycWQzg6xfU3EgY5OIO+jUQNXMqSYWlcUDT+2+W5IAfG92i6gmLOtStjYQh/ixV82JmrYkG/16Dc84TluLO2xdpNSxM23C9ignTDt3uaRe4my4tiWkC2WvcYiVIyNud+rZ3VwfNiUbILzY0FLCQQNQwyDWTJfQ9czkA0+n0uRt5ZTF/e5HU5INDdz2c8+FZV3qRDbYROQYOU3qJCdn7neNJ85NoXnPEcUsZbu3fH1F6pVV20Kdwy52NuIITWI3uHpA7d7EI5v8LjaJnEutZXP7sDHZhKeOOZM7JxgGaI12cWUouwWT2n4oUe4wfF9mqzeGNSAaVWoyN5YJZ+K6Y6k0ZQPbhsaC227Nk/Ozlxx7/ZxITKI/3KgoVbmAcHSSTiO8PyYeB0heeqcJi6LgdzXnY0xb3KoDVOUCjKy0dosTQXH1vHSu+u9tSjbxBNenRKAh56RCckDWXK/BFdP2IGUsUifIqehGYnxyGJjfwxL4ZUTL+U7qGWQs1BGxps1a5fk9ohkv08sZAe16DXcXWqqsiyR1ZPVn3kxARcTY/S0lZZwcnlN7z1NaGS2UO83J4vM1XBz85zjFPzVk4/QS6lHs6JaTuVca6JkzRhuTDcwZlwsOjaFVNl17TmHrrtfg5zlyZOMmIWWEll67KbksSUss2PulawRUXzCilqx3ad8PPb85lZNzFLiRCY4hL2XkY40ZPulhzlxUY+dw1LdiZ0IShWvWa7hjkToAjRNWmfOdmqvImBXhW1KMczOyoaOFMo+5tofpT9Ka6zWp7co0keR3fsUFCK8SnIeh//rx8S96sRuHEEIFrUPgnO9izxC776pMmBzh04QFDaQcI2AEsvLUXq8hKiOP6UqK+CQG0jPISdkwPZaQ/xxBzbee5oibu35FjT8nBQbOE0bpZ1xuuS0EdjDCuoZzFBMNb910d2RjrwOQ1d2p7e36SlVzMR+E9i9QealJMRsWztXCp+/IlQNiTEsmbSmBSN4jTkCbJkTXNOD10OQk4aWHAty5BnIyDu7OeHY0rvHECccs2CrPOZLAJZsw/Zr31pH+ZcnX6RC0BZw0utZ+xGQT6hF39yZCBNlbVme5o1s3Ezd0ljlHNpUfXmbJ1XOQeUqOZ58yCM4YcgaWSk0ZQwsuR8saSMqblwDgDdZL3/fmdkfjy7lrnL3rnFEEphzwcM0Fc25llBQLzXlEsFepopJcIkeUiq30EuKQPhsbt+EVFLYcy25cLhdTa2wsb4Lhg9/+WkY0s/7E6R/KafLw/cN3DHLrNIlvdZK5l/JupemR3BppmMriecDAMDmxSWcCM4KSO6y0RyVSqT+AdZY0sTRXKjNhiNne7zVXu87pEWY38+vF0Y3JIuduU7IBtxKOYSVhhM9dN5zdLZimNpKpo0bc2ikGgCI/qSF0z3MW9RIpr2u1WjiBpMYkc532SI6w3hSO6/A6DMPnWrWnSnG1yuobdEsOCXKN6j1RF+7lJie3z0Rfrv1IVCoWkTl3jSDVb8xAGn3w5xXHacPnrHECRg27Ru+ctmLHILojJ9DbqYo2zBBknVT4He1RCcp4g/5liWZ2JrDL8LrJkTL/N7fPhvhO77L1iCJo39bWwheRa73IJrz/O/R24rQCa6qLFQy2Ok3gKLXF+Po1+snlhv22zGBzr7qWtAu/0fdz7pohi/8IW3GF7RY/TuX9iYnD+E59IhWMa3HFZ0gUJWSZwUw09hPhBFHaDP6I8Vcq0swNUiZSB/oqS7+7l2vsiuU4kDlZC+dusR5ZBw4lNqyrNdd+1yQb66HSC4/sa3zVJCNRgCWezRinKvLNhsV4ROj9FE40leIugY/f5uSBmhswTaQVpcmYcq4io+2L+bPXUc/ViutUKTaE03XDL+YL3EKR2PjYfvp9vPxQEMOY0jERspW3vC3Y1wlP09fnGc86VYmd3thvjilYcot0Ssf9Prqx0bRnyWDUIyD32M/icUrpgen3PH518HXf22SDgAOQq9Qz4DNM3HeXNoA1258NVGdKeaBrDtrv+d/w2qpWol3bv9xk5hqCI8u5JIat7YbAVghsQjZbCdu+2xBoCDQEGgLbINDIZhvc21cbAg2BhsBdIdDI5q6GuwnbEGgINAS2QaCRzTa4t682BBoCDYG7QqCRzV0NdxO2IdAQaAhsg0Ajm21wb19tCDQEGgJ3hUAjm7sa7iZsQ6Ah0BDYBoFGNtvg3r7aEGgINATuCoFGNnc13E3YhkBDoCGwDQKNbLbBvX21IdAQaAjcFQJVycbUOrtc+h8xgj9fuWVG7gr9JmxDoCHQELgxBFy9PSiWqWk3VRXXF+KkMKPuG78xjJs4DYGGQEPg7hHA7ksCoDSyuXstaQA0BBoCDQElAlqy+T/2uel4ixyY5wAAAABJRU5ErkJggg==;" vertex="1" parent="1">
          <mxGeometry x="1180.25" y="719.89" width="205.5" height="30" as="geometry" />
        </mxCell>
        <mxCell id="JddVZA8G2uNzgZXX8My_-155" value="" style="shape=image;verticalLabelPosition=bottom;labelBackgroundColor=default;verticalAlign=top;aspect=fixed;imageAspect=0;image=data:image/png,iVBORw0KGgoAAAANSUhEUgAAAZ4AAAA8CAYAAABW39xeAAAAAXNSR0IArs4c6QAAEylJREFUeF7tXV123KgSlpRN2J6HOCuJZyVJVuJkJeOsJM5Kbt+H6/YmprkHIVoIVUEVIJA65Yc5c9KIn4+ifqGq7wJ/9/cP/+m67hFrotTl0/v7+ynUh/wmCAgCgoAgcFsI3N3dPfX98CuwqtP5/PYJ+70XwXNbBCGrEQQEAUFgawSqCJ6+714ul/63v5j39/+9bL3AI/Z/d3d3tRJTLEL9fcp3R8RqyzlP+2D34kTB1H7z/v7+uuXcpG9B4MgImHPy4clfQ99fvnRdr/893+JRqvv+/v7248hAbTV3swHDF91/36unCXR3uNEV2ffdqxbeMWFtNQnBPG3HNH5dN3zu++470sNJqe4Fo+f7+/tfeg/P57egNyBtdvKVIHDbCNzdPTxPZ6+N4Lm7++vrMKjPe4D5culOpQWnFjjDMDwr1X1lrvGk1OUbpFG75qtS/beQkHp4ePiHOe5mzS+Xyw+KNbHZBLqu0/vR9/0/gODHhl0JICt0uk69ns/nv7ecr/QtCNwiAs0Fz/39g9oRsEHpy5mnEQ79c4DBnYx1010vXQxD96iUenS+WTE932caurjhbC5n6pu1jQnJzQaeBI62OAELZ8TYjN3/V/9XK0K+omAty1nojNbpy9vb27ct5y19CwK3iEBTwaOtnb5Xu9HISzCSSTDoNUG3/CYmd/kZ0vyNVj7eBBn7sPMCAnVBQRm7bViboFsJHjjAGbZWrGvUEVSnrlMnV5FotZ7a+ybjCQKlEWgqeDDGqLVLs9DL6qKCBQCzJswFh8tPHbQCwNKBrkdIo3UZfCrIAQsjGC+AxvNddHpdvhYeEpQBoe5o+CF84SuQZm9GfP2/SdB+eHQCh4s2La7VQ0KHExcLWY0t1pNKm3v4TmNprMp/X1u7XPeAx588h2aCJ5ch4EKL9mbItyo0EeRosK4LxiUoDpPzCTEWjwjNV8d2PEF1Uqr/Ebu0oOeAXYHkWIQQw64diJ/2WL8xu/4pdfmbexMN29va6zkqo1rvg8TGjrqXpebdTPD4jJHLELDYEIcZAPESNlMKCAf0cgBn80LuyJDGvRTMvIOOjckVzB7DLhY/o+LnC4xUJQASYBwhTJ3vrbbbgxJyq9gedV3NBI/LGLlCB2OMKczAFWBc1wn+OIrH6EPEAzE92x4Tsj4+HGGs+waspXFIPj5zDC9lb3IO1ZrZ5e3JWoiFbxPmzP3WvgWUxOpKyK1hevT1NBE8S2bKZwilNHK9ea4A5DDoGkLHEhckCEKM3G3PtVJ8TFwC5+Dju+xqCx6f2aXg4K59LXhoLt2jM4jc+cOKE//M585Dvt8XAo0Ez6wJc62dkhr5ksnSD0PACtlEk4PjYbjGPQtT+pqWTHZ9xT1FcHDeG5U8FpBiwrXW/Pn4FhRXCJdc35H6gtxsqS7PI61b5hpGoIng2YIx6mWmMAM7Fw5jxS8S8APXFAJFguRg4lWX6aZo+SWtyeVc6lkI0MWTFNpw98ZdC4dWKPt7y22gs5KibN4yRn/i2loJnvHRaEnGmMoMrEuGqoVh12u3PEyQ4MEYqetmS2G2peI7xtW2sGyrZShfxxTSLD9M8KTQ7Z/IXCaPgv9AfBOvwJ+K71HXXV3wuMwohTGW1cjHh5rjdVsKMylxzTiVUFwtPiRkUyw4z80GlrhI2atcIZiCVcpjUco4rYQoZW57bSPxnb3uTPt5VRc81vROtVBaaeSh22W58QMKGSxvAcLxnWVMJc3tB11Tz92r1O8puKxjMWA2DH21XV+VT64J5Vq6KUI4ZS1H/0biO0ffwe3m30DwmMB1qmuqxPsdCyfH+sIEXi2m6l0/j8Z3UphjSWtycrOM1lMtjIx775r1dnFqcudgM0lQModvd1yP1TMseNIUomOtXGYbQ6Cq4LGPLZXqX1OyQJd8vzPHIC5flBp+xl70YwKvhrXjMnH9/+H3O3o9SmeBZteJKWlN6nma/pROfJo0nxjxQr+HCk9R43gp46Z8M9cBGqbs7GM6GV0PiLV3c80T9XFKSUPuYy7XYcbW6+COj6299vudJZ4m4Ws6nqaECTfFD4Anqb5TCv3MCvRY12tMB9Z1Mw2U3EvDL+04efTqKYhtyiJwAC+tkVPHxhhyzbT49hDnau6hNWNpiFKsJyq2pdtRKh6abNSX36UYLGcNQPJR6HNybr9Q3BErQ2G0TbAmlJ0LOevGdCafEQzARLnrtuqklNIlQNiuUDqe1HRRsKtWZ5LHMpHH8JzyRxYvCRIbdxSbU+7KVFqn44vXroIVxMb1eDiHtrRGTh0bt3bqvV43hcvKaaPQ2kvGd6jYlm4H5eALjDGVpogX3sudZ+QA28zXk+ZqRotZaJ7QsUzbZfaL2BaS3mmVdduulXLhplBZE/ZNNz+Jrrc/4JoS8PQF52KeTDzJwjxGaxHlCqEDmuBdWlFgGRHdJIle3XVVdbXFAI393kIjD+VKO5IlEMO2lTUZm1fK7xnlNiZBVLZgHRZkh6wuf+5YLBTK/gExQqSkBmhRAfOMXsqYziS0TZC1MzGtZXNq8tqZKa7jeFPW9IUVCwh7YnFFU0kZfj93/e1pKl0yrsmvVosoGlE8Q/SO5YXE1/7hySk7QxZ8W9Crv67DCJ5WV5kxYbelyyuF2eZ+08qazJ039D3T6oG6ILu6YvMHHlBGGcDy6jZcTt7Zr4UWDo/X/7AMKFxKY1kHSq8tlc6Bc8O2atbMCqweG8VzmUIqhufyzReMZ/di6zSFrKiQ4IrRTe7aISEVs/j0mFvR64EFD1w0juIO4G6yY266Ws2imy3HTZ1vznctrMmc+ca+LSB8Rk32fH77FBsLF36rEtuk/iBrxh9jfvi8dPeG6wfBTNfte814+I9vt3i/k9On+y0mSGc8l7fu8Pgu7e3f+lzVwRN2geJjw9YUba4Uej2s4GmhkaeWJEhhVK2/uYX4DlFL5EJNEhZupzCTpD8hiDHK0DMA/JzEhY5eA1THiSt84Vx5tPEDFuyirpJuR71RGkt3FHqjhafHosV3cy0/TIEKufm5t38L0OtVQadayIdxtbXQyAPaI5sZcbldzfa3FN+BhE/XaV/35YtbtpqDL9e6hfOT0RlvjFGGHmEj54RMryXy3JV+v5Ob7y2WrT2U7QPGk2YJGNfVKuEueS8Q11f0DSQ3rdfW9AorEwe41dYqvtP60SiHOea0bWFN5sw39VsT8P3wNJU+17cEsQC4PwSZWWBCnHoRxddwocsFmJsNYXRRRrV0teUxymkOftolMn4+8DBt0hk/UOxx9fgad1vOKbXceVEtLWg/qBYBYn2SYm6ctFEIvZL3y7eWqIkBDmHxtNLI8fLadO01lUnW/K6FNVlzfdhYniD6GpoT9UBBWFItJp9hQEzKS4u0YKLQOeEwOsjlwvle45cTi4Hwh1zAqXhCwXUXT185gF2GNBebwWIdl6biGXB/kZLtzm98xlgU+mB/a3rFz94BLJ5WGvlW73csw5s3xbwYp/99eIxlWqD3BboDSJoVZ4y9t41dRqDcCMIVJLwkhL12Owzdo1KdI/xgrd7SDrT/0DmhMulcRmn3t2R8B3MZheMb2qrV70+WD2Qxhs/Hk17eI0dwIbElsiVCOW816PXQgqeVRr5VmhxsPRRisW2oGnisT5z4bsuqi+FgtXXDtLrvfnuKpooxC/3qfemqUY9d1y8eizq/J1/lhrVXOqPMFVwGQ+iNTVp+NixexceT93jS7kVuvAuJTUUtFiy0wFEiKPTekl5372prFd/BTF29oRwfL9V9QCEUtw01ZhDrN2BN6mzOrJxhsbGO8Du27zTBs67cSlzz+BKckjMw1F9uHaJcRqvnBjGzVFrNyIpQJCOFPz6FBtz9geZPwSJwOSAqtIj0NjbLwTeXXg8geOq/33E0Hr+I1fhTruDRVsaaQNTHvh9dLWDA27xO1n9piSQxgmxlTXIOSKitdVXpNimJZ2HF4P6XfwMuxnQCV+9HJqjHuVx0qhH7V3Yfc+IJeka535s+wGB8knsodCXYIlgbT47FkYNnjTOJ06t67ft+pNNt8d15jKdVfGfSCMCiaLmCB2Ok3Pv3JZj30d/vbFFsLqWOTIq/vMT+2T7gOdMD4WXcbHerB9eU2BiEQ0p8pySeMB65bkuay7HGmdwRve4zO3UN6Y9bA2vNd7J4NnFD4UKWzkA4h+8W4ju5FVepTC+m7bZmlKnxBMe6XylZXAWrZHwn9xo15xzAVu/DCg+Km8zBc+UtoXyP32YrywNa0+vuXW01pD9ugcBFxUoF9v1xawvZW4jvbFEuAsIlxjR2wCiTGN3kIltZKjHXItVFGcMNO3sQnilzShVAOfGdHDdbLUukNb3uWvC0er8zuy/WrgNj8Wxz46u2kK0t6FKZAMU1WXJPfFwoDA/SICnflcAkh9Hp8aluNhNPG0tzrK7/p8Z3sD5zX9Pn4Jp7JRxx0628JNDasctUqQKco1TXolej7Ow4xtMyvjNpgo99P6xyROUkj6QwUbfNlsRQW9DlMIO4S4z+mj02Dx+XmJsNsxpKCsPQnHPjO9TbbKFUPRDDjK3fnm/4YSd0Lbusu4ljbXG8HNTbbFDGBMzVVl7wlIvHxc5T5OzuL8azB408YPoWjfPUdnu1uMiQQqChb5ZacRnBs2bitH4hhhFjvKXwyInvULMVeBkTAO0drpGD3TR0x4UEOyzI8gSPHpNS5ZQqiGGGSstW4J4/N5ZWOvOD471ZrL0lve7e4tmDRo6/56ExJCpzqS1ka19koOLAaefRR1aRLczCpWq6VAZOXZ/pbyyr8BjLDk3VsKmMEhIEWP0f2ydX+MX6K80Y5/7i5zYnvkN1s9l2kEcDqokTo4GwRWyEoasIbYMvjV53LXhax3fcjdz69hd2w2RjN1vVq+JUhkttlxvXgMbxDzwX/zXTiTM5WBgsC56Fbpfl4kAVGFYxwtyOnPT/MesJE2bc/XC1fddlzi0pwLFcKdZSzNorUZpiXvtsgfn4lai95Chsv+wbRMptyN3GePA6GPS79FQmRmmHCIfk9CbOoQgUm9vmEkMtK46Ca2obfD8u31IyLpQ47ACubCvM7yNmceXkA9PYUwqVuVhjTIXSj29VxgQJ4G5jP0YFslMHXeRUiwWjW4q1FHt7BlsjtDdAS4XZdX+ulaAW9DrzvZ1dLrBJ+5xa4Ys9pgR6U5lZ2FwFy+5On6hXpZRmeKxkn6FqkbrjGNNJWafjwtFlAby/cR0/Uhh3ylxyvsFchfrih1I84ZNS7hebuz+vGHN1tXIvTxxpHbkPHWNW3tI6wRUhivbs0R5JiPj9Uq0PPdYwDM9O4lUSnhSLJUS3/vf+fKnWHqBQkPCahbtb/Ra3vGvTa1PBY8Dvn5cbOCZN1H/kGimmuVow+/P5/HcOQ4sJHyyJpGF43UvXXX6HGLdN8eKlxxkPRdcNn90Elak3WQwx6USU9i8V2yW+ofTqW2GO9evHdwwd9Fdhqhn+5dL/DmXxnjS+q4tgGovEoLB5QX2GmKU+C/6+dx3dRcdxcUFzXjO4eeylRhyeE/J49JpbzLM8yBgDeKJehul6ss5OvThHTDwX76GoioPFNsTIlxjE9xhRiLTFBl5n17zJz3IeE9S16bWp4CmRnRk7+KnMmso4HcGxymDs9LHKz2UIYsxK7Fka/kE3mgqX4B3NGXXdUdeItUudU+64/vces5yEts6DBmaWHhNw6vxTNveUnzJ/7j/ODChrQWjkOo9RnIO0YJQXTs45imsnpkz1/eAK35F2leqcQnk0XCAhmNqXO2fAetE/X/GclSz/bPGs3xI36SD3VSoGOB11umzJmP+vxNpr0uueBA/LPeUdooV1VJMxIoeBwpdsm5NS63Ttlgh0MtCUmjuQX5wzqRC+W7j+UubmXUW9+uyJSgE0JLgXKXNbMkw48wXQb9L4EJNLuf2EWH7jNGMas7+WSUsHSz7knE/O3pqEumHPA2z9+UlOaQJ3rRiN/fiWdBKe+qPQ/nhjsxWXmvSKjLW/dzy5B7/G9/OBWBaeQsYmueNqzPvIY8wPD+GAK3FPpr0ol9Uaw9TGLXXJbd3GWF5lslPPisrY809unHHWQMesBLo0+GPXqY/m37P6G12I2tLXLs+u+/c1dW4QY7clzOcMysXwfBqG4Yvul2N5YnM0/56PpxVAdo80Lc1r5wvZ0Pnfkl5netvZ5YIjM8TJx6yX4MepTqUO3ZHxKTV3izMFU2xPjnCBohRe0o8gsDcEdnudem9AyXwEAUFAEBAEyiAggqcMjtKLICAICAKCABEBETxEoKSZICAICAKCQBkERPCUwVF6EQQEAUFAECAiIIKHCJQ0EwQEAUFAECiDgAieMjhKL4KAICAICAJEBETwEIGSZoKAICAICAJlEBDBUwZH6UUQEAQEAUGAiIAIHiJQ0kwQEAQEAUGgDAIieMrgKL0IAoKAICAIEBEoKnh0+nGlhp/rscvlaSKuS5oJAoKAICAINEbA5n3zp6FzzU21kvKThGJrpJRCbYyPDC8ICAKCgCBQGAGo1IQ3hAiewphLd4KAICAI/NEI5Aqe/wPfddpp8ftmfAAAAABJRU5ErkJggg==;" vertex="1" parent="1">
          <mxGeometry x="1180.25" y="804.89" width="207" height="30" as="geometry" />
        </mxCell>
        <mxCell id="JddVZA8G2uNzgZXX8My_-157" value="" style="rounded=1;whiteSpace=wrap;html=1;fillColor=#CFDEEB;strokeColor=#23445d;" vertex="1" parent="1">
          <mxGeometry x="93" y="960" width="1350" height="80" as="geometry" />
        </mxCell>
        <mxCell id="JddVZA8G2uNzgZXX8My_-158" value="&lt;font style=&quot;font-size: 36px;&quot;&gt;&lt;b&gt;LLMs&lt;/b&gt;&lt;/font&gt;" style="text;strokeColor=none;align=center;fillColor=none;html=1;verticalAlign=middle;whiteSpace=wrap;rounded=0;" vertex="1" parent="1">
          <mxGeometry x="625" y="960" width="286" height="80" as="geometry" />
        </mxCell>
        <mxCell id="JddVZA8G2uNzgZXX8My_-162" value="" style="shape=flexArrow;endArrow=classic;html=1;rounded=0;fillColor=#b0e3e6;strokeColor=#0e8088;endWidth=24.84848484848484;endSize=9.18181818181818;width=18.333333333333336;" edge="1" parent="1">
          <mxGeometry width="50" height="50" relative="1" as="geometry">
            <mxPoint x="579.9999999999999" y="880" as="sourcePoint" />
            <mxPoint x="580" y="960" as="targetPoint" />
          </mxGeometry>
        </mxCell>
        <mxCell id="JddVZA8G2uNzgZXX8My_-163" value="" style="shape=flexArrow;endArrow=classic;html=1;rounded=0;fillColor=#b0e3e6;strokeColor=#0e8088;endWidth=24.84848484848484;endSize=9.18181818181818;width=18.333333333333336;" edge="1" parent="1">
          <mxGeometry width="50" height="50" relative="1" as="geometry">
            <mxPoint x="1290" y="880" as="sourcePoint" />
            <mxPoint x="1290" y="960" as="targetPoint" />
          </mxGeometry>
        </mxCell>
      </root>
    </mxGraphModel>
  </diagram>
</mxfile>
